<svg xmlns="http://www.w3.org/2000/svg" width="24" height="24" viewBox="0 0 24 24">
  <path d="M6.21690481,12 L2.5,12 C2.22385763,12 2,11.7761424 2,11.5 C2,11.2238576 2.22385763,11 2.5,11 L6.5,11 C6.67563143,11 6.83838484,11.0921494 6.92874646,11.2427521 L9.43884157,15.426244 L14.0448168,5.29309853 C14.2188617,4.91019956 14.7591161,4.90019827 14.9472136,5.2763932 L17.809017,11 L21.5,11 C21.7761424,11 22,11.2238576 22,11.5 C22,11.7761424 21.7761424,12 21.5,12 L17.5,12 C17.310614,12 17.1374824,11.8929988 17.0527864,11.7236068 L14.521493,6.66101999 L9.95518324,16.7069015 C9.7884528,17.0737084 9.27855536,17.1027509 9.07125354,16.7572479 L6.21690481,12 Z"/>
</svg>
