<svg xmlns="http://www.w3.org/2000/svg" width="24" height="24" viewBox="0 0 24 24">
  <path d="M18,7 L20.5,7 C20.7761424,7 21,7.22385763 21,7.5 C21,7.77614237 20.7761424,8 20.5,8 L18,8 L18,10.5 C18,10.7761424 17.7761424,11 17.5,11 C17.2238576,11 17,10.7761424 17,10.5 L17,8 L14.5,8 C14.2238576,8 14,7.77614237 14,7.5 C14,7.22385763 14.2238576,7 14.5,7 L17,7 L17,4.5 C17,4.22385763 17.2238576,4 17.5,4 C17.7761424,4 18,4.22385763 18,4.5 L18,7 Z M11.5,7 C11.7761424,7 12,7.22385763 12,7.5 C12,7.77614237 11.7761424,8 11.5,8 L3.5,8 C3.22385763,8 3,7.77614237 3,7.5 C3,7.22385763 3.22385763,7 3.5,7 L11.5,7 Z M14.5,12 C14.7761424,12 15,12.2238576 15,12.5 C15,12.7761424 14.7761424,13 14.5,13 L3.5,13 C3.22385763,13 3,12.7761424 3,12.5 C3,12.2238576 3.22385763,12 3.5,12 L14.5,12 Z M20.5,17 C20.7761424,17 21,17.2238576 21,17.5 C21,17.7761424 20.7761424,18 20.5,18 L3.5,18 C3.22385763,18 3,17.7761424 3,17.5 C3,17.2238576 3.22385763,17 3.5,17 L20.5,17 Z"/>
</svg>
