<svg xmlns="http://www.w3.org/2000/svg" width="24" height="24" viewBox="0 0 24 24">
  <path d="M6,11 C4.00464401,11 3,8.99071198 3,7 C3,5.00928802 4.00464401,3 6,3 C9.18369666,3 11,6.46373745 11,9.48864223 L11,19.5 C11,20.3284271 10.3284271,21 9.5,21 C8.67157288,21 8,20.3284271 8,19.5 L8,11.4886745 C8,11.1076657 7.85740126,10.7509054 7.60936434,10.4788525 C7.18263334,10.822305 6.6417723,11 6,11 Z M9,11.4886745 L9,19.5 C9,19.7761424 9.22385763,20 9.5,20 C9.77614237,20 10,19.7761424 10,19.5 L10,9.48864223 C10,6.94328841 8.45660802,4 6,4 C4.74535599,4 4,5.49071198 4,7 C4,8.50928802 4.74535599,10 6,10 C6.78086003,10 7.25920718,9.64123964 7.52565835,8.84188612 C7.73504185,8.21373562 8.67724079,8.52066774 8.47645719,9.15161975 L8.28862692,9.74186659 C8.73853631,10.20221 9,10.8241255 9,11.4886745 Z M6,8 C5.44771525,8 5,7.55228475 5,7 C5,6.44771525 5.44771525,6 6,6 C6.55228475,6 7,6.44771525 7,7 C7,7.55228475 6.55228475,8 6,8 Z M16,11.4886745 L16,19.5 C16,20.3284271 15.3284271,21 14.5,21 C13.6715729,21 13,20.3284271 13,19.5 L13,9.48864223 C13,6.46373745 14.8163033,3 18,3 C19.995356,3 21,5.00928802 21,7 C21,8.99071198 19.995356,11 18,11 C17.3582277,11 16.8173667,10.822305 16.3906357,10.4788525 C16.1425987,10.7509054 16,11.1076657 16,11.4886745 Z M15.5235428,9.15161975 C15.3227592,8.52066774 16.2649581,8.21373562 16.4743416,8.84188612 C16.7407928,9.64123964 17.21914,10 18,10 C19.254644,10 20,8.50928802 20,7 C20,5.49071198 19.254644,4 18,4 C15.543392,4 14,6.94328841 14,9.48864223 L14,19.5 C14,19.7761424 14.2238576,20 14.5,20 C14.7761424,20 15,19.7761424 15,19.5 L15,11.4886745 C15,10.8241255 15.2614637,10.20221 15.7113731,9.74186659 L15.5235428,9.15161975 Z M18,8 C17.4477153,8 17,7.55228475 17,7 C17,6.44771525 17.4477153,6 18,6 C18.5522847,6 19,6.44771525 19,7 C19,7.55228475 18.5522847,8 18,8 Z"/>
</svg>
