<svg xmlns="http://www.w3.org/2000/svg" width="24" height="24" viewBox="0 0 24 24">
  <path d="M2.5,11 C2.22385763,11 2,10.7761424 2,10.5 C2,10.2238576 2.22385763,10 2.5,10 L3.5,10 C9.29898987,10 14,14.7010101 14,20.5 C14,20.7761424 13.7761424,21 13.5,21 C13.2238576,21 13,20.7761424 13,20.5 C13,15.2532949 8.74670512,11 3.5,11 L2.5,11 Z M2.5,14 C2.22385763,14 2,13.7761424 2,13.5 C2,13.2238576 2.22385763,13 2.5,13 L3.51560977,13 C7.65774539,13 11.0156098,16.3578644 11.0156098,20.5 C11.0156098,20.7761424 10.7917521,21 10.5156098,21 C10.2394674,21 10.0156098,20.7761424 10.0156098,20.5 C10.0156098,16.9101491 7.10546064,14 3.51560977,14 L2.5,14 Z M2.5,17 C2.22385763,17 2,16.7761424 2,16.5 C2,16.2238576 2.22385763,16 2.5,16 L3.46887113,16 C5.9713445,16 8,18.0286555 8,20.5311289 C8,20.8072712 7.77614237,21.0311289 7.5,21.0311289 C7.22385763,21.0311289 7,20.8072712 7,20.5311289 C7,18.5809402 5.41905975,17 3.46887113,17 L2.5,17 Z M3,7.5 C3,7.77614237 2.77614237,8 2.5,8 C2.22385763,8 2,7.77614237 2,7.5 L2,5.5 C2,4.11928813 3.11928813,3 4.5,3 L19.5065778,3 C20.8872897,3 22.0065778,4.11928813 22.0065778,5.5 L22.0065778,18.507546 C22.0065778,19.8882579 20.8872897,21.007546 19.5065778,21.007546 L16.4999943,21.007546 C16.2238519,21.007546 15.9999943,20.7836884 15.9999943,20.507546 C15.9999943,20.2314036 16.2238519,20.007546 16.4999943,20.007546 L19.5065778,20.007546 C20.3350049,20.007546 21.0065778,19.3359731 21.0065778,18.507546 L21.0065778,5.5 C21.0065778,4.67157288 20.3350049,4 19.5065778,4 L4.5,4 C3.67157288,4 3,4.67157288 3,5.5 L3,7.5 Z"/>
</svg>
