<svg xmlns="http://www.w3.org/2000/svg" width="24" height="24" viewBox="0 0 24 24">
  <path d="M16,10.9789252 L16,18.5 C16,19.3284271 15.3284271,20 14.5,20 C13.6715729,20 13,19.3284271 13,18.5 L13,7.5 C13.0000001,5.22385755 14.2238577,4 16.5,4 C17.980602,4 19.4336116,4.72650482 20.8535534,6.14644661 C20.9473216,6.2402148 21,6.36739176 21,6.5 L21,8.5 C21,8.63260824 20.9473216,8.7597852 20.8535534,8.85355339 C19.4336116,10.2734952 17.980602,11 16.5,11 C16.3272467,11 16.1605551,10.9929501 16,10.9789252 Z M14,10.20158 L14,18.5 C14,18.7761424 14.2238576,19 14.5,19 C14.7761424,19 15,18.7761424 15,18.5 L15,10.7756608 C14.6116246,10.6423617 14.2776577,10.4503679 14,10.20158 L14,10.20158 Z M11,7.5 L11,18.5 C11,19.3284271 10.3284271,20 9.5,20 C8.67157288,20 8,19.3284271 8,18.5 L8,10.9789252 C7.83944494,10.9929501 7.67275327,11 7.5,11 C6.01939804,11 4.56638839,10.2734952 3.14644661,8.85355339 C3.05267842,8.7597852 3,8.63260824 3,8.5 L3,6.5 C3,6.36739176 3.05267842,6.2402148 3.14644661,6.14644661 C4.56638839,4.72650482 6.01939804,4 7.5,4 C9.77614237,4 11,5.22385763 11,7.5 L11,7.5 Z M9,10.7756608 L9,18.5 C9,18.7761424 9.22385763,19 9.5,19 C9.77614237,19 10,18.7761424 10,18.5 L10,10.20158 C9.72234226,10.4503679 9.38837543,10.6423617 9,10.7756608 L9,10.7756608 Z M4,8.29009807 C5.19537611,9.43980933 6.3604239,10 7.5,10 C9.22385763,10 10,9.22385763 10,7.5 C10,5.77614237 9.22385763,5 7.5,5 C6.3604239,5 5.19537611,5.56019067 4,6.70990193 L4,8.29009807 Z M6.5,8 C6.22385763,8 6,7.77614237 6,7.5 C6,7.22385763 6.22385763,7 6.5,7 L8.5,7 C8.77614237,7 9,7.22385763 9,7.5 C9,7.77614237 8.77614237,8 8.5,8 L6.5,8 Z M16.5,5 C14.7761424,5 14,5.77614237 14,7.5 C14,9.22385763 14.7761424,10 16.5,10 C17.6395761,10 18.8046239,9.43980933 20,8.29009807 L20,6.70990146 C18.8046239,5.56019067 17.6395761,5 16.5,5 Z M15.5,8 C15.2238576,8 15,7.77614237 15,7.5 C15,7.22385763 15.2238576,7 15.5,7 L17.5,7 C17.7761424,7 18,7.22385763 18,7.5 C18,7.77614237 17.7761424,8 17.5,8 L15.5,8 Z"/>
</svg>
