<svg xmlns="http://www.w3.org/2000/svg" width="24" height="24" viewBox="0 0 24 24">
  <path d="M7,8.5 C7,9.32842712 7.67157288,10 8.5,10 L16.5,10 C17.3284271,10 18,9.32842712 18,8.5 L18,7.5 C18,6.67157288 17.3284271,6 16.5,6 L8.5,6 C7.67157288,6 7,6.67157288 7,7.5 L7,8.5 Z M13,19 L13,20.5 C13,20.7761424 12.7761424,21 12.5,21 C12.2238576,21 12,20.7761424 12,20.5 L12,19 L6.5,19 C5.11928813,19 4,17.8807119 4,16.5 L4,15.5 C4,14.1192881 5.11928813,13 6.5,13 L12,13 L12,11 L8.5,11 C7.11928813,11 6,9.88071187 6,8.5 L6,7.5 C6,6.11928813 7.11928813,5 8.5,5 L12,5 L12,3.5 C12,3.22385763 12.2238576,3 12.5,3 C12.7761424,3 13,3.22385763 13,3.5 L13,5 L16.5,5 C17.8807119,5 19,6.11928813 19,7.5 L19,8.5 C19,9.88071187 17.8807119,11 16.5,11 L13,11 L13,13 L18.5,13 C19.8807119,13 21,14.1192881 21,15.5 L21,16.5 C21,17.8807119 19.8807119,19 18.5,19 L13,19 Z M5,16.5 C5,17.3284271 5.67157288,18 6.5,18 L18.5,18 C19.3284271,18 20,17.3284271 20,16.5 L20,15.5 C20,14.6715729 19.3284271,14 18.5,14 L6.5,14 C5.67157288,14 5,14.6715729 5,15.5 L5,16.5 Z"/>
</svg>
