<svg xmlns="http://www.w3.org/2000/svg" width="24" height="24" viewBox="0 0 24 24">
  <path d="M15.5,7 C14.6715729,7 14,7.67157288 14,8.5 L14,15.5 C14,16.3284271 14.6715729,17 15.5,17 L16.5,17 C17.3284271,17 18,16.3284271 18,15.5 L18,8.5 C18,7.67157288 17.3284271,7 16.5,7 L15.5,7 Z M15.5,6 L16.5,6 C17.8807119,6 19,7.11928813 19,8.5 L19,15.5 C19,16.8807119 17.8807119,18 16.5,18 L15.5,18 C14.1192881,18 13,16.8807119 13,15.5 L13,8.5 C13,7.11928813 14.1192881,6 15.5,6 Z M7.5,6 L8.5,6 C9.88071187,6 11,7.11928813 11,8.5 L11,18.5 C11,19.8807119 9.88071187,21 8.5,21 L7.5,21 C6.11928813,21 5,19.8807119 5,18.5 L5,8.5 C5,7.11928813 6.11928813,6 7.5,6 Z M7.5,7 C6.67157288,7 6,7.67157288 6,8.5 L6,18.5 C6,19.3284271 6.67157288,20 7.5,20 L8.5,20 C9.32842712,20 10,19.3284271 10,18.5 L10,8.5 C10,7.67157288 9.32842712,7 8.5,7 L7.5,7 Z M3.5,4 C3.22385763,4 3,3.77614237 3,3.5 C3,3.22385763 3.22385763,3 3.5,3 L20.5,3 C20.7761424,3 21,3.22385763 21,3.5 C21,3.77614237 20.7761424,4 20.5,4 L3.5,4 Z"/>
</svg>
