<svg xmlns="http://www.w3.org/2000/svg" width="24" height="24" viewBox="0 0 24 24">
  <path d="M11,12 L13,12 L13,8.5 C13,7.11928813 14.1192881,6 15.5,6 L16.5,6 C17.8807119,6 19,7.11928813 19,8.5 L19,12 L20.5,12 C20.7761424,12 21,12.2238576 21,12.5 C21,12.7761424 20.7761424,13 20.5,13 L19,13 L19,16.5 C19,17.8807119 17.8807119,19 16.5,19 L15.5,19 C14.1192881,19 13,17.8807119 13,16.5 L13,13 L11,13 L11,18.5 C11,19.8807119 9.88071187,21 8.5,21 L7.5,21 C6.11928813,21 5,19.8807119 5,18.5 L5,13 L3.5,13 C3.22385763,13 3,12.7761424 3,12.5 C3,12.2238576 3.22385763,12 3.5,12 L5,12 L5,6.5 C5,5.11928813 6.11928813,4 7.5,4 L8.5,4 C9.88071187,4 11,5.11928813 11,6.5 L11,12 Z M15.5,7 C14.6715729,7 14,7.67157288 14,8.5 L14,16.5 C14,17.3284271 14.6715729,18 15.5,18 L16.5,18 C17.3284271,18 18,17.3284271 18,16.5 L18,8.5 C18,7.67157288 17.3284271,7 16.5,7 L15.5,7 Z M7.5,5 C6.67157288,5 6,5.67157288 6,6.5 L6,18.5 C6,19.3284271 6.67157288,20 7.5,20 L8.5,20 C9.32842712,20 10,19.3284271 10,18.5 L10,6.5 C10,5.67157288 9.32842712,5 8.5,5 L7.5,5 Z"/>
</svg>
