<svg xmlns="http://www.w3.org/2000/svg" width="24" height="24" viewBox="0 0 24 24">
  <path d="M4,15.5 L4,16.5 C4,17.3284271 4.67157288,18 5.5,18 L15.5,18 C16.3284271,18 17,17.3284271 17,16.5 L17,15.5 C17,14.6715729 16.3284271,14 15.5,14 L5.5,14 C4.67157288,14 4,14.6715729 4,15.5 Z M3,15.5 C3,14.1192881 4.11928813,13 5.5,13 L15.5,13 C16.8807119,13 18,14.1192881 18,15.5 L18,16.5 C18,17.8807119 16.8807119,19 15.5,19 L5.5,19 C4.11928813,19 3,17.8807119 3,16.5 L3,15.5 Z M6,7.5 C6,6.11928813 7.11928813,5 8.5,5 L15.5,5 C16.8807119,5 18,6.11928813 18,7.5 L18,8.5 C18,9.88071187 16.8807119,11 15.5,11 L8.5,11 C7.11928813,11 6,9.88071187 6,8.5 L6,7.5 Z M7,7.5 L7,8.5 C7,9.32842712 7.67157288,10 8.5,10 L15.5,10 C16.3284271,10 17,9.32842712 17,8.5 L17,7.5 C17,6.67157288 16.3284271,6 15.5,6 L8.5,6 C7.67157288,6 7,6.67157288 7,7.5 Z M20,3.5 C20,3.22385763 20.2238576,3 20.5,3 C20.7761424,3 21,3.22385763 21,3.5 L21,20.5 C21,20.7761424 20.7761424,21 20.5,21 C20.2238576,21 20,20.7761424 20,20.5 L20,3.5 Z"/>
</svg>
