<svg xmlns="http://www.w3.org/2000/svg" width="24" height="24" viewBox="0 0 24 24">
  <path d="M20,15.5 C20,14.6715729 19.3284271,14 18.5,14 L8.5,14 C7.67157288,14 7,14.6715729 7,15.5 L7,16.5 C7,17.3284271 7.67157288,18 8.5,18 L18.5,18 C19.3284271,18 20,17.3284271 20,16.5 L20,15.5 Z M21,15.5 L21,16.5 C21,17.8807119 19.8807119,19 18.5,19 L8.5,19 C7.11928813,19 6,17.8807119 6,16.5 L6,15.5 C6,14.1192881 7.11928813,13 8.5,13 L18.5,13 C19.8807119,13 21,14.1192881 21,15.5 Z M18,7.5 L18,8.5 C18,9.88071187 16.8807119,11 15.5,11 L8.5,11 C7.11928813,11 6,9.88071187 6,8.5 L6,7.5 C6,6.11928813 7.11928813,5 8.5,5 L15.5,5 C16.8807119,5 18,6.11928813 18,7.5 Z M17,7.5 C17,6.67157288 16.3284271,6 15.5,6 L8.5,6 C7.67157288,6 7,6.67157288 7,7.5 L7,8.5 C7,9.32842712 7.67157288,10 8.5,10 L15.5,10 C16.3284271,10 17,9.32842712 17,8.5 L17,7.5 Z M3,3.5 C3,3.22385763 3.22385763,3 3.5,3 C3.77614237,3 4,3.22385763 4,3.5 L4,20.5 C4,20.7761424 3.77614237,21 3.5,21 C3.22385763,21 3,20.7761424 3,20.5 L3,3.5 Z"/>
</svg>
