<svg xmlns="http://www.w3.org/2000/svg" width="24" height="24" viewBox="0 0 24 24">
  <path d="M3.5,21 C3.22385763,21 3,20.7761424 3,20.5 C3,20.2238576 3.22385763,20 3.5,20 L20.5,20 C20.7761424,20 21,20.2238576 21,20.5 C21,20.7761424 20.7761424,21 20.5,21 L3.5,21 Z M5,5.5 C5,4.11928813 6.11928813,3 7.5,3 L8.5,3 C9.88071187,3 11,4.11928813 11,5.5 L11,15.5 C11,16.8807119 9.88071187,18 8.5,18 L7.5,18 C6.11928813,18 5,16.8807119 5,15.5 L5,5.5 Z M6,5.5 L6,15.5 C6,16.3284271 6.67157288,17 7.5,17 L8.5,17 C9.32842712,17 10,16.3284271 10,15.5 L10,5.5 C10,4.67157288 9.32842712,4 8.5,4 L7.5,4 C6.67157288,4 6,4.67157288 6,5.5 Z M13,8.5 C13,7.11928813 14.1192881,6 15.5,6 L16.5,6 C17.8807119,6 19,7.11928813 19,8.5 L19,15.5 C19,16.8807119 17.8807119,18 16.5,18 L15.5,18 C14.1192881,18 13,16.8807119 13,15.5 L13,8.5 Z M14,8.5 L14,15.5 C14,16.3284271 14.6715729,17 15.5,17 L16.5,17 C17.3284271,17 18,16.3284271 18,15.5 L18,8.5 C18,7.67157288 17.3284271,7 16.5,7 L15.5,7 C14.6715729,7 14,7.67157288 14,8.5 Z"/>
</svg>
