<svg xmlns="http://www.w3.org/2000/svg" width="24" height="24" viewBox="0 0 24 24">
  <path d="M15.3226823,3.38442452 C16.8998719,4.08395665 18,5.66350398 18,7.5 L18,8 L18.5,8 C19.3284271,8 20,8.67157288 20,9.5 L20,14.5 C20,15.3284271 19.3284271,16 18.5,16 L18,16 L18,17.5 C18,17.7761424 17.7761424,18 17.5,18 L16,18 L16,20.5 C16,21.3284271 15.3284271,22 14.5,22 C13.6715729,22 13,21.3284271 13,20.5 L13,18 L11,18 L11,20.5 C11,21.3284271 10.3284271,22 9.5,22 C8.67157288,22 8,21.3284271 8,20.5 L8,18 L6.5,18 C6.22385763,18 6,17.7761424 6,17.5 L6,16 L5.5,16 C4.67157288,16 4,15.3284271 4,14.5 L4,9.5 C4,8.67157288 4.67157288,8 5.5,8 L6,8 L6,7.5 C6,5.66350398 7.10012809,4.08395665 8.67731774,3.38442452 L8.14644661,2.85355339 C7.95118446,2.65829124 7.95118446,2.34170876 8.14644661,2.14644661 C8.34170876,1.95118446 8.65829124,1.95118446 8.85355339,2.14644661 L9.7665765,3.05946972 C10.0052544,3.02034558 10.2502512,3 10.5,3 L13.5,3 C13.7497488,3 13.9947456,3.02034558 14.2334235,3.05946972 L15.1464466,2.14644661 C15.3417088,1.95118446 15.6582912,1.95118446 15.8535534,2.14644661 C16.0488155,2.34170876 16.0488155,2.65829124 15.8535534,2.85355339 L15.3226823,3.38442452 Z M14,18 L14,20.5 C14,20.7761424 14.2238576,21 14.5,21 C14.7761424,21 15,20.7761424 15,20.5 L15,18 L14,18 Z M10,18 L9,18 L9,20.5 C9,20.7761424 9.22385763,21 9.5,21 C9.77614237,21 10,20.7761424 10,20.5 L10,18 Z M6,9 L5.5,9 C5.22385763,9 5,9.22385763 5,9.5 L5,14.5 C5,14.7761424 5.22385763,15 5.5,15 L6,15 L6,9 Z M18,9 L18,15 L18.5,15 C18.7761424,15 19,14.7761424 19,14.5 L19,9.5 C19,9.22385763 18.7761424,9 18.5,9 L18,9 Z M7.03544443,7 L16.9645556,7 C16.7219407,5.30385293 15.263236,4 13.5,4 L10.5,4 C8.73676405,4 7.27805926,5.30385293 7.03544443,7 Z M9,5 L10,5 L10,6 L9,6 L9,5 Z M14,5 L15,5 L15,6 L14,6 L14,5 Z M7,8 L7,17 L17,17 L17,8 L7,8 Z"/>
</svg>
