<svg xmlns="http://www.w3.org/2000/svg" width="24" height="24" viewBox="0 0 24 24">
  <path d="M15.5,21 C16.189,21 17.383,19.542 18.87,16.639 C17.635,15.604 17,14.384 17,13 C17,11.644 17.609,10.445 18.797,9.424 C17.963,8.464 17.037,8 16,8 C14.906,8 14.059,8.149 13.459,8.437 C12.82,8.744 12.081,8.765 11.425,8.495 C10.629,8.167 9.654,8 8.5,8 C6.434,8 5,10.086 5,13 C5,15.711 7.833,21 9,21 C9.429,21 9.918,20.842 10.466,20.514 C11.652,19.804 13.14,19.836 14.294,20.595 C14.71,20.868 15.109,21 15.5,21 Z M19.8,16.1 C19.993,16.245 20.056,16.508 19.947,16.724 C18.187,20.246 16.783,22 15.5,22 C14.903,22 14.316,21.807 13.744,21.431 C12.911,20.882 11.836,20.859 10.98,21.371 C10.287,21.786 9.627,22 9,22 C7.113,22 4,16.189 4,13 C4,9.596 5.785,7 8.5,7 C9.777,7 10.88,7.188 11.806,7.57 C12.199,7.732 12.643,7.72 13.026,7.536 C13.778,7.175 14.769,7 16,7 C17.502,7 18.811,7.748 19.9,9.2 C20.065,9.421 20.021,9.734 19.8,9.9 C18.585,10.811 18,11.835 18,13 C18,14.165 18.585,15.189 19.8,16.1 Z M12.4995,6 C12.2235,6 11.9995,5.776 11.9995,5.5 C11.9995,3.567 13.5675,2 15.4995,2 C15.7765,2 15.9995,2.224 15.9995,2.5 C15.9995,4.433 14.4325,6 12.4995,6 Z M14.9365,3.064 C14.0075,3.278 13.2775,4.008 13.0635,4.936 C13.9925,4.722 14.7225,3.992 14.9365,3.064 Z"/>
</svg>
