<svg xmlns="http://www.w3.org/2000/svg" width="24" height="24" viewBox="0 0 24 24">
  <path d="M9,6 L15,6 L15,3.5 C15,2.67157288 14.3284271,2 13.5,2 L10.5,2 C9.67157288,2 9,2.67157288 9,3.5 L9,6 L9,6 Z M16,6.04773108 C17.1467741,6.27495755 18.0113578,7.2865116 18.0113578,8.5 L18.0113578,15.5 C18.0113578,16.8807119 16.8920696,18 15.5113578,18 L8.5,18 C7.11928813,18 6,16.8807119 6,15.5 L6,8.5 C6,7.29052104 6.85887984,6.28164422 8,6.05000906 L8,3.5 C8,2.11928813 9.11928813,1 10.5,1 L13.5,1 C14.8807119,1 16,2.11928813 16,3.5 L16,6.04773108 L16,6.04773108 Z M15,17.5 C15,17.2238576 15.2238576,17 15.5,17 C15.7761424,17 16,17.2238576 16,17.5 L16,20.5 C16,21.8807119 14.8807119,23 13.5,23 L10.5,23 C9.11928813,23 8,21.8807119 8,20.5 L8,17.5 C8,17.2238576 8.22385763,17 8.5,17 C8.77614237,17 9,17.2238576 9,17.5 L9,20.5 C9,21.3284271 9.67157288,22 10.5,22 L13.5,22 C14.3284271,22 15,21.3284271 15,20.5 L15,17.5 Z M8.5,7 C7.67157288,7 7,7.67157288 7,8.5 L7,15.5 C7,16.3284271 7.67157288,17 8.5,17 L15.5113578,17 C16.3397849,17 17.0113578,16.3284271 17.0113578,15.5 L17.0113578,8.5 C17.0113578,7.67157288 16.3397849,7 15.5113578,7 L8.5,7 Z M12,16 C9.790861,16 8,14.209139 8,12 C8,9.790861 9.790861,8 12,8 C14.209139,8 16,9.790861 16,12 C16,14.209139 14.209139,16 12,16 Z M12,15 C13.6568542,15 15,13.6568542 15,12 C15,10.3431458 13.6568542,9 12,9 C10.3431458,9 9,10.3431458 9,12 C9,13.6568542 10.3431458,15 12,15 Z M13.6581139,12.0256584 C13.9200855,12.1129822 14.0616655,12.3961422 13.9743416,12.6581139 C13.8870178,12.9200855 13.6038578,13.0616655 13.3418861,12.9743416 L11.8418861,12.4743416 C11.6925836,12.4245741 11.5754259,12.3074164 11.5256584,12.1581139 L11.0256584,10.6581139 C10.9383345,10.3961422 11.0799145,10.1129822 11.3418861,10.0256584 C11.6038578,9.93833446 11.8870178,10.0799145 11.9743416,10.3418861 L12.3952847,11.6047153 L13.6581139,12.0256584 Z"/>
</svg>
