<svg xmlns="http://www.w3.org/2000/svg" width="24" height="24" viewBox="0 0 24 24">
  <path d="M8.5,7 C7.67157288,7 7,7.67157288 7,8.5 L7,15.5 C7,16.3284271 7.67157288,17 8.5,17 L15.5113578,17 C16.3397849,17 17.0113578,16.3284271 17.0113578,15.5 L17.0113578,8.5 C17.0113578,7.67157288 16.3397849,7 15.5113578,7 L8.5,7 Z M16,17.9522689 L16,20.5 C16,21.8807119 14.8807119,23 13.5,23 L10.5,23 C9.11928813,23 8,21.8807119 8,20.5 L8,17.9499909 C6.85887984,17.7183558 6,16.709479 6,15.5 L6,8.5 C6,7.29052104 6.85887984,6.28164422 8,6.05000906 L8,3.5 C8,2.11928813 9.11928813,1 10.5,1 L13.5,1 C14.8807119,1 16,2.11928813 16,3.5 L16,6.04773108 C17.1467741,6.27495755 18.0113578,7.2865116 18.0113578,8.5 L18.0113578,15.5 C18.0113578,16.7134884 17.1467741,17.7250425 16,17.9522689 Z M15,18 L9,18 L9,20.5 C9,21.3284271 9.67157288,22 10.5,22 L13.5,22 C14.3284271,22 15,21.3284271 15,20.5 L15,18 Z M9,6 L15,6 L15,3.5 C15,2.67157288 14.3284271,2 13.5,2 L10.5,2 C9.67157288,2 9,2.67157288 9,3.5 L9,6 L9,6 Z"/>
</svg>
