<svg xmlns="http://www.w3.org/2000/svg" width="24" height="24" viewBox="0 0 24 24">
  <path d="M3,4.5 L3,6.5 C3,6.77614237 3.22385763,7 3.5,7 L20.5,7 C20.7761424,7 21,6.77614237 21,6.5 L21,4.5 C21,4.22385763 20.7761424,4 20.5,4 L3.5,4 C3.22385763,4 3,4.22385763 3,4.5 Z M21,7.91464715 L21,18.5 C21,19.8807119 19.8807119,21 18.5,21 L5.5,21 C4.11928813,21 3,19.8807119 3,18.5 L3,7.91464715 C2.41740381,7.70872894 2,7.15310941 2,6.5 L2,4.5 C2,3.67157288 2.67157288,3 3.5,3 L20.5,3 C21.3284271,3 22,3.67157288 22,4.5 L22,6.5 C22,7.15310941 21.5825962,7.70872894 21,7.91464715 L21,7.91464715 Z M20,8 L4,8 L4,18.5 C4,19.3284271 4.67157288,20 5.5,20 L18.5,20 C19.3284271,20 20,19.3284271 20,18.5 L20,8 Z M8,11.5 C8,10.6715729 8.67157288,10 9.5,10 L14.5,10 C15.3284271,10 16,10.6715729 16,11.5 C16,12.3284271 15.3284271,13 14.5,13 L9.5,13 C8.67157288,13 8,12.3284271 8,11.5 Z M9,11.5 C9,11.7761424 9.22385763,12 9.5,12 L14.5,12 C14.7761424,12 15,11.7761424 15,11.5 C15,11.2238576 14.7761424,11 14.5,11 L9.5,11 C9.22385763,11 9,11.2238576 9,11.5 Z"/>
</svg>
