<svg xmlns="http://www.w3.org/2000/svg" width="24" height="24" viewBox="0 0 24 24">
  <path d="M13,5.70710678 L13,16.5 C13,16.7761424 12.7761424,17 12.5,17 C12.2238576,17 12,16.7761424 12,16.5 L12,5.70710678 L8.85355339,8.85355339 C8.65829124,9.04881554 8.34170876,9.04881554 8.14644661,8.85355339 C7.95118446,8.65829124 7.95118446,8.34170876 8.14644661,8.14644661 L12.1464466,4.14644661 C12.3417088,3.95118446 12.6582912,3.95118446 12.8535534,4.14644661 L16.8535534,8.14644661 C17.0488155,8.34170876 17.0488155,8.65829124 16.8535534,8.85355339 C16.6582912,9.04881554 16.3417088,9.04881554 16.1464466,8.85355339 L13,5.70710678 Z M4.5,20 C4.22385763,20 4,19.7761424 4,19.5 C4,19.2238576 4.22385763,19 4.5,19 L20.5,19 C20.7761424,19 21,19.2238576 21,19.5 C21,19.7761424 20.7761424,20 20.5,20 L4.5,20 Z"/>
</svg>
