<svg xmlns="http://www.w3.org/2000/svg" width="24" height="24" viewBox="0 0 24 24">
  <path d="M13,8.70710678 L13,17.5 C13,17.7761424 12.7761424,18 12.5,18 C12.2238576,18 12,17.7761424 12,17.5 L12,8.70710678 L8.85355339,11.8535534 C8.65829124,12.0488155 8.34170876,12.0488155 8.14644661,11.8535534 C7.95118446,11.6582912 7.95118446,11.3417088 8.14644661,11.1464466 L12.1464466,7.14644661 C12.3417088,6.95118446 12.6582912,6.95118446 12.8535534,7.14644661 L16.8535534,11.1464466 C17.0488155,11.3417088 17.0488155,11.6582912 16.8535534,11.8535534 C16.6582912,12.0488155 16.3417088,12.0488155 16.1464466,11.8535534 L13,8.70710678 L13,8.70710678 Z M21,5.5 C21,4.67157288 20.3284271,4 19.5,4 L5.5,4 C4.67157288,4 4,4.67157288 4,5.50002753 L3.99922869,19.5069431 C3.99922869,20.3353702 4.67080157,21.0069431 5.49922869,21.0069431 L19.499807,20.9999999 C20.3280081,20.9996804 20.9992284,20.3282012 20.9992284,19.5 C20.9992284,19.4937326 20.9994856,14.8270659 21,5.5 Z M19.5002478,21.9999998 L5.50019301,22.0069429 C4.11851682,22.0069431 2.99922869,20.887655 2.99922869,19.5069156 L3,5.5 C3,4.11928813 4.11928813,3 5.5,3 L19.5,3 C20.8807119,3 22,4.11928813 22,5.5 L22,19.5 C21.9822801,20.897211 20.8700816,21.9994714 19.5002478,21.9999998 Z"/>
</svg>
