<svg xmlns="http://www.w3.org/2000/svg" width="24" height="24" viewBox="0 0 24 24">
  <path d="M16.2928932,12 L13.1464466,8.85355339 C12.9511845,8.65829124 12.9511845,8.34170876 13.1464466,8.14644661 C13.3417088,7.95118446 13.6582912,7.95118446 13.8535534,8.14644661 L17.8535534,12.1464466 C18.0488155,12.3417088 18.0488155,12.6582912 17.8535534,12.8535534 L13.8535534,16.8535534 C13.6582912,17.0488155 13.3417088,17.0488155 13.1464466,16.8535534 C12.9511845,16.6582912 12.9511845,16.3417088 13.1464466,16.1464466 L16.2928932,13 L7.5,13 C7.22385763,13 7,12.7761424 7,12.5 C7,12.2238576 7.22385763,12 7.5,12 L16.2928932,12 Z M12.5,22 C7.25329488,22 3,17.7467051 3,12.5 C3,7.25329488 7.25329488,3 12.5,3 C17.7467051,3 22,7.25329488 22,12.5 C22,17.7467051 17.7467051,22 12.5,22 Z M12.5,21 C17.1944204,21 21,17.1944204 21,12.5 C21,7.80557963 17.1944204,4 12.5,4 C7.80557963,4 4,7.80557963 4,12.5 C4,17.1944204 7.80557963,21 12.5,21 Z"/>
</svg>
