<svg xmlns="http://www.w3.org/2000/svg" width="24" height="24" viewBox="0 0 24 24">
  <path d="M6.70710678,18 L11.5,18 C11.7761424,18 12,18.2238576 12,18.5 C12,18.7761424 11.7761424,19 11.5,19 L5.5,19 C5.22385763,19 5,18.7761424 5,18.5 L5,12.5 C5,12.2238576 5.22385763,12 5.5,12 C5.77614237,12 6,12.2238576 6,12.5 L6,17.2928932 L17.1464466,6.14644661 C17.3417088,5.95118446 17.6582912,5.95118446 17.8535534,6.14644661 C18.0488155,6.34170876 18.0488155,6.65829124 17.8535534,6.85355339 L6.70710678,18 L6.70710678,18 Z"/>
</svg>
