<svg xmlns="http://www.w3.org/2000/svg" width="24" height="24" viewBox="0 0 24 24">
  <path d="M16.2928932,12 L13.1464466,8.85355339 C12.9511845,8.65829124 12.9511845,8.34170876 13.1464466,8.14644661 C13.3417088,7.95118446 13.6582912,7.95118446 13.8535534,8.14644661 L17.8535534,12.1464466 C18.0488155,12.3417088 18.0488155,12.6582912 17.8535534,12.8535534 L13.8535534,16.8535534 C13.6582912,17.0488155 13.3417088,17.0488155 13.1464466,16.8535534 C12.9511845,16.6582912 12.9511845,16.3417088 13.1464466,16.1464466 L16.2928932,13 L7.5,13 C7.22385763,13 7,12.7761424 7,12.5 C7,12.2238576 7.22385763,12 7.5,12 L16.2928932,12 Z M19.5,21 C20.3284271,21 21,20.3284271 21,19.5 L21,5.5 C21,4.67157288 20.3284271,4 19.4999725,4 L5.49305689,3.99922869 C4.66462977,3.99922869 3.99305689,4.67080157 3.99305689,5.49922869 L4.00000011,19.499807 C4.00031957,20.3280081 4.67179882,20.9992284 5.5,20.9992284 C5.50626743,20.9992284 10.1729341,20.9994856 19.5,21 Z M3.00000021,19.5002478 L2.99305708,5.50019301 C2.99305689,4.11851682 4.11234502,2.99922869 5.49308443,2.99922869 L19.5,3 C20.8807119,3 22,4.11928813 22,5.5 L22,19.5 C22,20.8807119 20.8807119,22 19.5,22 L5.5,22 C4.10278895,21.9822801 3.00052859,20.8700816 3.00000021,19.5002478 Z"/>
</svg>
