<svg xmlns="http://www.w3.org/2000/svg" width="24" height="24" viewBox="0 0 24 24">
  <path d="M8.70710678,13 L11.8535534,16.1464466 C12.0488155,16.3417088 12.0488155,16.6582912 11.8535534,16.8535534 C11.6582912,17.0488155 11.3417088,17.0488155 11.1464466,16.8535534 L7.14644661,12.8535534 C6.95118446,12.6582912 6.95118446,12.3417088 7.14644661,12.1464466 L11.1464466,8.14644661 C11.3417088,7.95118446 11.6582912,7.95118446 11.8535534,8.14644661 C12.0488155,8.34170876 12.0488155,8.65829124 11.8535534,8.85355339 L8.70710678,12 L17.5,12 C17.7761424,12 18,12.2238576 18,12.5 C18,12.7761424 17.7761424,13 17.5,13 L8.70710678,13 L8.70710678,13 Z M5.5,4 C4.67157288,4 4,4.67157288 4,5.5 L4,19.5 C4,20.3284271 4.67157288,21 5.50002753,21 L19.5069431,21.0007713 C20.3353702,21.0007713 21.0069431,20.3291984 21.0069431,19.5007713 L20.9999999,5.50019301 C20.9996804,4.67199189 20.3282012,4.0007716 19.5,4.0007716 C19.4937326,4.0007716 14.8270659,4.0005144 5.5,4 Z M21.9999998,5.49975218 L22.0069429,19.499807 C22.0069431,20.8814832 20.887655,22.0007713 19.5069156,22.0007713 L5.5,22 C4.11928813,22 3,20.8807119 3,19.5 L3,5.5 C3,4.11928813 4.11928813,3 5.5,3 L19.5,3 C20.897211,3.01771987 21.9994714,4.12991844 21.9999998,5.49975218 Z"/>
</svg>
