<svg xmlns="http://www.w3.org/2000/svg" width="24" height="24" viewBox="0 0 24 24">
  <path d="M13,8.70710678 L13,17.5 C13,17.7761424 12.7761424,18 12.5,18 C12.2238576,18 12,17.7761424 12,17.5 L12,8.70710678 L8.85355339,11.8535534 C8.65829124,12.0488155 8.34170876,12.0488155 8.14644661,11.8535534 C7.95118446,11.6582912 7.95118446,11.3417088 8.14644661,11.1464466 L12.1464466,7.14644661 C12.3417088,6.95118446 12.6582912,6.95118446 12.8535534,7.14644661 L16.8535534,11.1464466 C17.0488155,11.3417088 17.0488155,11.6582912 16.8535534,11.8535534 C16.6582912,12.0488155 16.3417088,12.0488155 16.1464466,11.8535534 L13,8.70710678 Z M22,12.5 C22,17.7467051 17.7467051,22 12.5,22 C7.25329488,22 3,17.7467051 3,12.5 C3,7.25329488 7.25329488,3 12.5,3 C17.7467051,3 22,7.25329488 22,12.5 Z M21,12.5 C21,7.80557963 17.1944204,4 12.5,4 C7.80557963,4 4,7.80557963 4,12.5 C4,17.1944204 7.80557963,21 12.5,21 C17.1944204,21 21,17.1944204 21,12.5 Z"/>
</svg>
