<svg xmlns="http://www.w3.org/2000/svg" width="24" height="24" viewBox="0 0 24 24">
  <path d="M11.5,10 C11.2238576,10 11,9.77614237 11,9.5 C11,9.22385763 11.2238576,9 11.5,9 L16.5,9 C16.7761424,9 17,9.22385763 17,9.5 C17,9.77614237 16.7761424,10 16.5,10 L11.5,10 Z M9.5,13 C9.22385763,13 9,12.7761424 9,12.5 C9,12.2238576 9.22385763,12 9.5,12 L16.5,12 C16.7761424,12 17,12.2238576 17,12.5 C17,12.7761424 16.7761424,13 16.5,13 L9.5,13 Z M9.5,16 C9.22385763,16 9,15.7761424 9,15.5 C9,15.2238576 9.22385763,15 9.5,15 L14.5,15 C14.7761424,15 15,15.2238576 15,15.5 C15,15.7761424 14.7761424,16 14.5,16 L9.5,16 Z M11.5,5 C11.2238576,5 11,4.77614237 11,4.5 C11,4.22385763 11.2238576,4 11.5,4 L18.5,4 C19.8807119,4 21,5.11928813 21,6.5 L21,19.5 C21,20.8807119 19.8807119,22 18.5,22 L7.5,22 C6.11928813,22 5,20.8807119 5,19.5 L5,14.5 C5,14.2238576 5.22385763,14 5.5,14 C5.77614237,14 6,14.2238576 6,14.5 L6,19.5 C6,20.3284271 6.67157288,21 7.5,21 L18.5,21 C19.3284271,21 20,20.3284271 20,19.5 L20,6.5 C20,5.67157288 19.3284271,5 18.5,5 L11.5,5 Z M6,8.5 C6,8.77614237 5.77614237,9 5.5,9 C5.22385763,9 5,8.77614237 5,8.5 L5,5 C5,3.8954305 5.8954305,3 7,3 C8.1045695,3 9,3.8954305 9,5 L9,8.5 C9,10.4329966 7.43299662,12 5.5,12 C3.56700338,12 2,10.4329966 2,8.5 L2,3.5 C2,3.22385763 2.22385763,3 2.5,3 C2.77614237,3 3,3.22385763 3,3.5 L3,8.5 C3,9.88071187 4.11928813,11 5.5,11 C6.88071187,11 8,9.88071187 8,8.5 L8,5 C8,4.44771525 7.55228475,4 7,4 C6.44771525,4 6,4.44771525 6,5 L6,8.5 Z"/>
</svg>
