<svg xmlns="http://www.w3.org/2000/svg" width="24" height="24" viewBox="0 0 24 24">
  <path d="M4.70710678,16 L7.85355339,19.1464466 C8.04881554,19.3417088 8.04881554,19.6582912 7.85355339,19.8535534 C7.65829124,20.0488155 7.34170876,20.0488155 7.14644661,19.8535534 L3.14644661,15.8535534 C2.95118446,15.6582912 2.95118446,15.3417088 3.14644661,15.1464466 L7.14644661,11.1464466 C7.34170876,10.9511845 7.65829124,10.9511845 7.85355339,11.1464466 C8.04881554,11.3417088 8.04881554,11.6582912 7.85355339,11.8535534 L4.70710678,15 L18.5,15 C19.3284271,15 20,14.3284271 20,13.5 L20,7.5 C20,6.67157288 19.3284271,6 18.5,6 L3.5,6 C3.22385763,6 3,5.77614237 3,5.5 C3,5.22385763 3.22385763,5 3.5,5 L18.5,5 C19.8807119,5 21,6.11928813 21,7.5 L21,13.5 C21,14.8807119 19.8807119,16 18.5,16 L4.70710678,16 Z"/>
</svg>
