<svg xmlns="http://www.w3.org/2000/svg" width="24" height="24" viewBox="0 0 24 24">
  <path d="M5,5 L19,5 L19,4.5 C19,3.67157288 18.3284271,3 17.5,3 L6.5,3 C5.67157288,3 5,3.67157288 5,4.5 L5,5 Z M4,5.5 L4,4.5 C4,3.11928813 5.11928813,2 6.5,2 L17.5,2 C18.8807119,2 20,3.11928813 20,4.5 L20,5.5 C20,5.77614237 19.7761424,6 19.5,6 L4.5,6 C4.22385763,6 4,5.77614237 4,5.5 Z M4,10.5 L4,7.5 C4,7.22385763 4.22385763,7 4.5,7 L19.5,7 C19.7761424,7 20,7.22385763 20,7.5 L20,10.5 C20,10.7761424 19.7761424,11 19.5,11 L4.5,11 C4.22385763,11 4,10.7761424 4,10.5 Z M5,10 L19,10 L19,8 L5,8 L5,10 Z M6,15.5 L6,12.5 C6,12.2238576 6.22385763,12 6.5,12 L21.5,12 C21.7761424,12 22,12.2238576 22,12.5 L22,15.5 C22,15.7761424 21.7761424,16 21.5,16 L6.5,16 C6.22385763,16 6,15.7761424 6,15.5 Z M7,15 L21,15 L21,13 L7,13 L7,15 Z M4,18.5 L4,17.5 C4,17.2238576 4.22385763,17 4.5,17 L19.5,17 C19.7761424,17 20,17.2238576 20,17.5 L20,18.5 C20,19.8807119 18.8807119,21 17.5,21 L6.5,21 C5.11928813,21 4,19.8807119 4,18.5 Z M5,18 L5,18.5 C5,19.3284271 5.67157288,20 6.5,20 L17.5,20 C18.3284271,20 19,19.3284271 19,18.5 L19,18 L5,18 Z"/>
</svg>
