<svg xmlns="http://www.w3.org/2000/svg" width="24" height="24" viewBox="0 0 24 24">
  <path d="M3,8.5 C3,8.77614237 2.77614237,9 2.5,9 C2.22385763,9 2,8.77614237 2,8.5 L2,6.5 C2,5.11928813 3.11928813,4 4.5,4 L6.5,4 C6.77614237,4 7,4.22385763 7,4.5 C7,4.77614237 6.77614237,5 6.5,5 L4.5,5 C3.67157288,5 3,5.67157288 3,6.5 L3,8.5 Z M17.5,5 C17.2238576,5 17,4.77614237 17,4.5 C17,4.22385763 17.2238576,4 17.5,4 L19.5,4 C20.8807119,4 22,5.11928813 22,6.5 L22,8.5 C22,8.77614237 21.7761424,9 21.5,9 C21.2238576,9 21,8.77614237 21,8.5 L21,6.5 C21,5.67157288 20.3284271,5 19.5,5 L17.5,5 Z M6.5,19 C6.77614237,19 7,19.2238576 7,19.5 C7,19.7761424 6.77614237,20 6.5,20 L4.5,20 C3.11928813,20 2,18.8807119 2,17.5 L2,15.5 C2,15.2238576 2.22385763,15 2.5,15 C2.77614237,15 3,15.2238576 3,15.5 L3,17.5 C3,18.3284271 3.67157288,19 4.5,19 L6.5,19 Z M21,15.5 C21,15.2238576 21.2238576,15 21.5,15 C21.7761424,15 22,15.2238576 22,15.5 L22,17.5 C22,18.8807119 20.8807119,20 19.5,20 L17.5,20 C17.2238576,20 17,19.7761424 17,19.5 C17,19.2238576 17.2238576,19 17.5,19 L19.5,19 C20.3284271,19 21,18.3284271 21,17.5 L21,15.5 Z M5,7.5 C5,7.22385763 5.22385763,7 5.5,7 C5.77614237,7 6,7.22385763 6,7.5 L6,16.5 C6,16.7761424 5.77614237,17 5.5,17 C5.22385763,17 5,16.7761424 5,16.5 L5,7.5 Z M8,7.5 C8,7.22385763 8.22385763,7 8.5,7 C8.77614237,7 9,7.22385763 9,7.5 L9,16.5 C9,16.7761424 8.77614237,17 8.5,17 C8.22385763,17 8,16.7761424 8,16.5 L8,7.5 Z M10,7.5 C10,7.22385763 10.2238576,7 10.5,7 C10.7761424,7 11,7.22385763 11,7.5 L11,16.5 C11,16.7761424 10.7761424,17 10.5,17 C10.2238576,17 10,16.7761424 10,16.5 L10,7.5 Z M12,7.5 C12,7.22385763 12.2238576,7 12.5,7 C12.7761424,7 13,7.22385763 13,7.5 L13,16.5 C13,16.7761424 12.7761424,17 12.5,17 C12.2238576,17 12,16.7761424 12,16.5 L12,7.5 Z M16,7.5 C16,7.22385763 16.2238576,7 16.5,7 C16.7761424,7 17,7.22385763 17,7.5 L17,16.5 C17,16.7761424 16.7761424,17 16.5,17 C16.2238576,17 16,16.7761424 16,16.5 L16,7.5 Z M18,7.5 C18,7.22385763 18.2238576,7 18.5,7 C18.7761424,7 19,7.22385763 19,7.5 L19,16.5 C19,16.7761424 18.7761424,17 18.5,17 C18.2238576,17 18,16.7761424 18,16.5 L18,7.5 Z"/>
</svg>
