<svg xmlns="http://www.w3.org/2000/svg" width="24" height="24" viewBox="0 0 24 24">
  <path d="M9,5.05000906 L9,4.5 C9,3.67157288 9.67157288,3 10.5,3 L13.5,3 C14.3284271,3 15,3.67157288 15,4.5 L15,5.05000906 C16.1411202,5.28164422 17,6.29052104 17,7.5 L17,18.5 C17,19.8807119 15.8807119,21 14.5,21 L9.5,21 C8.11928813,21 7,19.8807119 7,18.5 L7,7.5 C7,6.29052104 7.85887984,5.28164422 9,5.05000906 Z M14,5 L14,4.5 C14,4.22385763 13.7761424,4 13.5,4 L10.5,4 C10.2238576,4 10,4.22385763 10,4.5 L10,5 L14,5 Z M9.5,6 C8.67157288,6 8,6.67157288 8,7.5 L8,18.5 C8,19.3284271 8.67157288,20 9.5,20 L14.5,20 C15.3284271,20 16,19.3284271 16,18.5 L16,7.5 C16,6.67157288 15.3284271,6 14.5,6 L9.5,6 Z M10.5,13 C10.1006523,13 9.86245661,12.5549273 10.0839749,12.2226499 L12.0839749,9.2226499 C12.2371511,8.99288556 12.5475858,8.93079862 12.7773501,9.08397485 C13.0071144,9.23715108 13.0692014,9.54758575 12.9160251,9.7773501 L11.4342585,12 L13.5,12 C13.8993477,12 14.1375434,12.4450727 13.9160251,12.7773501 L11.9160251,15.7773501 C11.7628489,16.0071144 11.4524142,16.0692014 11.2226499,15.9160251 C10.9928856,15.7628489 10.9307986,15.4524142 11.0839749,15.2226499 L12.5657415,13 L10.5,13 Z"/>
</svg>
