<svg xmlns="http://www.w3.org/2000/svg" width="24" height="24" viewBox="0 0 24 24">
  <path d="M19,9.5 L19,14.5 C19,15.8807119 17.8807119,17 16.5,17 L5.5,17 C4.11928813,17 3,15.8807119 3,14.5 L3,9.5 C3,8.11928813 4.11928813,7 5.5,7 L16.5,7 C17.8807119,7 19,8.11928813 19,9.5 Z M18,9.5 C18,8.67157288 17.3284271,8 16.5,8 L5.5,8 C4.67157288,8 4,8.67157288 4,9.5 L4,14.5 C4,15.3284271 4.67157288,16 5.5,16 L16.5,16 C17.3284271,16 18,15.3284271 18,14.5 L18,9.5 Z M5,10.5 C5,9.67157288 5.67157288,9 6.5,9 L8.73380962,9 C9.00567554,9 9.27243015,9.07388675 9.50555325,9.21376061 C10.2159237,9.63998285 10.4462712,10.5613732 10.020049,11.2717436 L8.22004901,14.2717436 C7.94896414,14.7235517 7.4607039,15 6.93380962,15 L6.5,15 C5.67157288,15 5,14.3284271 5,13.5 L5,10.5 Z M6,10.5 L6,13.5 C6,13.7761424 6.22385763,14 6.5,14 L6.93380962,14 C7.10944105,14 7.27219446,13.9078506 7.36255608,13.7572479 L9.16255608,10.7572479 C9.30463016,10.5204577 9.22784763,10.2133276 8.9910575,10.0712535 C8.9133498,10.0246289 8.82443159,10 8.73380962,10 L6.5,10 C6.22385763,10 6,10.2238576 6,10.5 Z M18.5,10 C18.2238576,10 18,9.77614237 18,9.5 C18,9.22385763 18.2238576,9 18.5,9 L19.5,9 C20.3284271,9 21,9.67157288 21,10.5 L21,13.5 C21,14.3284271 20.3284271,15 19.5,15 L18.5,15 C18.2238576,15 18,14.7761424 18,14.5 C18,14.2238576 18.2238576,14 18.5,14 L19.5,14 C19.7761424,14 20,13.7761424 20,13.5 L20,10.5 C20,10.2238576 19.7761424,10 19.5,10 L18.5,10 Z"/>
</svg>
