<svg xmlns="http://www.w3.org/2000/svg" width="24" height="24" viewBox="0 0 24 24">
  <path d="M14.8292095,19 C14.4116155,20.1832024 13.2866108,21 12,21 C10.7105968,21 9.58711809,20.1801692 9.17072899,19 L8.5,19 C8.22385763,19 8,18.7761424 8,18.5 C8,18.2238576 8.22385763,18 8.5,18 L16.422476,18 C16.6323536,18 16.8398952,17.9559567 17.0316837,17.8707173 C17.78871,17.5342612 18.1296495,16.6478186 17.7931934,15.8907923 L17.0430942,14.2030692 L17,14 L17,11 C17,10.5422771 16.9386215,10.093202 16.8188406,9.66107585 C16.7450781,9.3949674 16.9010053,9.11944757 17.1671138,9.04568509 C17.4332223,8.97192261 17.7087421,9.12784983 17.7825046,9.39395828 C17.9263416,9.9128703 18,10.4517911 18,11 L18,13.8938928 L18.7070049,15.4846538 C19.2677651,16.7463643 18.6995327,18.2237687 17.4378222,18.7845289 C17.1181747,18.9265944 16.7722719,19 16.422476,19 L14.8292095,19 L14.8292095,19 Z M13.7328929,19 L10.267086,19 C10.6157944,19.6033146 11.26791,20 12,20 C12.730784,20 13.3835919,19.6045386 13.7328929,19 L13.7328929,19 Z M10,5.34141142 L10,5 C10,3.8954305 10.8954305,3 12,3 C13.1045695,3 14,3.8954305 14,5 L14,5.34152584 C14.2469554,5.42881861 14.4880765,5.53238203 14.7220467,5.6516798 C14.9680556,5.77711591 15.0657992,6.07823161 14.9403631,6.32424054 C14.814927,6.57024947 14.5138113,6.66799305 14.2678024,6.54255694 C13.5716136,6.18758117 12.7997838,6 12,6 C9.23857625,6 7,8.23857625 7,11 L7,14 L6.95690577,14.2030692 L6.28557404,15.7135656 C6.173422,15.9659077 5.87794112,16.0795542 5.62559903,15.9674022 C5.37325694,15.8552501 5.25961045,15.5597693 5.37176249,15.3074272 L6,13.8938928 L6,11 C6,8.38756235 7.66961525,6.16508423 10,5.34141142 L10,5.34141142 Z M13,5.08303578 L13,5 C13,4.44771525 12.5522847,4 12,4 C11.4477153,4 11,4.44771525 11,5 L11,5.08295844 C11.3252085,5.0283988 11.6592878,5 12,5 C12.3380973,5 12.6723092,5.02803647 13,5.08303578 L13,5.08303578 Z M20.1464466,3.14644661 C20.3417088,2.95118446 20.6582912,2.95118446 20.8535534,3.14644661 C21.0488155,3.34170876 21.0488155,3.65829124 20.8535534,3.85355339 L3.85355339,20.8535534 C3.65829124,21.0488155 3.34170876,21.0488155 3.14644661,20.8535534 C2.95118446,20.6582912 2.95118446,20.3417088 3.14644661,20.1464466 L20.1464466,3.14644661 Z"/>
</svg>
