<svg xmlns="http://www.w3.org/2000/svg" width="24" height="24" viewBox="0 0 24 24">
  <path d="M8.22065549,18.4873848 C7.47656801,19.1915921 6.30237247,19.1792129 5.57340671,18.4502471 C4.84053026,17.7173707 4.81956969,16.5401987 5.5152302,15.7819595 L3.86480156,14.1315309 C2.73228112,12.9990105 2.73228112,11.162832 3.86480156,10.0303116 C4.06416152,9.83095163 4.29152781,9.66172894 4.53972389,9.52798483 L7.19968663,8.09462479 L10.1468188,5.14689094 C12.0558999,3.23742007 14.9072137,2.8441045 17.2044669,3.96710597 L17.5355339,3.63603897 C18.3165825,2.85499039 19.5829124,2.85499039 20.363961,3.63603897 C21.1450096,4.41708755 21.1450096,5.68341751 20.363961,6.46446609 L20.0332358,6.79519128 C21.1583538,9.09350024 20.7679868,11.9463214 18.8610611,13.8598307 L15.9068988,16.8241922 L14.5072388,19.4671537 C13.7576717,20.8825527 12.0026199,21.422316 10.5872209,20.6727489 C10.3318611,20.5375154 10.0981468,20.3648761 9.89382266,20.160552 L8.22065549,18.4873848 L8.22065549,18.4873848 Z M7.51296959,17.7796989 L6.2237161,16.4904455 C5.91821795,16.8561856 5.93784111,17.4004679 6.28051349,17.7431403 C6.61890661,18.0815334 7.15997873,18.0937197 7.51296959,17.7796989 L7.51296959,17.7796989 Z M19.5035647,5.91064888 L19.6568542,5.75735931 C20.0473785,5.36683502 20.0473785,4.73367004 19.6568542,4.34314575 C19.26633,3.95262146 18.633165,3.95262146 18.2426407,4.34314575 L18.0893047,4.49648173 C18.3568756,4.68891098 18.6124814,4.90542375 18.8531271,5.14602037 C19.0940303,5.38692357 19.3108436,5.64279796 19.5035647,5.91064888 L19.5035647,5.91064888 Z M10.8539978,5.85392555 L7.85501825,8.8535173 L7.73861625,8.94016145 L5.01409883,10.4083077 C4.85148761,10.4959332 4.70252349,10.6068032 4.57190835,10.7374184 C3.82991219,11.4794145 3.82991219,12.682428 4.57190835,13.4244241 L10.6009294,19.4534452 C10.734797,19.5873128 10.8879202,19.7004212 11.0552249,19.7890225 C11.9825552,20.2801182 13.1324167,19.9264802 13.6235124,18.9991498 L15.0581368,16.2901653 L15.1458379,16.1712237 L18.1527368,13.1539435 C20.16449,11.1352448 20.1616755,7.86878228 18.1464466,5.85355339 C16.1322176,3.83973542 12.8674436,3.84006864 10.8539978,5.85392555 Z"/>
</svg>
