<svg xmlns="http://www.w3.org/2000/svg" width="24" height="24" viewBox="0 0 24 24">
  <path d="M14.8292095,19 C14.4116155,20.1832024 13.2866108,21 12,21 C10.7105968,21 9.58711809,20.1801692 9.17072899,19 L7.57752396,19 C6.19681208,19 5.07752396,17.8807119 5.07752396,16.5 C5.07752396,16.1502041 5.15092953,15.8043013 5.29299508,15.4846538 L6,13.8938928 L6,11 C6,8.38756235 7.66961525,6.16508423 10,5.34141142 L10,5 C10,3.8954305 10.8954305,3 12,3 C13.1045695,3 14,3.8954305 14,5 L14,5.341527 C14.2407618,5.42663088 14.4759849,5.52720154 14.7044502,5.64274415 C14.9508717,5.76736781 15.0496083,6.06815934 14.9249847,6.31458084 C14.800361,6.56100233 14.4995695,6.65973899 14.253148,6.53511533 C13.5607256,6.18493396 12.7941312,6 12,6 C9.23857625,6 7,8.23857625 7,11 L7,14 L6.95690577,14.2030692 L6.20680663,15.8907923 C6.1215673,16.0825808 6.07752396,16.2901225 6.07752396,16.5 C6.07752396,17.3284271 6.74909683,18 7.57752396,18 L16.422476,18 C16.6323536,18 16.8398952,17.9559567 17.0316837,17.8707173 C17.78871,17.5342612 18.1296495,16.6478186 17.7931934,15.8907923 L17.0430942,14.2030692 L17,14 L17,11 C17,10.7238576 17.2238576,10.5 17.5,10.5 C17.7761424,10.5 18,10.7238576 18,11 L18,13.8938928 L18.7070049,15.4846538 C19.2677651,16.7463643 18.6995327,18.2237687 17.4378222,18.7845289 C17.1181747,18.9265944 16.7722719,19 16.422476,19 L14.8292095,19 L14.8292095,19 Z M13.7328929,19 L10.267086,19 C10.6157944,19.6033146 11.26791,20 12,20 C12.730784,20 13.3835919,19.6045386 13.7328929,19 L13.7328929,19 Z M13,5.08303546 L13,5 C13,4.44771525 12.5522847,4 12,4 C11.4477153,4 11,4.44771525 11,5 L11,5.08295844 C11.3252085,5.0283988 11.6592878,5 12,5 C12.3380911,5 12.6723024,5.0280349 13,5.08303546 L13,5.08303546 Z M12.5,10 C12.2238576,10 12,9.77614237 12,9.5 C12,9.22385763 12.2238576,9 12.5,9 L14.5,9 C14.8993477,9 15.1375434,9.44507273 14.9160251,9.7773501 L13.4342585,12 L14.5,12 C14.7761424,12 15,12.2238576 15,12.5 C15,12.7761424 14.7761424,13 14.5,13 L12.5,13 C12.1006523,13 11.8624566,12.5549273 12.0839749,12.2226499 L13.5657415,10 L12.5,10 Z M16.5,5 C16.2238576,5 16,4.77614237 16,4.5 C16,4.22385763 16.2238576,4 16.5,4 L19.5,4 C19.9120227,4 20.1472136,4.47038187 19.9,4.8 L17.5,8 L19.5,8 C19.7761424,8 20,8.22385763 20,8.5 C20,8.77614237 19.7761424,9 19.5,9 L16.5,9 C16.0879773,9 15.8527864,8.52961813 16.1,8.2 L18.5,5 L16.5,5 Z"/>
</svg>
