<svg xmlns="http://www.w3.org/2000/svg" width="24" height="24" viewBox="0 0 24 24">
  <path d="M14.8292095,19 C14.4116155,20.1832024 13.2866108,21 12,21 C10.7105968,21 9.58711809,20.1801692 9.17072899,19 L7.57752396,19 C6.19681208,19 5.07752396,17.8807119 5.07752396,16.5 C5.07752396,16.1502041 5.15092953,15.8043013 5.29299508,15.4846538 L6,13.8938928 L6,11 C6,8.38756235 7.66961525,6.16508423 10,5.34141142 L10,5 C10,3.8954305 10.8954305,3 12,3 C13.1045695,3 14,3.8954305 14,5 L14,5.34141142 C16.3303847,6.16508423 18,8.38756235 18,11 L18,13.8938928 L18.7070049,15.4846538 C19.2677651,16.7463643 18.6995327,18.2237687 17.4378222,18.7845289 C17.1181747,18.9265944 16.7722719,19 16.422476,19 L14.8292095,19 L14.8292095,19 Z M13.7328929,19 L10.267086,19 C10.6157944,19.6033146 11.26791,20 12,20 C12.730784,20 13.3835919,19.6045386 13.7328929,19 L13.7328929,19 Z M13,5.08295844 L13,5 C13,4.44771525 12.5522847,4 12,4 C11.4477153,4 11,4.44771525 11,5 L11,5.08295844 C11.3252085,5.0283988 11.6592878,5 12,5 C12.3407122,5 12.6747915,5.0283988 13,5.08295844 L13,5.08295844 Z M12,6 C9.23857625,6 7,8.23857625 7,11 L7,14 L6.95690577,14.2030692 L6.20680663,15.8907923 C6.1215673,16.0825808 6.07752396,16.2901225 6.07752396,16.5 C6.07752396,17.3284271 6.74909683,18 7.57752396,18 L16.422476,18 C16.6323536,18 16.8398952,17.9559567 17.0316837,17.8707173 C17.78871,17.5342612 18.1296495,16.6478186 17.7931934,15.8907923 L17.0430942,14.2030692 L17,14 L17,11 C17,8.23857625 14.7614237,6 12,6 Z"/>
</svg>
