<svg xmlns="http://www.w3.org/2000/svg" width="24" height="24" viewBox="0 0 24 24">
  <path d="M14,8 L14.5,8 C15.3284271,8 16,8.67157288 16,9.5 C16,9.77614237 15.7761424,10 15.5,10 C15.2238576,10 15,9.77614237 15,9.5 C15,9.22385763 14.7761424,9 14.5,9 L9.5,9 C9.22385763,9 9,9.22385763 9,9.5 L9,10.6327046 C9,10.8815298 9.18296495,11.0924901 9.42928932,11.1276793 L14.712132,11.8823712 C15.4511051,11.9879387 16,12.6208198 16,13.3672954 L16,14.5 C16,15.3284271 15.3284271,16 14.5,16 L14,16 L14,16.5 C14,16.7761424 13.7761424,17 13.5,17 C13.2238576,17 13,16.7761424 13,16.5 L13,16 L11,16 L11,16.5 C11,16.7761424 10.7761424,17 10.5,17 C10.2238576,17 10,16.7761424 10,16.5 L10,16 L9.5,16 C8.67157288,16 8,15.3284271 8,14.5 C8,14.2238576 8.22385763,14 8.5,14 C8.77614237,14 9,14.2238576 9,14.5 C9,14.7761424 9.22385763,15 9.5,15 L14.5,15 C14.7761424,15 15,14.7761424 15,14.5 L15,13.3672954 C15,13.1184702 14.817035,12.9075099 14.5707107,12.8723207 L9.28786797,12.1176288 C8.54889486,12.0120613 8,11.3791802 8,10.6327046 L8,9.5 C8,8.67157288 8.67157288,8 9.5,8 L10,8 L10,7.5 C10,7.22385763 10.2238576,7 10.5,7 C10.7761424,7 11,7.22385763 11,7.5 L11,8 L13,8 L13,7.5 C13,7.22385763 13.2238576,7 13.5,7 C13.7761424,7 14,7.22385763 14,7.5 L14,8 Z M3,12 C3,7.02943725 7.02943725,3 12,3 C16.9705627,3 21,7.02943725 21,12 C21,16.9705627 16.9705627,21 12,21 C10.3530795,21 8.77057874,20.5564251 7.38911542,19.7306745 L3.65811388,20.9743416 C3.23552061,21.1152061 2.85357402,20.674818 3.0527864,20.2763932 L4.61690365,17.1481587 C3.5715004,15.6518876 3,13.8686355 3,12 Z M7.29435609,18.7081684 C7.43696921,18.6606307 7.59340256,18.6797811 7.72033704,18.7603167 C8.99009819,19.5659362 10.4623473,20 12,20 C16.418278,20 20,16.418278 20,12 C20,7.581722 16.418278,4 12,4 C7.581722,4 4,7.581722 4,12 C4,13.7564675 4.56695793,15.4257185 5.59951254,16.8001796 C5.71335064,16.9517125 5.73172489,17.1545842 5.64696482,17.3241043 L4.48704816,19.6439377 L7.29435609,18.7081684 Z"/>
</svg>
