<svg xmlns="http://www.w3.org/2000/svg" width="24" height="24" viewBox="0 0 24 24">
  <path d="M12,7 L12.5,7 C13.3284271,7 14,7.67157288 14,8.5 C14,8.77614237 13.7761424,9 13.5,9 C13.2238576,9 13,8.77614237 13,8.5 C13,8.22385763 12.7761424,8 12.5,8 L8.5,8 C8.22385763,8 8,8.22385763 8,8.5 L8,9.5 C8,9.77614237 8.22385763,10 8.5,10 L12.5,10 C13.3284271,10 14,10.6715729 14,11.5 L14,12.5 C14,13.3284271 13.3284271,14 12.5,14 L12,14 L12,14.5 C12,14.7761424 11.7761424,15 11.5,15 C11.2238576,15 11,14.7761424 11,14.5 L11,14 L10,14 L10,14.5 C10,14.7761424 9.77614237,15 9.5,15 C9.22385763,15 9,14.7761424 9,14.5 L9,14 L8.5,14 C7.67157288,14 7,13.3284271 7,12.5 C7,12.2238576 7.22385763,12 7.5,12 C7.77614237,12 8,12.2238576 8,12.5 C8,12.7761424 8.22385763,13 8.5,13 L12.5,13 C12.7761424,13 13,12.7761424 13,12.5 L13,11.5 C13,11.2238576 12.7761424,11 12.5,11 L8.5,11 C7.67157288,11 7,10.3284271 7,9.5 L7,8.5 C7,7.67157288 7.67157288,7 8.5,7 L9,7 L9,6.5 C9,6.22385763 9.22385763,6 9.5,6 C9.77614237,6 10,6.22385763 10,6.5 L10,7 L11,7 L11,6.5 C11,6.22385763 11.2238576,6 11.5,6 C11.7761424,6 12,6.22385763 12,6.5 L12,7 Z M17,17 L17,5.5 C17,4.67157288 16.3284271,4 15.5,4 L5.5,4 C4.67157288,4 4,4.67157288 4,5.5 L4,19 C4,19.5522847 4.44771525,20 5,20 C5.55228475,20 6,19.5522847 6,19 L6,17.5 C6,17.2238576 6.22385763,17 6.5,17 L17,17 Z M18,17 L20.5,17 C20.7761424,17 21,17.2238576 21,17.5 L21,18.5 C21,19.8807119 19.8807119,21 18.5,21 L5,21 C3.89543034,20.9999998 3,20.1045694 3,19 L3,5.5 C3,4.11928813 4.11928813,3 5.5,3 L15.5,3 C16.8807119,3 18,4.11928813 18,5.5 L18,17 Z M18.5,20 C19.3284271,20 20,19.3284271 20,18.5 L20,18 L7,18 L7,19 C7,19.3642871 6.90260571,19.7058266 6.73243561,20 L18.5,20 Z"/>
</svg>
