<svg xmlns="http://www.w3.org/2000/svg" width="24" height="24" viewBox="0 0 24 24">
  <path d="M8,17.0000265 L8,12 L6.5,12 C6.22385763,12 6,11.7761424 6,11.5 C6,11.2238576 6.22385763,11 6.5,11 L8,11 L8,7 L6.5,7 C6.22385763,7 6,6.77614237 6,6.5 C6,6.22385763 6.22385763,6 6.5,6 L8,6 L8,4.5 C8,4.22385763 8.22385763,4 8.5,4 C8.77614237,4 9,4.22385763 9,4.5 L9,6 L11,6 L11,4.5 C11,4.22385763 11.2238576,4 11.5,4 C11.7761424,4 12,4.22385763 12,4.5 L12,6 L13.0138782,6 C14.6707324,6 16.0138782,7.34314575 16.0138782,9 C16.0138782,9.79993487 15.7007921,10.5267446 15.1904738,11.0645751 C16.8016547,11.3782148 18.0178344,12.7970871 18.0178344,14.5000133 C18.0178344,16.4330172 16.4508251,18.0000265 14.5178212,18.0000265 L12,18.0000265 L12,19.5 C12,19.7761424 11.7761424,20 11.5,20 C11.2238576,20 11,19.7761424 11,19.5 L11,18.0000265 L9,18.0000265 L9,19.508331 C9,19.7844734 8.77614237,20.008331 8.5,20.008331 C8.22385763,20.008331 8,19.7844734 8,19.508331 L8,18.0000265 L6.5,18.0000265 C6.22385763,18.0000265 6,17.7761689 6,17.5000265 C6,17.2238841 6.22385763,17.0000265 6.5,17.0000265 L8,17.0000265 Z M9,17.0000265 L11.4947976,17.0000265 L11.5,17 L11.5052024,17.0000265 L14.5178212,17.0000265 C15.8985404,17.0000265 17.0178344,15.8807324 17.0178344,14.5000133 C17.0178344,13.1192941 15.8985404,12 14.5178212,12 L9,12 L9,17.0000265 Z M13.0138782,11 C14.1184477,11 15.0138782,10.1045695 15.0138782,9 C15.0138782,7.8954305 14.1184477,7 13.0138782,7 L9,7 L9,11 L13.0138782,11 Z"/>
</svg>
