<svg xmlns="http://www.w3.org/2000/svg" width="24" height="24" viewBox="0 0 24 24">
  <path d="M7,7 C6.44771525,7 6,6.55228475 6,6 C6,5.44771525 6.44771525,5 7,5 L13.5,5 C15.709139,5 17.5,6.790861 17.5,9 C17.5,10.0806825 17.0714396,11.0612694 16.3749995,11.7810799 C17.3607629,12.5096109 18,13.6801545 18,15 C18,17.209139 16.209139,19 14,19 L7,19 C6.44771525,19 6,18.5522847 6,18 C6,17.4477153 6.44771525,17 7,17 L7,7 Z M9,7 L9,11 L13.5,11 C14.6045695,11 15.5,10.1045695 15.5,9 C15.5,7.8954305 14.6045695,7 13.5,7 L9,7 Z M9,13 L9,17 L14,17 C15.1045695,17 16,16.1045695 16,15 C16,13.8954305 15.1045695,13 14,13 C13.9434034,13 13.8879049,12.9952983 13.8338738,12.9862641 C13.7237867,12.9953611 13.6124351,13 13.5,13 L9,13 L9,13 Z"/>
</svg>
