<svg xmlns="http://www.w3.org/2000/svg" width="24" height="24" viewBox="0 0 24 24">
  <path d="M4,4.5 C4,3.11928813 5.11928813,2 6.5,2 L19.5,2 C19.7761424,2 20,2.22385763 20,2.5 C20,2.77614237 19.7761424,3 19.5,3 L6.5,3 C5.67157288,3 5,3.67157288 5,4.5 C5,5.32842712 5.67157288,6 6.5,6 L17.5,6 C18.8807119,6 20,7.11928813 20,8.5 L20,19.5 C20,20.8807119 18.8807119,22 17.5,22 L8.5,22 C6.01471863,22 4,19.9852814 4,17.5 L4,4.5 Z M5,17.5 C5,19.4329966 6.56700338,21 8.5,21 L17.5,21 C18.3284271,21 19,20.3284271 19,19.5 L19,8.5 C19,7.67157288 18.3284271,7 17.5,7 L6.5,7 C5.93719704,7 5.41783027,6.81402759 5,6.50018309 L5,17.5 Z M6.5,5 C6.22385763,5 6,4.77614237 6,4.5 C6,4.22385763 6.22385763,4 6.5,4 L19.5,4 C19.7761424,4 20,4.22385763 20,4.5 C20,4.77614237 19.7761424,5 19.5,5 L6.5,5 Z M8,10.5 C8,10.2238576 8.22385763,10 8.5,10 L15.5,10 C15.7761424,10 16,10.2238576 16,10.5 L16,13.5 C16,13.7761424 15.7761424,14 15.5,14 L8.5,14 C8.22385763,14 8,13.7761424 8,13.5 L8,10.5 Z M9,13 L15,13 L15,11 L9,11 L9,13 Z M8.5,16 C8.22385763,16 8,15.7761424 8,15.5 C8,15.2238576 8.22385763,15 8.5,15 L15.5,15 C15.7761424,15 16,15.2238576 16,15.5 C16,15.7761424 15.7761424,16 15.5,16 L8.5,16 Z M8.5,18 C8.22385763,18 8,17.7761424 8,17.5 C8,17.2238576 8.22385763,17 8.5,17 L12.5,17 C12.7761424,17 13,17.2238576 13,17.5 C13,17.7761424 12.7761424,18 12.5,18 L8.5,18 Z"/>
</svg>
