<svg xmlns="http://www.w3.org/2000/svg" width="24" height="24" viewBox="0 0 24 24">
  <path d="M16,6 L8,6 L8,18.0096118 L16,18.0096118 L16,6 Z M17,6 L17,18.0096118 L18.5,18.0096118 C19.3284271,18.0096118 20,17.338039 20,16.5096118 L20,7.5 C20,6.67157288 19.3284271,6 18.5,6 L17,6 Z M7,6 L5.5,6 C4.67157288,6 4,6.67157288 4,7.5 L4,16.5096118 C4,17.338039 4.67157288,18.0096118 5.5,18.0096118 L7,18.0096118 L7,6 Z M9,5 L9,4.5 C9,3.67157288 9.67157288,3 10.5,3 L13.5,3 C14.3284271,3 15,3.67157288 15,4.5 L15,5 L18.5,5 C19.8807119,5 21,6.11928813 21,7.5 L21,16.5096118 C21,17.8903237 19.8807119,19.0096118 18.5,19.0096118 L5.5,19.0096118 C4.11928813,19.0096118 3,17.8903237 3,16.5096118 L3,7.5 C3,6.11928813 4.11928813,5 5.5,5 L9,5 Z M14,5 L14,4.5 C14,4.22385763 13.7761424,4 13.5,4 L10.5,4 C10.2238576,4 10,4.22385763 10,4.5 L10,5 L14,5 Z"/>
</svg>
