<svg xmlns="http://www.w3.org/2000/svg" width="24" height="24" viewBox="0 0 24 24">
  <path d="M12,15 C10.3431458,15 9,13.6568542 9,12 C9,10.3431458 10.3431458,9 12,9 C13.6568542,9 15,10.3431458 15,12 C15,13.6568542 13.6568542,15 12,15 Z M12,14 C13.1045695,14 14,13.1045695 14,12 C14,10.8954305 13.1045695,10 12,10 C10.8954305,10 10,10.8954305 10,12 C10,13.1045695 10.8954305,14 12,14 Z M8.8354717,16.1292457 C9.04023364,16.3145216 9.05603019,16.6307098 8.87075429,16.8354717 C8.68547838,17.0402336 8.36929024,17.0560302 8.1645283,16.8707543 C8.00240293,16.7240575 7.84770297,16.5693575 7.70100616,16.4072321 C5.26695906,13.7171888 5.47448499,9.56329282 8.1645283,7.12924571 C8.36929024,6.94396981 8.68547838,6.95976636 8.87075429,7.1645283 C9.05603019,7.36929024 9.04023364,7.68547838 8.8354717,7.87075429 C6.55495226,9.93424958 6.37901943,13.4557693 8.44251473,15.7362887 C8.56687888,15.8737327 8.69802779,16.0048816 8.8354717,16.1292457 Z M6.17633962,5.11889115 C6.38682023,4.94013845 6.70235616,4.96585901 6.88110885,5.17633962 C7.05986155,5.38682023 7.03414099,5.70235616 6.82366038,5.88110885 C3.44429011,8.75107176 3.03133386,13.8171573 5.90129677,17.1965275 C6.18322196,17.5284934 6.49169456,17.836966 6.82366038,18.1188911 C7.03414099,18.2976438 7.05986155,18.6131798 6.88110885,18.8236604 C6.70235616,19.034141 6.38682023,19.0598615 6.17633962,18.8811089 C5.80302149,18.5640648 5.45612309,18.2171664 5.13907906,17.8438483 C1.91161077,14.0435168 2.37600814,8.34635944 6.17633962,5.11889115 Z M15.1658888,7.87198081 C14.9604495,7.68745631 14.9434947,7.37132816 15.1280192,7.16588883 C15.3125437,6.9604495 15.6286718,6.94349468 15.8341112,7.12801919 C18.5248319,9.54481012 18.7468958,13.6852664 16.3301049,16.3759871 C16.1737532,16.5500604 16.0081845,16.7156291 15.8341112,16.8719808 C15.6286718,17.0565053 15.3125437,17.0395505 15.1280192,16.8341112 C14.9434947,16.6286718 14.9604495,16.3125437 15.1658888,16.1280192 C15.3133808,15.9955427 15.4536668,15.8552567 15.5861433,15.7077647 C17.6338852,13.4279227 17.4457309,9.91972273 15.1658888,7.87198081 Z M17.1761365,5.88093624 C16.9657512,5.70207135 16.9401989,5.38652175 17.1190638,5.17613647 C17.2979287,4.9657512 17.6134783,4.94019888 17.8238635,5.11906376 C21.6240997,8.34994013 22.085657,14.049783 18.8547806,17.8500192 C18.5394845,18.2208781 18.1947225,18.5656402 17.8238635,18.8809362 C17.6134783,19.0598011 17.2979287,19.0342488 17.1190638,18.8238635 C16.9401989,18.6134783 16.9657512,18.2979287 17.1761365,18.1190638 C17.5059331,17.838678 17.8125223,17.5320888 18.0929081,17.2022921 C20.9660547,13.8228265 20.5556021,8.75408283 17.1761365,5.88093624 Z"/>
</svg>
