<svg xmlns="http://www.w3.org/2000/svg" width="24" height="24" viewBox="0 0 24 24">
  <path d="M5,12 L19,12 L19,5.5 C19,4.67157288 18.3284271,4 17.5,4 L16,4 L16,6.5 C16,6.77614237 15.7761424,7 15.5,7 C15.2238576,7 15,6.77614237 15,6.5 L15,4 L10,4 L10,5.5 C10,5.77614237 9.77614237,6 9.5,6 C9.22385763,6 9,5.77614237 9,5.5 L9,4 L8,4 L8,7.5 C8,7.77614237 7.77614237,8 7.5,8 C7.22385763,8 7,7.77614237 7,7.5 L7,4 L6.5,4 C5.67157288,4 5,4.67157288 5,5.5 L5,12 Z M5,13 L5,13.5 C5,14.3284271 5.67157288,15 6.5,15 L10.5,15 C10.7761424,15 11,15.2238576 11,15.5 L11,19 C11,19.5522847 11.4477153,20 12,20 C12.5522847,20 13,19.5522847 13,19 L13,15.5 C13,15.2238576 13.2238576,15 13.5,15 L17.5,15 C18.3284271,15 19,14.3284271 19,13.5 L19,13 L5,13 Z M6.5,16 C5.11928813,16 4,14.8807119 4,13.5 L4,5.5 C4,4.11928813 5.11928813,3 6.5,3 L17.5,3 C18.8807119,3 20,4.11928813 20,5.5 L20,13.5 C20,14.8807119 18.8807119,16 17.5,16 L14,16 L14,19 C14,20.1045695 13.1045695,21 12,21 C10.8954305,21 10,20.1045695 10,19 L10,16 L6.5,16 Z"/>
</svg>
