<svg xmlns="http://www.w3.org/2000/svg" width="24" height="24" viewBox="0 0 24 24">
  <path d="M13,19 L11,19 L11,21.5 C11,21.7761424 10.7761424,22 10.5,22 C10.2238576,22 10,21.7761424 10,21.5 L10,18.9146471 C9.41740381,18.7087289 9,18.1531094 9,17.5 L9,13.5 C9,12.8468906 9.41740381,12.2912711 10,12.0853529 L10,6 C10,5.92237745 10.0180725,5.84582092 10.0527864,5.7763932 L10.440983,5 L10.0527864,4.2236068 C9.95653924,4.03111247 9.99426648,3.79862674 10.1464466,3.64644661 L11.6464466,2.14644661 C11.8417088,1.95118446 12.1582912,1.95118446 12.3535534,2.14644661 L13.8535534,3.64644661 C14.0057335,3.79862674 14.0434608,4.03111247 13.9472136,4.2236068 L13.559017,5 L13.9472136,5.7763932 C13.9819275,5.84582092 14,5.92237745 14,6 L14,12.0853529 C14.5825962,12.2912711 15,12.8468906 15,13.5 L15,17.5 C15,18.1531094 14.5825962,18.7087289 14,18.9146471 L14,21.5 C14,21.7761424 13.7761424,22 13.5,22 C13.2238576,22 13,21.7761424 13,21.5 L13,19 Z M12.940983,6 L11.059017,6 L11,6.11803399 L11,7 L13,7 L13,6.11803399 L12.940983,6 L12.940983,6 Z M12.5,5 C12.5,4.92338754 12.5175955,4.84677507 12.5527864,4.7763932 L12.8916197,4.09872652 L12,3.20710678 L11.1083803,4.09872652 L11.4472136,4.7763932 C11.4824045,4.84677507 11.5,4.92338754 11.5,5 L12.5,5 Z M14,15 L10,15 L10,16 L14,16 L14,15 Z M14,14 L14,13.5 C14,13.2238576 13.7761424,13 13.5,13 L10.5,13 C10.2238576,13 10,13.2238576 10,13.5 L10,14 L14,14 Z M14,17 L10,17 L10,17.5 C10,17.7761424 10.2238576,18 10.5,18 L13.5,18 C13.7761424,18 14,17.7761424 14,17.5 L14,17 Z M13,8 L11,8 L11,12 L13,12 L13,8 Z"/>
</svg>
