<svg xmlns="http://www.w3.org/2000/svg" width="24" height="24" viewBox="0 0 24 24">
  <path d="M15,17 L15,17.5 C15,18.1531094 14.5825962,18.7087289 14,18.9146471 L14,21.5 C14,21.7761424 13.7761424,22 13.5,22 C13.2238576,22 13,21.7761424 13,21.5 L13,19 L11,19 L11,21.5 C11,21.7761424 10.7761424,22 10.5,22 C10.2238576,22 10,21.7761424 10,21.5 L10,18.9146471 C9.41740381,18.7087289 9,18.1531094 9,17.5 L9,17 L7.5,17 C7.22385763,17 7,16.7761424 7,16.5 L7,8.5 C7,8.22385763 7.22385763,8 7.5,8 L8,8 L8,2.5 C8,2.22385763 8.22385763,2 8.5,2 L15.5,2 C15.7761424,2 16,2.22385763 16,2.5 L16,8 L16.5,8 C16.7761424,8 17,8.22385763 17,8.5 L17,16.5 C17,16.7761424 16.7761424,17 16.5,17 L15,17 Z M14,17 L10,17 L10,17.5 C10,17.7438358 10.1745424,17.9469051 10.405502,17.9910828 C10.4361026,17.9852296 10.4676935,17.9821656 10.5,17.9821656 C10.5459894,17.9821656 10.5905286,17.9883746 10.632825,18 L13.367175,18 C13.4094714,17.9883746 13.4540106,17.9821656 13.5,17.9821656 C13.5323065,17.9821656 13.5638974,17.9852296 13.594498,17.9910828 C13.8254576,17.9469051 14,17.7438358 14,17.5 L14,17 Z M9,8 L15,8 L15,3 L9,3 L9,8 Z M11,6.5 C11,6.77614237 10.7761424,7 10.5,7 C10.2238576,7 10,6.77614237 10,6.5 L10,5.5 C10,5.22385763 10.2238576,5 10.5,5 C10.7761424,5 11,5.22385763 11,5.5 L11,6.5 Z M14,6.5 C14,6.77614237 13.7761424,7 13.5,7 C13.2238576,7 13,6.77614237 13,6.5 L13,5.5 C13,5.22385763 13.2238576,5 13.5,5 C13.7761424,5 14,5.22385763 14,5.5 L14,6.5 Z M8,9 L8,16 L16,16 L16,9 L8,9 Z"/>
</svg>
