<svg xmlns="http://www.w3.org/2000/svg" width="24" height="24" viewBox="0 0 24 24">
  <path d="M13,16 L11,16 L11,17 L13,17 L13,16 Z M14,16 L14,21.5 C14,21.7761424 13.7761424,22 13.5,22 C13.2238576,22 13,21.7761424 13,21.5 L13,18 L11,18 L11,21.5 C11,21.7761424 10.7761424,22 10.5,22 C10.2238576,22 10,21.7761424 10,21.5 L10,16 L9.5,16 C9.31061397,16 9.13748241,15.8929988 9.0527864,15.7236068 L7.0527864,11.7236068 C7.01807255,11.6541791 7,11.5776225 7,11.5 L7,7.5 C7,7.22385763 7.22385763,7 7.5,7 L8,7 L8,2.5 C8,2.22385763 8.22385763,2 8.5,2 L15.5,2 C15.7761424,2 16,2.22385763 16,2.5 L16,7 L16.5,7 C16.7761424,7 17,7.22385763 17,7.5 L17,11.5 C17,11.5776225 16.9819275,11.6541791 16.9472136,11.7236068 L14.9472136,15.7236068 C14.8625176,15.8929988 14.689386,16 14.5,16 L14,16 Z M11,3 L11,3.5 C11,3.77614237 11.2238576,4 11.5,4 L12.5,4 C12.7761424,4 13,3.77614237 13,3.5 L13,3 L11,3 Z M14,3 L14,3.5 C14,4.32842712 13.3284271,5 12.5,5 L11.5,5 C10.6715729,5 10,4.32842712 10,3.5 L10,3 L9,3 L9,7.5 C9,7.63807119 8.94403559,7.76307119 8.85355339,7.85355339 C8.76307119,7.94403559 8.63807119,8 8.5,8 L8,8 L8,11.381966 L9.80901699,15 L14.190983,15 L16,11.381966 L16,8 L15.5,8 C15.2238576,8 15,7.77614237 15,7.5 L15,3 L14,3 Z M10.5,7 L13.5,7 C13.7761424,7 14,7.22385763 14,7.5 L14,10 C14,11.1045695 13.1045695,12 12,12 C10.8954305,12 10,11.1045695 10,10 L10,7.5 C10,7.22385763 10.2238576,7 10.5,7 Z M11,10 C11,10.5522847 11.4477153,11 12,11 C12.5522847,11 13,10.5522847 13,10 L13,8 L11,8 L11,10 Z M10.5,14 C10.2238576,14 10,13.7761424 10,13.5 C10,13.2238576 10.2238576,13 10.5,13 L13.5,13 C13.7761424,13 14,13.2238576 14,13.5 C14,13.7761424 13.7761424,14 13.5,14 L10.5,14 Z"/>
</svg>
