<svg xmlns="http://www.w3.org/2000/svg" width="24" height="24" viewBox="0 0 24 24">
  <path d="M17,6 L17.5,6 C17.7761424,6 18,6.22385763 18,6.5 L18,12.5 C18,12.6756314 17.9078506,12.8383848 17.7572479,12.9287465 L15.4158515,14.3335843 L14.9743416,15.6581139 C14.9062846,15.862285 14.7152152,16 14.5,16 L14,16 L14,21.5 C14,21.7761424 13.7761424,22 13.5,22 C13.2238576,22 13,21.7761424 13,21.5 L13,16 L11,16 L11,21.5 C11,21.7761424 10.7761424,22 10.5,22 C10.2238576,22 10,21.7761424 10,21.5 L10,16 L9.5,16 C9.2847848,16 9.09371537,15.862285 9.02565835,15.6581139 L8.58414848,14.3335843 L6.24275212,12.9287465 C6.09214942,12.8383848 6,12.6756314 6,12.5 L6,6.5 C6,6.22385763 6.22385763,6 6.5,6 L7,6 L7,2.5 C7,2.22385763 7.22385763,2 7.5,2 L16.5,2 C16.7761424,2 17,2.22385763 17,2.5 L17,6 Z M16,6 L16,3 L8,3 L8,6 L16,6 Z M14.1396204,15 L14.5256584,13.8418861 C14.5634019,13.7286554 14.6404055,13.6326615 14.7427521,13.5712535 L17,12.2169048 L17,7 L7,7 L7,12.2169048 L9.25724788,13.5712535 C9.35959449,13.6326615 9.43659808,13.7286554 9.47434165,13.8418861 L9.86037961,15 L14.1396204,15 Z M9,4 L10,4 L10,5 L9,5 L9,4 Z M14,4 L15,4 L15,5 L14,5 L14,4 Z"/>
</svg>
