<svg xmlns="http://www.w3.org/2000/svg" width="24" height="24" viewBox="0 0 24 24">
  <path d="M8,4 L8,2.5 C8,2.22385763 8.22385763,2 8.5,2 L15.5,2 C15.7761424,2 16,2.22385763 16,2.5 L16,4 L17.5,4 C17.7761424,4 18,4.22385763 18,4.5 L18,11.5 C18,11.7761424 17.7761424,12 17.5,12 L15,12 L15,13.5 C15,13.7761424 14.7761424,14 14.5,14 L14,14 L14,21.5 C14,21.7761424 13.7761424,22 13.5,22 C13.2238576,22 13,21.7761424 13,21.5 L13,14 L11,14 L11,21.5 C11,21.7761424 10.7761424,22 10.5,22 C10.2238576,22 10,21.7761424 10,21.5 L10,14 L9.5,14 C9.22385763,14 9,13.7761424 9,13.5 L9,12 L6.5,12 C6.22385763,12 6,11.7761424 6,11.5 L6,4.5 C6,4.22385763 6.22385763,4 6.5,4 L8,4 Z M9,4 L15,4 L15,3 L9,3 L9,4 Z M14,12 L10,12 L10,13 L14,13 L14,12 Z M7,11 L17,11 L17,5 L7,5 L7,11 Z M11.5,7 L12.5,7 C12.7761424,7 13,7.22385763 13,7.5 L13,8.5 C13,8.77614237 12.7761424,9 12.5,9 L11.5,9 C11.2238576,9 11,8.77614237 11,8.5 L11,7.5 C11,7.22385763 11.2238576,7 11.5,7 Z"/>
</svg>
