<svg xmlns="http://www.w3.org/2000/svg" width="24" height="24" viewBox="0 0 24 24">
  <path d="M16,9 L16.5,9 C16.7761424,9 17,9.22385763 17,9.5 L17,17.5 C17,17.7761424 16.7761424,18 16.5,18 L14,18 L14,21.5 C14,21.7761424 13.7761424,22 13.5,22 C13.2238576,22 13,21.7761424 13,21.5 L13,18 L11,18 L11,21.5 C11,21.7761424 10.7761424,22 10.5,22 C10.2238576,22 10,21.7761424 10,21.5 L10,18 L7.5,18 C7.22385763,18 7,17.7761424 7,17.5 L7,9.5 C7,9.22385763 7.22385763,9 7.5,9 L8,9 L8,3.5 C8,2.67157288 8.67157288,2 9.5,2 L14.5,2 C15.3284271,2 16,2.67157288 16,3.5 L16,9 Z M15,9 L15,3.5 C15,3.22385763 14.7761424,3 14.5,3 L9.5,3 C9.22385763,3 9,3.22385763 9,3.5 L9,9 L15,9 Z M16,17 L16,10 L8,10 L8,17 L16,17 Z M10.5,5 C10.2238576,5 10,4.77614237 10,4.5 C10,4.22385763 10.2238576,4 10.5,4 L13.5,4 C13.7761424,4 14,4.22385763 14,4.5 C14,4.77614237 13.7761424,5 13.5,5 L10.5,5 Z"/>
</svg>
