<svg xmlns="http://www.w3.org/2000/svg" width="24" height="24" viewBox="0 0 24 24">
  <path d="M16,4 L8,4 L8,4.5 C8,4.77614237 7.77614237,5 7.5,5 C7.22385763,5 7,4.77614237 7,4.5 L7,4 L5.5,4 C4.67157288,4 4,4.67157288 4,5.5 L4,8 L20,8 L20,5.5 C20,4.67157288 19.3284271,4 18.5,4 L17,4 L17,4.5 C17,4.77614237 16.7761424,5 16.5,5 C16.2238576,5 16,4.77614237 16,4.5 L16,4 Z M17,3 L18.5,3 C19.8807119,3 21,4.11928813 21,5.5 L21,18.5073514 C21,19.8880632 19.8807119,21.0073514 18.5,21.0073514 L5.5,21.0073514 C4.11928813,21.0073514 3,19.8880632 3,18.5073514 L3,5.5 C3,4.11928813 4.11928813,3 5.5,3 L7,3 L7,2.5 C7,2.22385763 7.22385763,2 7.5,2 C7.77614237,2 8,2.22385763 8,2.5 L8,3 L16,3 L16,2.5 C16,2.22385763 16.2238576,2 16.5,2 C16.7761424,2 17,2.22385763 17,2.5 L17,3 Z M20,9 L4,9 L4,18.5073514 C4,19.3357785 4.67157288,20.0073514 5.5,20.0073514 L18.5,20.0073514 C19.3284271,20.0073514 20,19.3357785 20,18.5073514 L20,9 Z M12.7071068,14 L14.8535534,16.1464466 C15.0488155,16.3417088 15.0488155,16.6582912 14.8535534,16.8535534 C14.6582912,17.0488155 14.3417088,17.0488155 14.1464466,16.8535534 L12,14.7071068 L9.85355339,16.8535534 C9.65829124,17.0488155 9.34170876,17.0488155 9.14644661,16.8535534 C8.95118446,16.6582912 8.95118446,16.3417088 9.14644661,16.1464466 L11.2928932,14 L9.14644661,11.8535534 C8.95118446,11.6582912 8.95118446,11.3417088 9.14644661,11.1464466 C9.34170876,10.9511845 9.65829124,10.9511845 9.85355339,11.1464466 L12,13.2928932 L14.1464466,11.1464466 C14.3417088,10.9511845 14.6582912,10.9511845 14.8535534,11.1464466 C15.0488155,11.3417088 15.0488155,11.6582912 14.8535534,11.8535534 L12.7071068,14 Z"/>
</svg>
