<svg xmlns="http://www.w3.org/2000/svg" width="24" height="24" viewBox="0 0 24 24">
  <path d="M16,4 L8,4 L8,4.5 C8,4.77614237 7.77614237,5 7.5,5 C7.22385763,5 7,4.77614237 7,4.5 L7,4 L5.5,4 C4.67157288,4 4,4.67157288 4,5.5 L4,8 L20,8 L20,5.5 C20,4.67157288 19.3284271,4 18.5,4 L17,4 L17,4.5 C17,4.77614237 16.7761424,5 16.5,5 C16.2238576,5 16,4.77614237 16,4.5 L16,4 Z M17,3 L18.5,3 C19.8807119,3 21,4.11928813 21,5.5 L21,18.5073514 C21,19.8880632 19.8807119,21.0073514 18.5,21.0073514 L5.5,21.0073514 C4.11928813,21.0073514 3,19.8880632 3,18.5073514 L3,5.5 C3,4.11928813 4.11928813,3 5.5,3 L7,3 L7,2.5 C7,2.22385763 7.22385763,2 7.5,2 C7.77614237,2 8,2.22385763 8,2.5 L8,3 L16,3 L16,2.5 C16,2.22385763 16.2238576,2 16.5,2 C16.7761424,2 17,2.22385763 17,2.5 L17,3 Z M20,9 L4,9 L4,18.5073514 C4,19.3357785 4.67157288,20.0073514 5.5,20.0073514 L18.5,20.0073514 C19.3284271,20.0073514 20,19.3357785 20,18.5073514 L20,9 Z M5,10.5 C5,10.2238576 5.22385763,10 5.5,10 L18.5,10 C18.7761424,10 19,10.2238576 19,10.5 L19,12.5 C19,12.7761424 18.7761424,13 18.5,13 L5.5,13 C5.22385763,13 5,12.7761424 5,12.5 L5,10.5 Z M6,11 L6,12 L18,12 L18,11 L6,11 Z"/>
</svg>
