<svg xmlns="http://www.w3.org/2000/svg" width="24" height="24" viewBox="0 0 24 24">
  <path d="M5.5,3 L18.5,3 C19.8807119,3 21,4.11928813 21,5.5 L21,18.5 C21,19.8807119 19.8807119,21 18.5,21 L5.5,21 C4.11928813,21 3,19.8807119 3,18.5 L3,5.5 C3,4.11928813 4.11928813,3 5.5,3 Z M5.5,4 C4.67157288,4 4,4.67157288 4,5.5 L4,18.5 C4,19.3284271 4.67157288,20 5.5,20 L18.5,20 C19.3284271,20 20,19.3284271 20,18.5 L20,5.5 C20,4.67157288 19.3284271,4 18.5,4 L5.5,4 Z M17,5 L18,5 C18.5522847,5 19,5.44771525 19,6 L19,7 C19,7.55228475 18.5522847,8 18,8 L17,8 C16.4477153,8 16,7.55228475 16,7 L16,6 C16,5.44771525 16.4477153,5 17,5 Z M17,6 L17,7 L18,7 L18,6 L17,6 Z M12,17 C9.23857625,17 7,14.7614237 7,12 C7,9.23857625 9.23857625,7 12,7 C14.7614237,7 17,9.23857625 17,12 C17,14.7614237 14.7614237,17 12,17 Z M12,16 C14.209139,16 16,14.209139 16,12 C16,9.790861 14.209139,8 12,8 C9.790861,8 8,9.790861 8,12 C8,14.209139 9.790861,16 12,16 Z"/>
</svg>
