<svg xmlns="http://www.w3.org/2000/svg" width="24" height="24" viewBox="0 0 24 24">
  <path d="M5.5,18 C5.77614237,18 6,18.2238576 6,18.5 C6,18.7761424 5.77614237,19 5.5,19 L4.5,19 C3.11928813,19 2,17.8807119 2,16.5 L2,5.5 C2,4.11928813 3.11928813,3 4.5,3 L19.5,3 C20.8807119,3 22,4.11928813 22,5.5 L22,16.5 C22,17.8807119 20.8807119,19 19.5,19 L18.5,19 C18.2238576,19 18,18.7761424 18,18.5 C18,18.2238576 18.2238576,18 18.5,18 L19.5,18 C20.3284271,18 21,17.3284271 21,16.5 L21,5.5 C21,4.67157288 20.3284271,4 19.5,4 L4.5,4 C3.67157288,4 3,4.67157288 3,5.5 L3,16.5 C3,17.3284271 3.67157288,18 4.5,18 L5.5,18 Z M16.8747929,20.1690464 C17.1598424,20.4918545 16.9306487,21 16.5,21 L7.5,21 C7.06935126,21 6.8401576,20.4918545 7.12520712,20.1690464 L11.6252071,15.0729608 C11.824238,14.8475657 12.175762,14.8475657 12.3747929,15.0729608 L16.8747929,20.1690464 Z M12,16.1593073 L8.60855044,20 L15.3914496,20 L12,16.1593073 Z"/>
</svg>
