<svg xmlns="http://www.w3.org/2000/svg" width="24" height="24" viewBox="0 0 24 24">
  <path d="M22,12.5835114 L22,19.5 C22,20.8807119 20.8807119,22 19.5,22 L12.5835114,22 C12.5563546,22.0045662 12.5284549,22.0069431 12.5,22.0069431 C12.4715451,22.0069431 12.4436454,22.0045662 12.4164886,22 L5.5,22 C4.11928813,22 3,20.8807119 3,19.5 L3,5.5 C3,4.11928813 4.11928813,3 5.5,3 L19.5,3 C20.8807119,3 22,4.11928813 22,5.5 L22,12.4164886 C22.0045662,12.4436454 22.0069431,12.4715451 22.0069431,12.5 C22.0069431,12.5284549 22.0045662,12.5563546 22,12.5835114 L22,12.5835114 Z M4,12 L12,12 L12,4 L5.5,4 C4.67157288,4 4,4.67157288 4,5.5 L4,12 Z M4,13 L4,19.5 C4,20.3284271 4.67157288,21 5.5,21 L12,21 L12,13 L4,13 Z M21,12 L21,5.5 C21,4.67157288 20.3284271,4 19.5,4 L13,4 L13,12 L21,12 Z M21,13 L13,13 L13,21 L19.5,21 C20.3284271,21 21,20.3284271 21,19.5 L21,13 Z"/>
</svg>
