<svg xmlns="http://www.w3.org/2000/svg" width="24" height="24" viewBox="0 0 24 24">
  <path d="M13,13 L13,13.5 C13,13.7761424 12.7761424,14 12.5,14 C12.2238576,14 12,13.7761424 12,13.5 L12,13 L11.5,13 C11.2238576,13 11,12.7761424 11,12.5 C11,12.2238576 11.2238576,12 11.5,12 L12,12 L12,11.5 C12,11.2238576 12.2238576,11 12.5,11 C12.7761424,11 13,11.2238576 13,11.5 L13,12 L13.5,12 C13.7761424,12 14,12.2238576 14,12.5 C14,12.7761424 13.7761424,13 13.5,13 L13,13 L13,13 Z M6,12 L6.5,12 C6.77614237,12 7,12.2238576 7,12.5 C7,12.7761424 6.77614237,13 6.5,13 L6,13 L6,19.5 C6,19.7761424 5.77614237,20 5.5,20 C5.22385763,20 5,19.7761424 5,19.5 L5,5.5 C5,5.22385763 5.22385763,5 5.5,5 C5.77614237,5 6,5.22385763 6,5.5 L6,12 Z M22,5.5 C22,5.77614237 21.7761424,6 21.5,6 C21.2238576,6 21,5.77614237 21,5.5 C21,4.67157288 20.3284271,4 19.5,4 C19.2238576,4 19,3.77614237 19,3.5 C19,3.22385763 19.2238576,3 19.5,3 C20.8807119,3 22,4.11928813 22,5.5 Z M21,19.5 C21,19.2238576 21.2238576,19 21.5,19 C21.7761424,19 22,19.2238576 22,19.5 C22,20.8807119 20.8807119,22 19.5,22 L19.4384472,22 C19.1623048,22 18.9384472,21.7761424 18.9384472,21.5 C18.9384472,21.2238576 19.1623048,21 19.4384472,21 L19.5,21 C20.3284271,21 21,20.3284271 21,19.5 Z M5.5,21 C5.77614237,21 6,21.2238576 6,21.5 C6,21.7761424 5.77614237,22 5.5,22 C4.11928813,22 3,20.8807119 3,19.5 L3,5.5 C3,4.11928813 4.11928813,3 5.5,3 C5.77614237,3 6,3.22385763 6,3.5 C6,3.77614237 5.77614237,4 5.5,4 C4.67157288,4 4,4.67157288 4,5.5 L4,19.5 C4,20.3284271 4.67157288,21 5.5,21 Z M7.5,22 C7.22385763,22 7,21.7761424 7,21.5 C7,21.2238576 7.22385763,21 7.5,21 L8.5,21 C8.77614237,21 9,21.2238576 9,21.5 C9,21.7761424 8.77614237,22 8.5,22 L7.5,22 Z M10.5,22 C10.2238576,22 10,21.7761424 10,21.5 C10,21.2238576 10.2238576,21 10.5,21 L11.5,21 C11.7761424,21 12,21.2238576 12,21.5 C12,21.7761424 11.7761424,22 11.5,22 L10.5,22 Z M13.5,22 C13.2238576,22 13,21.7761424 13,21.5 C13,21.2238576 13.2238576,21 13.5,21 L14.5,21 C14.7761424,21 15,21.2238576 15,21.5 C15,21.7761424 14.7761424,22 14.5,22 L13.5,22 Z M16.5,22 C16.2238576,22 16,21.7761424 16,21.5 C16,21.2238576 16.2238576,21 16.5,21 L17.5,21 C17.7761424,21 18,21.2238576 18,21.5 C18,21.7761424 17.7761424,22 17.5,22 L16.5,22 Z M7.5,4 C7.22385763,4 7,3.77614237 7,3.5 C7,3.22385763 7.22385763,3 7.5,3 L8.5,3 C8.77614237,3 9,3.22385763 9,3.5 C9,3.77614237 8.77614237,4 8.5,4 L7.5,4 Z M10.5,4 C10.2238576,4 10,3.77614237 10,3.5 C10,3.22385763 10.2238576,3 10.5,3 L11.5,3 C11.7761424,3 12,3.22385763 12,3.5 C12,3.77614237 11.7761424,4 11.5,4 L10.5,4 Z M13.5,4 C13.2238576,4 13,3.77614237 13,3.5 C13,3.22385763 13.2238576,3 13.5,3 L14.5,3 C14.7761424,3 15,3.22385763 15,3.5 C15,3.77614237 14.7761424,4 14.5,4 L13.5,4 Z M16.5,4 C16.2238576,4 16,3.77614237 16,3.5 C16,3.22385763 16.2238576,3 16.5,3 L17.5,3 C17.7761424,3 18,3.22385763 18,3.5 C18,3.77614237 17.7761424,4 17.5,4 L16.5,4 Z M12,5.5 C12,5.22385763 12.2238576,5 12.5,5 C12.7761424,5 13,5.22385763 13,5.5 L13,6.5 C13,6.77614237 12.7761424,7 12.5,7 C12.2238576,7 12,6.77614237 12,6.5 L12,5.5 Z M21,7.5 C21,7.22385763 21.2238576,7 21.5,7 C21.7761424,7 22,7.22385763 22,7.5 L22,8.5 C22,8.77614237 21.7761424,9 21.5,9 C21.2238576,9 21,8.77614237 21,8.5 L21,7.5 Z M21,10.5 C21,10.2238576 21.2238576,10 21.5,10 C21.7761424,10 22,10.2238576 22,10.5 L22,11.5 C22,11.7761424 21.7761424,12 21.5,12 C21.2238576,12 21,11.7761424 21,11.5 L21,10.5 Z M21,13.5 C21,13.2238576 21.2238576,13 21.5,13 C21.7761424,13 22,13.2238576 22,13.5 L22,14.5 C22,14.7761424 21.7761424,15 21.5,15 C21.2238576,15 21,14.7761424 21,14.5 L21,13.5 Z M21,16.5 C21,16.2238576 21.2238576,16 21.5,16 C21.7761424,16 22,16.2238576 22,16.5 L22,17.5 C22,17.7761424 21.7761424,18 21.5,18 C21.2238576,18 21,17.7761424 21,17.5 L21,16.5 Z M12,8.5 C12,8.22385763 12.2238576,8 12.5,8 C12.7761424,8 13,8.22385763 13,8.5 L13,9.5 C13,9.77614237 12.7761424,10 12.5,10 C12.2238576,10 12,9.77614237 12,9.5 L12,8.5 Z M12,15.5 C12,15.2238576 12.2238576,15 12.5,15 C12.7761424,15 13,15.2238576 13,15.5 L13,16.5 C13,16.7761424 12.7761424,17 12.5,17 C12.2238576,17 12,16.7761424 12,16.5 L12,15.5 Z M12,18.5 C12,18.2238576 12.2238576,18 12.5,18 C12.7761424,18 13,18.2238576 13,18.5 L13,19.5 C13,19.7761424 12.7761424,20 12.5,20 C12.2238576,20 12,19.7761424 12,19.5 L12,18.5 Z M8.5,13 C8.22385763,13 8,12.7761424 8,12.5 C8,12.2238576 8.22385763,12 8.5,12 L9.5,12 C9.77614237,12 10,12.2238576 10,12.5 C10,12.7761424 9.77614237,13 9.5,13 L8.5,13 Z M15.5,13 C15.2238576,13 15,12.7761424 15,12.5 C15,12.2238576 15.2238576,12 15.5,12 L16.5,12 C16.7761424,12 17,12.2238576 17,12.5 C17,12.7761424 16.7761424,13 16.5,13 L15.5,13 Z M18.5,13 C18.2238576,13 18,12.7761424 18,12.5 C18,12.2238576 18.2238576,12 18.5,12 L19.5,12 C19.7761424,12 20,12.2238576 20,12.5 C20,12.7761424 19.7761424,13 19.5,13 L18.5,13 Z"/>
</svg>
