<svg xmlns="http://www.w3.org/2000/svg" width="24" height="24" viewBox="0 0 24 24">
  <path d="M12.1203717,8.82539569 C11.9406606,8.61573277 11.9649414,8.30008277 12.1746043,8.1203717 C12.3842672,7.94066062 12.6999172,7.96494139 12.8796283,8.17460431 L15.8796283,11.6746043 C16.0401239,11.8618492 16.0401239,12.1381508 15.8796283,12.3253957 L12.8796283,15.8253957 C12.6999172,16.0350586 12.3842672,16.0593394 12.1746043,15.8796283 C11.9649414,15.6999172 11.9406606,15.3842672 12.1203717,15.1746043 L14.8414611,12 L12.1203717,8.82539569 Z M8.1203717,8.82539569 C7.94066062,8.61573277 7.96494139,8.30008277 8.17460431,8.1203717 C8.38426723,7.94066062 8.69991723,7.96494139 8.8796283,8.17460431 L11.8796283,11.6746043 C12.0401239,11.8618492 12.0401239,12.1381508 11.8796283,12.3253957 L8.8796283,15.8253957 C8.69991723,16.0350586 8.38426723,16.0593394 8.17460431,15.8796283 C7.96494139,15.6999172 7.94066062,15.3842672 8.1203717,15.1746043 L10.8414611,12 L8.1203717,8.82539569 Z"/>
</svg>
