<svg xmlns="http://www.w3.org/2000/svg" width="24" height="24" viewBox="0 0 24 24">
  <path d="M15.8796283,15.1746043 C16.0593394,15.3842672 16.0350586,15.6999172 15.8253957,15.8796283 C15.6157328,16.0593394 15.3000828,16.0350586 15.1203717,15.8253957 L12.1203717,12.3253957 C11.9598761,12.1381508 11.9598761,11.8618492 12.1203717,11.6746043 L15.1203717,8.17460431 C15.3000828,7.96494139 15.6157328,7.94066062 15.8253957,8.1203717 C16.0350586,8.30008277 16.0593394,8.61573277 15.8796283,8.82539569 L13.1585389,12 L15.8796283,15.1746043 Z M11.8796283,15.1746043 C12.0593394,15.3842672 12.0350586,15.6999172 11.8253957,15.8796283 C11.6157328,16.0593394 11.3000828,16.0350586 11.1203717,15.8253957 L8.1203717,12.3253957 C7.9598761,12.1381508 7.9598761,11.8618492 8.1203717,11.6746043 L11.1203717,8.17460431 C11.3000828,7.96494139 11.6157328,7.94066062 11.8253957,8.1203717 C12.0350586,8.30008277 12.0593394,8.61573277 11.8796283,8.82539569 L9.15853889,12 L11.8796283,15.1746043 Z"/>
</svg>
