<svg xmlns="http://www.w3.org/2000/svg" width="24" height="24" viewBox="0 0 24 24">
  <path d="M15.1746043,8.1203717 C15.3842672,7.94066062 15.6999172,7.96494139 15.8796283,8.17460431 C16.0593394,8.38426723 16.0350586,8.69991723 15.8253957,8.8796283 L12.3253957,11.8796283 C12.1381508,12.0401239 11.8618492,12.0401239 11.6746043,11.8796283 L8.17460431,8.8796283 C7.96494139,8.69991723 7.94066062,8.38426723 8.1203717,8.17460431 C8.30008277,7.96494139 8.61573277,7.94066062 8.82539569,8.1203717 L12,10.8414611 L15.1746043,8.1203717 Z M15.1746043,12.1203717 C15.3842672,11.9406606 15.6999172,11.9649414 15.8796283,12.1746043 C16.0593394,12.3842672 16.0350586,12.6999172 15.8253957,12.8796283 L12.3253957,15.8796283 C12.1381508,16.0401239 11.8618492,16.0401239 11.6746043,15.8796283 L8.17460431,12.8796283 C7.96494139,12.6999172 7.94066062,12.3842672 8.1203717,12.1746043 C8.30008277,11.9649414 8.61573277,11.9406606 8.82539569,12.1203717 L12,14.8414611 L15.1746043,12.1203717 Z"/>
</svg>
