<svg xmlns="http://www.w3.org/2000/svg" width="24" height="24" viewBox="0 0 24 24">
  <path d="M8.82539569,11.8796283 C8.61573277,12.0593394 8.30008277,12.0350586 8.1203717,11.8253957 C7.94066062,11.6157328 7.96494139,11.3000828 8.17460431,11.1203717 L11.6746043,8.1203717 C11.8618492,7.9598761 12.1381508,7.9598761 12.3253957,8.1203717 L15.8253957,11.1203717 C16.0350586,11.3000828 16.0593394,11.6157328 15.8796283,11.8253957 C15.6999172,12.0350586 15.3842672,12.0593394 15.1746043,11.8796283 L12,9.15853889 L8.82539569,11.8796283 Z M8.82539569,15.8796283 C8.61573277,16.0593394 8.30008277,16.0350586 8.1203717,15.8253957 C7.94066062,15.6157328 7.96494139,15.3000828 8.17460431,15.1203717 L11.6746043,12.1203717 C11.8618492,11.9598761 12.1381508,11.9598761 12.3253957,12.1203717 L15.8253957,15.1203717 C16.0350586,15.3000828 16.0593394,15.6157328 15.8796283,15.8253957 C15.6999172,16.0350586 15.3842672,16.0593394 15.1746043,15.8796283 L12,13.1585389 L8.82539569,15.8796283 Z"/>
</svg>
