<svg xmlns="http://www.w3.org/2000/svg" width="24" height="24" viewBox="0 0 24 24">
  <path d="M12,22 C6.4771525,22 2,17.5228475 2,12 C2,6.4771525 6.4771525,2 12,2 C17.5228475,2 22,6.4771525 22,12 C22,17.5228475 17.5228475,22 12,22 Z M12,21 C16.9705627,21 21,16.9705627 21,12 C21,7.02943725 16.9705627,3 12,3 C7.02943725,3 3,7.02943725 3,12 C3,16.9705627 7.02943725,21 12,21 Z M15.7906191,14.0931333 C16.0153254,14.2536378 16.0673712,14.5659128 15.9068667,14.7906191 C15.7463622,15.0153254 15.4340872,15.0673712 15.2093809,14.9068667 L11.7093809,12.4068667 C11.6156592,12.3399227 11.5479226,12.2426753 11.5176181,12.1315587 L10.0176181,6.6315587 C9.94496022,6.36514653 10.1020291,6.09027595 10.3684413,6.01761809 C10.6348535,5.94496022 10.909724,6.10202912 10.9823819,6.3684413 L12.4355266,11.6966387 L15.7906191,14.0931333 Z"/>
</svg>
