<svg xmlns="http://www.w3.org/2000/svg" width="24" height="24" viewBox="0 0 24 24">
  <path d="M12.7071068,12 L14.8535534,14.1464466 C15.0488155,14.3417088 15.0488155,14.6582912 14.8535534,14.8535534 C14.6582912,15.0488155 14.3417088,15.0488155 14.1464466,14.8535534 L12,12.7071068 L9.85355339,14.8535534 C9.65829124,15.0488155 9.34170876,15.0488155 9.14644661,14.8535534 C8.95118446,14.6582912 8.95118446,14.3417088 9.14644661,14.1464466 L11.2928932,12 L9.14644661,9.85355339 C8.95118446,9.65829124 8.95118446,9.34170876 9.14644661,9.14644661 C9.34170876,8.95118446 9.65829124,8.95118446 9.85355339,9.14644661 L12,11.2928932 L14.1464466,9.14644661 C14.3417088,8.95118446 14.6582912,8.95118446 14.8535534,9.14644661 C15.0488155,9.34170876 15.0488155,9.65829124 14.8535534,9.85355339 L12.7071068,12 Z M3,5.5 C3,4.11928813 4.11928813,3 5.5,3 L18.5,3 C19.8807119,3 21,4.11928813 21,5.5 L21,18.5 C21,19.8807119 19.8807119,21 18.5,21 L5.5,21 C4.11928813,21 3,19.8807119 3,18.5 L3,5.5 Z M4,5.5 L4,18.5 C4,19.3284271 4.67157288,20 5.5,20 L18.5,20 C19.3284271,20 20,19.3284271 20,18.5 L20,5.5 C20,4.67157288 19.3284271,4 18.5,4 L5.5,4 C4.67157288,4 4,4.67157288 4,5.5 Z"/>
</svg>
