<svg xmlns="http://www.w3.org/2000/svg" width="24" height="24" viewBox="0 0 24 24">
  <path d="M14,8 L14.5,8 C15.3284271,8 16,8.67157288 16,9.5 C16,9.77614237 15.7761424,10 15.5,10 C15.2238576,10 15,9.77614237 15,9.5 C15,9.22385763 14.7761424,9 14.5,9 L9.5,9 C9.22385763,9 9,9.22385763 9,9.5 L9,10.6327046 C9,10.8815298 9.18296495,11.0924901 9.42928932,11.1276793 L14.712132,11.8823712 C15.4511051,11.9879387 16,12.6208198 16,13.3672954 L16,14.5 C16,15.3284271 15.3284271,16 14.5,16 L14,16 L14,17.5 C14,17.7761424 13.7761424,18 13.5,18 C13.2238576,18 13,17.7761424 13,17.5 L13,16 L11,16 L11,17.5 C11,17.7761424 10.7761424,18 10.5,18 C10.2238576,18 10,17.7761424 10,17.5 L10,16 L9.5,16 C8.67157288,16 8,15.3284271 8,14.5 C8,14.2238576 8.22385763,14 8.5,14 C8.77614237,14 9,14.2238576 9,14.5 C9,14.7761424 9.22385763,15 9.5,15 L14.5,15 C14.7761424,15 15,14.7761424 15,14.5 L15,13.3672954 C15,13.1184702 14.817035,12.9075099 14.5707107,12.8723207 L9.28786797,12.1176288 C8.54889486,12.0120613 8,11.3791802 8,10.6327046 L8,9.5 C8,8.67157288 8.67157288,8 9.5,8 L10,8 L10,6.5 C10,6.22385763 10.2238576,6 10.5,6 C10.7761424,6 11,6.22385763 11,6.5 L11,8 L13,8 L13,6.5 C13,6.22385763 13.2238576,6 13.5,6 C13.7761424,6 14,6.22385763 14,6.5 L14,8 Z M12,22 C6.4771525,22 2,17.5228475 2,12 C2,6.4771525 6.4771525,2 12,2 C17.5228475,2 22,6.4771525 22,12 C22,17.5228475 17.5228475,22 12,22 Z M12,21 C16.9705627,21 21,16.9705627 21,12 C21,7.02943725 16.9705627,3 12,3 C7.02943725,3 3,7.02943725 3,12 C3,16.9705627 7.02943725,21 12,21 Z"/>
</svg>
