<svg xmlns="http://www.w3.org/2000/svg" width="24" height="24" viewBox="0 0 24 24">
  <path d="M13,8.70710678 L13,19.5 C13,19.7761424 12.7761424,20 12.5,20 C12.2238576,20 12,19.7761424 12,19.5 L12,8.70710678 L8.85355339,11.8535534 C8.65829124,12.0488155 8.34170876,12.0488155 8.14644661,11.8535534 C7.95118446,11.6582912 7.95118446,11.3417088 8.14644661,11.1464466 L12.1464466,7.14644661 C12.3417088,6.95118446 12.6582912,6.95118446 12.8535534,7.14644661 L16.8535534,11.1464466 C17.0488155,11.3417088 17.0488155,11.6582912 16.8535534,11.8535534 C16.6582912,12.0488155 16.3417088,12.0488155 16.1464466,11.8535534 L13,8.70710678 Z M5.5,5 C5.22385763,5 5,4.77614237 5,4.5 C5,4.22385763 5.22385763,4 5.5,4 L19.5,4 C19.7761424,4 20,4.22385763 20,4.5 C20,4.77614237 19.7761424,5 19.5,5 L5.5,5 Z"/>
</svg>
