<svg xmlns="http://www.w3.org/2000/svg" width="24" height="24" viewBox="0 0 24 24">
  <path d="M6,2.5 C6,2.22385763 6.22385763,2 6.5,2 C6.77614237,2 7,2.22385763 7,2.5 L7,4.5 C7,5.88071187 5.88071187,7 4.5,7 L2.5,7 C2.22385763,7 2,6.77614237 2,6.5 C2,6.22385763 2.22385763,6 2.5,6 L4.5,6 C5.32842712,6 6,5.32842712 6,4.5 L6,2.5 Z M2.5,18 C2.22385763,18 2,17.7761424 2,17.5 C2,17.2238576 2.22385763,17 2.5,17 L4.5,17 C5.88071187,17 7,18.1192881 7,19.5 L7,21.5 C7,21.7761424 6.77614237,22 6.5,22 C6.22385763,22 6,21.7761424 6,21.5 L6,19.5 C6,18.6715729 5.32842712,18 4.5,18 L2.5,18 Z M21.5,6 C21.7761424,6 22,6.22385763 22,6.5 C22,6.77614237 21.7761424,7 21.5,7 L19.5,7 C18.1192881,7 17,5.88071187 17,4.5 L17,2.5 C17,2.22385763 17.2238576,2 17.5,2 C17.7761424,2 18,2.22385763 18,2.5 L18,4.5 C18,5.32842712 18.6715729,6 19.5,6 L21.5,6 Z M18,21.5 C18,21.7761424 17.7761424,22 17.5,22 C17.2238576,22 17,21.7761424 17,21.5 L17,19.5 C17,18.1192881 18.1192881,17 19.5,17 L21.5,17 C21.7761424,17 22,17.2238576 22,17.5 C22,17.7761424 21.7761424,18 21.5,18 L19.5,18 C18.6715729,18 18,18.6715729 18,19.5 L18,21.5 Z"/>
</svg>
