<svg xmlns="http://www.w3.org/2000/svg" width="24" height="24" viewBox="0 0 24 24">
  <path d="M6,4.5 C6,4.22385763 6.22385763,4 6.5,4 C6.77614237,4 7,4.22385763 7,4.5 L7,6.5 C7,7.88071187 5.88071187,9 4.5,9 L2.5,9 C2.22385763,9 2,8.77614237 2,8.5 C2,8.22385763 2.22385763,8 2.5,8 L4.5,8 C5.32842712,8 6,7.32842712 6,6.5 L6,4.5 Z M2.5,16 C2.22385763,16 2,15.7761424 2,15.5 C2,15.2238576 2.22385763,15 2.5,15 L4.5,15 C5.88071187,15 7,16.1192881 7,17.5 L7,19.5 C7,19.7761424 6.77614237,20 6.5,20 C6.22385763,20 6,19.7761424 6,19.5 L6,17.5 C6,16.6715729 5.32842712,16 4.5,16 L2.5,16 Z M21.5,8 C21.7761424,8 22,8.22385763 22,8.5 C22,8.77614237 21.7761424,9 21.5,9 L19.5,9 C18.1192881,9 17,7.88071187 17,6.5 L17,4.5 C17,4.22385763 17.2238576,4 17.5,4 C17.7761424,4 18,4.22385763 18,4.5 L18,6.5 C18,7.32842712 18.6715729,8 19.5,8 L21.5,8 Z M18,19.5 C18,19.7761424 17.7761424,20 17.5,20 C17.2238576,20 17,19.7761424 17,19.5 L17,17.5 C17,16.1192881 18.1192881,15 19.5,15 L21.5,15 C21.7761424,15 22,15.2238576 22,15.5 C22,15.7761424 21.7761424,16 21.5,16 L19.5,16 C18.6715729,16 18,16.6715729 18,17.5 L18,19.5 Z"/>
</svg>
