<svg xmlns="http://www.w3.org/2000/svg" width="24" height="24" viewBox="0 0 24 24">
  <path d="M8.29289322,15 L3.5,15 C3.22385763,15 3,14.7761424 3,14.5 C3,14.2238576 3.22385763,14 3.5,14 L9.5,14 C9.77614237,14 10,14.2238576 10,14.5 L10,20.5 C10,20.7761424 9.77614237,21 9.5,21 C9.22385763,21 9,20.7761424 9,20.5 L9,15.7071068 L3.85355339,20.8535534 C3.65829124,21.0488155 3.34170876,21.0488155 3.14644661,20.8535534 C2.95118446,20.6582912 2.95118446,20.3417088 3.14644661,20.1464466 L8.29289322,15 L8.29289322,15 Z M9,8.29289322 L9,3.5 C9,3.22385763 9.22385763,3 9.5,3 C9.77614237,3 10,3.22385763 10,3.5 L10,9.5 C10,9.77614237 9.77614237,10 9.5,10 L3.5,10 C3.22385763,10 3,9.77614237 3,9.5 C3,9.22385763 3.22385763,9 3.5,9 L8.29289322,9 L3.14644661,3.85355339 C2.95118446,3.65829124 2.95118446,3.34170876 3.14644661,3.14644661 C3.34170876,2.95118446 3.65829124,2.95118446 3.85355339,3.14644661 L9,8.29289322 Z M15.7071068,9 L20.5,9 C20.7761424,9 21,9.22385763 21,9.5 C21,9.77614237 20.7761424,10 20.5,10 L14.5,10 C14.2238576,10 14,9.77614237 14,9.5 L14,3.5 C14,3.22385763 14.2238576,3 14.5,3 C14.7761424,3 15,3.22385763 15,3.5 L15,8.29289322 L20.1464466,3.14644661 C20.3417088,2.95118446 20.6582912,2.95118446 20.8535534,3.14644661 C21.0488155,3.34170876 21.0488155,3.65829124 20.8535534,3.85355339 L15.7071068,9 L15.7071068,9 Z M15.7071068,15 L20.8535534,20.1464466 C21.0488155,20.3417088 21.0488155,20.6582912 20.8535534,20.8535534 C20.6582912,21.0488155 20.3417088,21.0488155 20.1464466,20.8535534 L15,15.7071068 L15,20.5207973 C15,20.7969397 14.7761424,21.0207973 14.5,21.0207973 C14.2238576,21.0207973 14,20.7969397 14,20.5207973 L14,14.5 C14,14.2238576 14.2238576,14 14.5,14 L20.5,14 C20.7761424,14 21,14.2238576 21,14.5 C21,14.7761424 20.7761424,15 20.5,15 L15.7071068,15 Z"/>
</svg>
