<svg xmlns="http://www.w3.org/2000/svg" width="24" height="24" viewBox="0 0 24 24">
  <path d="M13.9683434,13.6754326 C13.9440557,13.7403921 13.9057924,13.8013144 13.8535534,13.8535534 C13.8013144,13.9057924 13.7403921,13.9440557 13.6754326,13.9683434 L8.68569534,15.9642383 C8.27753936,16.1275007 7.87249926,15.7224606 8.03576165,15.3143047 L10.0316566,10.3245674 C10.0559443,10.2596079 10.0942076,10.1986856 10.1464466,10.1464466 C10.1986856,10.0942076 10.2596079,10.0559443 10.3245674,10.0316566 L15.3143047,8.03576165 C15.7224606,7.87249926 16.1275007,8.27753936 15.9642383,8.68569534 L13.9683434,13.6754326 L13.9683434,13.6754326 Z M11.3897309,10.6826241 L13.3173759,12.6102691 L14.6024725,9.39752747 L11.3897309,10.6826241 L11.3897309,10.6826241 Z M12.6102691,13.3173759 L10.6826241,11.3897309 L9.39752747,14.6024725 L12.6102691,13.3173759 L12.6102691,13.3173759 Z M12,22 C6.4771525,22 2,17.5228475 2,12 C2,6.4771525 6.4771525,2 12,2 C17.5228475,2 22,6.4771525 22,12 C22,17.5228475 17.5228475,22 12,22 Z M12,21 C16.9705627,21 21,16.9705627 21,12 C21,7.02943725 16.9705627,3 12,3 C7.02943725,3 3,7.02943725 3,12 C3,16.9705627 7.02943725,21 12,21 Z"/>
</svg>
