<svg xmlns="http://www.w3.org/2000/svg" width="24" height="24" viewBox="0 0 24 24">
  <path d="M8,4 L5.5,4 C4.67157288,4 4,4.67157288 4,5.5 L4,18.5 C4,19.3284271 4.67157288,20 5.5,20 L8,20 L8,4 Z M9,4 L9,20 L18.5,20 C19.3284271,20 20,19.3284271 20,18.5 L20,5.5 C20,4.67157288 19.3284271,4 18.5,4 L9,4 Z M3,5.5 C3,4.11928813 4.11928813,3 5.5,3 L18.5,3 C19.8807119,3 21,4.11928813 21,5.5 L21,18.5 C21,19.8807119 19.8807119,21 18.5,21 L5.5,21 C4.11928813,21 3,19.8807119 3,18.5 L3,5.5 Z M11.5,8 C11.2238576,8 11,7.77614237 11,7.5 C11,7.22385763 11.2238576,7 11.5,7 L17.5,7 C17.7761424,7 18,7.22385763 18,7.5 C18,7.77614237 17.7761424,8 17.5,8 L11.5,8 Z M11.5,10 C11.2238576,10 11,9.77614237 11,9.5 C11,9.22385763 11.2238576,9 11.5,9 L17.5,9 C17.7761424,9 18,9.22385763 18,9.5 C18,9.77614237 17.7761424,10 17.5,10 L11.5,10 Z M11.5,12 C11.2238576,12 11,11.7761424 11,11.5 C11,11.2238576 11.2238576,11 11.5,11 L15.5,11 C15.7761424,11 16,11.2238576 16,11.5 C16,11.7761424 15.7761424,12 15.5,12 L11.5,12 Z M11.5,15 C11.2238576,15 11,14.7761424 11,14.5 C11,14.2238576 11.2238576,14 11.5,14 L17.5,14 C17.7761424,14 18,14.2238576 18,14.5 C18,14.7761424 17.7761424,15 17.5,15 L11.5,15 Z M11.5,17 C11.2238576,17 11,16.7761424 11,16.5 C11,16.2238576 11.2238576,16 11.5,16 L15.5,16 C15.7761424,16 16,16.2238576 16,16.5 C16,16.7761424 15.7761424,17 15.5,17 L11.5,17 Z"/>
</svg>
