<svg xmlns="http://www.w3.org/2000/svg" width="24" height="24" viewBox="0 0 24 24">
  <path d="M15,4 L5.5,4 C4.67157288,4 4,4.67157288 4,5.5 L4,18.5 C4,19.3284271 4.67157288,20 5.5,20 L15,20 L15,4 Z M16,4 L16,20 L18.5,20 C19.3284271,20 20,19.3284271 20,18.5 L20,5.5 C20,4.67157288 19.3284271,4 18.5,4 L16,4 Z M3,5.5 C3,4.11928813 4.11928813,3 5.5,3 L18.5,3 C19.8807119,3 21,4.11928813 21,5.5 L21,18.5 C21,19.8807119 19.8807119,21 18.5,21 L5.5,21 C4.11928813,21 3,19.8807119 3,18.5 L3,5.5 Z M6.5,8 C6.22385763,8 6,7.77614237 6,7.5 C6,7.22385763 6.22385763,7 6.5,7 L12.5,7 C12.7761424,7 13,7.22385763 13,7.5 C13,7.77614237 12.7761424,8 12.5,8 L6.5,8 Z M6.5,10 C6.22385763,10 6,9.77614237 6,9.5 C6,9.22385763 6.22385763,9 6.5,9 L12.5,9 C12.7761424,9 13,9.22385763 13,9.5 C13,9.77614237 12.7761424,10 12.5,10 L6.5,10 Z M6.5,12 C6.22385763,12 6,11.7761424 6,11.5 C6,11.2238576 6.22385763,11 6.5,11 L10.5,11 C10.7761424,11 11,11.2238576 11,11.5 C11,11.7761424 10.7761424,12 10.5,12 L6.5,12 Z M6.5,15 C6.22385763,15 6,14.7761424 6,14.5 C6,14.2238576 6.22385763,14 6.5,14 L12.5,14 C12.7761424,14 13,14.2238576 13,14.5 C13,14.7761424 12.7761424,15 12.5,15 L6.5,15 Z M6.5,17 C6.22385763,17 6,16.7761424 6,16.5 C6,16.2238576 6.22385763,16 6.5,16 L10.5,16 C10.7761424,16 11,16.2238576 11,16.5 C11,16.7761424 10.7761424,17 10.5,17 L6.5,17 Z"/>
</svg>
