<svg xmlns="http://www.w3.org/2000/svg" width="24" height="24" viewBox="0 0 24 24">
  <path d="M14.2928932,12 L6.5,12 C6.22385763,12 6,11.7761424 6,11.5 C6,11.2238576 6.22385763,11 6.5,11 L14.2928932,11 L12.1464466,8.85355339 C11.9511845,8.65829124 11.9511845,8.34170876 12.1464466,8.14644661 C12.3417088,7.95118446 12.6582912,7.95118446 12.8535534,8.14644661 L15.8535534,11.1464466 C16.0488155,11.3417088 16.0488155,11.6582912 15.8535534,11.8535534 L12.8535534,14.8535534 C12.6582912,15.0488155 12.3417088,15.0488155 12.1464466,14.8535534 C11.9511845,14.6582912 11.9511845,14.3417088 12.1464466,14.1464466 L14.2928932,12 L14.2928932,12 Z M7.5,20 C7.77614237,20 8,20.2238576 8,20.5 C8,20.7761424 7.77614237,21 7.5,21 L4.5,21 C3.11928813,21 2,19.8807119 2,18.5 L2,5.5 C2,4.11928813 3.11928813,3 4.5,3 L7.5,3 C7.77614237,3 8,3.22385763 8,3.5 C8,3.77614237 7.77614237,4 7.5,4 L4.5,4 C3.67157288,4 3,4.67157288 3,5.5 L3,18.5 C3,19.3284271 3.67157288,20 4.5,20 L7.5,20 Z M22,5.5 C22,5.77614237 21.7761424,6 21.5,6 C21.2238576,6 21,5.77614237 21,5.5 C21,4.67157288 20.3284271,4 19.5,4 C19.2238576,4 19,3.77614237 19,3.5 C19,3.22385763 19.2238576,3 19.5,3 C20.8807119,3 22,4.11928813 22,5.5 Z M19.5,21 C19.2238576,21 19,20.7761424 19,20.5 C19,20.2238576 19.2238576,20 19.5,20 C20.3284271,20 21,19.3284271 21,18.5 C21,18.2238576 21.2238576,18 21.5,18 C21.7761424,18 22,18.2238576 22,18.5 C22,19.8807119 20.8807119,21 19.5,21 Z M11.5,3 C11.7761424,3 12,3.22385763 12,3.5 C12,3.77614237 11.7761424,4 11.5,4 C10.6715729,4 10,4.67157288 10,5.5 C10,5.77614237 9.77614237,6 9.5,6 C9.22385763,6 9,5.77614237 9,5.5 C9,4.11928813 10.1192881,3 11.5,3 Z M9,18.5 C9,18.2238576 9.22385763,18 9.5,18 C9.77614237,18 10,18.2238576 10,18.5 C10,19.3284271 10.6715729,20 11.5,20 C11.7761424,20 12,20.2238576 12,20.5 C12,20.7761424 11.7761424,21 11.5,21 C10.1192881,21 9,19.8807119 9,18.5 Z M21,8.5 C21,8.22385763 21.2238576,8 21.5,8 C21.7761424,8 22,8.22385763 22,8.5 L22,10.5 C22,10.7761424 21.7761424,11 21.5,11 C21.2238576,11 21,10.7761424 21,10.5 L21,8.5 Z M16.5,3 C16.7761424,3 17,3.22385763 17,3.5 C17,3.77614237 16.7761424,4 16.5,4 L14.5,4 C14.2238576,4 14,3.77614237 14,3.5 C14,3.22385763 14.2238576,3 14.5,3 L16.5,3 Z M16.5,20 C16.7761424,20 17,20.2238576 17,20.5 C17,20.7761424 16.7761424,21 16.5,21 L14.5,21 C14.2238576,21 14,20.7761424 14,20.5 C14,20.2238576 14.2238576,20 14.5,20 L16.5,20 Z M21,13.5 C21,13.2238576 21.2238576,13 21.5,13 C21.7761424,13 22,13.2238576 22,13.5 L22,15.5 C22,15.7761424 21.7761424,16 21.5,16 C21.2238576,16 21,15.7761424 21,15.5 L21,13.5 Z"/>
</svg>
