<svg xmlns="http://www.w3.org/2000/svg" width="24" height="24" viewBox="0 0 24 24">
  <path d="M5,2.5 C5,2.22385763 5.22385763,2 5.5,2 C5.77614237,2 6,2.22385763 6,2.5 L6,3.5 C6,3.77614237 5.77614237,4 5.5,4 C5.22385763,4 5,3.77614237 5,3.5 L5,2.5 Z M16.5,18 C16.7761424,18 17,18.2238576 17,18.5 C17,18.7761424 16.7761424,19 16.5,19 L7.5,19 C6.11928813,19 5,17.8807119 5,16.5 L5,7.5 C5,7.22385763 5.22385763,7 5.5,7 C5.77614237,7 6,7.22385763 6,7.5 L6,16.5 C6,17.3284271 6.67157288,18 7.5,18 L16.5,18 Z M20.5,19 C20.2238576,19 20,18.7761424 20,18.5 C20,18.2238576 20.2238576,18 20.5,18 L21.5,18 C21.7761424,18 22,18.2238576 22,18.5 C22,18.7761424 21.7761424,19 21.5,19 L20.5,19 Z M2.5,6 C2.22385763,6 2,5.77614237 2,5.5 C2,5.22385763 2.22385763,5 2.5,5 L16.5,5 C17.8807119,5 19,6.11928813 19,7.5 L19,21.5 C19,21.7761424 18.7761424,22 18.5,22 C18.2238576,22 18,21.7761424 18,21.5 L18,7.5 C18,6.67157288 17.3284271,6 16.5,6 L2.5,6 Z"/>
</svg>
