<svg xmlns="http://www.w3.org/2000/svg" width="24" height="24" viewBox="0 0 24 24">
  <path d="M16,4.00100238 L10.5,4.00100238 C9.67157288,4.00100238 9,4.67257525 9,5.50100238 L9,14.5010024 C9,15.3294295 9.67157288,16.0010024 10.5,16.0010024 L17.5,16.0010024 C18.3284271,16.0010024 19,15.3294295 19,14.5010024 L19,7.00100238 L16.5,7.00100238 C16.2238576,7.00100238 16,6.77714475 16,6.50100238 L16,4.00100238 Z M20,6.52897986 L20,14.5010024 C20,15.8817143 18.8807119,17.0010024 17.5,17.0010024 L10.5,17.0010024 C9.11928813,17.0010024 8,15.8817143 8,14.5010024 L8,5.50100238 C8,4.1202905 9.11928813,3.00100238 10.5,3.00100238 L16.4720225,3.00100238 C16.6047688,2.99258291 16.7429463,3.03684187 16.8535534,3.14744899 L19.8535534,6.14744899 C19.9641605,6.25805611 20.0084195,6.39623363 20,6.52897986 Z M17,6.00100238 L18.2928932,6.00100238 L17,4.70810916 L17,6.00100238 Z M11.5,9 C11.2238576,9 11,8.77614237 11,8.5 C11,8.22385763 11.2238576,8 11.5,8 L16.5,8 C16.7761424,8 17,8.22385763 17,8.5 C17,8.77614237 16.7761424,9 16.5,9 L11.5,9 Z M11.5,11 C11.2238576,11 11,10.7761424 11,10.5 C11,10.2238576 11.2238576,10 11.5,10 L16.5,10 C16.7761424,10 17,10.2238576 17,10.5 C17,10.7761424 16.7761424,11 16.5,11 L11.5,11 Z M11.5,13 C11.2238576,13 11,12.7761424 11,12.5 C11,12.2238576 11.2238576,12 11.5,12 L15.5,12 C15.7761424,12 16,12.2238576 16,12.5 C16,12.7761424 15.7761424,13 15.5,13 L11.5,13 Z M4,12.5 C4,12.2238576 4.22385763,12 4.5,12 C4.77614237,12 5,12.2238576 5,12.5 L5,15.5 C5,15.7761424 4.77614237,16 4.5,16 C4.22385763,16 4,15.7761424 4,15.5 L4,12.5 Z M8.5,21 C8.22385763,21 8,20.7761424 8,20.5 C8,20.2238576 8.22385763,20 8.5,20 L11.5,20 C11.7761424,20 12,20.2238576 12,20.5 C12,20.7761424 11.7761424,21 11.5,21 L8.5,21 Z M6.5,7 C6.77614237,7 7,7.22385763 7,7.5 C7,7.77614237 6.77614237,8 6.5,8 C5.67157288,8 5,8.67157288 5,9.5 C5,9.77614237 4.77614237,10 4.5,10 C4.22385763,10 4,9.77614237 4,9.5 C4,8.11928813 5.11928813,7 6.5,7 Z M4,18.5 C4,18.2238576 4.22385763,18 4.5,18 C4.77614237,18 5,18.2238576 5,18.5 C5,19.3284271 5.67157288,20 6.5,20 C6.77614237,20 7,20.2238576 7,20.5 C7,20.7761424 6.77614237,21 6.5,21 C5.11928813,21 4,19.8807119 4,18.5 Z M13.5,21 C13.2238576,21 13,20.7761424 13,20.5 C13,20.2238576 13.2238576,20 13.5,20 C14.3284271,20 15,19.3284271 15,18.5 C15,18.2238576 15.2238576,18 15.5,18 C15.7761424,18 16,18.2238576 16,18.5 C16,19.8807119 14.8807119,21 13.5,21 Z"/>
</svg>
