<svg xmlns="http://www.w3.org/2000/svg" width="24" height="24" viewBox="0 0 24 24">
  <path d="M3,7.39094878 L3,10.0000001 C3,10.3436205 3.85363333,10.87473 5.40973223,11.2842297 C7.13505193,11.7382612 9.48656818,12 12,12 C14.5134318,12 16.8649481,11.7382612 18.5902678,11.2842297 C20.1463667,10.87473 21,10.3436205 21,10 L21,7.39094878 C19.386363,8.4025424 15.9831574,9 12,9 C8.01684262,9 4.61363697,8.4025424 3,7.39094878 L3,7.39094878 Z M2,6 C2,4.16676593 6.43371052,3 12,3 C17.5662895,3 22,4.16676593 22,6 L22,18 C22,19.8332341 17.5662895,21 12,21 C6.43371052,21 2,19.8332341 2,18 L2,6 L2,6 Z M21,11.3909488 C19.386363,12.4025424 15.9831574,13 12,13 C8.01684262,13 4.61363697,12.4025424 3,11.3909488 L3,14.0000001 C3,14.3436205 3.85363333,14.87473 5.40973223,15.2842297 C7.13505193,15.7382612 9.48656818,16 12,16 C14.5134318,16 16.8649481,15.7382612 18.5902678,15.2842297 C20.1463667,14.87473 21,14.3436205 21,14 L21,11.3909488 L21,11.3909488 Z M21,15.3909488 C19.386363,16.4025424 15.9831574,17 12,17 C8.01684262,17 4.61363697,16.4025424 3,15.3909488 L3,18 C3,18.3436205 3.85363333,18.87473 5.40973223,19.2842297 C7.13505193,19.7382612 9.48656818,20 12,20 C14.5134318,20 16.8649481,19.7382612 18.5902678,19.2842297 C20.1463667,18.87473 21,18.3436205 21,18 L21,15.3909488 L21,15.3909488 Z M12,8 C14.5134318,8 16.8649481,7.73826118 18.5902678,7.28422968 C20.1463667,6.87472997 21,6.34362053 21,6 C21,5.65637947 20.1463667,5.12527003 18.5902678,4.71577032 C16.8649481,4.26173882 14.5134318,4 12,4 C9.48656818,4 7.13505193,4.26173882 5.40973223,4.71577032 C3.85363333,5.12527003 3,5.65637947 3,6 C3,6.34362053 3.85363333,6.87472997 5.40973223,7.28422968 C7.13505193,7.73826118 9.48656818,8 12,8 Z"/>
</svg>
