<svg xmlns="http://www.w3.org/2000/svg" width="24" height="24" viewBox="0 0 24 24">
  <path d="M20,6 L20,5.5 C20,4.67157288 19.3284271,4 18.5,4 L5.5,4 C4.67157288,4 4,4.67157288 4,5.5 L4,6 L20,6 Z M20,7 L4,7 L4,18.5 C4,19.3284271 4.67157288,20 5.5,20 L18.5,20 C19.3284271,20 20,19.3284271 20,18.5 L20,7 Z M3,5.5 C3,4.11928813 4.11928813,3 5.5,3 L18.5,3 C19.8807119,3 21,4.11928813 21,5.5 L21,18.5 C21,19.8807119 19.8807119,21 18.5,21 L5.5,21 C4.11928813,21 3,19.8807119 3,18.5 L3,5.5 Z M7.5,9 L9.5,9 C10.3284271,9 11,9.67157288 11,10.5 L11,11.5 C11,12.3284271 10.3284271,13 9.5,13 L7.5,13 C6.67157288,13 6,12.3284271 6,11.5 L6,10.5 C6,9.67157288 6.67157288,9 7.5,9 Z M7.5,10 C7.22385763,10 7,10.2238576 7,10.5 L7,11.5 C7,11.7761424 7.22385763,12 7.5,12 L9.5,12 C9.77614237,12 10,11.7761424 10,11.5 L10,10.5 C10,10.2238576 9.77614237,10 9.5,10 L7.5,10 Z M6.5,16 C6.22385763,16 6,15.7761424 6,15.5 C6,15.2238576 6.22385763,15 6.5,15 L10.5,15 C10.7761424,15 11,15.2238576 11,15.5 C11,15.7761424 10.7761424,16 10.5,16 L6.5,16 Z M6.5,18 C6.22385763,18 6,17.7761424 6,17.5 C6,17.2238576 6.22385763,17 6.5,17 L9.5,17 C9.77614237,17 10,17.2238576 10,17.5 C10,17.7761424 9.77614237,18 9.5,18 L6.5,18 Z M14.5,9 L16.5,9 C17.3284271,9 18,9.67157288 18,10.5 L18,11.5 C18,12.3284271 17.3284271,13 16.5,13 L14.5,13 C13.6715729,13 13,12.3284271 13,11.5 L13,10.5 C13,9.67157288 13.6715729,9 14.5,9 Z M14.5,10 C14.2238576,10 14,10.2238576 14,10.5 L14,11.5 C14,11.7761424 14.2238576,12 14.5,12 L16.5,12 C16.7761424,12 17,11.7761424 17,11.5 L17,10.5 C17,10.2238576 16.7761424,10 16.5,10 L14.5,10 Z M13.5,16 C13.2238576,16 13,15.7761424 13,15.5 C13,15.2238576 13.2238576,15 13.5,15 L17.5,15 C17.7761424,15 18,15.2238576 18,15.5 C18,15.7761424 17.7761424,16 17.5,16 L13.5,16 Z M13.5,18 C13.2238576,18 13,17.7761424 13,17.5 C13,17.2238576 13.2238576,17 13.5,17 L16.5,17 C16.7761424,17 17,17.2238576 17,17.5 C17,17.7761424 16.7761424,18 16.5,18 L13.5,18 Z"/>
</svg>
