<svg xmlns="http://www.w3.org/2000/svg" width="24" height="24" viewBox="0 0 24 24">
  <path d="M20,6 L20,5.5 C20,4.67157288 19.3284271,4 18.5,4 L5.5,4 C4.67157288,4 4,4.67157288 4,5.5 L4,6 L20,6 Z M20,7 L4,7 L4,18.5 C4,19.3284271 4.67157288,20 5.5,20 L18.5,20 C19.3284271,20 20,19.3284271 20,18.5 L20,7 Z M3,5.5 C3,4.11928813 4.11928813,3 5.5,3 L18.5,3 C19.8807119,3 21,4.11928813 21,5.5 L21,18.5 C21,19.8807119 19.8807119,21 18.5,21 L5.5,21 C4.11928813,21 3,19.8807119 3,18.5 L3,5.5 Z M14,10.5 C14,9.67157288 14.6715729,9 15.5,9 L16.5,9 C17.3284271,9 18,9.67157288 18,10.5 L18,16.5 C18,17.3284271 17.3284271,18 16.5,18 L15.5,18 C14.6715729,18 14,17.3284271 14,16.5 L14,10.5 Z M15,10.5 L15,16.5 C15,16.7761424 15.2238576,17 15.5,17 L16.5,17 C16.7761424,17 17,16.7761424 17,16.5 L17,10.5 C17,10.2238576 16.7761424,10 16.5,10 L15.5,10 C15.2238576,10 15,10.2238576 15,10.5 Z M6.5,10 C6.22385763,10 6,9.77614237 6,9.5 C6,9.22385763 6.22385763,9 6.5,9 L11.5,9 C11.7761424,9 12,9.22385763 12,9.5 C12,9.77614237 11.7761424,10 11.5,10 L6.5,10 Z M6.5,12 C6.22385763,12 6,11.7761424 6,11.5 C6,11.2238576 6.22385763,11 6.5,11 L11.5,11 C11.7761424,11 12,11.2238576 12,11.5 C12,11.7761424 11.7761424,12 11.5,12 L6.5,12 Z M6.5,14 C6.22385763,14 6,13.7761424 6,13.5 C6,13.2238576 6.22385763,13 6.5,13 L9.5,13 C9.77614237,13 10,13.2238576 10,13.5 C10,13.7761424 9.77614237,14 9.5,14 L6.5,14 Z M7.5,15 L10.5,15 C11.3284271,15 12,15.6715729 12,16.5 C12,17.3284271 11.3284271,18 10.5,18 L7.5,18 C6.67157288,18 6,17.3284271 6,16.5 C6,15.6715729 6.67157288,15 7.5,15 Z M7.5,16 C7.22385763,16 7,16.2238576 7,16.5 C7,16.7761424 7.22385763,17 7.5,17 L10.5,17 C10.7761424,17 11,16.7761424 11,16.5 C11,16.2238576 10.7761424,16 10.5,16 L7.5,16 Z"/>
</svg>
