<svg xmlns="http://www.w3.org/2000/svg" width="24" height="24" viewBox="0 0 24 24">
  <path d="M11,19 L13,19 L13,17 L11,17 L11,19 Z M10,19 L10,17 L4.5,17 C3.11928813,17 2,15.8807119 2,14.5 L2,6.5 C2,5.11928813 3.11928813,4 4.5,4 L19.5,4 C20.8807119,4 22,5.11928813 22,6.5 L22,14.5 C22,15.8807119 20.8807119,17 19.5,17 L14,17 L14,19 L15.5,19 C15.7761424,19 16,19.2238576 16,19.5 C16,19.7761424 15.7761424,20 15.5,20 L8.5,20 C8.22385763,20 8,19.7761424 8,19.5 C8,19.2238576 8.22385763,19 8.5,19 L10,19 Z M4.5,5 C3.67157288,5 3,5.67157288 3,6.5 L3,14.5 C3,15.3284271 3.67157288,16 4.5,16 L19.5,16 C20.3284271,16 21,15.3284271 21,14.5 L21,6.5 C21,5.67157288 20.3284271,5 19.5,5 L4.5,5 Z"/>
</svg>
