<svg xmlns="http://www.w3.org/2000/svg" width="24" height="24" viewBox="0 0 24 24">
  <path d="M20,8 L20,5.5 C20,4.67157288 19.3284271,4 18.5,4 L5.5,4 C4.67157288,4 4,4.67157288 4,5.5 L4,8 L20,8 Z M20,9 L4,9 L4,18.5 C4,19.3284271 4.67157288,20 5.5,20 L18.5,20 C19.3284271,20 20,19.3284271 20,18.5 L20,9 Z M3,5.5 C3,4.11928813 4.11928813,3 5.5,3 L18.5,3 C19.8807119,3 21,4.11928813 21,5.5 L21,18.5 C21,19.8807119 19.8807119,21 18.5,21 L5.5,21 C4.11928813,21 3,19.8807119 3,18.5 L3,5.5 Z M14,12.5 C14,11.6715729 14.6715729,11 15.5,11 L16.5,11 C17.3284271,11 18,11.6715729 18,12.5 L18,16.5 C18,17.3284271 17.3284271,18 16.5,18 L15.5,18 C14.6715729,18 14,17.3284271 14,16.5 L14,12.5 Z M15,12.5 L15,16.5 C15,16.7761424 15.2238576,17 15.5,17 L16.5,17 C16.7761424,17 17,16.7761424 17,16.5 L17,12.5 C17,12.2238576 16.7761424,12 16.5,12 L15.5,12 C15.2238576,12 15,12.2238576 15,12.5 Z M6.5,12 C6.22385763,12 6,11.7761424 6,11.5 C6,11.2238576 6.22385763,11 6.5,11 L11.5,11 C11.7761424,11 12,11.2238576 12,11.5 C12,11.7761424 11.7761424,12 11.5,12 L6.5,12 Z M6.5,15 C6.22385763,15 6,14.7761424 6,14.5 C6,14.2238576 6.22385763,14 6.5,14 L11.5,14 C11.7761424,14 12,14.2238576 12,14.5 C12,14.7761424 11.7761424,15 11.5,15 L6.5,15 Z M6.5,18 C6.22385763,18 6,17.7761424 6,17.5 C6,17.2238576 6.22385763,17 6.5,17 L9.5,17 C9.77614237,17 10,17.2238576 10,17.5 C10,17.7761424 9.77614237,18 9.5,18 L6.5,18 Z"/>
</svg>
