<svg xmlns="http://www.w3.org/2000/svg" width="24" height="24" viewBox="0 0 24 24">
  <path d="M14,18 L4.5,18 C3.11928813,18 2,16.8807119 2,15.5 C2,15.2238576 2.22385763,15 2.5,15 L4,15 L4,6.48864223 C4,5.10793035 5.11928813,3.98864223 6.5,3.98864223 L17.5087137,3.98864223 C18.8894256,3.98864223 20.0087137,5.10793035 20.0087137,6.48864223 L20.0087137,8 L20.5,8 C21.3284271,8 22,8.67157288 22,9.5 L22,19.5104121 C22,20.3388393 21.3284271,21.0104121 20.5,21.0104121 L15.5,21.0104121 C14.6715729,21.0104121 14,20.3388393 14,19.5104121 L14,18 L14,18 Z M14,17 L14,16 L3.08535285,16 C3.29127106,16.5825962 3.84689059,17 4.5,17 L14,17 L14,17 Z M14,15 L14,14 L6.5,14 C6.22385763,14 6,13.7761424 6,13.5 L6,6.5 C6,6.22385763 6.22385763,6 6.5,6 L17.5,6 C17.7761424,6 18,6.22385763 18,6.5 L18,8 L19.0087137,8 L19.0087137,6.48864223 C19.0087137,5.6602151 18.3371408,4.98864223 17.5087137,4.98864223 L6.5,4.98864223 C5.67157288,4.98864223 5,5.6602151 5,6.48864223 L5,15 L14,15 Z M14,13 L14,9.5 C14,8.67157288 14.6715729,8 15.5,8 L17,8 L17,7 L7,7 L7,13 L14,13 Z M15.5,9 C15.2238576,9 15,9.22385763 15,9.5 L15,19.5104121 C15,19.7865545 15.2238576,20.0104121 15.5,20.0104121 L20.5,20.0104121 C20.7761424,20.0104121 21,19.7865545 21,19.5104121 L21,9.5 C21,9.22385763 20.7761424,9 20.5,9 L15.5,9 Z M17.5,19 C17.2238576,19 17,18.7761424 17,18.5 C17,18.2238576 17.2238576,18 17.5,18 L18.5,18 C18.7761424,18 19,18.2238576 19,18.5 C19,18.7761424 18.7761424,19 18.5,19 L17.5,19 Z"/>
</svg>
