<svg xmlns="http://www.w3.org/2000/svg" width="24" height="24" viewBox="0 0 24 24">
  <path d="M5,11.5 L5,12.5 C5,13.3284271 5.67157288,14 6.5,14 L17.5,14 C18.3284271,14 19,13.3284271 19,12.5 L19,11.5 C19,10.6715729 18.3284271,10 17.5,10 L6.5,10 C5.67157288,10 5,10.6715729 5,11.5 Z M4,11.5 C4,10.1192881 5.11928813,9 6.5,9 L17.5,9 C18.8807119,9 20,10.1192881 20,11.5 L20,12.5 C20,13.8807119 18.8807119,15 17.5,15 L6.5,15 C5.11928813,15 4,13.8807119 4,12.5 L4,11.5 Z M3.5,4 C3.22385763,4 3,3.77614237 3,3.5 C3,3.22385763 3.22385763,3 3.5,3 L20.5,3 C20.7761424,3 21,3.22385763 21,3.5 C21,3.77614237 20.7761424,4 20.5,4 L3.5,4 Z M3.5,21 C3.22385763,21 3,20.7761424 3,20.5 C3,20.2238576 3.22385763,20 3.5,20 L20.5,20 C20.7761424,20 21,20.2238576 21,20.5 C21,20.7761424 20.7761424,21 20.5,21 L3.5,21 Z"/>
</svg>
