<svg xmlns="http://www.w3.org/2000/svg" width="24" height="24" viewBox="0 0 24 24">
  <path d="M10,6.5 L10,17.5 C10,18.3284271 10.6715729,19 11.5,19 L12.5,19 C13.3284271,19 14,18.3284271 14,17.5 L14,6.5 C14,5.67157288 13.3284271,5 12.5,5 L11.5,5 C10.6715729,5 10,5.67157288 10,6.5 Z M9,6.5 C9,5.11928813 10.1192881,4 11.5,4 L12.5,4 C13.8807119,4 15,5.11928813 15,6.5 L15,17.5 C15,18.8807119 13.8807119,20 12.5,20 L11.5,20 C10.1192881,20 9,18.8807119 9,17.5 L9,6.5 Z M3,3.5 C3,3.22385763 3.22385763,3 3.5,3 C3.77614237,3 4,3.22385763 4,3.5 L4,20.5 C4,20.7761424 3.77614237,21 3.5,21 C3.22385763,21 3,20.7761424 3,20.5 L3,3.5 Z M20,3.5 C20,3.22385763 20.2238576,3 20.5,3 C20.7761424,3 21,3.22385763 21,3.5 L21,20.5 C21,20.7761424 20.7761424,21 20.5,21 C20.2238576,21 20,20.7761424 20,20.5 L20,3.5 Z"/>
</svg>
