<svg xmlns="http://www.w3.org/2000/svg" width="24" height="24" viewBox="0 0 24 24">
  <path d="M14,6 L15.5,6 C16.8807119,6 18,7.11928813 18,8.5 C18,8.77614237 17.7761424,9 17.5,9 C17.2238576,9 17,8.77614237 17,8.5 C17,7.67157288 16.3284271,7 15.5,7 L8.5,7 C7.67157288,7 7,7.67157288 7,8.5 L7,9.67357072 C7,10.4493755 7.59157764,11.0971725 8.36419638,11.1674105 L15.7263394,11.8366963 C17.0140373,11.9537597 18,13.0334213 18,14.3264293 L18,15.5 C18,16.8807119 16.8807119,18 15.5,18 L14,18 L14,19.5 C14,19.7761424 13.7761424,20 13.5,20 C13.2238576,20 13,19.7761424 13,19.5 L13,18 L11,18 L11,19.5 C11,19.7761424 10.7761424,20 10.5,20 C10.2238576,20 10,19.7761424 10,19.5 L10,18 L8.5,18 C7.11928813,18 6,16.8807119 6,15.5 C6,15.2238576 6.22385763,15 6.5,15 C6.77614237,15 7,15.2238576 7,15.5 C7,16.3284271 7.67157288,17 8.5,17 L15.5,17 C16.3284271,17 17,16.3284271 17,15.5 L17,14.3264293 C17,13.5506245 16.4084224,12.9028275 15.6358036,12.8325895 L8.27366063,12.1633037 C6.98596274,12.0462403 6,10.9665787 6,9.67357072 L6,8.5 C6,7.11928813 7.11928813,6 8.5,6 L10,6 L10,4.5 C10,4.22385763 10.2238576,4 10.5,4 C10.7761424,4 11,4.22385763 11,4.5 L11,6 L13,6 L13,4.5 C13,4.22385763 13.2238576,4 13.5,4 C13.7761424,4 14,4.22385763 14,4.5 L14,6 Z"/>
</svg>
