<svg xmlns="http://www.w3.org/2000/svg" width="24" height="24" viewBox="0 0 24 24">
  <path d="M11,11.5 L11,14.0474376 C11,14.3783481 10.8839855,14.698786 10.6721417,14.9529985 C10.1720143,15.5531514 9.28006076,15.6342381 8.6799078,15.1341106 L7.75607376,14.3642489 C7.4736449,14.1288916 7.11763998,14 6.75,14 C6.48363526,14 6.24082605,14.1526146 6.12532205,14.3926334 L6.08962348,14.4668155 C5.95447865,14.7476481 5.99541029,15.0814869 6.19439734,15.321352 L10.607865,20.6414804 C11.3217788,21.502054 12.3818498,22 13.5,22 C15.9852814,22 18,19.9852814 18,17.5 L18,13.5 C18,13.2238576 17.7761424,13 17.5,13 C17.2238576,13 17,13.2238576 17,13.5 L17,14.5 C17,14.7761424 16.7761424,15 16.5,15 C16.2238576,15 16,14.7761424 16,14.5 L16,12.5 C16,12.2238576 15.7761424,12 15.5,12 C15.2238576,12 15,12.2238576 15,12.5 L15,14.5 C15,14.7761424 14.7761424,15 14.5,15 C14.2238576,15 14,14.7761424 14,14.5 L14,11.5 C14,11.2238576 13.7761424,11 13.5,11 C13.2238576,11 13,11.2238576 13,11.5 L13,14.5 C13,14.7761424 12.7761424,15 12.5,15 C12.2238576,15 12,14.7761424 12,14.5 L12,6.5 C12,6.22385763 11.7761424,6 11.5,6 C11.2238576,6 11,6.22385763 11,6.5 L11,11.5 Z M10,11.4999998 L10,6.5 C10,5.67157288 10.6715729,5 11.5,5 C12.3284271,5 13,5.67157288 13,6.5 L13,10.0853529 C13.1563895,10.0300771 13.3246823,10 13.5,10 C14.191734,10 14.7741062,10.4682339 14.9474595,11.1050446 C15.1184541,11.0372568 15.3048761,11 15.5,11 C16.191734,11 16.7741062,11.4682339 16.9474595,12.1050446 C17.1184541,12.0372568 17.3048761,12 17.5,12 C18.3284271,12 19,12.6715729 19,13.5 L19,17.5 C19,20.5375661 16.5375661,23 13.5,23 C12.0842933,23 10.7421216,22.3695431 9.83822457,21.279958 L5.42475695,15.9598296 C4.97611908,15.4190278 4.88383427,14.6663521 5.18853292,14.0331845 L5.2242315,13.9590024 C5.50634865,13.3727595 6.09940726,13 6.75,13 C7.35157648,13 7.9341143,13.2109078 8.39625816,13.5960277 L9.3200922,14.3658894 C9.49596826,14.5124527 9.75735708,14.4886901 9.90392046,14.3128141 C9.96600171,14.2383166 10,14.1444116 10,14.0474376 L10,11.5 Z M15,6.5 C15,6.77614237 14.7761424,7 14.5,7 C14.2238576,7 14,6.77614237 14,6.5 C14,5.11928813 12.8807119,4 11.5,4 C10.1192881,4 9,5.11928813 9,6.5 C9,6.77614237 8.77614237,7 8.5,7 C8.22385763,7 8,6.77614237 8,6.5 C8,4.56700338 9.56700338,3 11.5,3 C13.4329966,3 15,4.56700338 15,6.5 Z M15.8989285,9.80191359 C15.7330023,10.0226467 15.419553,10.0670764 15.1988199,9.90115018 C14.9780868,9.73522394 14.9336571,9.42177463 15.0995833,9.20104154 C15.6809057,8.42770343 16,7.48868831 16,6.5 C16,4.01471863 13.9852814,2 11.5,2 C9.01471863,2 7,4.01471863 7,6.5 C7,7.49044723 7.32023616,8.43103083 7.90347152,9.20510065 C8.06964577,9.42564708 8.02556841,9.73914614 7.80502198,9.90532039 C7.58447555,10.0714946 7.27097649,10.0274173 7.10480224,9.80687086 C6.39200677,8.86084888 6,7.70946381 6,6.5 C6,3.46243388 8.46243388,1 11.5,1 C14.5375661,1 17,3.46243388 17,6.5 C17,7.70731344 16.6093905,8.85678 15.8989285,9.80191359 Z"/>
</svg>
