<svg xmlns="http://www.w3.org/2000/svg" width="24" height="24" viewBox="0 0 24 24">
  <path d="M10.8152133,2.88825456 C10.7966761,2.90333058 10.7769726,2.91714127 10.7562093,2.92952658 C10.6947602,2.96691843 10.627779,2.98958004 10.5597852,2.99815003 C8.5194833,3.42705128 7,5.33416246 7,7.5 C7,8.49044723 7.32023616,9.43103083 7.90347152,10.2051006 C8.06964577,10.4256471 8.02556841,10.7391461 7.80502198,10.9053204 C7.58447555,11.0714946 7.27097649,11.0274173 7.10480224,10.8068709 C6.39200677,9.86084888 6,8.70946381 6,7.5 C6,4.88743651 7.81576006,2.58604032 10.2900499,2.03341425 C11.2173151,1.36586082 12.3315622,1 13.5,1 C16.5375661,1 19,3.46243388 19,6.5 C19,7.70731344 18.6093905,8.85678 17.8989285,9.80191359 C17.7330023,10.0226467 17.419553,10.0670764 17.1988199,9.90115018 C16.9780868,9.73522394 16.9336571,9.42177463 17.0995833,9.20104154 C17.6809057,8.42770343 18,7.48868831 18,6.5 C18,4.01471863 15.9852814,2 13.5,2 C12.5182178,2 11.5854223,2.31465416 10.8152133,2.88825456 Z M11,11.5 L11,14.0474376 C11,14.3783481 10.8839855,14.698786 10.6721417,14.9529985 C10.1720143,15.5531514 9.28006076,15.6342381 8.6799078,15.1341106 L7.75607376,14.3642489 C7.4736449,14.1288916 7.11763998,14 6.75,14 C6.48363526,14 6.24082605,14.1526146 6.12532205,14.3926334 L6.08962348,14.4668155 C5.95447865,14.7476481 5.99541029,15.0814869 6.19439734,15.321352 L10.607865,20.6414804 C11.3217788,21.502054 12.3818498,22 13.5,22 C15.9852814,22 18,19.9852814 18,17.5 L18,13.5 C18,13.2238576 17.7761424,13 17.5,13 C17.2238576,13 17,13.2238576 17,13.5 L17,14.5 C17,14.7761424 16.7761424,15 16.5,15 C16.2238576,15 16,14.7761424 16,14.5 L16,12.5 C16,12.2238576 15.7761424,12 15.5,12 C15.2238576,12 15,12.2238576 15,12.5 L15,14.5 C15,14.7761424 14.7761424,15 14.5,15 C14.2238576,15 14,14.7761424 14,14.5 L14,6.5 C14,6.22385763 13.7761424,6 13.5,6 C13.2238576,6 13,6.22385763 13,6.5 L13,7.5 L13,14.5 C13,14.7761424 12.7761424,15 12.5,15 C12.2238576,15 12,14.7761424 12,14.5 L12,7.5 C12,7.22385763 11.7761424,7 11.5,7 C11.2238576,7 11,7.22385763 11,7.5 L11,11.5 Z M10,11.4999998 L10,7.5 C10,6.67157288 10.6715729,6 11.5,6 C11.6951239,6 11.8815459,6.03725677 12.0525405,6.10504462 C12.2258938,5.46823386 12.808266,5 13.5,5 C14.3284271,5 15,5.67157288 15,6.5 L15,11.0853529 C15.1563895,11.0300771 15.3246823,11 15.5,11 C16.191734,11 16.7741062,11.4682339 16.9474595,12.1050446 C17.1184541,12.0372568 17.3048761,12 17.5,12 C18.3284271,12 19,12.6715729 19,13.5 L19,17.5 C19,20.5375661 16.5375661,23 13.5,23 C12.0842933,23 10.7421216,22.3695431 9.83822457,21.279958 L5.42475695,15.9598296 C4.97611908,15.4190278 4.88383427,14.6663521 5.18853292,14.0331845 L5.2242315,13.9590024 C5.50634865,13.3727595 6.09940726,13 6.75,13 C7.35157648,13 7.9341143,13.2109078 8.39625816,13.5960277 L9.3200922,14.3658894 C9.49596826,14.5124527 9.75735708,14.4886901 9.90392046,14.3128141 C9.96600171,14.2383166 10,14.1444116 10,14.0474376 L10,11.5 Z M11.7597202,4.70511335 C11.6875286,4.87157952 11.5269706,4.99275121 11.3334568,5.00544076 C10.0247113,5.09126094 9,6.18119726 9,7.5 C9,7.77614237 8.77614237,8 8.5,8 C8.22385763,8 8,7.77614237 8,7.5 C8,5.73856058 9.30521808,4.26910114 11.0171989,4.03305015 C11.6679248,3.37788117 12.5540683,3 13.5,3 C15.4329966,3 17,4.56700338 17,6.5 C17,6.77614237 16.7761424,7 16.5,7 C16.2238576,7 16,6.77614237 16,6.5 C16,5.11928813 14.8807119,4 13.5,4 C12.839628,4 12.2216003,4.25685441 11.7597202,4.70511335 Z"/>
</svg>
