<svg xmlns="http://www.w3.org/2000/svg" width="24" height="24" viewBox="0 0 24 24">
  <path d="M7,7 L7,12 L8.5,12 C8.77614237,12 9,12.2238576 9,12.5 C9,12.7761424 8.77614237,13 8.5,13 L4.5,13 C4.22385763,13 4,12.7761424 4,12.5 C4,12.2238576 4.22385763,12 4.5,12 L6,12 L6,7 L4,7 L4,7.5 C4,7.77614237 3.77614237,8 3.5,8 C3.22385763,8 3,7.77614237 3,7.5 L3,6.5 C3,6.22385763 3.22385763,6 3.5,6 L9.5,6 C9.77614237,6 10,6.22385763 10,6.5 L10,7.5 C10,7.77614237 9.77614237,8 9.5,8 C9.22385763,8 9,7.77614237 9,7.5 L9,7 L7,7 Z M12.5,7 C12.2238576,7 12,6.77614237 12,6.5 C12,6.22385763 12.2238576,6 12.5,6 L18.5,6 C19.8807119,6 21,7.11928813 21,8.5 L21,16.5 C21,17.8807119 19.8807119,19 18.5,19 L6.5,19 C5.11928813,19 4,17.8807119 4,16.5 L4,15.5 C4,15.2238576 4.22385763,15 4.5,15 C4.77614237,15 5,15.2238576 5,15.5 L5,16.5 C5,17.3284271 5.67157288,18 6.5,18 L18.5,18 C19.3284271,18 20,17.3284271 20,16.5 L20,8.5 C20,7.67157288 19.3284271,7 18.5,7 L12.5,7 Z"/>
</svg>
