<svg xmlns="http://www.w3.org/2000/svg" width="24" height="24" viewBox="0 0 24 24">
  <path d="M10.7350796,3.08819326 C6.36342562,3.70309388 3,7.45876187 3,12 C3,16.9705627 7.02943725,21 12,21 C16.9705627,21 21,16.9705627 21,12 C21,11.312612 20.9229386,10.6432227 20.7769836,10 L19,10 L19,10.5 C19,10.7761424 18.7761424,11 18.5,11 L17,11 L17,11.2928932 L17.8535534,12.1464466 C18.0488155,12.3417088 18.0488155,12.6582912 17.8535534,12.8535534 L16,14.7071068 L16,16.5 C16,16.5776225 15.9819275,16.6541791 15.9472136,16.7236068 L14.9472136,18.7236068 L14.8535534,18.8535534 L13.8535534,19.8535534 C13.6582912,20.0488155 13.3417088,20.0488155 13.1464466,19.8535534 L12.1464466,18.8535534 C12.0526784,18.7597852 12,18.6326082 12,18.5 L12,15.7071068 L11.1464466,14.8535534 C11.0526784,14.7597852 11,14.6326082 11,14.5 L11,13.7071068 L10.2038204,12.9109272 L8.2763932,11.9472136 L8.14644661,11.8535534 L7.14644661,10.8535534 C6.95118446,10.6582912 6.95118446,10.3417088 7.14644661,10.1464466 L8,9.29289322 L8,8.5 C8,8.22385763 8.22385763,8 8.5,8 L10.2928932,8 L11.1464466,7.14644661 C11.3417088,6.95118446 11.6582912,6.95118446 11.8535534,7.14644661 L12.7961796,8.08907279 L14.618034,9 L15.2928932,9 L16,8.29289322 L16,7.70710678 L15.1464466,6.85355339 C15.0526784,6.7597852 15,6.63260824 15,6.5 L15,6 L14,6 L14,6.5 C14,6.77614237 13.7761424,7 13.5,7 L12.5,7 C12.3673918,7 12.2402148,6.94732158 12.1464466,6.85355339 L11.2928932,6 L10.5,6 C10.0545476,6 9.83146418,5.46142904 10.1464466,5.14644661 L11,4.29289322 L11,3.61803399 L10.7350796,3.08819326 Z M11.8099999,3.00196577 L11.9472136,3.2763932 C11.9819275,3.34582092 12,3.42237745 12,3.5 L12,4.5 C12,4.63260824 11.9473216,4.7597852 11.8535534,4.85355339 L11.6753506,5.03175618 C11.7416366,5.05658027 11.8025392,5.09543245 11.8535534,5.14644661 L12.7071068,6 L13,6 L13,5.5 C13,5.22385763 13.2238576,5 13.5,5 L15.5,5 C15.7761424,5 16,5.22385763 16,5.5 L16,6.29289322 L16.8535534,7.14644661 C16.9473216,7.2402148 17,7.36739176 17,7.5 L17,8.5 C17,8.63260824 16.9473216,8.7597852 16.8535534,8.85355339 L15.8535534,9.85355339 C15.7597852,9.94732158 15.6326082,10 15.5,10 L14.5,10 C14.4223775,10 14.3458209,9.98192745 14.2763932,9.9472136 L12.2763932,8.9472136 L12.1464466,8.85355339 L11.5,8.20710678 L10.8535534,8.85355339 C10.7597852,8.94732158 10.6326082,9 10.5,9 L9,9 L9,9.5 C9,9.63260824 8.94732158,9.7597852 8.85355339,9.85355339 L8.20710678,10.5 L8.79617957,11.0890728 L10.7236068,12.0527864 L10.8535534,12.1464466 L11.8535534,13.1464466 C11.9473216,13.2402148 12,13.3673918 12,13.5 L12,14.2928932 L12.8535534,15.1464466 C12.9473216,15.2402148 13,15.3673918 13,15.5 L13,18.2928932 L13.5,18.7928932 L14.0890728,18.2038204 L15,16.381966 L15,14.5 C15,14.3673918 15.0526784,14.2402148 15.1464466,14.1464466 L16.7928932,12.5 L16.1464466,11.8535534 C16.0526784,11.7597852 16,11.6326082 16,11.5 L16,10.5 C16,10.2238576 16.2238576,10 16.5,10 L18,10 L18,9.5 C18,9.22385763 18.2238576,9 18.5,9 L20.4878829,9 C19.2523737,5.50442288 15.9186565,3 12,3 C11.9365109,3 11.8731754,3.0006574 11.8099999,3.00196577 L11.8099999,3.00196577 Z M12,22 C6.4771525,22 2,17.5228475 2,12 C2,6.4771525 6.4771525,2 12,2 C17.5228475,2 22,6.4771525 22,12 C22,17.5228475 17.5228475,22 12,22 Z"/>
</svg>
