<svg xmlns="http://www.w3.org/2000/svg" width="24" height="24" viewBox="0 0 24 24">
  <path d="M8,11 L8,13 L12.5,13 C12.7761424,13 13,13.2238576 13,13.5 C13,13.7761424 12.7761424,14 12.5,14 L8.02746439,14 C8.27618653,16.2499752 10.1837232,18 12.5,18 L14.5,18 C16.3250259,18 17.4796354,17.4226952 18.0527864,16.2763932 C18.176281,16.029404 18.4766175,15.9292918 18.7236068,16.0527864 C18.970596,16.176281 19.0707082,16.4766175 18.9472136,16.7236068 C18.1870313,18.2439714 16.6749741,19 14.5,19 L12.5,19 C9.63097872,19 7.2750359,16.80325 7.02242151,14 L5.5,14 C5.22385763,14 5,13.7761424 5,13.5 C5,13.2238576 5.22385763,13 5.5,13 L7,13 L7,11 L5.5,11 C5.22385763,11 5,10.7761424 5,10.5 C5,10.2238576 5.22385763,10 5.5,10 L7.02242151,10 C7.2750359,7.19674999 9.63097872,5 12.5,5 L14.5,5 C16.6749741,5 18.1870313,5.75602858 18.9472136,7.2763932 C19.0707082,7.52338245 18.970596,7.82371897 18.7236068,7.9472136 C18.4766175,8.07070822 18.176281,7.97059605 18.0527864,7.7236068 C17.4796354,6.57730475 16.3250259,6 14.5,6 L12.5,6 C10.1837232,6 8.27618653,7.75002477 8.02746439,10 L13.5,10 C13.7761424,10 14,10.2238576 14,10.5 C14,10.7761424 13.7761424,11 13.5,11 L8,11 Z"/>
</svg>
