<svg xmlns="http://www.w3.org/2000/svg" width="24" height="24" viewBox="0 0 24 24">
  <path d="M8,8 L8,7.5 C8,7.22385763 8.22385763,7 8.5,7 C8.77614237,7 9,7.22385763 9,7.5 L9,8 L13.5156098,8 C14.8963216,8 16.0156098,9.11928813 16.0156098,10.5 L16.0156098,15 L16.5,15 C16.7761424,15 17,15.2238576 17,15.5 C17,15.7761424 16.7761424,16 16.5,16 L16.0156098,16 L16.0156098,16.5146512 C16.0156098,16.7907936 15.7917521,17.0146512 15.5156098,17.0146512 C15.2394674,17.0146512 15.0156098,16.7907936 15.0156098,16.5146512 L15.0156098,16 L10.5,16 C9.11928813,16 8,14.8807119 8,13.5 L8,9 L7.5,9 C7.22385763,9 7,8.77614237 7,8.5 C7,8.22385763 7.22385763,8 7.5,8 L8,8 Z M15.0156098,15 L15.0156098,10.5 C15.0156098,9.67157288 14.3440369,9 13.5156098,9 L9,9 L9,13.5 C9,14.3284271 9.67157288,15 10.5,15 L15.0156098,15 Z M9,4.5 C9,4.77614237 8.77614237,5 8.5,5 C8.22385763,5 8,4.77614237 8,4.5 C8,3.11928813 9.11928813,2 10.5,2 C10.7761424,2 11,2.22385763 11,2.5 C11,2.77614237 10.7761424,3 10.5,3 C9.67157288,3 9,3.67157288 9,4.5 Z M19.5,3 C19.2238576,3 19,2.77614237 19,2.5 C19,2.22385763 19.2238576,2 19.5,2 C20.8807119,2 22,3.11928813 22,4.5 C22,4.77614237 21.7761424,5 21.5,5 C21.2238576,5 21,4.77614237 21,4.5 C21,3.67157288 20.3284271,3 19.5,3 Z M21,13.5 C21,13.2238576 21.2238576,13 21.5,13 C21.7761424,13 22,13.2238576 22,13.5 C22,14.8807119 20.8807119,16 19.5,16 C19.2238576,16 19,15.7761424 19,15.5 C19,15.2238576 19.2238576,15 19.5,15 C20.3284271,15 21,14.3284271 21,13.5 Z M15,19.5 C15,19.2238576 15.2238576,19 15.5,19 C15.7761424,19 16,19.2238576 16,19.5 C16,20.8807119 14.8807119,22 13.5,22 C13.2238576,22 13,21.7761424 13,21.5 C13,21.2238576 13.2238576,21 13.5,21 C14.3284271,21 15,20.3284271 15,19.5 Z M4.5,21 C4.77614237,21 5,21.2238576 5,21.5 C5,21.7761424 4.77614237,22 4.5,22 C3.11928813,22 2,20.8807119 2,19.5 C2,19.2238576 2.22385763,19 2.5,19 C2.77614237,19 3,19.2238576 3,19.5 C3,20.3284271 3.67157288,21 4.5,21 Z M4.5,8 C4.77614237,8 5,8.22385763 5,8.5 C5,8.77614237 4.77614237,9 4.5,9 C3.67157288,9 3,9.67157288 3,10.5 C3,10.7761424 2.77614237,11 2.5,11 C2.22385763,11 2,10.7761424 2,10.5 C2,9.11928813 3.11928813,8 4.5,8 Z M2,13.5 C2,13.2238576 2.22385763,13 2.5,13 C2.77614237,13 3,13.2238576 3,13.5 L3,16.5 C3,16.7761424 2.77614237,17 2.5,17 C2.22385763,17 2,16.7761424 2,16.5 L2,13.5 Z M21,7.5 C21,7.22385763 21.2238576,7 21.5,7 C21.7761424,7 22,7.22385763 22,7.5 L22,10.5 C22,10.7761424 21.7761424,11 21.5,11 C21.2238576,11 21,10.7761424 21,10.5 L21,7.5 Z M13.5,3 C13.2238576,3 13,2.77614237 13,2.5 C13,2.22385763 13.2238576,2 13.5,2 L16.5,2 C16.7761424,2 17,2.22385763 17,2.5 C17,2.77614237 16.7761424,3 16.5,3 L13.5,3 Z M7.5,22 C7.22385763,22 7,21.7761424 7,21.5 C7,21.2238576 7.22385763,21 7.5,21 L10.5,21 C10.7761424,21 11,21.2238576 11,21.5 C11,21.7761424 10.7761424,22 10.5,22 L7.5,22 Z"/>
</svg>
