<svg xmlns="http://www.w3.org/2000/svg" width="24" height="24" viewBox="0 0 24 24">
  <path d="M20,19.2928932 L20,16.5 C20,16.2238576 20.2238576,16 20.5,16 C20.7761424,16 21,16.2238576 21,16.5 L21,20.5 C21,20.7761424 20.7761424,21 20.5,21 L16.5,21 C16.2238576,21 16,20.7761424 16,20.5 C16,20.2238576 16.2238576,20 16.5,20 L19.2928932,20 L14.1464466,14.8535534 C13.9511845,14.6582912 13.9511845,14.3417088 14.1464466,14.1464466 C14.3417088,13.9511845 14.6582912,13.9511845 14.8535534,14.1464466 L20,19.2928932 Z M4,4.70710678 L4,7.5 C4,7.77614237 3.77614237,8 3.5,8 C3.22385763,8 3,7.77614237 3,7.5 L3,3.5 C3,3.22385763 3.22385763,3 3.5,3 L7.5,3 C7.77614237,3 8,3.22385763 8,3.5 C8,3.77614237 7.77614237,4 7.5,4 L4.70710678,4 L9.85355339,9.14644661 C10.0488155,9.34170876 10.0488155,9.65829124 9.85355339,9.85355339 C9.65829124,10.0488155 9.34170876,10.0488155 9.14644661,9.85355339 L4,4.70710678 Z M4.70710678,20 L7.5,20 C7.77614237,20 8,20.2238576 8,20.5 C8,20.7761424 7.77614237,21 7.5,21 L3.5,21 C3.22385763,21 3,20.7761424 3,20.5 L3,16.5 C3,16.2238576 3.22385763,16 3.5,16 C3.77614237,16 4,16.2238576 4,16.5 L4,19.2928932 L9.14644661,14.1464466 C9.34170876,13.9511845 9.65829124,13.9511845 9.85355339,14.1464466 C10.0488155,14.3417088 10.0488155,14.6582912 9.85355339,14.8535534 L4.70710678,20 Z M19.2928932,4 L16.5,4 C16.2238576,4 16,3.77614237 16,3.5 C16,3.22385763 16.2238576,3 16.5,3 L20.5,3 C20.7761424,3 21,3.22385763 21,3.5 L21,7.53112887 C21,7.80727125 20.7761424,8.03112887 20.5,8.03112887 C20.2238576,8.03112887 20,7.80727125 20,7.53112887 L20,4.70710678 L14.8535534,9.85355339 C14.6582912,10.0488155 14.3417088,10.0488155 14.1464466,9.85355339 C13.9511845,9.65829124 13.9511845,9.34170876 14.1464466,9.14644661 L19.2928932,4 L19.2928932,4 Z"/>
</svg>
