<svg xmlns="http://www.w3.org/2000/svg" width="24" height="24" viewBox="0 0 24 24">
  <path d="M18.2928932,12 L7.5,12 C7.22385763,12 7,11.7761424 7,11.5 C7,11.2238576 7.22385763,11 7.5,11 L18.2928932,11 L15.1464466,7.85355339 C14.9511845,7.65829124 14.9511845,7.34170876 15.1464466,7.14644661 C15.3417088,6.95118446 15.6582912,6.95118446 15.8535534,7.14644661 L19.8535534,11.1464466 C20.0488155,11.3417088 20.0488155,11.6582912 19.8535534,11.8535534 L15.8535534,15.8535534 C15.6582912,16.0488155 15.3417088,16.0488155 15.1464466,15.8535534 C14.9511845,15.6582912 14.9511845,15.3417088 15.1464466,15.1464466 L18.2928932,12 L18.2928932,12 Z M4,3.5 C4,3.22385763 4.22385763,3 4.5,3 C4.77614237,3 5,3.22385763 5,3.5 L5,19.5 C5,19.7761424 4.77614237,20 4.5,20 C4.22385763,20 4,19.7761424 4,19.5 L4,3.5 Z"/>
</svg>
