<svg xmlns="http://www.w3.org/2000/svg" width="24" height="24" viewBox="0 0 24 24">
  <path d="M3,8.5 C3,8.77614237 2.77614237,9 2.5,9 C2.22385763,9 2,8.77614237 2,8.5 L2,6.5 C2,5.11928813 3.11928813,4 4.5,4 L6.5,4 C6.77614237,4 7,4.22385763 7,4.5 C7,4.77614237 6.77614237,5 6.5,5 L4.5,5 C3.67157288,5 3,5.67157288 3,6.5 L3,8.5 Z M17.5,5 C17.2238576,5 17,4.77614237 17,4.5 C17,4.22385763 17.2238576,4 17.5,4 L19.5,4 C20.8807119,4 22,5.11928813 22,6.5 L22,8.5 C22,8.77614237 21.7761424,9 21.5,9 C21.2238576,9 21,8.77614237 21,8.5 L21,6.5 C21,5.67157288 20.3284271,5 19.5,5 L17.5,5 Z M21,15.5 C21,15.2238576 21.2238576,15 21.5,15 C21.7761424,15 22,15.2238576 22,15.5 L22,17.5 C22,18.8807119 20.8807119,20 19.5,20 L17.5,20 C17.2238576,20 17,19.7761424 17,19.5 C17,19.2238576 17.2238576,19 17.5,19 L19.5,19 C20.3284271,19 21,18.3284271 21,17.5 L21,15.5 Z M6.5,19 C6.77614237,19 7,19.2238576 7,19.5 C7,19.7761424 6.77614237,20 6.5,20 L4.5,20 C3.11928813,20 2,18.8807119 2,17.5 L2,15.5 C2,15.2238576 2.22385763,15 2.5,15 C2.77614237,15 3,15.2238576 3,15.5 L3,17.5 C3,18.3284271 3.67157288,19 4.5,19 L6.5,19 Z"/>
</svg>
