<svg xmlns="http://www.w3.org/2000/svg" width="24" height="24" viewBox="0 0 24 24">
  <path d="M13,21.2928932 L15.1464466,19.1464466 C15.3417088,18.9511845 15.6582912,18.9511845 15.8535534,19.1464466 C16.0488155,19.3417088 16.0488155,19.6582912 15.8535534,19.8535534 L12.8535534,22.8535534 C12.6582912,23.0488155 12.3417088,23.0488155 12.1464466,22.8535534 L9.14644661,19.8535534 C8.95118446,19.6582912 8.95118446,19.3417088 9.14644661,19.1464466 C9.34170876,18.9511845 9.65829124,18.9511845 9.85355339,19.1464466 L12,21.2928932 L12,15.5 C12,15.2238576 12.2238576,15 12.5,15 C12.7761424,15 13,15.2238576 13,15.5 L13,21.2928932 L13,21.2928932 Z M3.70710678,13 L5.85355339,15.1464466 C6.04881554,15.3417088 6.04881554,15.6582912 5.85355339,15.8535534 C5.65829124,16.0488155 5.34170876,16.0488155 5.14644661,15.8535534 L2.14644661,12.8535534 C1.95118446,12.6582912 1.95118446,12.3417088 2.14644661,12.1464466 L5.14644661,9.14644661 C5.34170876,8.95118446 5.65829124,8.95118446 5.85355339,9.14644661 C6.04881554,9.34170876 6.04881554,9.65829124 5.85355339,9.85355339 L3.70710678,12 L9.5,12 C9.77614237,12 10,12.2238576 10,12.5 C10,12.7761424 9.77614237,13 9.5,13 L3.70710678,13 Z M21.2928932,12 L19.1464466,9.85355339 C18.9511845,9.65829124 18.9511845,9.34170876 19.1464466,9.14644661 C19.3417088,8.95118446 19.6582912,8.95118446 19.8535534,9.14644661 L22.8535534,12.1464466 C23.0488155,12.3417088 23.0488155,12.6582912 22.8535534,12.8535534 L19.8535534,15.8535534 C19.6582912,16.0488155 19.3417088,16.0488155 19.1464466,15.8535534 C18.9511845,15.6582912 18.9511845,15.3417088 19.1464466,15.1464466 L21.2928932,13 L15.5,13 C15.2238576,13 15,12.7761424 15,12.5 C15,12.2238576 15.2238576,12 15.5,12 L21.2928932,12 L21.2928932,12 Z M13,3.70710678 L13,9.5 C13,9.77614237 12.7761424,10 12.5,10 C12.2238576,10 12,9.77614237 12,9.5 L12,3.70710678 L9.85355339,5.85355339 C9.65829124,6.04881554 9.34170876,6.04881554 9.14644661,5.85355339 C8.95118446,5.65829124 8.95118446,5.34170876 9.14644661,5.14644661 L12.1464466,2.14644661 C12.3417088,1.95118446 12.6582912,1.95118446 12.8535534,2.14644661 L15.8535534,5.14644661 C16.0488155,5.34170876 16.0488155,5.65829124 15.8535534,5.85355339 C15.6582912,6.04881554 15.3417088,6.04881554 15.1464466,5.85355339 L13,3.70710678 Z"/>
</svg>
