<svg xmlns="http://www.w3.org/2000/svg" width="24" height="24" viewBox="0 0 24 24">
  <path d="M17.2928932,12 L6.70710678,12 L9.85355339,15.1464466 C10.0488155,15.3417088 10.0488155,15.6582912 9.85355339,15.8535534 C9.65829124,16.0488155 9.34170876,16.0488155 9.14644661,15.8535534 L5.14644661,11.8535534 C4.95118446,11.6582912 4.95118446,11.3417088 5.14644661,11.1464466 L9.14644661,7.14644661 C9.34170876,6.95118446 9.65829124,6.95118446 9.85355339,7.14644661 C10.0488155,7.34170876 10.0488155,7.65829124 9.85355339,7.85355339 L6.70710678,11 L17.2928932,11 L14.1464466,7.85355339 C13.9511845,7.65829124 13.9511845,7.34170876 14.1464466,7.14644661 C14.3417088,6.95118446 14.6582912,6.95118446 14.8535534,7.14644661 L18.8535534,11.1464466 C19.0488155,11.3417088 19.0488155,11.6582912 18.8535534,11.8535534 L14.8535534,15.8535534 C14.6582912,16.0488155 14.3417088,16.0488155 14.1464466,15.8535534 C13.9511845,15.6582912 13.9511845,15.3417088 14.1464466,15.1464466 L17.2928932,12 L17.2928932,12 Z M20,3.5 C20,3.22385763 20.2238576,3 20.5,3 C20.7761424,3 21,3.22385763 21,3.5 L21,19.5 C21,19.7761424 20.7761424,20 20.5,20 C20.2238576,20 20,19.7761424 20,19.5 L20,3.5 Z M3,3.5 C3,3.22385763 3.22385763,3 3.5,3 C3.77614237,3 4,3.22385763 4,3.5 L4,19.5 C4,19.7761424 3.77614237,20 3.5,20 C3.22385763,20 3,19.7761424 3,19.5 L3,3.5 Z"/>
</svg>
