<svg xmlns="http://www.w3.org/2000/svg" width="24" height="24" viewBox="0 0 24 24">
  <path d="M4,7.5 C4,7.77614237 3.77614237,8 3.5,8 C3.22385763,8 3,7.77614237 3,7.5 L3,5.5 C3,4.11928813 4.11928813,3 5.5,3 L7.5,3 C7.77614237,3 8,3.22385763 8,3.5 C8,3.77614237 7.77614237,4 7.5,4 L5.5,4 C4.67157288,4 4,4.67157288 4,5.5 L4,7.5 Z M16.5,4 C16.2238576,4 16,3.77614237 16,3.5 C16,3.22385763 16.2238576,3 16.5,3 L18.5,3 C19.8807119,3 21,4.11928813 21,5.5 L21,7.5 C21,7.77614237 20.7761424,8 20.5,8 C20.2238576,8 20,7.77614237 20,7.5 L20,5.5 C20,4.67157288 19.3284271,4 18.5,4 L16.5,4 Z M20,16.5 C20,16.2238576 20.2238576,16 20.5,16 C20.7761424,16 21,16.2238576 21,16.5 L21,18.5 C21,19.8807119 19.8807119,21 18.5,21 L16.5,21 C16.2238576,21 16,20.7761424 16,20.5 C16,20.2238576 16.2238576,20 16.5,20 L18.5,20 C19.3284271,20 20,19.3284271 20,18.5 L20,16.5 Z M7.5,20 C7.77614237,20 8,20.2238576 8,20.5 C8,20.7761424 7.77614237,21 7.5,21 L5.5,21 C4.11928813,21 3,19.8807119 3,18.5 L3,16.5 C3,16.2238576 3.22385763,16 3.5,16 C3.77614237,16 4,16.2238576 4,16.5 L4,18.5 C4,19.3284271 4.67157288,20 5.5,20 L7.5,20 Z"/>
</svg>
