<svg xmlns="http://www.w3.org/2000/svg" width="24" height="24" viewBox="0 0 24 24">
  <path d="M5.70710678,12 L8.85355339,15.1464466 C9.04881554,15.3417088 9.04881554,15.6582912 8.85355339,15.8535534 C8.65829124,16.0488155 8.34170876,16.0488155 8.14644661,15.8535534 L4.14644661,11.8535534 C3.95118446,11.6582912 3.95118446,11.3417088 4.14644661,11.1464466 L8.14644661,7.14644661 C8.34170876,6.95118446 8.65829124,6.95118446 8.85355339,7.14644661 C9.04881554,7.34170876 9.04881554,7.65829124 8.85355339,7.85355339 L5.70710678,11 L16.5,11 C16.7761424,11 17,11.2238576 17,11.5 C17,11.7761424 16.7761424,12 16.5,12 L5.70710678,12 Z M19,3.5 C19,3.22385763 19.2238576,3 19.5,3 C19.7761424,3 20,3.22385763 20,3.5 L20,19.5 C20,19.7761424 19.7761424,20 19.5,20 C19.2238576,20 19,19.7761424 19,19.5 L19,3.5 Z"/>
</svg>
