<svg xmlns="http://www.w3.org/2000/svg" width="24" height="24" viewBox="0 0 24 24">
  <path d="M13,18.2928932 L16.1464466,15.1464466 C16.3417088,14.9511845 16.6582912,14.9511845 16.8535534,15.1464466 C17.0488155,15.3417088 17.0488155,15.6582912 16.8535534,15.8535534 L12.8535534,19.8535534 C12.6582912,20.0488155 12.3417088,20.0488155 12.1464466,19.8535534 L8.14644661,15.8535534 C7.95118446,15.6582912 7.95118446,15.3417088 8.14644661,15.1464466 C8.34170876,14.9511845 8.65829124,14.9511845 8.85355339,15.1464466 L12,18.2928932 L12,7.5 C12,7.22385763 12.2238576,7 12.5,7 C12.7761424,7 13,7.22385763 13,7.5 L13,18.2928932 Z M4.5,5 C4.22385763,5 4,4.77614237 4,4.5 C4,4.22385763 4.22385763,4 4.5,4 L20.5,4 C20.7761424,4 21,4.22385763 21,4.5 C21,4.77614237 20.7761424,5 20.5,5 L4.5,5 Z"/>
</svg>
