<svg xmlns="http://www.w3.org/2000/svg" width="24" height="24" viewBox="0 0 24 24">
  <path d="M13,4.70710678 L13,15.5 C13,15.7761424 12.7761424,16 12.5,16 C12.2238576,16 12,15.7761424 12,15.5 L12,4.70710678 L9.85355339,6.85355339 C9.65829124,7.04881554 9.34170876,7.04881554 9.14644661,6.85355339 C8.95118446,6.65829124 8.95118446,6.34170876 9.14644661,6.14644661 L12.1464466,3.14644661 C12.3417088,2.95118446 12.6582912,2.95118446 12.8535534,3.14644661 L15.8535534,6.14644661 C16.0488155,6.34170876 16.0488155,6.65829124 15.8535534,6.85355339 C15.6582912,7.04881554 15.3417088,7.04881554 15.1464466,6.85355339 L13,4.70710678 L13,4.70710678 Z M18.5,6 C18.2238576,6 18,5.77614237 18,5.5 C18,5.22385763 18.2238576,5 18.5,5 L19.5,5 C20.8807119,5 22,6.11928813 22,7.5 L22,17.5 C22,18.8807119 20.8807119,20 19.5,20 L5.5,20 C4.11928813,20 3,18.8807119 3,17.5 L3,7.5 C3,6.11928813 4.11928813,5 5.5,5 L6.5,5 C6.77614237,5 7,5.22385763 7,5.5 C7,5.77614237 6.77614237,6 6.5,6 L5.5,6 C4.67157288,6 4,6.67157288 4,7.5 L4,17.5 C4,18.3284271 4.67157288,19 5.5,19 L19.5,19 C20.3284271,19 21,18.3284271 21,17.5 L21,7.5 C21,6.67157288 20.3284271,6 19.5,6 L18.5,6 Z"/>
</svg>
