<svg xmlns="http://www.w3.org/2000/svg" width="24" height="24" viewBox="0 0 24 24">
  <path d="M15.7928932,10.5 L13.5,8.20710678 L12.2071068,9.5 L12.8535534,10.1464466 C13.0488155,10.3417088 13.0488155,10.6582912 12.8535534,10.8535534 C12.6582912,11.0488155 12.3417088,11.0488155 12.1464466,10.8535534 L11.5,10.2071068 L10.2071068,11.5 L10.8535534,12.1464466 C11.0488155,12.3417088 11.0488155,12.6582912 10.8535534,12.8535534 C10.6582912,13.0488155 10.3417088,13.0488155 10.1464466,12.8535534 L9.5,12.2071068 L8.20710678,13.5 L8.85355339,14.1464466 C9.04881554,14.3417088 9.04881554,14.6582912 8.85355339,14.8535534 C8.65829124,15.0488155 8.34170876,15.0488155 8.14644661,14.8535534 L7.5,14.2071068 L6.20710678,15.5 L6.85355339,16.1464466 C7.04881554,16.3417088 7.04881554,16.6582912 6.85355339,16.8535534 C6.65829124,17.0488155 6.34170876,17.0488155 6.14644661,16.8535534 L5.50135443,16.2084612 C5.17954178,16.5604857 5,17.0209872 5,17.5 C5,17.6326082 4.94732158,17.7597852 4.85355339,17.8535534 L4.56066017,18.1464466 C4.20167549,18.5054313 4,18.992319 4,19.5 C4,19.7761424 4.22385763,20 4.5,20 C5.007681,20 5.49456871,19.7983245 5.85355339,19.4393398 L6.14644661,19.1464466 C6.2402148,19.0526784 6.36739176,19 6.5,19 C7.007681,19 7.49456871,18.7983245 7.85355339,18.4393398 L15.7928932,10.5 L15.7928932,10.5 Z M16.5466406,11.1604662 L8.56066017,19.1464466 C8.06505117,19.6420556 7.40931082,19.9407175 6.7150456,19.9920612 L6.56066017,20.1464466 C6.01413911,20.6929677 5.27289749,21 4.5,21 C3.67157288,21 3,20.3284271 3,19.5 C3,18.7271025 3.30703233,17.9858609 3.85355339,17.4393398 L4.00793882,17.2849544 C4.05928251,16.5906892 4.35794439,15.9349488 4.85355339,15.4393398 L12.8395338,7.45335942 C12.4189144,6.72180555 12.5212187,5.77167453 13.1464466,5.14644661 C13.7716948,4.52119839 14.7218673,4.41890778 15.4534307,4.83957478 L16.5252958,3.76810163 C17.5491914,2.74458047 19.2089038,2.74473224 20.2326122,3.76844063 C21.25615,4.79197841 21.25615,6.45146104 20.2325799,7.47503114 L19.1605072,8.54671186 C19.5810789,9.27825616 19.478761,10.2283458 18.8535534,10.8535534 C18.2283255,11.4787813 17.2781944,11.5810856 16.5466406,11.1604662 L16.5466406,11.1604662 Z M18.5000647,7.79295787 L19.5252635,6.76813395 C20.1585189,6.13487855 20.1585189,5.1085609 19.5255054,4.47554741 C18.8922708,3.84231281 17.8656237,3.84221893 17.2322733,4.47533772 L16.2071714,5.50006466 L18.5000647,7.79295787 L18.5000647,7.79295787 Z M13.8535534,5.85355339 C13.4965308,6.21057599 13.4965308,6.78942401 13.8535534,7.14644661 L16.8535534,10.1464466 C17.210576,10.5034692 17.789424,10.5034692 18.1464466,10.1464466 C18.5034692,9.78942401 18.5034692,9.21057599 18.1464466,8.85355339 L15.1464466,5.85355339 C14.789424,5.49653079 14.210576,5.49653079 13.8535534,5.85355339 Z"/>
</svg>
