<svg xmlns="http://www.w3.org/2000/svg" width="24" height="24" viewBox="0 0 24 24">
  <path d="M2.03381935,11.8192361 C4.16808919,6.31506648 10.3602678,3.58322297 15.8644374,5.71749281 C18.6654288,6.80359152 20.8800819,9.01824467 21.9661807,11.8192361 C22.0112731,11.9355272 22.0112731,12.0644728 21.9661807,12.1807639 C19.8319108,17.6849335 13.6397322,20.416777 8.1355626,18.2825072 C5.3345712,17.1964085 3.11991805,14.9817553 2.03381935,12.1807639 C1.98872688,12.0644728 1.98872688,11.9355272 2.03381935,11.8192361 Z M8.49709046,17.3501459 C13.4256883,19.2612348 18.9628618,16.8680219 20.9616531,12.0000475 C19.9532865,9.54665483 17.9813179,7.6108696 15.5029095,6.64985412 C10.5743117,4.73876518 5.0371382,7.13197809 3.03834692,11.9999525 C4.04671349,14.4533452 6.01868212,16.3891304 8.49709046,17.3501459 Z M12,16 C9.790861,16 8,14.209139 8,12 C8,9.790861 9.790861,8 12,8 C14.209139,8 16,9.790861 16,12 C16,14.209139 14.209139,16 12,16 Z M12,15 C13.6568542,15 15,13.6568542 15,12 C15,10.3431458 13.6568542,9 12,9 C10.3431458,9 9,10.3431458 9,12 C9,13.6568542 10.3431458,15 12,15 Z"/>
</svg>
