<svg xmlns="http://www.w3.org/2000/svg" width="24" height="24" viewBox="0 0 24 24">
  <path d="M20,6.52897986 L20,19.5010024 C20,20.8817143 18.8807119,22.0010024 17.5,22.0010024 L6.5,22.0010024 C5.11928813,22.0010024 4,20.8817143 4,19.5010024 L4,4.50100238 C4,3.1202905 5.11928813,2.00100238 6.5,2.00100238 L15.4720225,2.00100238 C15.6047688,1.99258291 15.7429463,2.03684187 15.8535534,2.14744899 L19.8535534,6.14744899 C19.9641605,6.25805611 20.0084195,6.39623363 20,6.52897986 Z M15,3.00100238 L6.5,3.00100238 C5.67157288,3.00100238 5,3.67257525 5,4.50100238 L5,19.5010024 C5,20.3294295 5.67157288,21.0010024 6.5,21.0010024 L17.5,21.0010024 C18.3284271,21.0010024 19,20.3294295 19,19.5010024 L19,7.00100238 L15.5,7.00100238 C15.2238576,7.00100238 15,6.77714475 15,6.50100238 L15,3.00100238 Z M16,3.70810916 L16,6.00100238 L18.2928932,6.00100238 L16,3.70810916 Z M12.2879737,11.9579134 L13.817339,15.0166439 C13.8765619,15.0057128 13.9376138,15 14,15 L15,15 C15.5522847,15 16,15.4477153 16,16 L16,17 C16,17.5522847 15.5522847,18 15,18 L14,18 C13.4477153,18 13,17.5522847 13,17 L13,16 L10,16 L10,17 C10,17.5522847 9.55228475,18 9,18 L8,18 C7.44771525,18 7,17.5522847 7,17 L7,16 C7,15.4477153 7.44771525,15 8,15 L9,15 C9.06238619,15 9.12343806,15.0057128 9.18266103,15.0166439 L10.7120263,11.9579134 C10.3001179,11.8342569 10,11.4521766 10,11 L10,10 C10,9.44771525 10.4477153,9 11,9 L12,9 C12.5522847,9 13,9.44771525 13,10 L13,11 C13,11.4521766 12.6998821,11.8342569 12.2879737,11.9579134 L12.2879737,11.9579134 Z M11,10 L11,11 L12,11 L12,10 L11,10 Z M8,16 L8,17 L9,17 L9,16 L8,16 Z M14,16 L14,17 L15,17 L15,16 L14,16 Z M11.5,12.618034 L10.309017,15 L12.690983,15 L11.5,12.618034 Z"/>
</svg>
