<svg xmlns="http://www.w3.org/2000/svg" width="24" height="24" viewBox="0 0 24 24">
  <path d="M20,6.52897986 L20,19.5010024 C20,20.8817143 18.8807119,22.0010024 17.5,22.0010024 L6.5,22.0010024 C5.11928813,22.0010024 4,20.8817143 4,19.5010024 L4,4.50100238 C4,3.1202905 5.11928813,2.00100238 6.5,2.00100238 L15.4720225,2.00100238 C15.6047688,1.99258291 15.7429463,2.03684187 15.8535534,2.14744899 L19.8535534,6.14744899 C19.9641605,6.25805611 20.0084195,6.39623363 20,6.52897986 Z M15,3.00100238 L6.5,3.00100238 C5.67157288,3.00100238 5,3.67257525 5,4.50100238 L5,19.5010024 C5,20.3294295 5.67157288,21.0010024 6.5,21.0010024 L17.5,21.0010024 C18.3284271,21.0010024 19,20.3294295 19,19.5010024 L19,7.00100238 L15.5,7.00100238 C15.2238576,7.00100238 15,6.77714475 15,6.50100238 L15,3.00100238 Z M16,3.70810916 L16,6.00100238 L18.2928932,6.00100238 L16,3.70810916 Z M11,11 L11,17 L11.5,17 C11.7761424,17 12,17.2238576 12,17.5 C12,17.7761424 11.7761424,18 11.5,18 L9.5,18 C9.22385763,18 9,17.7761424 9,17.5 C9,17.2238576 9.22385763,17 9.5,17 L10,17 L10,11 L8,11 L8,11.5 C8,11.7761424 7.77614237,12 7.5,12 C7.22385763,12 7,11.7761424 7,11.5 L7,10.5 C7,10.2238576 7.22385763,10 7.5,10 L13.5,10 C13.7761424,10 14,10.2238576 14,10.5 L14,11.5 C14,11.7761424 13.7761424,12 13.5,12 C13.2238576,12 13,11.7761424 13,11.5 L13,11 L11,11 Z M15,14 L15,17.5 C15,17.7761424 14.7761424,18 14.5,18 C14.2238576,18 14,17.7761424 14,17.5 L14,14 L12.5,14 C12.2238576,14 12,13.7761424 12,13.5 C12,13.2238576 12.2238576,13 12.5,13 L16.5,13 C16.7761424,13 17,13.2238576 17,13.5 C17,13.7761424 16.7761424,14 16.5,14 L15,14 Z"/>
</svg>
