<svg xmlns="http://www.w3.org/2000/svg" width="24" height="24" viewBox="0 0 24 24">
  <path d="M20,6.52897986 L20,19.5010024 C20,20.8817143 18.8807119,22.0010024 17.5,22.0010024 L6.5,22.0010024 C5.11928813,22.0010024 4,20.8817143 4,19.5010024 L4,4.50100238 C4,3.1202905 5.11928813,2.00100238 6.5,2.00100238 L15.4720225,2.00100238 C15.6047688,1.99258291 15.7429463,2.03684187 15.8535534,2.14744899 L19.8535534,6.14744899 C19.9641605,6.25805611 20.0084195,6.39623363 20,6.52897986 Z M15,3.00100238 L6.5,3.00100238 C5.67157288,3.00100238 5,3.67257525 5,4.50100238 L5,19.5010024 C5,20.3294295 5.67157288,21.0010024 6.5,21.0010024 L17.5,21.0010024 C18.3284271,21.0010024 19,20.3294295 19,19.5010024 L19,7.00100238 L15.5,7.00100238 C15.2238576,7.00100238 15,6.77714475 15,6.50100238 L15,3.00100238 Z M16,3.70810916 L16,6.00100238 L18.2928932,6.00100238 L16,3.70810916 Z M9,15.7071068 L9,17 L10.2928932,17 L15.7928932,11.5 L14.5,10.2071068 L9,15.7071068 Z M14.8535534,9.14644661 L16.8535534,11.1464466 C17.0488155,11.3417088 17.0488155,11.6582912 16.8535534,11.8535534 L10.8535534,17.8535534 C10.7597852,17.9473216 10.6326082,18 10.5,18 L8.5,18 C8.22385763,18 8,17.7761424 8,17.5 L8,15.5 C8,15.3673918 8.05267842,15.2402148 8.14644661,15.1464466 L14.1464466,9.14644661 C14.3417088,8.95118446 14.6582912,8.95118446 14.8535534,9.14644661 Z"/>
</svg>
