<svg xmlns="http://www.w3.org/2000/svg" width="24" height="24" viewBox="0 0 24 24">
  <path d="M19.5,9 C19.2238576,9 19,8.77614237 19,8.5 L19,7 L15.5,7 C15.2238576,7 15,6.77614237 15,6.5 L15,3 L6.5,3 C5.67157288,3 5,3.67157288 5,4.5 L5,19.5 C5,20.3284271 5.67157288,21 6.5,21 L17.5,21 C18.3284271,21 19,20.3284271 19,19.5 L19,17.5 C19,17.2238576 19.2238576,17 19.5,17 C19.7761424,17 20,17.2238576 20,17.5 L20,19.5 C20,20.8807119 18.8807119,22 17.5,22 L6.5,22 C5.11928813,22 4,20.8807119 4,19.5 L4,4.5 C4,3.11928813 5.11928813,2 6.5,2 L15.4720225,2 C15.6047688,1.99158053 15.7429463,2.03583949 15.8535534,2.14644661 L19.8535534,6.14644661 C19.9641605,6.25705373 20.0084195,6.39523125 20,6.52797748 L20,8.5 C20,8.77614237 19.7761424,9 19.5,9 Z M18.2928932,13 L10.4861218,13 C10.2099794,13 9.98612181,12.7761424 9.98612181,12.5 C9.98612181,12.2238576 10.2099794,12 10.4861218,12 L18.2928932,12 L16.1464466,9.85355339 C15.9511845,9.65829124 15.9511845,9.34170876 16.1464466,9.14644661 C16.3417088,8.95118446 16.6582912,8.95118446 16.8535534,9.14644661 L19.8535534,12.1464466 C20.0488155,12.3417088 20.0488155,12.6582912 19.8535534,12.8535534 L16.8535534,15.8535534 C16.6582912,16.0488155 16.3417088,16.0488155 16.1464466,15.8535534 C15.9511845,15.6582912 15.9511845,15.3417088 16.1464466,15.1464466 L18.2928932,13 Z M16,3.70710678 L16,6 L18.2928932,6 L16,3.70710678 Z"/>
</svg>
