<svg xmlns="http://www.w3.org/2000/svg" width="24" height="24" viewBox="0 0 24 24">
  <path d="M20,6.52897986 L20,19.5010024 C20,20.8817143 18.8807119,22.0010024 17.5,22.0010024 L6.5,22.0010024 C5.11928813,22.0010024 4,20.8817143 4,19.5010024 L4,4.50100238 C4,3.1202905 5.11928813,2.00100238 6.5,2.00100238 L15.4720225,2.00100238 C15.6047688,1.99258291 15.7429463,2.03684187 15.8535534,2.14744899 L19.8535534,6.14744899 C19.9641605,6.25805611 20.0084195,6.39623363 20,6.52897986 Z M15,3.00100238 L6.5,3.00100238 C5.67157288,3.00100238 5,3.67257525 5,4.50100238 L5,19.5010024 C5,20.3294295 5.67157288,21.0010024 6.5,21.0010024 L17.5,21.0010024 C18.3284271,21.0010024 19,20.3294295 19,19.5010024 L19,7.00100238 L15.5,7.00100238 C15.2238576,7.00100238 15,6.77714475 15,6.50100238 L15,3.00100238 Z M16,3.70810916 L16,6.00100238 L18.2928932,6.00100238 L16,3.70810916 Z M14,18 L10,18 C10,18.5522847 9.55228475,19 9,19 L8,19 C7.44771525,19 7,18.5522847 7,18 L7,17 C7,16.4477153 7.44771525,16 8,16 L8,12 C7.44771525,12 7,11.5522847 7,11 L7,10 C7,9.44771525 7.44771525,9 8,9 L9,9 C9.55228475,9 10,9.44771525 10,10 L14,10 C14,9.44771525 14.4477153,9 15,9 L16,9 C16.5522847,9 17,9.44771525 17,10 L17,11 C17,11.5522847 16.5522847,12 16,12 L16,16 C16.5522847,16 17,16.4477153 17,17 L17,18 C17,18.5522847 16.5522847,19 16,19 L15,19 C14.4477153,19 14,18.5522847 14,18 Z M14,17 C14,16.4477153 14.4477153,16 15,16 L15,12 C14.4477153,12 14,11.5522847 14,11 L10,11 C10,11.5522847 9.55228475,12 9,12 L9,16 C9.55228475,16 10,16.4477153 10,17 L14,17 L14,17 Z M15.3436309,17 L15,17 L15,18 L16,18 L16,17 L15.6563691,17 C15.6071755,17.0161829 15.5546102,17.0249378 15.5,17.0249378 C15.4453898,17.0249378 15.3928245,17.0161829 15.3436309,17 L15.3436309,17 Z M8.34363093,17 L8,17 L8,18 L9,18 L9,17 L8.65636907,17 C8.60717553,17.0161829 8.55461018,17.0249378 8.5,17.0249378 C8.44538982,17.0249378 8.39282447,17.0161829 8.34363093,17 L8.34363093,17 Z M8,10 L8,11 L9,11 L9,10 L8,10 Z M15,10 L15,11 L16,11 L16,10 L15,10 Z"/>
</svg>
