<svg xmlns="http://www.w3.org/2000/svg" width="24" height="24" viewBox="0 0 24 24">
  <path d="M20,6.52897986 L20,19.5010024 C20,20.8817143 18.8807119,22.0010024 17.5,22.0010024 L6.5,22.0010024 C5.11928813,22.0010024 4,20.8817143 4,19.5010024 L4,4.50100238 C4,3.1202905 5.11928813,2.00100238 6.5,2.00100238 L15.4720225,2.00100238 C15.6047688,1.99258291 15.7429463,2.03684187 15.8535534,2.14744899 L19.8535534,6.14744899 C19.9641605,6.25805611 20.0084195,6.39623363 20,6.52897986 Z M15,3.00100238 L6.5,3.00100238 C5.67157288,3.00100238 5,3.67257525 5,4.50100238 L5,19.5010024 C5,20.3294295 5.67157288,21.0010024 6.5,21.0010024 L17.5,21.0010024 C18.3284271,21.0010024 19,20.3294295 19,19.5010024 L19,7.00100238 L15.5,7.00100238 C15.2238576,7.00100238 15,6.77714475 15,6.50100238 L15,3.00100238 Z M16,3.70810916 L16,6.00100238 L18.2928932,6.00100238 L16,3.70810916 Z M8,11.5 L8,14.5 C8,14.7761424 8.22385763,15 8.5,15 L11.5,15 C11.7761424,15 12,14.7761424 12,14.5 L12,11.5 C12,11.2238576 11.7761424,11 11.5,11 L8.5,11 C8.22385763,11 8,11.2238576 8,11.5 Z M12.9874925,11.3054008 L14.1464466,10.1464466 C14.2402148,10.0526784 14.3673918,10 14.5,10 L16.5,10 C16.7761424,10 17,10.2238576 17,10.5 L17,15.5 C17,15.7761424 16.7761424,16 16.5,16 L14.5,16 C14.3673918,16 14.2402148,15.9473216 14.1464466,15.8535534 L12.9874925,14.6945992 C12.8920849,15.4310925 12.2624802,16 11.5,16 L8.5,16 C7.67157288,16 7,15.3284271 7,14.5 L7,11.5 C7,10.6715729 7.67157288,10 8.5,10 L11.5,10 C12.2624802,10 12.8920849,10.5689075 12.9874925,11.3054008 L12.9874925,11.3054008 Z M13,12.7071068 L13,13.2928932 L14.7071068,15 L16,15 L16,11 L14.7071068,11 L13,12.7071068 Z"/>
</svg>
