<svg xmlns="http://www.w3.org/2000/svg" width="24" height="24" viewBox="0 0 24 24">
  <path d="M9,3 L6.5,3 C5.67157288,3 5,3.67157288 5,4.5 L5,19.5 C5,20.3284271 5.67157288,21 6.5,21 L17.5,21 C18.3284271,21 19,20.3284271 19,19.5 L19,7 L15.5,7 C15.2238576,7 15,6.77614237 15,6.5 L15,3 L10,3 L10,4.5 C10,4.77614237 9.77614237,5 9.5,5 C9.22385763,5 9,4.77614237 9,4.5 L9,3 Z M20,6.52797748 L20,19.5 C20,20.8807119 18.8807119,22 17.5,22 L6.5,22 C5.11928813,22 4,20.8807119 4,19.5 L4,4.5 C4,3.11928813 5.11928813,2 6.5,2 L15.4720225,2 C15.6047688,1.99158053 15.7429463,2.03583949 15.8535534,2.14644661 L19.8535534,6.14644661 C19.9641605,6.25705373 20.0084195,6.39523125 20,6.52797748 L20,6.52797748 Z M16,3.70710678 L16,6 L18.2928932,6 L16,3.70710678 Z M9,15.2928932 L9,14.5 C9,14.2238576 9.22385763,14 9.5,14 C9.77614237,14 10,14.2238576 10,14.5 L10,15.2928932 L10.1464466,15.4393398 C10.6929677,15.9858609 11,16.7271025 11,17.5 C11,18.3284271 10.3284271,19 9.5,19 C8.67157288,19 8,18.3284271 8,17.5 C8,16.7271025 8.30703233,15.9858609 8.85355339,15.4393398 L9,15.2928932 L9,15.2928932 Z M9,17.5 C9,17.7761424 9.22385763,18 9.5,18 C9.77614237,18 10,17.7761424 10,17.5 C10,17.0216617 9.82096347,16.5617825 9.5,16.209953 C9.17903653,16.5617825 9,17.0216617 9,17.5 Z M9,6.5 C9,6.22385763 9.22385763,6 9.5,6 C9.77614237,6 10,6.22385763 10,6.5 L10,8.5 C10,8.77614237 9.77614237,9 9.5,9 C9.22385763,9 9,8.77614237 9,8.5 L9,6.5 Z M9,10.5 C9,10.2238576 9.22385763,10 9.5,10 C9.77614237,10 10,10.2238576 10,10.5 L10,12.5 C10,12.7761424 9.77614237,13 9.5,13 C9.22385763,13 9,12.7761424 9,12.5 L9,10.5 Z"/>
</svg>
