<svg xmlns="http://www.w3.org/2000/svg" width="24" height="24" viewBox="0 0 24 24">
  <path d="M20,6.52897986 L20,19.5010024 C20,20.8817143 18.8807119,22.0010024 17.5,22.0010024 L6.5,22.0010024 C5.11928813,22.0010024 4,20.8817143 4,19.5010024 L4,4.50100238 C4,3.1202905 5.11928813,2.00100238 6.5,2.00100238 L15.4720225,2.00100238 C15.6047688,1.99258291 15.7429463,2.03684187 15.8535534,2.14744899 L19.8535534,6.14744899 C19.9641605,6.25805611 20.0084195,6.39623363 20,6.52897986 Z M15,3.00100238 L6.5,3.00100238 C5.67157288,3.00100238 5,3.67257525 5,4.50100238 L5,19.5010024 C5,20.3294295 5.67157288,21.0010024 6.5,21.0010024 L17.5,21.0010024 C18.3284271,21.0010024 19,20.3294295 19,19.5010024 L19,7.00100238 L15.5,7.00100238 C15.2238576,7.00100238 15,6.77714475 15,6.50100238 L15,3.00100238 Z M16,3.70810916 L16,6.00100238 L18.2928932,6.00100238 L16,3.70810916 Z M8,15 L10,15 L10,14 L8,14 L8,15 Z M8,16 L8,16.5 C8,16.7761424 8.22385763,17 8.5,17 L10,17 L10,16 L8,16 Z M16.0138782,15 L16.0138782,14 L11,14 L11,15 L16.0138782,15 Z M16.0138782,16 L11,16 L11,17 L15.5138782,17 C15.7900206,17 16.0138782,16.7761424 16.0138782,16.5 L16.0138782,16 Z M8,13 L10,13 L10,12 L8.5,12 C8.22385763,12 8,12.2238576 8,12.5 L8,13 Z M16.0138782,13 L16.0138782,12.5 C16.0138782,12.2238576 15.7900206,12 15.5138782,12 L11,12 L11,13 L16.0138782,13 Z M7,12.5 C7,11.6715729 7.67157288,11 8.5,11 L15.5138782,11 C16.3423053,11 17.0138782,11.6715729 17.0138782,12.5 L17.0138782,16.5 C17.0138782,17.3284271 16.3423053,18 15.5138782,18 L8.5,18 C7.67157288,18 7,17.3284271 7,16.5 L7,12.5 Z"/>
</svg>
