<svg xmlns="http://www.w3.org/2000/svg" width="24" height="24" viewBox="0 0 24 24">
  <path d="M20,6.52897986 L20,19.5010024 C20,20.8817143 18.8807119,22.0010024 17.5,22.0010024 L6.5,22.0010024 C5.11928813,22.0010024 4,20.8817143 4,19.5010024 L4,4.50100238 C4,3.1202905 5.11928813,2.00100238 6.5,2.00100238 L15.4720225,2.00100238 C15.6047688,1.99258291 15.7429463,2.03684187 15.8535534,2.14744899 L19.8535534,6.14744899 C19.9641605,6.25805611 20.0084195,6.39623363 20,6.52897986 Z M15,3.00100238 L6.5,3.00100238 C5.67157288,3.00100238 5,3.67257525 5,4.50100238 L5,19.5010024 C5,20.3294295 5.67157288,21.0010024 6.5,21.0010024 L17.5,21.0010024 C18.3284271,21.0010024 19,20.3294295 19,19.5010024 L19,7.00100238 L15.5,7.00100238 C15.2238576,7.00100238 15,6.77714475 15,6.50100238 L15,3.00100238 Z M16,3.70810916 L16,6.00100238 L18.2928932,6.00100238 L16,3.70810916 Z M9.5,9 L14.5,9 C14.6671766,9 14.8232923,9.08355057 14.9160251,9.2226499 L16.9160251,12.2226499 C17.0427754,12.4127752 17.024507,12.664638 16.8716471,12.8344824 L12.3716471,17.8344824 C12.1730259,18.0551725 11.8269741,18.0551725 11.6283529,17.8344824 L7.12835293,12.8344824 C6.97549302,12.664638 6.95722464,12.4127752 7.08397485,12.2226499 L9.08397485,9.2226499 C9.17670774,9.08355057 9.33282341,9 9.5,9 Z M9.76759188,10 L8.13145968,12.4541983 L12,16.7525764 L15.8685403,12.4541983 L14.2324081,10 L9.76759188,10 Z"/>
</svg>
