<svg xmlns="http://www.w3.org/2000/svg" width="24" height="24" viewBox="0 0 24 24">
  <path d="M20,6.52797748 L20,19.5 C20,20.8807119 18.8807119,22 17.5,22 L6.5,22 C5.11928813,22 4,20.8807119 4,19.5 L4,4.5 C4,3.11928813 5.11928813,2 6.5,2 L15.4720225,2 C15.6047688,1.99158053 15.7429463,2.03583949 15.8535534,2.14644661 L19.8535534,6.14644661 C19.9641605,6.25705373 20.0084195,6.39523125 20,6.52797748 L20,6.52797748 Z M15,3 L6.5,3 C5.67157288,3 5,3.67157288 5,4.5 L5,19.5 C5,20.3284271 5.67157288,21 6.5,21 L17.5,21 C18.3284271,21 19,20.3284271 19,19.5 L19,7 L15.5,7 C15.2238576,7 15,6.77614237 15,6.5 L15,3 Z M16,3.70710678 L16,6 L18.2928932,6 L16,3.70710678 Z M8,13 C8,11.3431458 9.34314575,10 11,10 L11.5000241,10 C12.7094897,10 13.7183556,10.8588692 13.9499904,11.9999759 L14.5138662,11.9999759 C15.8945847,11.9999759 17.0138782,13.1192694 17.0138782,14.499988 C17.0138782,15.8807065 15.8945847,17 14.5138662,17 L9,17 C7.8954305,17 7,16.1045695 7,15 L7,14.5 C7,13.8468906 7.41740381,13.2912711 8,13.0853529 L8,13 Z M9,13.5 C9,13.7761424 8.77614237,14 8.5,14 C8.22385763,14 8,14.2238576 8,14.5 L8,15 C8,15.5522847 8.44771525,16 9,16 L14.5138662,16 C15.3422999,16 16.0138782,15.3284217 16.0138782,14.499988 C16.0138782,13.6715542 15.3422999,12.9999759 14.5138662,12.9999759 L13.5,12.9999759 C13.2238576,12.9999759 13,12.7761183 13,12.4999759 C13,11.6715621 12.3284379,11 11.5000241,11 L11,11 C9.8954305,11 9,11.8954305 9,13 L9,13.5 Z"/>
</svg>
