<svg xmlns="http://www.w3.org/2000/svg" width="24" height="24" viewBox="0 0 24 24">
  <path d="M21,9 L19,9 L19,11 L21,11 L21,9 Z M21,8 L21,7.5 C21,6.67157288 20.3284271,6 19.5,6 L19,6 L19,8 L21,8 Z M21,14 L21,12 L19,12 L19,14 L21,14 Z M21,15 L19,15 L19,17 L19.5,17 C20.3284271,17 21,16.3284271 21,15.5 L21,15 Z M3,14 L5,14 L5,12 L3,12 L3,14 Z M3,15 L3,15.5 C3,16.3284271 3.67157288,17 4.5,17 L5,17 L5,15 L3,15 Z M3,9 L3,11 L5,11 L5,9 L3,9 Z M3,8 L5,8 L5,6 L4.5,6 C3.67157288,6 3,6.67157288 3,7.5 L3,8 Z M6,11 L18,11 L18,6 L6,6 L6,11 Z M6,12 L6,17 L18,17 L18,12 L6,12 Z M4.5,5 L19.5,5 C20.8807119,5 22,6.11928813 22,7.5 L22,15.5 C22,16.8807119 20.8807119,18 19.5,18 L4.5,18 C3.11928813,18 2,16.8807119 2,15.5 L2,7.5 C2,6.11928813 3.11928813,5 4.5,5 Z"/>
</svg>
