<svg xmlns="http://www.w3.org/2000/svg" width="24" height="24" viewBox="0 0 24 24">
  <path d="M15,12.7071068 L15,18.5 C15,18.7044523 14.8755245,18.8883067 14.6856953,18.9642383 L9.68569534,20.9642383 C9.35726314,21.0956112 9,20.8537323 9,20.5 L9,12.7071068 L3.14644661,6.85355339 C3.05267842,6.7597852 3,6.63260824 3,6.5 L3,3.5 C3,3.22385763 3.22385763,3 3.5,3 L20.5,3 C20.7761424,3 21,3.22385763 21,3.5 L21,6.5 C21,6.63260824 20.9473216,6.7597852 20.8535534,6.85355339 L15,12.7071068 Z M14,13 L10,13 L10,19.7614835 L14,18.1614835 L14,13 L14,13 Z M4,4 L4,6.29289322 L9.70710678,12 L14.2928932,12 L20,6.29289322 L20,4 L4,4 Z"/>
</svg>
