<svg xmlns="http://www.w3.org/2000/svg" width="24" height="24" viewBox="0 0 24 24">
  <path d="M13.0000039,5 L18.5,5 C18.9120227,5 19.1472136,5.47038187 18.9,5.8 L16.125,9.5 L18.9,13.2 C19.1472136,13.5296181 18.9120227,14 18.5,14 L13.5,14 C12.6715729,14 12,13.3284271 12,12.5 C12,12.2238576 11.7761424,12 11.5,12 L6,12 L6,20.5 C6,20.7761424 5.77614237,21 5.5,21 C5.22385763,21 5,20.7761424 5,20.5 L5,4.49264865 C5,3.66422152 5.67157288,2.99264865 6.5,2.99264865 L11.5000039,2.99264865 C12.328431,2.99264865 13.0000039,3.66422152 13.0000039,4.49264865 L13.0000039,5 Z M13.0000039,6 L13.0000039,7.5 C13.0000039,7.77614237 12.7761462,8 12.5000039,8 C12.2238615,8 12.0000039,7.77614237 12.0000039,7.5 L12.0000039,5.50198585 C12.0000013,5.5013242 12,5.50066225 12,5.5 C12,5.49933775 12.0000013,5.4986758 12.0000039,5.49801415 L12.0000039,4.49264865 C12.0000039,4.21650627 11.7761462,3.99264865 11.5000039,3.99264865 L6.5,3.99264865 C6.22385763,3.99264865 6,4.21650627 6,4.49264865 L6,11 L11.5,11 C12.3284271,11 13,11.6715729 13,12.5 C13,12.7761424 13.2238576,13 13.5,13 L17.5,13 L15.1,9.8 C14.9666667,9.62222222 14.9666667,9.37777778 15.1,9.2 L17.5,6 L13.0000039,6 Z"/>
</svg>
