<svg xmlns="http://www.w3.org/2000/svg" width="24" height="24" viewBox="0 0 24 24">
  <path d="M9.71059918,13.582294 C9.69936187,13.5714172 9.68853189,13.5599183 9.67815591,13.5478009 C8.59849064,12.2869371 8.01762212,10.7035204 8.00032768,9.07633013 C6.7876135,9.28154954 5.65982649,9.85489214 4.76568707,10.7490316 C2.54160156,12.9731171 2.42859102,16.5088564 4.42665545,18.8662378 L9.71059918,13.582294 L9.71059918,13.582294 Z M10.4183084,12.8745848 L12.8829126,10.4099806 C11.7872349,9.48117794 10.4112297,8.98930779 8.99992964,8.99160188 C8.99763555,10.402902 9.48950569,11.7789071 10.4183086,12.8745846 L10.4183084,12.8745848 Z M13.5906218,9.70227143 L18.8745655,4.4183277 C16.5171841,2.42026327 12.9814448,2.53327381 10.7573593,4.75735931 C9.86321989,5.65149873 9.28987729,6.77928574 9.08465788,7.99199993 C10.7118482,8.00929437 12.2952648,8.59016289 13.5561287,9.66982815 C13.5682461,9.68020414 13.579745,9.69103411 13.5906218,9.70227143 L13.5906218,9.70227143 Z M19.581626,5.12548075 L5.13380851,19.5732983 C7.36279767,21.4616391 10.663818,21.4742307 12.9063964,19.5533526 C13.0248392,19.4519005 13.139763,19.3455184 13.2509684,19.2343129 C14.2446094,18.2406719 14.8420061,16.9585225 14.9784003,15.5922919 C14.9731219,15.5685064 14.9695189,15.5440392 14.967729,15.5190094 C14.9565075,15.3620926 15.0189655,15.2169194 15.1257231,15.1173954 C15.2252472,15.0106378 15.3704204,14.9481798 15.5273372,14.9594012 C15.5523669,14.9611911 15.5768342,14.9647941 15.6006197,14.9700726 C16.9668503,14.8336784 18.2489997,14.2362817 19.2426407,13.2426407 C19.3538462,13.1314352 19.4602283,13.0165115 19.5616803,12.8980687 C21.4825585,10.6554902 21.4699669,7.35446991 19.581626,5.12548075 L19.581626,5.12548075 Z M8.06364084,8.05531309 C8.26689282,6.55322368 8.95124866,5.1492564 10.0502525,4.05025253 C12.7839226,1.31658249 17.2160774,1.31658249 19.9497475,4.05025253 C22.5395283,6.64003332 22.690068,10.7829573 20.3211598,13.5486 C20.2029882,13.6865624 20.079136,13.820359 19.9497475,13.9497475 C18.8506304,15.0488646 17.4465487,15.7331531 15.9446918,15.936364 C15.7414809,17.4382209 15.0571923,18.8423026 13.9580752,19.9414197 C13.8286867,20.0708082 13.6948901,20.1946605 13.5569277,20.312832 C10.791285,22.6817403 6.64836107,22.5312005 4.05858029,19.9414197 C1.32491024,17.2077497 1.32491024,12.7755948 4.05858029,10.0419248 C5.15758416,8.9429209 6.56155144,8.25856506 8.06364084,8.05531309 L8.06364084,8.05531309 Z"/>
</svg>
