<svg xmlns="http://www.w3.org/2000/svg" width="24" height="24" viewBox="0 0 24 24">
  <path d="M9.29289322,5 L8.14644661,3.85355339 C7.95118446,3.65829124 7.95118446,3.34170876 8.14644661,3.14644661 C8.34170876,2.95118446 8.65829124,2.95118446 8.85355339,3.14644661 L10.8535534,5.14644661 C11.0488155,5.34170876 11.0488155,5.65829124 10.8535534,5.85355339 L8.85355339,7.85355339 C8.65829124,8.04881554 8.34170876,8.04881554 8.14644661,7.85355339 C7.95118446,7.65829124 7.95118446,7.34170876 8.14644661,7.14644661 L9.29289322,6 L6.66227766,6 C4.98901135,6 3.50347492,7.07071408 2.97434165,8.65811388 C2.88701776,8.92008554 2.60385778,9.06166554 2.34188612,8.97434165 C2.07991446,8.88701776 1.93833446,8.60385778 2.02565835,8.34188612 C2.69090566,6.34614418 4.55858094,5 6.66227766,5 L9.29289322,5 Z M14,10.5 L14,13.0474376 C14,13.3783481 13.8839855,13.698786 13.6721417,13.9529985 C13.1720143,14.5531514 12.2800608,14.6342381 11.6799078,14.1341106 L10.7560738,13.3642489 C10.4736449,13.1288916 10.11764,13 9.75,13 C9.48363526,13 9.24082605,13.1526146 9.12532205,13.3926334 L9.08962348,13.4668155 C8.95447865,13.7476481 8.99541029,14.0814869 9.19439734,14.321352 L13.607865,19.6414804 C14.3217788,20.502054 15.3818498,21 16.5,21 C18.9852814,21 21,18.9852814 21,16.5 L21,12.5 C21,12.2238576 20.7761424,12 20.5,12 C20.2238576,12 20,12.2238576 20,12.5 L20,13.5 C20,13.7761424 19.7761424,14 19.5,14 C19.2238576,14 19,13.7761424 19,13.5 L19,11.5 C19,11.2238576 18.7761424,11 18.5,11 C18.2238576,11 18,11.2238576 18,11.5 L18,13.5 C18,13.7761424 17.7761424,14 17.5,14 C17.2238576,14 17,13.7761424 17,13.5 L17,10.5 C17,10.2238576 16.7761424,10 16.5,10 C16.2238576,10 16,10.2238576 16,10.5 L16,13.5 C16,13.7761424 15.7761424,14 15.5,14 C15.2238576,14 15,13.7761424 15,13.5 L15,6.5 C15,6.22385763 14.7761424,6 14.5,6 C14.2238576,6 14,6.22385763 14,6.5 L14,10.5 Z M13,10.4999998 L13,6.5 C13,5.67157288 13.6715729,5 14.5,5 C15.3284271,5 16,5.67157288 16,6.5 L16,9.08535285 C16.1563895,9.03007711 16.3246823,9 16.5,9 C17.191734,9 17.7741062,9.46823386 17.9474595,10.1050446 C18.1184541,10.0372568 18.3048761,10 18.5,10 C19.191734,10 19.7741062,10.4682339 19.9474595,11.1050446 C20.1184541,11.0372568 20.3048761,11 20.5,11 C21.3284271,11 22,11.6715729 22,12.5 L22,16.5 C22,19.5375661 19.5375661,22 16.5,22 C15.0842933,22 13.7421216,21.3695431 12.8382246,20.279958 L8.42475695,14.9598296 C7.97611908,14.4190278 7.88383427,13.6663521 8.18853292,13.0331845 L8.2242315,12.9590024 C8.50634865,12.3727595 9.09940726,12 9.75,12 C10.3515765,12 10.9341143,12.2109078 11.3962582,12.5960277 L12.3200922,13.3658894 C12.4959683,13.5124527 12.7573571,13.4886901 12.9039205,13.3128141 C12.9660017,13.2383166 13,13.1444116 13,13.0474376 L13,10.5 Z"/>
</svg>
