<svg xmlns="http://www.w3.org/2000/svg" width="24" height="24" viewBox="0 0 24 24">
  <path d="M22,9.5 L22,18.5 C22,18.9328855 21.4872789,19.1612322 21.1655176,18.8716471 L16.1655176,14.3716471 C15.9448275,14.1730259 15.9448275,13.8269741 16.1655176,13.6283529 L21.1655176,9.12835293 C21.4872789,8.83876779 22,9.06711449 22,9.5 Z M21,10.6226812 L17.2474236,14 L21,17.3773188 L21,10.6226812 Z M3.83448237,9.12835293 L8.83448237,13.6283529 C9.05517254,13.8269741 9.05517254,14.1730259 8.83448237,14.3716471 L3.83448237,18.8716471 C3.5127211,19.1612322 3,18.9328855 3,18.5 L3,9.5 C3,9.06711449 3.5127211,8.83876779 3.83448237,9.12835293 Z M7.75257644,14 L4,10.6226812 L4,17.3773188 L7.75257644,14 Z M7.08397485,6.2226499 C8.5054573,4.09042623 10.3228344,3 12.5,3 C14.6771656,3 16.4945427,4.09042623 17.9160251,6.2226499 C18.0692014,6.45241425 18.0071144,6.76284892 17.7773501,6.91602515 C17.5475858,7.06920138 17.2371511,7.00711444 17.0839749,6.7773501 C15.8387906,4.90957377 14.3228344,4 12.5,4 C10.6771656,4 9.16120937,4.90957377 7.91602515,6.7773501 C7.76284892,7.00711444 7.45241425,7.06920138 7.2226499,6.91602515 C6.99288556,6.76284892 6.93079862,6.45241425 7.08397485,6.2226499 Z M13,8.5 L13,19.5 C13,19.7761424 12.7761424,20 12.5,20 C12.2238576,20 12,19.7761424 12,19.5 L12,8.5 C12,8.22385763 12.2238576,8 12.5,8 C12.7761424,8 13,8.22385763 13,8.5 Z M17,6 L17,3.5 C17,3.22385763 17.2238576,3 17.5,3 C17.7761424,3 18,3.22385763 18,3.5 L18,6.5 C18,6.77614237 17.7761424,7 17.5,7 L14.5,7 C14.2238576,7 14,6.77614237 14,6.5 C14,6.22385763 14.2238576,6 14.5,6 L17,6 Z"/>
</svg>
