<svg xmlns="http://www.w3.org/2000/svg" width="24" height="24" viewBox="0 0 24 24">
  <path d="M7.9472136,12.7236068 C7.82371897,12.970596 7.52338245,13.0707082 7.2763932,12.9472136 C7.02940395,12.823719 6.92929178,12.5233825 7.0527864,12.2763932 C8.13468107,10.1126039 9.80358687,9 12,9 C14.1964131,9 15.8653189,10.1126039 16.9472136,12.2763932 C17.0707082,12.5233825 16.970596,12.823719 16.7236068,12.9472136 C16.4766175,13.0707082 16.176281,12.970596 16.0527864,12.7236068 C15.1346811,10.8873961 13.8035869,10 12,10 C10.1964131,10 8.86531893,10.8873961 7.9472136,12.7236068 Z M8,12 L10.5,12 C10.7761424,12 11,12.2238576 11,12.5 C11,12.7761424 10.7761424,13 10.5,13 L7.5,13 C7.22385763,13 7,12.7761424 7,12.5 L7,9.5 C7,9.22385763 7.22385763,9 7.5,9 C7.77614237,9 8,9.22385763 8,9.5 L8,12 Z M5.5,3 C5.77614237,3 6,3.22385763 6,3.5 C6,3.77614237 5.77614237,4 5.5,4 C4.67157288,4 4,4.67157288 4,5.5 C4,5.77614237 3.77614237,6 3.5,6 C3.22385763,6 3,5.77614237 3,5.5 C3,4.11928813 4.11928813,3 5.5,3 Z M7.5,4 C7.22385763,4 7,3.77614237 7,3.5 C7,3.22385763 7.22385763,3 7.5,3 L9.5,3 C9.77614237,3 10,3.22385763 10,3.5 C10,3.77614237 9.77614237,4 9.5,4 L7.5,4 Z M3,8.5 C3,8.22385763 3.22385763,8 3.5,8 C3.77614237,8 4,8.22385763 4,8.5 L4,10.5 C4,10.7761424 3.77614237,11 3.5,11 C3.22385763,11 3,10.7761424 3,10.5 L3,8.5 Z M3,13.5 C3,13.2238576 3.22385763,13 3.5,13 C3.77614237,13 4,13.2238576 4,13.5 L4,15.5 C4,15.7761424 3.77614237,16 3.5,16 C3.22385763,16 3,15.7761424 3,15.5 L3,13.5 Z M3,18.5 C3,18.2238576 3.22385763,18 3.5,18 C3.77614237,18 4,18.2238576 4,18.5 C4,19.3284271 4.67157288,20 5.5,20 C5.77614237,20 6,20.2238576 6,20.5 C6,20.7761424 5.77614237,21 5.5,21 C4.11928813,21 3,19.8807119 3,18.5 Z M7.5,21 C7.22385763,21 7,20.7761424 7,20.5 C7,20.2238576 7.22385763,20 7.5,20 L9.5,20 C9.77614237,20 10,20.2238576 10,20.5 C10,20.7761424 9.77614237,21 9.5,21 L7.5,21 Z M12,2.5 C12,2.22385763 12.2238576,2 12.5,2 C12.7761424,2 13,2.22385763 13,2.5 L13,6.5 C13,6.77614237 12.7761424,7 12.5,7 C12.2238576,7 12,6.77614237 12,6.5 L12,2.5 Z M12,14.5 C12,14.2238576 12.2238576,14 12.5,14 C12.7761424,14 13,14.2238576 13,14.5 L13,21.5 C13,21.7761424 12.7761424,22 12.5,22 C12.2238576,22 12,21.7761424 12,21.5 L12,14.5 Z M15.5,4 C15.2238576,4 15,3.77614237 15,3.5 C15,3.22385763 15.2238576,3 15.5,3 L18.5,3 C19.8807119,3 21,4.11928813 21,5.5 L21,18.5 C21,19.8807119 19.8807119,21 18.5,21 L15.5,21 C15.2238576,21 15,20.7761424 15,20.5 C15,20.2238576 15.2238576,20 15.5,20 L18.5,20 C19.3284271,20 20,19.3284271 20,18.5 L20,5.5 C20,4.67157288 19.3284271,4 18.5,4 L15.5,4 Z"/>
</svg>
