<svg xmlns="http://www.w3.org/2000/svg" width="24" height="24" viewBox="0 0 24 24">
  <path d="M7,20 L7,12.5 C7,12.2238576 7.22385763,12 7.5,12 L16.5,12 C16.7761424,12 17,12.2238576 17,12.5 L17,20 L18.5,20 C19.3284271,20 20,19.3284271 20,18.5 L20,6.70710678 L17.2928932,4 L15,4 L15,7.5 C15,7.77614237 14.7761424,8 14.5,8 L6.5,8 C6.22385763,8 6,7.77614237 6,7.5 L6,4 L5.5,4 C4.67157288,4 4,4.67157288 4,5.5 L4,18.5 C4,19.3284271 4.67157288,20 5.5,20 L7,20 Z M8,20 L16,20 L16,13 L8,13 L8,20 Z M12,4 L7,4 L7,7 L12,7 L12,4 Z M13,4 L13,7 L14,7 L14,4 L13,4 Z M3,5.5 C3,4.11928813 4.11928813,3 5.5,3 L17.5,3 C17.6326082,3 17.7597852,3.05267842 17.8535534,3.14644661 L20.8535534,6.14644661 C20.9473216,6.2402148 21,6.36739176 21,6.5 L21,18.5 C21,19.8807119 19.8807119,21 18.5,21 L5.5,21 C4.11928813,21 3,19.8807119 3,18.5 L3,5.5 Z"/>
</svg>
