<svg xmlns="http://www.w3.org/2000/svg" width="24" height="24" viewBox="0 0 24 24">
  <path d="M12,14 L12,16.5 C12,16.7761424 11.7761424,17 11.5,17 C11.2238576,17 11,16.7761424 11,16.5 L11,14 L8.5,14 C8.22385763,14 8,13.7761424 8,13.5 C8,13.2238576 8.22385763,13 8.5,13 L11,13 L11,10.5 C11,10.2238576 11.2238576,10 11.5,10 C11.7761424,10 12,10.2238576 12,10.5 L12,13 L14.5,13 C14.7761424,13 15,13.2238576 15,13.5 C15,13.7761424 14.7761424,14 14.5,14 L12,14 Z M4.5,4 L11,4 C12.1045695,4 13,4.8954305 13,6 C13,6.55228475 13.4477153,7 14,7 L19.5,7 C20.8807119,7 22,8.11928813 22,9.5 L22,17.5 C22,18.8807119 20.8807119,20 19.5,20 L4.5,20 C3.11928813,20 2,18.8807119 2,17.5 L2,6.5 C2,5.11928813 3.11928813,4 4.5,4 Z M4.5,5 C3.67157288,5 3,5.67157288 3,6.5 L3,17.5 C3,18.3284271 3.67157288,19 4.5,19 L19.5,19 C20.3284271,19 21,18.3284271 21,17.5 L21,9.5 C21,8.67157288 20.3284271,8 19.5,8 L14,8 C12.8954305,8 12,7.1045695 12,6 C12,5.44771525 11.5522847,5 11,5 L4.5,5 Z"/>
</svg>
