<svg xmlns="http://www.w3.org/2000/svg" width="24" height="24" viewBox="0 0 24 24">
  <path d="M19,5.70710678 L19,17.2928932 L20.1464466,16.1464466 C20.3417088,15.9511845 20.6582912,15.9511845 20.8535534,16.1464466 C21.0488155,16.3417088 21.0488155,16.6582912 20.8535534,16.8535534 L18.8535534,18.8535534 C18.6582912,19.0488155 18.3417088,19.0488155 18.1464466,18.8535534 L16.1464466,16.8535534 C15.9511845,16.6582912 15.9511845,16.3417088 16.1464466,16.1464466 C16.3417088,15.9511845 16.6582912,15.9511845 16.8535534,16.1464466 L18,17.2928932 L18,5.70710678 L16.8535534,6.85355339 C16.6582912,7.04881554 16.3417088,7.04881554 16.1464466,6.85355339 C15.9511845,6.65829124 15.9511845,6.34170876 16.1464466,6.14644661 L18.1464466,4.14644661 C18.3417088,3.95118446 18.6582912,3.95118446 18.8535534,4.14644661 L20.8535534,6.14644661 C21.0488155,6.34170876 21.0488155,6.65829124 20.8535534,6.85355339 C20.6582912,7.04881554 20.3417088,7.04881554 20.1464466,6.85355339 L19,5.70710678 Z M8,18 L8,5 L4,5 L4,6.5 C4,6.77614237 3.77614237,7 3.5,7 C3.22385763,7 3,6.77614237 3,6.5 L3,4.5 C3,4.22385763 3.22385763,4 3.5,4 L13.5,4 C13.7761424,4 14,4.22385763 14,4.5 L14,6.5 C14,6.77614237 13.7761424,7 13.5,7 C13.2238576,7 13,6.77614237 13,6.5 L13,5 L9,5 L9,18 L10.5,18 C10.7761424,18 11,18.2238576 11,18.5 C11,18.7761424 10.7761424,19 10.5,19 L6.5,19 C6.22385763,19 6,18.7761424 6,18.5 C6,18.2238576 6.22385763,18 6.5,18 L8,18 Z"/>
</svg>
