<svg xmlns="http://www.w3.org/2000/svg" width="24" height="24" viewBox="0 0 24 24">
  <path d="M13,13 L14.5,13 C14.7761424,13 15,13.2238576 15,13.5 C15,13.7761424 14.7761424,14 14.5,14 L10.5,14 C10.2238576,14 10,13.7761424 10,13.5 C10,13.2238576 10.2238576,13 10.5,13 L12,13 L12,5 L5,5 L5,6.5 C5,6.77614237 4.77614237,7 4.5,7 C4.22385763,7 4,6.77614237 4,6.5 L4,4.5 C4,4.22385763 4.22385763,4 4.5,4 L20.5,4 C20.7761424,4 21,4.22385763 21,4.5 L21,6.5 C21,6.77614237 20.7761424,7 20.5,7 C20.2238576,7 20,6.77614237 20,6.5 L20,5 L13,5 L13,13 Z M5.70710678,18 L19.2928932,18 L18.1464466,16.8535534 C17.9511845,16.6582912 17.9511845,16.3417088 18.1464466,16.1464466 C18.3417088,15.9511845 18.6582912,15.9511845 18.8535534,16.1464466 L20.8535534,18.1464466 C21.0488155,18.3417088 21.0488155,18.6582912 20.8535534,18.8535534 L18.8535534,20.8535534 C18.6582912,21.0488155 18.3417088,21.0488155 18.1464466,20.8535534 C17.9511845,20.6582912 17.9511845,20.3417088 18.1464466,20.1464466 L19.2928932,19 L5.70710678,19 L6.85355339,20.1464466 C7.04881554,20.3417088 7.04881554,20.6582912 6.85355339,20.8535534 C6.65829124,21.0488155 6.34170876,21.0488155 6.14644661,20.8535534 L4.14644661,18.8535534 C3.95118446,18.6582912 3.95118446,18.3417088 4.14644661,18.1464466 L6.14644661,16.1464466 C6.34170876,15.9511845 6.65829124,15.9511845 6.85355339,16.1464466 C7.04881554,16.3417088 7.04881554,16.6582912 6.85355339,16.8535534 L5.70710678,18 Z"/>
</svg>
