<svg xmlns="http://www.w3.org/2000/svg" width="24" height="24" viewBox="0 0 24 24">
  <path d="M12,17 L12,6 L6,6 L6,7.5 C6,7.77614237 5.77614237,8 5.5,8 C5.22385763,8 5,7.77614237 5,7.5 L5,5.5 C5,5.22385763 5.22385763,5 5.5,5 L19.5,5 C19.7761424,5 20,5.22385763 20,5.5 L20,7.5 C20,7.77614237 19.7761424,8 19.5,8 C19.2238576,8 19,7.77614237 19,7.5 L19,6 L13,6 L13,17 L15.5,17 C15.7761424,17 16,17.2238576 16,17.5 C16,17.7761424 15.7761424,18 15.5,18 L9.5,18 C9.22385763,18 9,17.7761424 9,17.5 C9,17.2238576 9.22385763,17 9.5,17 L12,17 Z"/>
</svg>
