<svg xmlns="http://www.w3.org/2000/svg" width="24" height="24" viewBox="0 0 24 24">
  <path d="M8,15 L8,13.5 C8,13.2238576 8.22385763,13 8.5,13 C8.77614237,13 9,13.2238576 9,13.5 L9,15 L10.5,15 C10.7761424,15 11,15.2238576 11,15.5 C11,15.7761424 10.7761424,16 10.5,16 L9,16 L9,17.5 C9,17.7761424 8.77614237,18 8.5,18 C8.22385763,18 8,17.7761424 8,17.5 L8,16 L6.5,16 C6.22385763,16 6,15.7761424 6,15.5 C6,15.2238576 6.22385763,15 6.5,15 L8,15 Z M4,4.5 C4,3.11928813 5.11928813,2 6.5,2 L17.5,2 C18.8807119,2 20,3.11928813 20,4.5 L20,19.5 C20,20.8807119 18.8807119,22 17.5,22 L6.5,22 C5.11928813,22 4,20.8807119 4,19.5 L4,4.5 Z M5,4.5 L5,19.5 C5,20.3284271 5.67157288,21 6.5,21 L17.5,21 C18.3284271,21 19,20.3284271 19,19.5 L19,4.5 C19,3.67157288 18.3284271,3 17.5,3 L6.5,3 C5.67157288,3 5,3.67157288 5,4.5 Z M15.5,13 L16.5,13 C16.7761424,13 17,13.2238576 17,13.5 L17,14.5 C17,14.7761424 16.7761424,15 16.5,15 L15.5,15 C15.2238576,15 15,14.7761424 15,14.5 L15,13.5 C15,13.2238576 15.2238576,13 15.5,13 Z M13.5,16 L14.5,16 C14.7761424,16 15,16.2238576 15,16.5 L15,17.5 C15,17.7761424 14.7761424,18 14.5,18 L13.5,18 C13.2238576,18 13,17.7761424 13,17.5 L13,16.5 C13,16.2238576 13.2238576,16 13.5,16 Z M6.5,4 L17.5,4 C17.7761424,4 18,4.22385763 18,4.5 L18,10.5 C18,10.7761424 17.7761424,11 17.5,11 L6.5,11 C6.22385763,11 6,10.7761424 6,10.5 L6,4.5 C6,4.22385763 6.22385763,4 6.5,4 Z M7,5 L7,10 L17,10 L17,5 L7,5 Z"/>
</svg>
