<svg xmlns="http://www.w3.org/2000/svg" width="24" height="24" viewBox="0 0 24 24">
  <path d="M10,10 L10,6 L9.5,6 C9.22385763,6 9,5.77614237 9,5.5 L9,3.5 C9,3.22385763 9.22385763,3 9.5,3 L11.5,3 C11.7761424,3 12,3.22385763 12,3.5 L12,4 L18,4 L18,3.5 C18,3.22385763 18.2238576,3 18.5,3 L20.5,3 C20.7761424,3 21,3.22385763 21,3.5 L21,5.5 C21,5.77614237 20.7761424,6 20.5,6 L20,6 L20,12 L20.5,12 C20.7761424,12 21,12.2238576 21,12.5 L21,14.5 C21,14.7761424 20.7761424,15 20.5,15 L18.5,15 C18.2238576,15 18,14.7761424 18,14.5 L18,14 L14,14 L14,18 L14.5,18 C14.7761424,18 15,18.2238576 15,18.5 L15,20.5 C15,20.7761424 14.7761424,21 14.5,21 L12.5,21 C12.2238576,21 12,20.7761424 12,20.5 L12,20 L6,20 L6,20.5 C6,20.7761424 5.77614237,21 5.5,21 L3.5,21 C3.22385763,21 3,20.7761424 3,20.5 L3,18.5 C3,18.2238576 3.22385763,18 3.5,18 L4,18 L4,12 L3.5,12 C3.22385763,12 3,11.7761424 3,11.5 L3,9.5 C3,9.22385763 3.22385763,9 3.5,9 L5.5,9 C5.77614237,9 6,9.22385763 6,9.5 L6,10 L10,10 Z M10,11 L6,11 L6,11.5 C6,11.7761424 5.77614237,12 5.5,12 L5,12 L5,18 L5.5,18 C5.77614237,18 6,18.2238576 6,18.5 L6,19 L12,19 L12,18.5 C12,18.2238576 12.2238576,18 12.5,18 L13,18 L13,14 L12,14 L12,14.5 C12,14.7761424 11.7761424,15 11.5,15 L9.5,15 C9.22385763,15 9,14.7761424 9,14.5 L9,12.5 C9,12.2238576 9.22385763,12 9.5,12 L10,12 L10,11 Z M11,6 L11,12 L11.5,12 C11.7761424,12 12,12.2238576 12,12.5 L12,13 L18,13 L18,12.5 C18,12.2238576 18.2238576,12 18.5,12 L19,12 L19,6 L18.5,6 C18.2238576,6 18,5.77614237 18,5.5 L18,5 L12,5 L12,5.5 C12,5.77614237 11.7761424,6 11.5,6 L11,6 Z M10,4 L10,5 L11,5 L11,4 L10,4 Z M19,4 L19,5 L20,5 L20,4 L19,4 Z M19,13 L19,14 L20,14 L20,13 L19,13 Z M10,13 L10,14 L11,14 L11,13 L10,13 Z M4,10 L4,11 L5,11 L5,10 L4,10 Z M4,19 L4,20 L5,20 L5,19 L4,19 Z M13,19 L13,20 L14,20 L14,19 L13,19 Z"/>
</svg>
