<svg xmlns="http://www.w3.org/2000/svg" width="24" height="24" viewBox="0 0 24 24">
  <path d="M12.5,12.2071068 L10.2071068,14.5 L10.8535534,15.1464466 C11.0488155,15.3417088 11.0488155,15.6582912 10.8535534,15.8535534 L5.85355339,20.8535534 C5.65829124,21.0488155 5.34170876,21.0488155 5.14644661,20.8535534 L3.14644661,18.8535534 C2.95118446,18.6582912 2.95118446,18.3417088 3.14644661,18.1464466 L8.14644661,13.1464466 C8.34170876,12.9511845 8.65829124,12.9511845 8.85355339,13.1464466 L9.5,13.7928932 L11.7928932,11.5 L10.2928932,10 L8.5,10 C8.36739176,10 8.2402148,9.94732158 8.14644661,9.85355339 L7.14644661,8.85355339 C6.95118446,8.65829124 6.95118446,8.34170876 7.14644661,8.14644661 L12.1464466,3.14644661 C12.3417088,2.95118446 12.6582912,2.95118446 12.8535534,3.14644661 L13.8535534,4.14644661 C13.9473216,4.2402148 14,4.36739176 14,4.5 L14,6.29289322 L17.7071068,10 L19.5,10 C19.6326082,10 19.7597852,10.0526784 19.8535534,10.1464466 L20.8535534,11.1464466 C21.0488155,11.3417088 21.0488155,11.6582912 20.8535534,11.8535534 L15.8535534,16.8535534 C15.6582912,17.0488155 15.3417088,17.0488155 15.1464466,16.8535534 L14.1464466,15.8535534 C14.0526784,15.7597852 14,15.6326082 14,15.5 L14,13.7071068 L12.5,12.2071068 Z M8.20710678,8.5 L8.70710678,9 L10.5,9 C10.6326082,9 10.7597852,9.05267842 10.8535534,9.14644661 L14.8535534,13.1464466 C14.9473216,13.2402148 15,13.3673918 15,13.5 L15,15.2928932 L15.5,15.7928932 L19.7928932,11.5 L19.2928932,11 L17.5,11 C17.3673918,11 17.2402148,10.9473216 17.1464466,10.8535534 L13.1464466,6.85355339 C13.0526784,6.7597852 13,6.63260824 13,6.5 L13,4.70710678 L12.5,4.20710678 L8.20710678,8.5 Z M4.20710678,18.5 L5.5,19.7928932 L9.79289322,15.5 L8.5,14.2071068 L4.20710678,18.5 Z"/>
</svg>
