<svg xmlns="http://www.w3.org/2000/svg" width="24" height="24" viewBox="0 0 24 24">
  <path d="M2,18.5 L2,5.5 C2,4.11928813 3.11928813,3 4.5,3 L19.5,3 C20.8807119,3 22,4.11928813 22,5.5 L22,18.5 C22,19.8807119 20.8807119,21 19.5,21 L4.5,21 C3.11928813,21 2,19.8807119 2,18.5 Z M3,14.4998169 C3.41783027,14.1859724 3.93719704,14 4.5,14 L19.5,14 C20.062803,14 20.5821697,14.1859724 21,14.4998169 L21,5.5 C21,4.67157288 20.3284271,4 19.5,4 L4.5,4 C3.67157288,4 3,4.67157288 3,5.5 L3,14.4998169 L3,14.4998169 Z M3,18.5 C3,19.3284271 3.67157288,20 4.5,20 L19.5,20 C20.3284271,20 21,19.3284271 21,18.5 L21,16.5 C21,15.6715729 20.3284271,15 19.5,15 L4.5,15 C3.67157288,15 3,15.6715729 3,16.5 L3,18.5 Z M17.5,16 L19.5,16 C19.7761424,16 20,16.2238576 20,16.5 L20,18.5 C20,18.7761424 19.7761424,19 19.5,19 L17.5,19 C17.2238576,19 17,18.7761424 17,18.5 L17,16.5 C17,16.2238576 17.2238576,16 17.5,16 Z M18,17 L18,18 L19,18 L19,17 L18,17 Z M5.5,18 C5.22385763,18 5,17.7761424 5,17.5 C5,17.2238576 5.22385763,17 5.5,17 L11.5,17 C11.7761424,17 12,17.2238576 12,17.5 C12,17.7761424 11.7761424,18 11.5,18 L5.5,18 Z"/>
</svg>
