<svg xmlns="http://www.w3.org/2000/svg" width="24" height="24" viewBox="0 0 24 24">
  <path d="M17,11 L17,6 L15.5,6 C15.2238576,6 15,5.77614237 15,5.5 C15,5.22385763 15.2238576,5 15.5,5 L19.5,5 C19.7761424,5 20,5.22385763 20,5.5 C20,5.77614237 19.7761424,6 19.5,6 L18,6 L18,18 L19.5,18 C19.7761424,18 20,18.2238576 20,18.5 C20,18.7761424 19.7761424,19 19.5,19 L15.5,19 C15.2238576,19 15,18.7761424 15,18.5 C15,18.2238576 15.2238576,18 15.5,18 L17,18 L17,12 L7,12 L7,18 L8.5,18 C8.77614237,18 9,18.2238576 9,18.5 C9,18.7761424 8.77614237,19 8.5,19 L4.5,19 C4.22385763,19 4,18.7761424 4,18.5 C4,18.2238576 4.22385763,18 4.5,18 L6,18 L6,6 L4.5,6 C4.22385763,6 4,5.77614237 4,5.5 C4,5.22385763 4.22385763,5 4.5,5 L8.5,5 C8.77614237,5 9,5.22385763 9,5.5 C9,5.77614237 8.77614237,6 8.5,6 L7,6 L7,11 L17,11 Z"/>
</svg>
