<svg xmlns="http://www.w3.org/2000/svg" width="24" height="24" viewBox="0 0 24 24">
  <path d="M17.7439414,9 L18.5,9 C20.9852814,9 23,11.0147186 23,13.5 C23,15.9852814 20.9852814,18 18.5,18 L8,18 C7.44771525,18 7,18.4477153 7,19 C7,19.5522847 7.44771525,20 8,20 L8.5,20 C8.77614237,20 9,20.2238576 9,20.5 C9,20.7761424 8.77614237,21 8.5,21 L8,21 C6.8954305,21 6,20.1045695 6,19 C6,17.8954305 6.8954305,17 8,17 L18.5,17 C20.4329966,17 22,15.4329966 22,13.5 C22,11.5670034 20.4329966,10 18.5,10 L17.9725356,10 C17.9906833,10.1641669 18,10.3309955 18,10.5 C18,10.7761424 17.7761424,11 17.5,11 C17.2238576,11 17,10.7761424 17,10.5 C17,8.56700338 15.4329966,7 13.5,7 L13,7 C10.790861,7 9,8.790861 9,11 L9,11.5 C9,11.7761424 8.77614237,12 8.5,12 C7.43258736,12 6.4933817,12.6751517 6.14273446,13.6649026 C6.0505193,13.9251928 5.76475726,14.0614445 5.50446709,13.9692293 C5.24417691,13.8770142 5.10792519,13.5912521 5.20014035,13.330962 C5.63552757,12.1020207 6.71845994,11.2197803 8,11.035654 L8,11 C8,8.23857625 10.2385763,6 13,6 L13.5,6 C15.4593282,6 17.1261868,7.25221144 17.7439414,9 L17.7439414,9 Z M12.5,15 C12.7761424,15 13,15.2238576 13,15.5 C13,15.7761424 12.7761424,16 12.5,16 L3,16 C1.8954305,16 1,15.1045695 1,14 C1,12.8954305 1.8954305,12 3,12 L3.5,12 C3.77614237,12 4,12.2238576 4,12.5 C4,12.7761424 3.77614237,13 3.5,13 L3,13 C2.44771525,13 2,13.4477153 2,14 C2,14.5522847 2.44771525,15 3,15 L12.5,15 Z"/>
</svg>
