<svg xmlns="http://www.w3.org/2000/svg" width="24" height="24" viewBox="0 0 24 24">
  <path d="M6,4.70710678 L3.85355339,6.85355339 C3.65829124,7.04881554 3.34170876,7.04881554 3.14644661,6.85355339 C2.95118446,6.65829124 2.95118446,6.34170876 3.14644661,6.14644661 L6.14644661,3.14644661 C6.34170876,2.95118446 6.65829124,2.95118446 6.85355339,3.14644661 L9.85355339,6.14644661 C10.0488155,6.34170876 10.0488155,6.65829124 9.85355339,6.85355339 C9.65829124,7.04881554 9.34170876,7.04881554 9.14644661,6.85355339 L7,4.70710678 L7,19.2928932 L9.14644661,17.1464466 C9.34170876,16.9511845 9.65829124,16.9511845 9.85355339,17.1464466 C10.0488155,17.3417088 10.0488155,17.6582912 9.85355339,17.8535534 L6.85355339,20.8535534 C6.65829124,21.0488155 6.34170876,21.0488155 6.14644661,20.8535534 L3.14644661,17.8535534 C2.95118446,17.6582912 2.95118446,17.3417088 3.14644661,17.1464466 C3.34170876,16.9511845 3.65829124,16.9511845 3.85355339,17.1464466 L6,19.2928932 L6,4.70710678 Z M18.5,3 C19.8807119,3 21,4.11928813 21,5.5 L21,18.5 C21,19.8807119 19.8807119,21 18.5,21 L15.5,21 C14.1192881,21 13,19.8807119 13,18.5 L13,5.5 C13,4.11928813 14.1192881,3 15.5,3 L18.5,3 Z M18.5,4 L15.5,4 C14.6715729,4 14,4.67157288 14,5.5 L14,18.5 C14,19.3284271 14.6715729,20 15.5,20 L18.5,20 C19.3284271,20 20,19.3284271 20,18.5 L20,5.5 C20,4.67157288 19.3284271,4 18.5,4 Z"/>
</svg>
