<svg xmlns="http://www.w3.org/2000/svg" width="24" height="24" viewBox="0 0 24 24">
  <path d="M10.309017,19 L13.690983,19 L13.1951485,18.008331 L10.8048515,18.008331 L10.309017,19 L10.309017,19 Z M9.51005871,20 C9.50310574,20.0001458 9.4961407,20.0001463 9.48916806,20 L8.5,20 C8.22385763,20 8,19.7761424 8,19.5 C8,19.2238576 8.22385763,19 8.5,19 L9.19098301,19 L9.6868175,18.008331 L4.5,18.008331 C3.11928813,18.008331 2,16.8890429 2,15.508331 L2,6.5 C2.01893977,5.10173473 3.13063038,4.00060025 4.49972264,4.00000027 L19.4997825,3.99167378 C20.88159,3.99167354 22.0008781,5.11096167 22.0008781,6.49172213 L22.0000018,15.508331 C22.0000018,16.8890429 20.8807137,18.008331 19.5000018,18.008331 L14.3131825,18.008331 L14.809017,19 L15.5,19 C15.7761424,19 16,19.2238576 16,19.5 C16,19.7761424 15.7761424,20 15.5,20 L14.510832,20 C14.5038593,20.0001463 14.4968943,20.0001458 14.4899413,20 L9.51005872,20 L9.51005871,20 Z M13.5910476,17.008331 L19.5000018,17.008331 C20.328429,17.008331 21.0000018,16.3367581 21.0000018,15.5082824 L21.0008781,6.49167354 C21.0008781,5.66324642 20.3293052,4.99167354 19.5008781,4.99167354 L4.50021931,5.00000014 C3.67204896,5.00036308 3.00087666,5.67182958 3.00087666,6.5 C3.00087666,6.50567522 3.00066589,8.67234189 3.00024435,13 L21,13 L21,14 L3.00014694,14 L3,15.508331 C3,16.3367581 3.67157288,17.008331 4.5,17.008331 L10.4089524,17.008331 C10.4685583,16.9972467 10.5304554,16.9969085 10.5916,17.008331 L13.4083999,17.008331 C13.4695446,16.9969085 13.5314417,16.9972467 13.5910476,17.008331 L13.5910476,17.008331 Z M11.5,16 C11.2238576,16 11,15.7761424 11,15.5 C11,15.2238576 11.2238576,15 11.5,15 L12.5,15 C12.7761424,15 13,15.2238576 13,15.5 C13,15.7761424 12.7761424,16 12.5,16 L11.5,16 Z"/>
</svg>
