<svg xmlns="http://www.w3.org/2000/svg" width="24" height="24" viewBox="0 0 24 24">
  <path d="M3.31935068,14.3847701 C4.3645353,18.1979659 7.85504258,21 12,21 C15.3304686,21 18.2384173,19.1909776 19.7948361,16.5019428 L16.5,13.2071068 L13.8535534,15.8535534 C13.6582912,16.0488155 13.3417088,16.0488155 13.1464466,15.8535534 L7.5,10.2071068 L3.35355339,14.3535534 C3.34252493,14.3645819 3.33110946,14.3749874 3.31935068,14.3847701 L3.31935068,14.3847701 Z M3.08090788,13.2119853 L7.14644661,9.14644661 C7.34170876,8.95118446 7.65829124,8.95118446 7.85355339,9.14644661 L13.5,14.7928932 L16.1464466,12.1464466 C16.3417088,11.9511845 16.6582912,11.9511845 16.8535534,12.1464466 L20.2680678,15.560961 C20.7390577,14.46885 21,13.2648982 21,12 C21,7.02943725 16.9705627,3 12,3 C7.02943725,3 3,7.02943725 3,12 C3,12.4110121 3.02755133,12.8155892 3.08090788,13.2119853 L3.08090788,13.2119853 Z M12,22 C6.4771525,22 2,17.5228475 2,12 C2,6.4771525 6.4771525,2 12,2 C17.5228475,2 22,6.4771525 22,12 C22,17.5228475 17.5228475,22 12,22 Z M15,6 L17,6 C17.5522847,6 18,6.44771525 18,7 L18,9 C18,9.55228475 17.5522847,10 17,10 L15,10 C14.4477153,10 14,9.55228475 14,9 L14,7 C14,6.44771525 14.4477153,6 15,6 Z M15,7 L15,9 L17,9 L17,7 L15,7 Z"/>
</svg>
