<svg xmlns="http://www.w3.org/2000/svg" width="24" height="24" viewBox="0 0 24 24">
  <path d="M13,14.2928932 L15.1464466,12.1464466 C15.3417088,11.9511845 15.6582912,11.9511845 15.8535534,12.1464466 C16.0488155,12.3417088 16.0488155,12.6582912 15.8535534,12.8535534 L12.8535534,15.8535534 C12.6582912,16.0488155 12.3417088,16.0488155 12.1464466,15.8535534 L9.14644661,12.8535534 C8.95118446,12.6582912 8.95118446,12.3417088 9.14644661,12.1464466 C9.34170876,11.9511845 9.65829124,11.9511845 9.85355339,12.1464466 L12,14.2928932 L12,3.5 C12,3.22385763 12.2238576,3 12.5,3 C12.7761424,3 13,3.22385763 13,3.5 L13,14.2928932 L13,14.2928932 Z M18.5,6 C18.2238576,6 18,5.77614237 18,5.5 C18,5.22385763 18.2238576,5 18.5,5 L19.5,5 C20.8807119,5 22,6.11928813 22,7.5 L22,17.5 C22,18.8807119 20.8807119,20 19.5,20 L5.5,20 C4.11928813,20 3,18.8807119 3,17.5 L3,7.5 C3,6.11928813 4.11928813,5 5.5,5 L6.5,5 C6.77614237,5 7,5.22385763 7,5.5 C7,5.77614237 6.77614237,6 6.5,6 L5.5,6 C4.67157288,6 4,6.67157288 4,7.5 L4,17.5 C4,18.3284271 4.67157288,19 5.5,19 L19.5,19 C20.3284271,19 21,18.3284271 21,17.5 L21,7.5 C21,6.67157288 20.3284271,6 19.5,6 L18.5,6 Z"/>
</svg>
