<svg xmlns="http://www.w3.org/2000/svg" width="24" height="24" viewBox="0 0 24 24">
  <path d="M20.2928932,13 L16.5,13 C16.2238576,13 16,12.7761424 16,12.5 C16,12.2238576 16.2238576,12 16.5,12 L20.2928932,12 L19.1464466,10.8535534 C18.9511845,10.6582912 18.9511845,10.3417088 19.1464466,10.1464466 C19.3417088,9.95118446 19.6582912,9.95118446 19.8535534,10.1464466 L21.8535534,12.1464466 C22.0488155,12.3417088 22.0488155,12.6582912 21.8535534,12.8535534 L19.8535534,14.8535534 C19.6582912,15.0488155 19.3417088,15.0488155 19.1464466,14.8535534 C18.9511845,14.6582912 18.9511845,14.3417088 19.1464466,14.1464466 L20.2928932,13 L20.2928932,13 Z M2.5,7 C2.22385763,7 2,6.77614237 2,6.5 C2,6.22385763 2.22385763,6 2.5,6 L10.5,6 C10.7761424,6 11,6.22385763 11,6.5 C11,6.77614237 10.7761424,7 10.5,7 L2.5,7 Z M2.5,11 C2.22385763,11 2,10.7761424 2,10.5 C2,10.2238576 2.22385763,10 2.5,10 L7.5,10 C7.77614237,10 8,10.2238576 8,10.5 C8,10.7761424 7.77614237,11 7.5,11 L2.5,11 Z M2.5,15 C2.22385763,15 2,14.7761424 2,14.5 C2,14.2238576 2.22385763,14 2.5,14 L10.5,14 C10.7761424,14 11,14.2238576 11,14.5 C11,14.7761424 10.7761424,15 10.5,15 L2.5,15 Z M2.5,19 C2.22385763,19 2,18.7761424 2,18.5 C2,18.2238576 2.22385763,18 2.5,18 L7.5,18 C7.77614237,18 8,18.2238576 8,18.5 C8,18.7761424 7.77614237,19 7.5,19 L2.5,19 Z M13,3.5 C13,3.22385763 13.2238576,3 13.5,3 C13.7761424,3 14,3.22385763 14,3.5 L14,20.5 C14,20.7761424 13.7761424,21 13.5,21 C13.2238576,21 13,20.7761424 13,20.5 L13,3.5 Z"/>
</svg>
