<svg xmlns="http://www.w3.org/2000/svg" width="24" height="24" viewBox="0 0 24 24">
  <path d="M6.29289322,13 L2.5,13 C2.22385763,13 2,12.7761424 2,12.5 C2,12.2238576 2.22385763,12 2.5,12 L6.29289322,12 L5.14644661,10.8535534 C4.95118446,10.6582912 4.95118446,10.3417088 5.14644661,10.1464466 C5.34170876,9.95118446 5.65829124,9.95118446 5.85355339,10.1464466 L7.85355339,12.1464466 C8.04881554,12.3417088 8.04881554,12.6582912 7.85355339,12.8535534 L5.85355339,14.8535534 C5.65829124,15.0488155 5.34170876,15.0488155 5.14644661,14.8535534 C4.95118446,14.6582912 4.95118446,14.3417088 5.14644661,14.1464466 L6.29289322,13 Z M10,3.5 C10,3.22385763 10.2238576,3 10.5,3 C10.7761424,3 11,3.22385763 11,3.5 L11,20.5 C11,20.7761424 10.7761424,21 10.5,21 C10.2238576,21 10,20.7761424 10,20.5 L10,3.5 Z M13.5,19 C13.2238576,19 13,18.7761424 13,18.5 C13,18.2238576 13.2238576,18 13.5,18 L18.5,18 C18.7761424,18 19,18.2238576 19,18.5 C19,18.7761424 18.7761424,19 18.5,19 L13.5,19 Z M13.5,11 C13.2238576,11 13,10.7761424 13,10.5 C13,10.2238576 13.2238576,10 13.5,10 L18.5,10 C18.7761424,10 19,10.2238576 19,10.5 C19,10.7761424 18.7761424,11 18.5,11 L13.5,11 Z M13.5,7 C13.2238576,7 13,6.77614237 13,6.5 C13,6.22385763 13.2238576,6 13.5,6 L21.5,6 C21.7761424,6 22,6.22385763 22,6.5 C22,6.77614237 21.7761424,7 21.5,7 L13.5,7 Z M13.5,15 C13.2238576,15 13,14.7761424 13,14.5 C13,14.2238576 13.2238576,14 13.5,14 L21.5,14 C21.7761424,14 22,14.2238576 22,14.5 C22,14.7761424 21.7761424,15 21.5,15 L13.5,15 Z"/>
</svg>
