<svg xmlns="http://www.w3.org/2000/svg" width="24" height="24" viewBox="0 0 24 24">
  <path d="M5,4.5 L5,19.5 C5,20.3284271 5.67157288,21 6.5,21 L17.5113578,21 C18.3397849,21 19.0113578,20.3284271 19.0113578,19.5 L19.0113578,4.5 C19.0113578,3.67157288 18.3397849,3 17.5113578,3 L6.5,3 C5.67157288,3 5,3.67157288 5,4.5 Z M4,4.5 C4,3.11928813 5.11928813,2 6.5,2 L17.5113578,2 C18.8920696,2 20.0113578,3.11928813 20.0113578,4.5 L20.0113578,19.5 C20.0113578,20.8807119 18.8920696,22 17.5113578,22 L6.5,22 C5.11928813,22 4,20.8807119 4,19.5 L4,4.5 Z M11,19 C11,18.448 11.448,18 12,18 C12.552,18 13,18.448 13,19 C13,19.552 12.552,20 12,20 C11.448,20 11,19.552 11,19 Z M10.5,5 C10.2238576,5 10,4.77614237 10,4.5 C10,4.22385763 10.2238576,4 10.5,4 L13.5,4 C13.7761424,4 14,4.22385763 14,4.5 C14,4.77614237 13.7761424,5 13.5,5 L10.5,5 Z"/>
</svg>
