<svg xmlns="http://www.w3.org/2000/svg" width="24" height="24" viewBox="0 0 24 24">
  <path d="M4.5,19 L19.5,19 C20.3284271,19 21,18.3284271 21,17.5 L21,6.48864223 C21,5.6602151 20.3284271,4.98864223 19.5,4.98864223 L4.5,4.98864223 C3.67157288,4.98864223 3,5.6602151 3,6.48864223 L3,17.5 C3,18.3284271 3.67157288,19 4.5,19 Z M4.5,20 C3.11928813,20 2,18.8807119 2,17.5 L2,6.48864223 C2,5.10793035 3.11928813,3.98864223 4.5,3.98864223 L19.5,3.98864223 C20.8807119,3.98864223 22,5.10793035 22,6.48864223 L22,17.5 C22,18.8807119 20.8807119,20 19.5,20 L4.5,20 Z M19,13 C18.448,13 18,12.552 18,12 C18,11.448 18.448,11 19,11 C19.552,11 20,11.448 20,12 C20,12.552 19.552,13 19,13 Z M5,13.5 C5,13.7761424 4.77614237,14 4.5,14 C4.22385763,14 4,13.7761424 4,13.5 L4,10.5 C4,10.2238576 4.22385763,10 4.5,10 C4.77614237,10 5,10.2238576 5,10.5 L5,13.5 Z"/>
</svg>
