<svg xmlns="http://www.w3.org/2000/svg" width="24" height="24" viewBox="0 0 24 24">
  <path d="M4.5,7 C3.67157288,7 3,7.67157288 3,8.5 L3,15.5113578 C3,16.3397849 3.67157288,17.0113578 4.5,17.0113578 L19.5,17.0113578 C20.3284271,17.0113578 21,16.3397849 21,15.5113578 L21,8.5 C21,7.67157288 20.3284271,7 19.5,7 L4.5,7 Z M4.5,6 L19.5,6 C20.8807119,6 22,7.11928813 22,8.5 L22,15.5113578 C22,16.8920696 20.8807119,18.0113578 19.5,18.0113578 L4.5,18.0113578 C3.11928813,18.0113578 2,16.8920696 2,15.5113578 L2,8.5 C2,7.11928813 3.11928813,6 4.5,6 Z M19,11 C19.552,11 20,11.448 20,12 C20,12.552 19.552,13 19,13 C18.448,13 18,12.552 18,12 C18,11.448 18.448,11 19,11 Z"/>
</svg>
