<svg xmlns="http://www.w3.org/2000/svg" width="24" height="24" viewBox="0 0 24 24">
  <path d="M21,8.5 C21,7.67157288 20.3284271,7 19.5,7 L4.5,7 C3.67157288,7 3,7.67157288 3,8.5 L3,15.5113578 C3,16.3397849 3.67157288,17.0113578 4.5,17.0113578 L19.5,17.0113578 C20.3284271,17.0113578 21,16.3397849 21,15.5113578 L21,15.4999997 C21,15.2238576 20.7761424,15 20.5,15 C19.6715729,15 19,14.3284271 19,13.5 L19,10.5 C19,9.67157288 19.6715729,9 20.5,9 C20.7761424,9 21,8.77614237 21,8.5 L21,8.5 Z M21,9.91464715 C20.8436105,9.96992289 20.6753177,10 20.5,10 C20.2238576,10 20,10.2238576 20,10.5 L20,13.5 C20,13.7761424 20.2238576,14 20.5,14 C20.6753177,14 20.8436105,14.0300771 21,14.0853529 L21,9.91464715 L21,9.91464715 Z M19.5,6 C20.8807119,6 22,7.11928813 22,8.5 L22,15.5113578 C22,16.8920696 20.8807119,18.0113578 19.5,18.0113578 L4.5,18.0113578 C3.11928813,18.0113578 2,16.8920696 2,15.5113578 L2,8.5 C2,7.11928813 3.11928813,6 4.5,6 L19.5,6 Z"/>
</svg>
