<svg xmlns="http://www.w3.org/2000/svg" width="24" height="24" viewBox="0 0 24 24">
  <path d="M13.4890673,5 C13.4960404,4.99985265 13.503036,4.99985186 13.5100503,5 L15.5,5 C15.7761424,5 16,5.22385763 16,5.5 C16,5.77614237 15.7761424,6 15.5,6 L13.8977563,6 L11.1285255,18 L12.5,18 C12.7761424,18 13,18.2238576 13,18.5 C13,18.7761424 12.7761424,19 12.5,19 L10.5109335,19 C10.5039596,19.0001474 10.496964,19.0001481 10.4899497,19 L8.5,19 C8.22385763,19 8,18.7761424 8,18.5 C8,18.2238576 8.22385763,18 8.5,18 L10.1022437,18 L12.8714745,6 L11.5,6 C11.2238576,6 11,5.77614237 11,5.5 C11,5.22385763 11.2238576,5 11.5,5 L13.4890665,5 L13.4890673,5 Z"/>
</svg>
