<svg xmlns="http://www.w3.org/2000/svg" width="24" height="24" viewBox="0 0 24 24">
  <path d="M18.5,20 C18.7761424,20 19,20.2238576 19,20.5 C19,20.7761424 18.7761424,21 18.5,21 L14.5,21 C14.2238576,21 14,20.7761424 14,20.5 C14,20.2238576 14.2238576,20 14.5,20 L13.5,20 C12.6715729,20 12,19.3284271 12,18.5 L12,17 L9.5,17 C8.11928813,17 7,15.8807119 7,14.5 L7,11 L5.5,11 C5.22385763,11 5,10.7761424 5,10.5 C5,10.2238576 5.22385763,10 5.5,10 L4.5,10 C3.67157288,10 3,9.32842712 3,8.5 L3,4.5 C3,3.67157288 3.67157288,3 4.5,3 L10.5,3 C11.3284271,3 12,3.67157288 12,4.5 L12,8.5 C12,9.32842712 11.3284271,10 10.5,10 L9.5,10 C9.77614237,10 10,10.2238576 10,10.5 C10,10.7761424 9.77614237,11 9.5,11 L8,11 L8,14.5 C8,15.3284271 8.67157288,16 9.5,16 L12,16 L12,14.5 C12,13.6715729 12.6715729,13 13.5,13 L19.5,13 C20.3284271,13 21,13.6715729 21,14.5 L21,18.5 C21,19.3284271 20.3284271,20 19.5,20 L18.5,20 Z M4,4.5 L4,8.5 C4,8.77614237 4.22385763,9 4.5,9 L10.5,9 C10.7761424,9 11,8.77614237 11,8.5 L11,4.5 C11,4.22385763 10.7761424,4 10.5,4 L4.5,4 C4.22385763,4 4,4.22385763 4,4.5 Z M13,14.5 L13,18.5 C13,18.7761424 13.2238576,19 13.5,19 L19.5,19 C19.7761424,19 20,18.7761424 20,18.5 L20,14.5 C20,14.2238576 19.7761424,14 19.5,14 L13.5,14 C13.2238576,14 13,14.2238576 13,14.5 Z"/>
</svg>
