<svg xmlns="http://www.w3.org/2000/svg" width="24" height="24" viewBox="0 0 24 24">
  <path d="M10.0003688,17.9725764 C10.1644167,17.9906973 10.331122,18 10.5,18 L13.5,18 C13.6774129,18 13.8524279,17.9897332 14.0244833,17.9697614 C14.0083893,17.4314473 13.5669449,17 13.0247305,17 L11,17 C10.4568858,17 10.0148973,17.4329703 10.0003688,17.9725764 L10.0003688,17.9725764 Z M9.01554778,17.7494045 C9.13883662,16.7631149 9.98030079,16 11,16 L13.0247305,16 C14.0415745,16 14.8811986,16.7587688 15.0082963,17.7409999 C16.6011274,17.1744806 17.7806234,15.7360643 17.9725356,14 L6.02746439,14 C6.22033295,15.7447159 7.41065302,17.1888097 9.01554778,17.7494045 L9.01554778,17.7494045 Z M12,22 C6.4771525,22 2,17.5228475 2,12 C2,6.4771525 6.4771525,2 12,2 C17.5228475,2 22,6.4771525 22,12 C22,17.5228475 17.5228475,22 12,22 Z M12,21 C16.9705627,21 21,16.9705627 21,12 C21,7.02943725 16.9705627,3 12,3 C7.02943725,3 3,7.02943725 3,12 C3,16.9705627 7.02943725,21 12,21 Z M9,11 C8.44771525,11 8,10.5522847 8,10 C8,9.44771525 8.44771525,9 9,9 C9.55228475,9 10,9.44771525 10,10 C10,10.5522847 9.55228475,11 9,11 Z M15,11 C14.4477153,11 14,10.5522847 14,10 C14,9.44771525 14.4477153,9 15,9 C15.5522847,9 16,9.44771525 16,10 C16,10.5522847 15.5522847,11 15,11 Z M5.5,13 L18.5,13 C18.7761424,13 19,13.2238576 19,13.5 C19,16.5375661 16.5375661,19 13.5,19 L10.5,19 C7.46243388,19 5,16.5375661 5,13.5 C5,13.2238576 5.22385763,13 5.5,13 Z"/>
</svg>
