<svg xmlns="http://www.w3.org/2000/svg" width="24" height="24" viewBox="0 0 24 24">
  <path d="M4,11 L15,11 L15,4 L5.5,4 C4.67157288,4 4,4.67157288 4,5.5 L4,11 Z M4,12 L4,18.5 C4,19.3284271 4.67157288,20 5.5,20 L18.5,20 C19.3284271,20 20,19.3284271 20,18.5 L20,12 L4,12 L4,12 Z M20,11 L20,5.5 C20,4.67157288 19.3284271,4 18.5,4 L16,4 L16,11 L20,11 L20,11 Z M18.5,3 C19.8807119,3 21,4.11928813 21,5.5 L21,18.5 C21,19.8807119 19.8807119,21 18.5,21 L5.5,21 C4.11928813,21 3,19.8807119 3,18.5 L3,5.5 C3,4.11928813 4.11928813,3 5.5,3 L18.5,3 Z"/>
</svg>
