<svg xmlns="http://www.w3.org/2000/svg" width="24" height="24" viewBox="0 0 24 24">
  <path d="M21.9870679,13 L18.9810552,13 C18.7382961,16.191203 16.191203,18.7382961 13,18.9810552 L13,21.9870679 C17.8487018,21.7356474 21.7356474,17.8487018 21.9870679,13 L21.9870679,13 Z M21.9870679,12 C21.7356474,7.15129822 17.8487018,3.26435264 13,3.01293206 L13,6.01894482 C16.191203,6.2617039 18.7382961,8.80879696 18.9810552,12 L21.9870679,12 L21.9870679,12 Z M3.01293206,13 C3.26435264,17.8487018 7.15129822,21.7356474 12,21.9870679 L12,18.9810552 C8.80879696,18.7382961 6.2617039,16.191203 6.01894482,13 L3.01293206,13 L3.01293206,13 Z M3.01293206,12 L6.01894482,12 C6.2617039,8.80879696 8.80879696,6.2617039 12,6.01894482 L12,3.01293206 C7.15129822,3.26435264 3.26435264,7.15129822 3.01293206,12 L3.01293206,12 Z M12.5,23 C6.70101013,23 2,18.2989899 2,12.5 C2,6.70101013 6.70101013,2 12.5,2 C18.2989899,2 23,6.70101013 23,12.5 C23,18.2989899 18.2989899,23 12.5,23 Z M12.5,18 C15.5375661,18 18,15.5375661 18,12.5 C18,9.46243388 15.5375661,7 12.5,7 C9.46243388,7 7,9.46243388 7,12.5 C7,15.5375661 9.46243388,18 12.5,18 Z"/>
</svg>
