<svg xmlns="http://www.w3.org/2000/svg" width="24" height="24" viewBox="0 0 24 24">
  <path d="M19.2928932,8 L16.5,8 C16.2238576,8 16,7.77614237 16,7.5 C16,7.22385763 16.2238576,7 16.5,7 L20.5,7 C20.7761424,7 21,7.22385763 21,7.5 L21,11.5 C21,11.7761424 20.7761424,12 20.5,12 C20.2238576,12 20,11.7761424 20,11.5 L20,8.70710678 L14.8535534,13.8535534 C14.6582912,14.0488155 14.3417088,14.0488155 14.1464466,13.8535534 L11.5,11.2071068 L7.85355339,14.8535534 C7.65829124,15.0488155 7.34170876,15.0488155 7.14644661,14.8535534 C6.95118446,14.6582912 6.95118446,14.3417088 7.14644661,14.1464466 L11.1464466,10.1464466 C11.3417088,9.95118446 11.6582912,9.95118446 11.8535534,10.1464466 L14.5,12.7928932 L19.2928932,8 L19.2928932,8 Z M20.5,18 C20.7761424,18 21,18.2238576 21,18.5 C21,18.7761424 20.7761424,19 20.5,19 L5.5,19 C4.11928813,19 3,17.8807119 3,16.5 L3,7.5 C3,7.22385763 3.22385763,7 3.5,7 C3.77614237,7 4,7.22385763 4,7.5 L4,16.5 C4,17.3284271 4.67157288,18 5.5,18 L20.5,18 Z"/>
</svg>
