<svg xmlns="http://www.w3.org/2000/svg" width="24" height="24" viewBox="0 0 24 24">
  <path d="M8,10.6544698 L8,9.67886358 L6.60846523,9.98809353 C6.33889862,10.0479972 6.07181016,9.87803184 6.01190647,9.60846523 C5.95200278,9.33889862 6.12196816,9.07181016 6.39153477,9.01190647 L8,8.65446975 L8,5.5 C8,5.22385763 8.22385763,5 8.5,5 C8.77614237,5 9,5.22385763 9,5.5 L9,8.43224753 L15.3915348,7.01190647 C15.6611014,6.95200278 15.9281898,7.12196816 15.9880935,7.39153477 C16.0479972,7.66110138 15.8780318,7.92818984 15.6084652,7.98809353 L9,9.45664136 L9,10.4322475 L15.3915348,9.01190647 C15.6611014,8.95200278 15.9281898,9.12196816 15.9880935,9.39153477 C16.0479972,9.66110138 15.8780318,9.92818984 15.6084652,9.98809353 L9,11.4566414 L9,18 L11.5,18 C14.5375661,18 17,15.5375661 17,12.5 C17,12.2238576 17.2238576,12 17.5,12 C17.7761424,12 18,12.2238576 18,12.5 C18,16.0898509 15.0898509,19 11.5,19 L8.5,19 C8.22385763,19 8,18.7761424 8,18.5 L8,11.6788636 L6.60846523,11.9880935 C6.33889862,12.0479972 6.07181016,11.8780318 6.01190647,11.6084652 C5.95200278,11.3388986 6.12196816,11.0718102 6.39153477,11.0119065 L8,10.6544698 Z"/>
</svg>
