<svg xmlns="http://www.w3.org/2000/svg" width="24" height="24" viewBox="0 0 24 24">
  <path d="M8,9.25468928 L8,6 C8,3.790861 9.790861,2 12,2 C14.209139,2 16,3.790861 16,6 L16,9.25468928 C17.8134841,10.5196354 19,12.6212549 19,15 C19,18.8659932 15.8659932,22 12,22 C8.13400675,22 5,18.8659932 5,15 C5,12.6212549 6.1865159,10.5196354 8,9.25468928 L8,9.25468928 Z M15,8.67363116 L15,6 C15,4.34314575 13.6568542,3 12,3 C10.3431458,3 9,4.34314575 9,6 L9,8.67363116 C9.90925538,8.24169105 10.9264027,8 12,8 C13.0735973,8 14.0907446,8.24169105 15,8.67363116 Z M12,21 C15.3137085,21 18,18.3137085 18,15 C18,11.6862915 15.3137085,9 12,9 C8.6862915,9 6,11.6862915 6,15 C6,18.3137085 8.6862915,21 12,21 Z M11,14 L11,14.381966 C11,15.0395948 11.1531131,15.6881921 11.4472136,16.2763932 L11.7236068,16.8291796 C11.7759518,16.9338696 11.882953,17 12,17 C12.117047,17 12.2240482,16.9338696 12.2763932,16.8291796 L12.5527864,16.2763932 C12.8468869,15.6881921 13,15.0395948 13,14.381966 L13,14 C13,13.4477153 12.5522847,13 12,13 C11.4477153,13 11,13.4477153 11,14 Z M10,14 C10,12.8954305 10.8954305,12 12,12 C13.1045695,12 14,12.8954305 14,14 L14,14.381966 C14,15.1948399 13.8107418,15.9965503 13.4472136,16.7236068 L13.1708204,17.2763932 C12.9490834,17.7198673 12.4958191,18 12,18 C11.5041809,18 11.0509166,17.7198673 10.8291796,17.2763932 L10.5527864,16.7236068 C10.1892582,15.9965503 10,15.1948399 10,14.381966 L10,14 Z"/>
</svg>
