<svg xmlns="http://www.w3.org/2000/svg" width="24" height="24" viewBox="0 0 24 24">
  <path d="M16.6156506,10.0043921 C16.5785296,10.0131823 16.5398081,10.0178344 16.5,10.0178344 C16.4540106,10.0178344 16.4094714,10.0116254 16.367175,10 L7.5,10 C6.67157288,10 6,10.6715729 6,11.5 L6,18.5 C6,19.3284271 6.67157288,20 7.5,20 L16.5,20 C17.3284271,20 18,19.3284271 18,18.5 L18,11.5 C18,10.710487 17.3900375,10.0634383 16.6156506,10.0043921 L16.6156506,10.0043921 Z M8,9 L16,9 L16,8 C16,5.790861 14.209139,4 12,4 C9.790861,4 8,5.790861 8,8 L8,9 Z M17,9.05000906 C18.1411202,9.28164422 19,10.290521 19,11.5 L19,18.5 C19,19.8807119 17.8807119,21 16.5,21 L7.5,21 C6.11928813,21 5,19.8807119 5,18.5 L5,11.5 C5,10.290521 5.85887984,9.28164422 7,9.05000906 L7,8 C7,5.23857625 9.23857625,3 12,3 C14.7614237,3 17,5.23857625 17,8 L17,9.05000906 Z M11,14 L11,14.381966 C11,15.0395948 11.1531131,15.6881921 11.4472136,16.2763932 L11.7236068,16.8291796 C11.7759518,16.9338696 11.882953,17 12,17 C12.117047,17 12.2240482,16.9338696 12.2763932,16.8291796 L12.5527864,16.2763932 C12.8468869,15.6881921 13,15.0395948 13,14.381966 L13,14 C13,13.4477153 12.5522847,13 12,13 C11.4477153,13 11,13.4477153 11,14 Z M10,14 C10,12.8954305 10.8954305,12 12,12 C13.1045695,12 14,12.8954305 14,14 L14,14.381966 C14,15.1948399 13.8107418,15.9965503 13.4472136,16.7236068 L13.1708204,17.2763932 C12.9490834,17.7198673 12.4958191,18 12,18 C11.5041809,18 11.0509166,17.7198673 10.8291796,17.2763932 L10.5527864,16.7236068 C10.1892582,15.9965503 10,15.1948399 10,14.381966 L10,14 Z"/>
</svg>
