<svg xmlns="http://www.w3.org/2000/svg" width="24" height="24" viewBox="0 0 24 24">
  <path d="M4.70710678,18 L6.85355339,20.1464466 C7.04881554,20.3417088 7.04881554,20.6582912 6.85355339,20.8535534 C6.65829124,21.0488155 6.34170876,21.0488155 6.14644661,20.8535534 L3.14644661,17.8535534 C2.95118446,17.6582912 2.95118446,17.3417088 3.14644661,17.1464466 L6.14644661,14.1464466 C6.34170876,13.9511845 6.65829124,13.9511845 6.85355339,14.1464466 C7.04881554,14.3417088 7.04881554,14.6582912 6.85355339,14.8535534 L4.70710678,17 L18.5,17 C19.3284271,17 20,16.3284271 20,15.5 L20,12.5 C20,12.2238576 20.2238576,12 20.5,12 C20.7761424,12 21,12.2238576 21,12.5 L21,15.5 C21,16.8807119 19.8807119,18 18.5,18 L4.70710678,18 Z M19.2928932,7 L17.1464466,4.85355339 C16.9511845,4.65829124 16.9511845,4.34170876 17.1464466,4.14644661 C17.3417088,3.95118446 17.6582912,3.95118446 17.8535534,4.14644661 L20.8535534,7.14644661 C21.0488155,7.34170876 21.0488155,7.65829124 20.8535534,7.85355339 L17.8535534,10.8535534 C17.6582912,11.0488155 17.3417088,11.0488155 17.1464466,10.8535534 C16.9511845,10.6582912 16.9511845,10.3417088 17.1464466,10.1464466 L19.2928932,8 L5.5,8 C4.67157288,8 4,8.67157288 4,9.5 L4,12.5 C4,12.7761424 3.77614237,13 3.5,13 C3.22385763,13 3,12.7761424 3,12.5 L3,9.5 C3,8.11928813 4.11928813,7 5.5,7 L19.2928932,7 Z"/>
</svg>
