<svg xmlns="http://www.w3.org/2000/svg" width="24" height="24" viewBox="0 0 24 24">
  <path d="M18,19 L18,5 L6,5 L6,19 L18,19 Z M18,20 L6,20 L6,20.5 C6,21.3284271 6.67157288,22 7.5,22 L16.5,22 C17.3284271,22 18,21.3284271 18,20.5 L18,20 Z M18,4 L18,3.5 C18,2.67157288 17.3284271,2 16.5,2 L7.5,2 C6.67157288,2 6,2.67157288 6,3.5 L6,4 L18,4 Z M7.5,1 L16.5,1 C17.8807119,1 19,2.11928813 19,3.5 L19,20.5 C19,21.8807119 17.8807119,23 16.5,23 L7.5,23 C6.11928813,23 5,21.8807119 5,20.5 L5,3.5 C5,2.11928813 6.11928813,1 7.5,1 Z M7.5,7 C7.22385763,7 7,6.77614237 7,6.5 C7,6.22385763 7.22385763,6 7.5,6 L16.5,6 C16.7761424,6 17,6.22385763 17,6.5 C17,6.77614237 16.7761424,7 16.5,7 L7.5,7 Z M7.5,9 C7.22385763,9 7,8.77614237 7,8.5 C7,8.22385763 7.22385763,8 7.5,8 L16.5,8 C16.7761424,8 17,8.22385763 17,8.5 C17,8.77614237 16.7761424,9 16.5,9 L7.5,9 Z M7.5,18 C7.22385763,18 7,17.7761424 7,17.5 C7,17.2238576 7.22385763,17 7.5,17 L8.5,17 C8.77614237,17 9,17.2238576 9,17.5 C9,17.7761424 8.77614237,18 8.5,18 L7.5,18 Z M7.5,16 C7.22385763,16 7,15.7761424 7,15.5 C7,15.2238576 7.22385763,15 7.5,15 L8.5,15 C8.77614237,15 9,15.2238576 9,15.5 C9,15.7761424 8.77614237,16 8.5,16 L7.5,16 Z M8,14 C7.44771525,14 7,13.5522847 7,13 C7,12.4477153 7.44771525,12 8,12 C8.55228475,12 9,12.4477153 9,13 C9,13.5522847 8.55228475,14 8,14 Z"/>
</svg>
