<svg xmlns="http://www.w3.org/2000/svg" width="24" height="24" viewBox="0 0 24 24">
  <path d="M22,17 L14.9146471,17 C14.7087289,17.5825962 14.1531094,18 13.5,18 L10.5,18 C9.84689059,18 9.29127106,17.5825962 9.08535285,17 L2,17 L2,18.5 C2,18.7761424 2.22385763,19 2.5,19 L21.5,19 C21.7761424,19 22,18.7761424 22,18.5 L22,17 Z M2.99999692,16 L2.99999692,5.49038817 C2.99999692,4.66196104 3.6715698,3.99038817 4.49999692,3.99038817 L19.5,3.99038817 C20.3284271,3.99038817 21,4.66196104 21,5.49038817 L21,16 L22.5,16 C22.7761424,16 23,16.2238576 23,16.5 L23,18.5 C23,19.3284271 22.3284271,20 21.5,20 L2.5,20 C1.67157288,20 1,19.3284271 1,18.5 L1,16.5 C1,16.2238576 1.22385763,16 1.5,16 L2.99999692,16 Z M3.99999692,16 L9.5,16 C9.77614237,16 10,16.2238576 10,16.5 C10,16.7761424 10.2238576,17 10.5,17 L13.5,17 C13.7761424,17 14,16.7761424 14,16.5 C14,16.2238576 14.2238576,16 14.5,16 L20,16 L20,5.49038817 C20,5.21424579 19.7761424,4.99038817 19.5,4.99038817 L4.49999692,4.99038817 C4.22385455,4.99038817 3.99999692,5.21424579 3.99999692,5.49038817 L3.99999692,16 Z"/>
</svg>
