<svg xmlns="http://www.w3.org/2000/svg" width="24" height="24" viewBox="0 0 24 24">
  <path d="M7.77891512,18.4860219 L5.5139781,16.2210849 C4.61302935,17.2770558 4.08310738,18.6019229 4.00899316,19.9910068 C5.39807712,19.9168926 6.72294425,19.3869706 7.77891512,18.4860219 L7.77891512,18.4860219 Z M6.20710678,15.5 L8.5,17.7928932 L19.7979185,6.49497475 C20.0712855,6.22160774 20.0712855,5.77839226 19.7979185,5.50502525 L18.4949747,4.20208153 C18.2216077,3.92871452 17.7783923,3.92871452 17.5050253,4.20208153 L6.20710678,15.5 Z M14.7919576,5.50093562 C14.0468007,4.80900048 12.8815483,4.8255585 12.1564971,5.55060967 L8.85355339,8.85355339 C8.65829124,9.04881554 8.34170876,9.04881554 8.14644661,8.85355339 C7.95118446,8.65829124 7.95118446,8.34170876 8.14644661,8.14644661 L11.4493903,4.84350288 C12.5649923,3.72790096 14.3633856,3.71123518 15.4993877,4.79350554 L16.7979185,3.49497475 C17.4618098,2.83108345 18.5381902,2.83108345 19.2020815,3.49497475 L20.5050253,4.79791847 C21.1689165,5.46180977 21.1689165,6.53819023 20.5050253,7.20208153 L8.85355339,18.8535534 C7.47920671,20.2279001 5.61519259,21 3.67157288,21 L3.5,21 C3.22385763,21 3,20.7761424 3,20.5 L3,20.3284271 C3,18.3848074 3.77209993,16.5207933 5.14644661,15.1464466 L14.7919576,5.50093562 L14.7919576,5.50093562 Z"/>
</svg>
