<svg xmlns="http://www.w3.org/2000/svg" width="24" height="24" viewBox="0 0 24 24">
  <path d="M11,21 L13,21 L13,18.9291111 C12.673397,18.975828 12.3395213,19 12,19 C11.6628135,19 11.3288518,18.9761127 11,18.9290503 L11,21 L11,21 Z M10,21 L10,18.7100013 C9.75808787,18.6379922 9.52030317,18.5528567 9.28748929,18.4549132 C9.03295408,18.3478318 8.9134192,18.0546835 9.02050067,17.8001483 C9.12758213,17.5456131 9.42073036,17.4260783 9.67526557,17.5331597 C10.4044877,17.8399392 11.1906274,18 12,18 C15.3137085,18 18,15.3137085 18,12 L18,11.5 C18,11.2238576 18.2238576,11 18.5,11 C18.7761424,11 19,11.2238576 19,11.5 L19,12 C19,15.1710206 16.8914889,17.8495721 14,18.7101213 L14,21 L16.5,21 C16.7761424,21 17,21.2238576 17,21.5 C17,21.7761424 16.7761424,22 16.5,22 L7.5,22 C7.22385763,22 7,21.7761424 7,21.5 C7,21.2238576 7.22385763,21 7.5,21 L10,21 Z M15,11.5 C15,11.2238576 15.2238576,11 15.5,11 C15.7761424,11 16,11.2238576 16,11.5 L16,12 C16,14.2149646 14.2193226,16.0034139 12.0076014,16.0034139 C11.8171075,16.0034139 11.6281198,15.9900876 11.4416278,15.9636957 C11.1682097,15.9250022 10.9779279,15.6719858 11.0166213,15.3985678 C11.0553148,15.1251498 11.3083312,14.9348679 11.5817492,14.9735614 C11.7218581,14.9933892 11.8640235,15.0034139 12.0076014,15.0034139 C13.6660606,15.0034139 15,13.6636524 15,12 L15,11.5 Z M6.45777981,14.3030782 C6.56385773,14.5580333 6.44316895,14.8507084 6.18821388,14.9567863 C5.93325881,15.0628642 5.64058375,14.9421754 5.53450583,14.6872203 C5.18318525,13.8428319 5,12.9337597 5,12 L5,11.5 C5,11.2238576 5.22385763,11 5.5,11 C5.77614237,11 6,11.2238576 6,11.5 L6,12 C6,12.8013216 6.15688891,13.579896 6.45777981,14.3030782 Z M9,12.5024931 C9,12.7786355 8.77614237,13.0024931 8.5,13.0024931 C8.22385763,13.0024931 8,12.7786355 8,12.5024931 L8,6.00760139 C8,3.79426426 9.79426426,2 12.0076014,2 C14.0060285,2 15.6911507,3.47134643 15.9739292,5.43074519 C16.0133732,5.70405598 15.8237867,5.95759379 15.5504759,5.99703774 C15.2771651,6.03648169 15.0236273,5.84689517 14.9841833,5.57358438 C14.7721663,4.10449914 13.5071916,3 12.0076014,3 C10.346549,3 9,4.34654901 9,6.00760139 L9,12.5024931 Z M3.85355339,20.8535534 C3.65829124,21.0488155 3.34170876,21.0488155 3.14644661,20.8535534 C2.95118446,20.6582912 2.95118446,20.3417088 3.14644661,20.1464466 L20.1464466,3.14644661 C20.3417088,2.95118446 20.6582912,2.95118446 20.8535534,3.14644661 C21.0488155,3.34170876 21.0488155,3.65829124 20.8535534,3.85355339 L3.85355339,20.8535534 Z"/>
</svg>
