<svg xmlns="http://www.w3.org/2000/svg" width="24" height="24" viewBox="0 0 24 24">
  <path d="M15.7439414,7 L16.5,7 C18.9852814,7 21,9.01471863 21,11.5 C21,13.9852814 18.9852814,16 16.5,16 C16.2238576,16 16,15.7761424 16,15.5 C16,15.2238576 16.2238576,15 16.5,15 C18.4329966,15 20,13.4329966 20,11.5 C20,9.56700338 18.4329966,8 16.5,8 L15.9725356,8 C15.9906833,8.16416693 16,8.33099545 16,8.5 C16,8.77614237 15.7761424,9 15.5,9 C15.2238576,9 15,8.77614237 15,8.5 C15,6.56700338 13.4329966,5 11.5,5 L11,5 C8.790861,5 7,6.790861 7,9 L7,9.5 C7,9.77614237 6.77614237,10 6.5,10 C5.11928813,10 4,11.1192881 4,12.5 C4,13.8807119 5.11928813,15 6.5,15 C6.77614237,15 7,15.2238576 7,15.5 C7,15.7761424 6.77614237,16 6.5,16 C4.56700338,16 3,14.4329966 3,12.5 C3,10.736764 4.30385293,9.27805926 6,9.03544443 C6,6.23857625 8.23857625,4 11,4 L11.5,4 C13.4593282,4 15.1261868,5.25221144 15.7439414,7 L15.7439414,7 Z M9,14 L10,14 L10,15 L9,15 L9,14 Z M11,13 L12,13 L12,14 L11,14 L11,13 Z M9,16 L10,16 L10,17 L9,17 L9,16 Z M11,15 L12,15 L12,16 L11,16 L11,15 Z M9,18 L10,18 L10,19 L9,19 L9,18 Z M11,17 L12,17 L12,18 L11,18 L11,17 Z M13,14 L14,14 L14,15 L13,15 L13,14 Z M13,16 L14,16 L14,17 L13,17 L13,16 Z M13,18 L14,18 L14,19 L13,19 L13,18 Z"/>
</svg>
