<svg xmlns="http://www.w3.org/2000/svg" width="24" height="24" viewBox="0 0 24 24">
  <path d="M5,6 L5,6.5 C5,7.88071187 3.88071187,9 2.5,9 L2,9 L2,15 L2.54138127,15 C3.92209314,15 5.04138127,16.1192881 5.04138127,17.5 L5.04138127,18 L19,18 L19,17.5 C19,16.1192881 20.1192881,15 21.5,15 L22,15 L22,9 L21.5,9 C20.1192881,9 19,7.88071187 19,6.5 L19,6 L5,6 Z M4,6 L3.5,6 C2.67157288,6 2,6.67157288 2,7.5 L2,8 L2.5,8 C3.32842712,8 4,7.32842712 4,6.5 L4,6 Z M4.04138127,18 L4.04138127,17.5 C4.04138127,16.6715729 3.36980839,16 2.54138127,16 L2,16 L2,16.5 C2,17.3284271 2.67157288,18 3.5,18 L4.04138127,18 L4.04138127,18 Z M4.72515192,19 C4.66826565,19.0224932 4.60626682,19.0348527 4.54138127,19.0348527 C4.47649571,19.0348527 4.41449688,19.0224932 4.35761061,19 L3.5,19 C2.11928813,19 1,17.8807119 1,16.5 L1,7.5 C1,6.11928813 2.11928813,5 3.5,5 L20.5,5 C21.8807119,5 23,6.11928813 23,7.5 L23,16.5 C23,17.8807119 21.8807119,19 20.5,19 L4.72515192,19 L4.72515192,19 Z M20,18 L20.5,18 C21.3284271,18 22,17.3284271 22,16.5 L22,16 L21.5,16 C20.6715729,16 20,16.6715729 20,17.5 L20,18 Z M20,6 L20,6.5 C20,7.32842712 20.6715729,8 21.5,8 L22,8 L22,7.5 C22,6.67157288 21.3284271,6 20.5,6 L20,6 Z M12,16 C9.790861,16 8,14.209139 8,12 C8,9.790861 9.790861,8 12,8 C14.209139,8 16,9.790861 16,12 C16,14.209139 14.209139,16 12,16 Z M12,15 C13.6568542,15 15,13.6568542 15,12 C15,10.3431458 13.6568542,9 12,9 C10.3431458,9 9,10.3431458 9,12 C9,13.6568542 10.3431458,15 12,15 Z"/>
</svg>
