<svg xmlns="http://www.w3.org/2000/svg" width="24" height="24" viewBox="0 0 24 24">
  <path d="M19,11.5 C19,11.2238576 18.7761424,11 18.5,11 L17.5,11 C17.2238576,11 17,11.2238576 17,11.5 L17,12.5 C17,12.7761424 17.2238576,13 17.5,13 L18.5,13 C18.7761424,13 19,12.7761424 19,12.5 L19,11.5 Z M20,11.5 L20,12.5 C20,13.3284271 19.3284271,14 18.5,14 L17.5,14 C16.6715729,14 16,13.3284271 16,12.5 L16,11.5 C16,10.6715729 16.6715729,10 17.5,10 L18.5,10 C19.3284271,10 20,10.6715729 20,11.5 Z M13,11.5 C13,11.2238576 12.7761424,11 12.5,11 L11.5,11 C11.2238576,11 11,11.2238576 11,11.5 L11,12.5 C11,12.7761424 11.2238576,13 11.5,13 L12.5,13 C12.7761424,13 13,12.7761424 13,12.5 L13,11.5 Z M14,11.5 L14,12.5 C14,13.3284271 13.3284271,14 12.5,14 L11.5,14 C10.6715729,14 10,13.3284271 10,12.5 L10,11.5 C10,10.6715729 10.6715729,10 11.5,10 L12.5,10 C13.3284271,10 14,10.6715729 14,11.5 Z M7,11.5 C7,11.2238576 6.77614237,11 6.5,11 L5.5,11 C5.22385763,11 5,11.2238576 5,11.5 L5,12.5 C5,12.7761424 5.22385763,13 5.5,13 L6.5,13 C6.77614237,13 7,12.7761424 7,12.5 L7,11.5 Z M8,11.5 L8,12.5 C8,13.3284271 7.32842712,14 6.5,14 L5.5,14 C4.67157288,14 4,13.3284271 4,12.5 L4,11.5 C4,10.6715729 4.67157288,10 5.5,10 L6.5,10 C7.32842712,10 8,10.6715729 8,11.5 Z"/>
</svg>
