<svg xmlns="http://www.w3.org/2000/svg" width="24" height="24" viewBox="0 0 24 24">
  <path d="M5.64645122,10.646442 L10.6577998,5.63509344 C12.7860611,3.50683213 16.2366545,3.50683213 18.3649158,5.63509344 C20.4931771,7.76335476 20.4931771,11.2139481 18.3649158,13.3422094 L13.3535672,18.353558 C11.2253059,20.4818193 7.77471253,20.4818193 5.64645122,18.353558 C3.5181899,16.2252967 3.5181899,12.7747033 5.64645122,10.646442 Z M6.353558,11.3535488 C4.61582097,13.0912858 4.61582097,15.9087142 6.353558,17.6464512 C8.09129502,19.3841882 10.9087234,19.3841882 12.6464604,17.6464512 L17.657809,12.6351027 C19.395546,10.8973656 19.395546,8.07993725 17.657809,6.34220022 C15.920072,4.6044632 13.1026436,4.6044632 11.3649066,6.34220022 L6.353558,11.3535488 Z M15.1464466,8.14644661 C15.3417088,7.95118446 15.6582912,7.95118446 15.8535534,8.14644661 C16.0488155,8.34170876 16.0488155,8.65829124 15.8535534,8.85355339 L14.8535534,9.85355339 C14.6582912,10.0488155 14.3417088,10.0488155 14.1464466,9.85355339 C13.9511845,9.65829124 13.9511845,9.34170876 14.1464466,9.14644661 L15.1464466,8.14644661 Z"/>
</svg>
