<svg xmlns="http://www.w3.org/2000/svg" width="24" height="24" viewBox="0 0 24 24">
  <path d="M13,14.5675208 L10.7724241,16.423834 C10.3590796,16.7682878 9.83805396,16.9569251 9.3,16.9569251 C8.02974508,16.9569251 7,15.92718 7,14.6569251 L7,9.3430749 C7,8.80502094 7.1886373,8.28399529 7.53309106,7.87065078 C8.34628844,6.89481392 9.79658726,6.76296857 10.7724241,7.57616596 L13,9.43247919 L13,9 C13,7.8954305 13.8954305,7 15,7 C16.1045695,7 17,7.8954305 17,9 L17,15 C17,16.1045695 16.1045695,17 15,17 C13.8954305,17 13,16.1045695 13,15 L13,14.5675208 Z M13,13.2658125 L13,10.7341875 L10.1322397,8.34438724 C9.58067975,7.88475393 8.76094564,7.95927522 8.30131234,8.51083518 C8.10662109,8.74446468 8,9.03895745 8,9.3430749 L8,14.6569251 C8,15.3748953 8.58202983,15.9569251 9.3,15.9569251 C9.60411746,15.9569251 9.89861022,15.850304 10.1322397,15.6556128 L13,13.2658125 L13,13.2658125 Z M14,13.5032829 L14,15 C14,15.5522847 14.4477153,16 15,16 C15.5522847,16 16,15.5522847 16,15 L16,9 C16,8.44771525 15.5522847,8 15,8 C14.4477153,8 14,8.44771525 14,9 L14,10.4967171 C14.0000167,10.4990847 14.0000167,10.5014514 14,10.5038183 L14,13.4961816 C14.0000167,13.4985486 14.0000167,13.5009153 14,13.5032816 L14,13.5032829 Z M12,22 C6.4771525,22 2,17.5228475 2,12 C2,6.4771525 6.4771525,2 12,2 C17.5228475,2 22,6.4771525 22,12 C22,17.5228475 17.5228475,22 12,22 Z M12,21 C16.9705627,21 21,16.9705627 21,12 C21,7.02943725 16.9705627,3 12,3 C7.02943725,3 3,7.02943725 3,12 C3,16.9705627 7.02943725,21 12,21 Z"/>
</svg>
