<svg xmlns="http://www.w3.org/2000/svg" width="24" height="24" viewBox="0 0 24 24">
  <path d="M14,9.55067587 L6.01497592,4.13226667 C5.71792446,3.93069604 5.31371138,4.00809854 5.11214075,4.30515 C5.03906603,4.41283906 5,4.53998428 5,4.67012593 L5,19.3298741 C5,19.6888592 5.29101491,19.9798741 5.65,19.9798741 C5.78014165,19.9798741 5.90728686,19.940808 6.01497592,19.8677333 L14,14.4493241 L14,9.55067587 Z M14,15.6578187 L6.57647734,20.6952091 C6.3031128,20.8807065 5.98035956,20.9798741 5.65,20.9798741 C4.73873016,20.9798741 4,20.2411439 4,19.3298741 L4,4.67012593 C4,4.33976636 4.09916761,4.01701312 4.28466497,3.74364859 C4.79634428,2.98959487 5.82242363,2.79311159 6.57647734,3.3047909 L14,8.34218127 L14,5.5 C14,4.11928813 15.1192881,3 16.5,3 L17.5,3 C18.8807119,3 20,4.11928813 20,5.5 L20,18.5 C20,19.8807119 18.8807119,21 17.5,21 L16.5,21 C15.1192881,21 14,19.8807119 14,18.5 L14,15.6578187 Z M16.5,4 C15.6715729,4 15,4.67157288 15,5.5 L15,18.5 C15,19.3284271 15.6715729,20 16.5,20 L17.5,20 C18.3284271,20 19,19.3284271 19,18.5 L19,5.5 C19,4.67157288 18.3284271,4 17.5,4 L16.5,4 Z"/>
</svg>
