<svg xmlns="http://www.w3.org/2000/svg" width="24" height="24" viewBox="0 0 24 24">
  <path d="M4,16 L4,8 L3.5,8 C3.22385763,8 3,7.77614237 3,7.5 C3,7.22385763 3.22385763,7 3.5,7 L4,7 L4,5.5 C4,4.11928813 5.11928813,3 6.5,3 L17.5,3 C18.8807119,3 20,4.11928813 20,5.5 L20,18.5 C20,19.8807119 18.8807119,21 17.5,21 L6.5,21 C5.11928813,21 4,19.8807119 4,18.5 L4,17 L3.5,17 C3.22385763,17 3,16.7761424 3,16.5 C3,16.2238576 3.22385763,16 3.5,16 L4,16 Z M5,16 L5.5,16 C5.77614237,16 6,16.2238576 6,16.5 C6,16.7761424 5.77614237,17 5.5,17 L5,17 L5,18.5 C5,19.3284271 5.67157288,20 6.5,20 L17.5,20 C18.3284271,20 19,19.3284271 19,18.5 L19,5.5 C19,4.67157288 18.3284271,4 17.5,4 L6.5,4 C5.67157288,4 5,4.67157288 5,5.5 L5,7 L5.5,7 C5.77614237,7 6,7.22385763 6,7.5 C6,7.77614237 5.77614237,8 5.5,8 L5,8 L5,16 Z M8.5,6 L15.5,6 C16.3284271,6 17,6.67157288 17,7.5 L17,9.5 C17,10.3284271 16.3284271,11 15.5,11 L8.5,11 C7.67157288,11 7,10.3284271 7,9.5 L7,7.5 C7,6.67157288 7.67157288,6 8.5,6 Z M8.5,7 C8.22385763,7 8,7.22385763 8,7.5 L8,9.5 C8,9.77614237 8.22385763,10 8.5,10 L15.5,10 C15.7761424,10 16,9.77614237 16,9.5 L16,7.5 C16,7.22385763 15.7761424,7 15.5,7 L8.5,7 Z"/>
</svg>
