<svg xmlns="http://www.w3.org/2000/svg" width="24" height="24" viewBox="0 0 24 24">
  <path d="M17,11.0281747 L18.0712535,9.24275212 C18.2133276,9.00596199 18.5204577,8.92917946 18.7572479,9.07125354 C18.994038,9.21332762 19.0708205,9.52045774 18.9287465,9.75724788 L17.5830952,12 L18.9287465,14.2427521 C19.0708205,14.4795423 18.994038,14.7866724 18.7572479,14.9287465 C18.5204577,15.0708205 18.2133276,14.994038 18.0712535,14.7572479 L17,12.9718253 L15.9287465,14.7572479 C15.7866724,14.994038 15.4795423,15.0708205 15.2427521,14.9287465 C15.005962,14.7866724 14.9291795,14.4795423 15.0712535,14.2427521 L16.4169048,12 L15.0712535,9.75724788 C14.9291795,9.52045774 15.005962,9.21332762 15.2427521,9.07125354 C15.4795423,8.92917946 15.7866724,9.00596199 15.9287465,9.24275212 L17,11.0281747 Z M5.5,3 L18.5,3 C19.8807119,3 21,4.11928813 21,5.5 L21,18.5 C21,19.8807119 19.8807119,21 18.5,21 L5.5,21 C4.11928813,21 3,19.8807119 3,18.5 L3,5.5 C3,4.11928813 4.11928813,3 5.5,3 Z M5.5,4 C4.67157288,4 4,4.67157288 4,5.5 L4,18.5 C4,19.3284271 4.67157288,20 5.5,20 L18.5,20 C19.3284271,20 20,19.3284271 20,18.5 L20,5.5 C20,4.67157288 19.3284271,4 18.5,4 L5.5,4 Z M5,13.5 L5,10.5 C5,9.67157288 5.67157288,9 6.5,9 L7.5,9 C8.32842712,9 9,9.67157288 9,10.5 L9,13.5 C9,14.3284271 8.32842712,15 7.5,15 L6.5,15 C5.67157288,15 5,14.3284271 5,13.5 Z M6,13.5 C6,13.7761424 6.22385763,14 6.5,14 L7.5,14 C7.77614237,14 8,13.7761424 8,13.5 L8,10.5 C8,10.2238576 7.77614237,10 7.5,10 L6.5,10 C6.22385763,10 6,10.2238576 6,10.5 L6,13.5 Z M14,10.5 C14,10.7761424 13.7761424,11 13.5,11 C13.2238576,11 13,10.7761424 13,10.5 C13,10.2238576 12.7761424,10 12.5,10 L11.5,10 C11.2238576,10 11,10.2238576 11,10.5 L11,10.7792408 C11,10.994456 11.137715,11.1855254 11.3418861,11.2535824 L12.9743416,11.7977343 C13.5868549,12.0019053 14,12.5751136 14,13.2207592 L14,13.5 C14,14.3284271 13.3284271,15 12.5,15 L11.5,15 C10.6715729,15 10,14.3284271 10,13.5 C10,13.2238576 10.2238576,13 10.5,13 C10.7761424,13 11,13.2238576 11,13.5 C11,13.7761424 11.2238576,14 11.5,14 L12.5,14 C12.7761424,14 13,13.7761424 13,13.5 L13,13.2207592 C13,13.005544 12.862285,12.8144746 12.6581139,12.7464176 L11.0256584,12.2022657 C10.4131451,11.9980947 10,11.4248864 10,10.7792408 L10,10.5 C10,9.67157288 10.6715729,9 11.5,9 L12.5,9 C13.3284271,9 14,9.67157288 14,10.5 Z"/>
</svg>
