<svg xmlns="http://www.w3.org/2000/svg" width="24" height="24" viewBox="0 0 24 24">
  <path d="M3.5,7 C3.22385763,7 3,6.77614237 3,6.5 C3,6.22385763 3.22385763,6 3.5,6 L20.5,6 C20.7761424,6 21,6.22385763 21,6.5 C21,6.77614237 20.7761424,7 20.5,7 L3.5,7 Z M10.5,11 C10.2238576,11 10,10.7761424 10,10.5 C10,10.2238576 10.2238576,10 10.5,10 L20.5,10 C20.7761424,10 21,10.2238576 21,10.5 C21,10.7761424 20.7761424,11 20.5,11 L10.5,11 Z M10.5,15 C10.2238576,15 10,14.7761424 10,14.5 C10,14.2238576 10.2238576,14 10.5,14 L20.5,14 C20.7761424,14 21,14.2238576 21,14.5 C21,14.7761424 20.7761424,15 20.5,15 L10.5,15 Z M3.5,19 C3.22385763,19 3,18.7761424 3,18.5 C3,18.2238576 3.22385763,18 3.5,18 L20.5,18 C20.7761424,18 21,18.2238576 21,18.5 C21,18.7761424 20.7761424,19 20.5,19 L3.5,19 Z M8,9.5 L8,15.5 C8,15.9120227 7.52961813,16.1472136 7.2,15.9 L3.2,12.9 C2.93333333,12.7 2.93333333,12.3 3.2,12.1 L7.2,9.1 C7.52961813,8.8527864 8,9.08797734 8,9.5 Z M4.33333333,12.5 L7,14.5 L7,10.5 L4.33333333,12.5 Z"/>
</svg>
