<svg xmlns="http://www.w3.org/2000/svg" width="24" height="24" viewBox="0 0 24 24">
  <path d="M3.5,7 C3.22385763,7 3,6.77614237 3,6.5 C3,6.22385763 3.22385763,6 3.5,6 L20.5,6 C20.7761424,6 21,6.22385763 21,6.5 C21,6.77614237 20.7761424,7 20.5,7 L3.5,7 Z M3.5,11 C3.22385763,11 3,10.7761424 3,10.5 C3,10.2238576 3.22385763,10 3.5,10 L13.5,10 C13.7761424,10 14,10.2238576 14,10.5 C14,10.7761424 13.7761424,11 13.5,11 L3.5,11 Z M3.5,15 C3.22385763,15 3,14.7761424 3,14.5 C3,14.2238576 3.22385763,14 3.5,14 L13.5,14 C13.7761424,14 14,14.2238576 14,14.5 C14,14.7761424 13.7761424,15 13.5,15 L3.5,15 Z M3.5,19 C3.22385763,19 3,18.7761424 3,18.5 C3,18.2238576 3.22385763,18 3.5,18 L20.5,18 C20.7761424,18 21,18.2238576 21,18.5 C21,18.7761424 20.7761424,19 20.5,19 L3.5,19 Z M16,15.5 L16,9.5 C16,9.08797734 16.4703819,8.8527864 16.8,9.1 L20.8,12.1 C21.0666667,12.3 21.0666667,12.7 20.8,12.9 L16.8,15.9 C16.4703819,16.1472136 16,15.9120227 16,15.5 Z M19.6666667,12.5 L17,10.5 L17,14.5 L19.6666667,12.5 Z"/>
</svg>
