<svg xmlns="http://www.w3.org/2000/svg" width="24" height="24" viewBox="0 0 24 24">
  <path d="M9.90129845,5.21189882 C10.9513382,4.77997499 12.2035039,4.99050968 13.0564971,5.84350288 L17.1623846,9.94939033 C18.1817682,10.968774 18.2836028,12.5582495 17.4678884,13.6915355 C17.4319612,13.7780979 17.3724147,13.8523838 17.2972901,13.9063525 C17.2542648,13.9555789 17.2092963,14.0036979 17.1623846,14.0506097 L12.0564971,19.1564971 C10.9239767,20.2890176 9.08779823,20.2890176 7.95527778,19.1564971 L3.84939033,15.0506097 C3.49203,14.6932493 3.24743267,14.265827 3.11559834,13.8125581 C3.04695092,13.7269493 3.00588745,13.6182701 3.00588745,13.5 C3.00588745,13.4544832 3.01196948,13.410387 3.02336519,13.3684796 C2.91387078,12.5088525 3.1892125,11.6095682 3.84939033,10.9493903 L4.00588745,10.7928932 L4.00588745,6 C4.00588745,4.34314575 5.3490332,3 7.00588745,3 C8.39001067,3 9.55520292,3.93735486 9.90129845,5.21189882 Z M8.99633138,5.80323938 C8.89748895,4.79102262 8.04406482,4 7.00588745,4 C5.90131795,4 5.00588745,4.8954305 5.00588745,6 L5.00588745,9.79289322 L8.95527778,5.84350288 C8.96886189,5.82991878 8.98254723,5.81649761 8.99633138,5.80323938 Z M10.0058875,6.27806003 L10.0058875,10.5 C10.0058875,10.7761424 9.78202983,11 9.50588745,11 C9.22974508,11 9.00588745,10.7761424 9.00588745,10.5 L9.00588745,7.20710678 L4.55649712,11.6564971 C4.18549904,12.0274952 4,12.5137476 4,13 L16.7278274,13 C17.1821339,12.2672263 17.091284,11.2925033 16.4552778,10.6564971 L12.3493903,6.55060967 C11.7133841,5.91460345 10.7386612,5.82375357 10.0058875,6.27806003 Z M15.7987807,14 L4.28394748,14 C4.3596573,14.1221162 4.45050717,14.2375129 4.55649712,14.3435029 L8.66238457,18.4493903 C9.40438072,19.1913865 10.6073942,19.1913865 11.3493903,18.4493903 L15.7987807,14 Z M16.7320034,16.6171375 L18.1462169,15.1526714 C18.3427937,14.9491095 18.6689812,14.9491095 18.865558,15.1526714 L20.2797715,16.6171375 C21.2479261,17.6196944 21.2479261,19.2381699 20.2797715,20.2407268 C19.3021462,21.2530911 17.7096287,21.2530911 16.7320034,20.2407268 C15.7638488,19.2381699 15.7638488,17.6196944 16.7320034,16.6171375 Z M17.4513444,17.3117947 C16.8574018,17.9268423 16.8574018,18.931022 17.4513444,19.5460697 C18.0358162,20.1513101 18.9759587,20.1513101 19.5604305,19.5460697 C20.1543731,18.931022 20.1543731,17.9268423 19.5604305,17.3117947 L18.5058875,16.2197796 L17.4513444,17.3117947 Z"/>
</svg>
