<svg xmlns="http://www.w3.org/2000/svg" width="24" height="24" viewBox="0 0 24 24">
  <path d="M12.0281146,15 L12.5,15 C13.3284271,15 14,15.6715729 14,16.5 L14,20.5 C14,21.3284271 13.3284271,22 12.5,22 L10.5,22 C9.67157288,22 9,21.3284271 9,20.5 L9,16.5 C9,15.6715729 9.67157288,15 10.5,15 L11.0167145,15 C11.1492163,13.8570393 12.0552513,12.9352285 13.2239212,12.8053762 L18.6656473,12.20074 C19.4252963,12.1163346 20,11.4742382 20,10.7099144 L20,8.5 C20,7.67157288 19.3284271,7 18.5,7 C18.2238576,7 18,6.77614237 18,6.5 C18,6.22385763 18.2238576,6 18.5,6 C19.8807119,6 21,7.11928813 21,8.5 L21,10.7099144 C21,11.9837875 20.0421605,13.053948 18.7760788,13.1946238 L13.3343527,13.79926 C12.6731623,13.8727256 12.1520824,14.3686853 12.0281146,15 Z M10.5,16 C10.2238576,16 10,16.2238576 10,16.5 L10,20.5 C10,20.7761424 10.2238576,21 10.5,21 L12.5,21 C12.7761424,21 13,20.7761424 13,20.5 L13,16.5 C13,16.2238576 12.7761424,16 12.5,16 L10.5,16 Z M5.49996942,2.99995128 L16.5,2.99995128 C17.8807119,2.99995128 19,4.11923941 19,5.49995128 L19,7.5 C19,8.88071187 17.8807119,10 16.5,10 L5.49996942,10 C4.11925755,10 2.99996942,8.88071187 2.99996942,7.5 L2.99996942,5.49995128 C2.99996942,4.11923941 4.11925755,2.99995128 5.49996942,2.99995128 Z M5.49996942,3.99995128 C4.6715423,3.99995128 3.99996942,4.67152416 3.99996942,5.49995128 L3.99996942,7.5 C3.99996942,8.32842712 4.6715423,9 5.49996942,9 L16.5,9 C17.3284271,9 18,8.32842712 18,7.5 L18,5.49995128 C18,4.67152416 17.3284271,3.99995128 16.5,3.99995128 L5.49996942,3.99995128 Z"/>
</svg>
