<svg xmlns="http://www.w3.org/2000/svg" width="24" height="24" viewBox="0 0 24 24">
  <path d="M12,3 C7.02943725,3 3,7.02943725 3,12 C3,16.9705627 7.02943725,21 12,21 L12.5,21 C12.858273,21 13.1705704,20.7561656 13.2574644,20.4085897 C13.383347,19.9050591 13.2685731,19.4033126 12.9560024,19.0282278 L11.1158894,16.8200922 C10.8732035,16.5288692 11.0302161,16.0840548 11.4019419,16.0097097 L17.4796192,14.7941742 C19.5265706,14.3847839 21,12.587489 21,10.5 C21,6.35786438 17.6421356,3 13.5,3 L12,3 Z M12.4220907,16.8254838 L13.7242237,18.3880434 C14.2410976,19.0082921 14.4308904,19.8379914 14.2350713,20.6212678 C14.0294212,21.4438682 13.3171407,22 12.5,22 L12,22 C6.4771525,22 2,17.5228475 2,12 C2,6.4771525 6.4771525,2 12,2 L13.5,2 C18.1944204,2 22,5.80557963 22,10.5 C22,13.06417 20.1901109,15.2718798 17.6757354,15.7747549 L12.4220907,16.8254838 Z M18,10 C18.5522847,10 19,9.55228475 19,9 C19,8.44771525 18.5522847,8 18,8 C17.4477153,8 17,8.44771525 17,9 C17,9.55228475 17.4477153,10 18,10 Z M14,7 C14.5522847,7 15,6.55228475 15,6 C15,5.44771525 14.5522847,5 14,5 C13.4477153,5 13,5.44771525 13,6 C13,6.55228475 13.4477153,7 14,7 Z M9,8 C9.55228475,8 10,7.55228475 10,7 C10,6.44771525 9.55228475,6 9,6 C8.44771525,6 8,6.44771525 8,7 C8,7.55228475 8.44771525,8 9,8 Z M6,12 C6.55228475,12 7,11.5522847 7,11 C7,10.4477153 6.55228475,10 6,10 C5.44771525,10 5,10.4477153 5,11 C5,11.5522847 5.44771525,12 6,12 Z"/>
</svg>
