<svg xmlns="http://www.w3.org/2000/svg" width="24" height="24" viewBox="0 0 24 24">
  <path d="M3,6.25768926 L3,17.7520684 C8.78116324,15.4638469 15.2188368,15.4638469 21,17.7520684 L21,6.25768926 C15.2325478,8.61623308 8.76745224,8.61623308 3,6.25768926 Z M2.70404054,5.04352715 C8.61931991,7.68762044 15.3806801,7.68762044 21.2959595,5.04352715 C21.6267089,4.89568419 22,5.13771178 22,5.5 L22,18.5 C22,18.8595723 21.6318209,19.1015941 21.3017279,18.9590078 C15.3656403,16.3948671 8.63435968,16.3948671 2.69827211,18.9590078 C2.36817912,19.1015941 2,18.8595723 2,18.5 L2,5.5 C2,5.13771178 2.37329107,4.89568419 2.70404054,5.04352715 Z"/>
</svg>
