<svg xmlns="http://www.w3.org/2000/svg" width="24" height="24" viewBox="0 0 24 24">
  <path d="M20,12.2928932 L20,9.70710678 L18.7071068,11 L20,12.2928932 L20,12.2928932 Z M19.2928932,13 L18,11.7071068 L16.7071068,13 L19.2928932,13 Z M16,9.70710678 L16,12.2928932 L17.2928932,11 L16,9.70710678 L16,9.70710678 Z M16.7071068,9 L18,10.2928932 L19.2928932,9 L16.7071068,9 L16.7071068,9 Z M8.70710678,9 L10,10.2928932 L11.2928932,9 L8.70710678,9 L8.70710678,9 Z M8,9.70710678 L8,12.2928932 L9.29289322,11 L8,9.70710678 L8,9.70710678 Z M12,12.2928932 L12,9.70710678 L10.7071068,11 L12,12.2928932 L12,12.2928932 Z M11.2928932,13 L10,11.7071068 L8.70710678,13 L11.2928932,13 L11.2928932,13 Z M1,18 L1,6.5 C1,4.01471863 3.01471863,2 5.5,2 C5.75,2 6,2.16666667 6,2.5 L6,6 L22.5,6 C22.7761424,6 23,6.22385763 23,6.5 L23,21.5 C23,21.7761424 22.7761424,22 22.5,22 L5,22 C2.790861,22 1,20.209139 1,18 Z M2,15.3541756 C2.73294445,14.5237549 3.80530747,14 5,14 L5,3.03544443 C3.30385293,3.27805926 2,4.73676405 2,6.5 L2,15.3541756 L2,15.3541756 Z M6,7 L6,14.5 C6,14.7761424 5.77614237,15 5.5,15 L5,15 C3.34314575,15 2,16.3431458 2,18 C2,19.6568542 3.34314575,21 5,21 L22,21 L22,7 L6,7 Z M8.5,8 L11.5,8 C12.3284271,8 13,8.67157288 13,9.5 L13,12.5 C13,13.3284271 12.3284271,14 11.5,14 L8.5,14 C7.67157288,14 7,13.3284271 7,12.5 L7,9.5 C7,8.67157288 7.67157288,8 8.5,8 Z M19.5,8 C20.3284271,8 21,8.67157288 21,9.5 L21,12.5 C21,13.3284271 20.3284271,14 19.5,14 L16.5,14 C15.6715729,14 15,13.3284271 15,12.5 L15,9.5 C15,8.67157288 15.6715729,8 16.5,8 L19.5,8 Z M7.5,17 C7.22385763,17 7,16.7761424 7,16.5 C7,16.2238576 7.22385763,16 7.5,16 L14.5,16 C14.7761424,16 15,16.2238576 15,16.5 C15,16.7761424 14.7761424,17 14.5,17 L7.5,17 Z M7.5,19 C7.22385763,19 7,18.7761424 7,18.5 C7,18.2238576 7.22385763,18 7.5,18 L15.5,18 C15.7761424,18 16,18.2238576 16,18.5 C16,18.7761424 15.7761424,19 15.5,19 L7.5,19 Z"/>
</svg>
