<svg xmlns="http://www.w3.org/2000/svg" width="24" height="24" viewBox="0 0 24 24">
  <path d="M12,15 L10.5,15 C7.46243388,15 5,12.5375661 5,9.5 C5,6.46243388 7.46243388,4 10.5,4 L18.5,4 C18.7761424,4 19,4.22385763 19,4.5 C19,4.77614237 18.7761424,5 18.5,5 L16,5 L16,19.5 C16,19.7761424 15.7761424,20 15.5,20 C15.2238576,20 15,19.7761424 15,19.5 L15,5 L13,5 L13,19.5 C13,19.7761424 12.7761424,20 12.5,20 C12.2238576,20 12,19.7761424 12,19.5 L12,15 Z M12,14 L12,5 L10.5,5 C8.01471863,5 6,7.01471863 6,9.5 C6,11.9852814 8.01471863,14 10.5,14 L12,14 Z"/>
</svg>
