<svg xmlns="http://www.w3.org/2000/svg" width="24" height="24" viewBox="0 0 24 24">
  <path d="M12,22 C6.4771525,22 2,17.5228475 2,12 C2,6.4771525 6.4771525,2 12,2 C17.5228475,2 22,6.4771525 22,12 C22,17.5228475 17.5228475,22 12,22 Z M12,21 C16.9705627,21 21,16.9705627 21,12 C21,7.02943725 16.9705627,3 12,3 C7.02943725,3 3,7.02943725 3,12 C3,16.9705627 7.02943725,21 12,21 Z M9,7 C10.1045695,7 11,7.8954305 11,9 L11,15 C11,16.1045695 10.1045695,17 9,17 C7.8954305,17 7,16.1045695 7,15 L7,9 C7,7.8954305 7.8954305,7 9,7 Z M9,8 C8.44771525,8 8,8.44771525 8,9 L8,15 C8,15.5522847 8.44771525,16 9,16 C9.55228475,16 10,15.5522847 10,15 L10,9 C10,8.44771525 9.55228475,8 9,8 Z M15,7 C16.1045695,7 17,7.8954305 17,9 L17,15 C17,16.1045695 16.1045695,17 15,17 C13.8954305,17 13,16.1045695 13,15 L13,9 C13,7.8954305 13.8954305,7 15,7 Z M15,8 C14.4477153,8 14,8.44771525 14,9 L14,15 C14,15.5522847 14.4477153,16 15,16 C15.5522847,16 16,15.5522847 16,15 L16,9 C16,8.44771525 15.5522847,8 15,8 Z"/>
</svg>
