<svg xmlns="http://www.w3.org/2000/svg" width="24" height="24" viewBox="0 0 24 24">
  <path d="M14.9975102,12.2112344 C15.6631026,12.5040898 16.186036,13.0810986 16.395207,13.8131972 L17.8349927,18.8524468 C19.7717519,17.201662 21,14.7442674 21,12 C21,7.02943725 16.9705627,3 12,3 C7.02943725,3 3,7.02943725 3,12 C3,14.7442674 4.22824815,17.201662 6.16500734,18.8524468 L7.60479296,13.8131972 C7.81396398,13.0810986 8.33689742,12.5040898 9.00248985,12.2112344 C9.02442859,10.9391344 9.19127247,9.6733573 9.5,8.43844719 L9.65112531,7.83394594 C9.92058096,6.75612335 10.8890059,6 12,6 C13.1109941,6 14.079419,6.75612335 14.3488747,7.83394594 L14.5,8.43844719 C14.8087275,9.6733573 14.9755714,10.9391344 14.9975102,12.2112344 L14.9975102,12.2112344 Z M13.9920596,12.0000001 C13.9565046,10.8808457 13.8016598,9.76819212 13.5298575,8.68098281 L13.3787322,8.07648156 C13.2205683,7.44382598 12.6521265,7 12,7 C11.3478735,7 10.7794317,7.44382598 10.6212678,8.07648156 L10.4701425,8.68098281 C10.1983402,9.76819212 10.0434954,10.8808457 10.0079404,12.0000001 L13.9913972,12 L13.9920596,12.0000001 Z M7.02053476,19.4981558 C8.44654774,20.4470546 10.1587002,21 12,21 C13.8412998,21 15.5534523,20.4470546 16.9794652,19.4981558 L15.4336831,14.0879183 C15.2496967,13.443966 14.6611177,13 13.9913972,13 L10.0086028,13 C9.33888229,13 8.75030329,13.443966 8.5663169,14.0879183 L7.02053476,19.4981558 L7.02053476,19.4981558 Z M12,22 C6.4771525,22 2,17.5228475 2,12 C2,6.4771525 6.4771525,2 12,2 C17.5228475,2 22,6.4771525 22,12 C22,17.5228475 17.5228475,22 12,22 Z"/>
</svg>
