<svg xmlns="http://www.w3.org/2000/svg" width="24" height="24" viewBox="0 0 24 24">
  <path d="M5.5,20 C6.32842712,20 7,19.3284271 7,18.5 L7,17 L5.5,17 C4.67157288,17 4,17.6715729 4,18.5 L4,20 L5.5,20 Z M6.29289322,16 L5.14644661,14.8535534 C4.95118446,14.6582912 4.95118446,14.3417088 5.14644661,14.1464466 C5.34170876,13.9511845 5.65829124,13.9511845 5.85355339,14.1464466 L9.85355339,18.1464466 C10.0488155,18.3417088 10.0488155,18.6582912 9.85355339,18.8535534 C9.65829124,19.0488155 9.34170876,19.0488155 9.14644661,18.8535534 L8,17.7071068 L8,18.5 C8,19.8807119 6.88071187,21 5.5,21 L3.5,21 C3.22385763,21 3,20.7761424 3,20.5 L3,18.5 C3,17.1192881 4.11928813,16 5.5,16 L6.29289322,16 L6.29289322,16 Z M3.85355339,20.8535534 C3.65829124,21.0488155 3.34170876,21.0488155 3.14644661,20.8535534 C2.95118446,20.6582912 2.95118446,20.3417088 3.14644661,20.1464466 L5.14644661,18.1464466 C5.34170876,17.9511845 5.65829124,17.9511845 5.85355339,18.1464466 C6.04881554,18.3417088 6.04881554,18.6582912 5.85355339,18.8535534 L3.85355339,20.8535534 Z M6.92399915,15.7649995 C6.77764399,15.9991677 6.4691688,16.0703543 6.23500053,15.9239992 C6.00083226,15.777644 5.92964568,15.4691688 6.07600085,15.2350005 L8.93950682,10.653391 C10.3857489,8.33940365 12.3826998,6.41972456 14.7519305,5.06587843 L17.3836874,3.56201737 C18.0282043,3.19372196 18.7576769,3 19.5,3 C20.3284271,3 21,3.67157288 21,4.5 C21,5.24232312 20.806278,5.97179565 20.4379826,6.61631261 L18.9341216,9.24806947 C17.5802754,11.6173002 15.6605964,13.6142511 13.346609,15.0604932 L8.76499947,17.9239992 C8.5308312,18.0703543 8.22235601,17.9991677 8.07600085,17.7649995 C7.92964568,17.5308312 8.00083226,17.222356 8.23500053,17.0760008 L12.8166101,14.2124949 C14.9905185,12.8538021 16.7939884,10.9777381 18.0658784,8.75193053 L19.5697395,6.12017367 C19.8516934,5.62675441 20,5.06829618 20,4.5 C20,4.22385763 19.7761424,4 19.5,4 C18.9317038,4 18.3732456,4.14830665 17.8798263,4.43026051 L15.2480695,5.93412157 C13.0222619,7.20601162 11.1461979,9.00948152 9.78750512,11.1833899 L6.92399915,15.7649995 Z"/>
</svg>
