<svg xmlns="http://www.w3.org/2000/svg" width="24" height="24" viewBox="0 0 24 24">
  <path d="M15.5,6.20710678 L4,17.7071068 L4,20 L6.29289322,20 L17.7928932,8.5 L15.5,6.20710678 Z M16.2071068,5.5 L18.5,7.79289322 L19.7928932,6.5 L17.5,4.20710678 L16.2071068,5.5 L16.2071068,5.5 Z M3,20.5 L3,17.5 C3,17.3673918 3.05267842,17.2402148 3.14644661,17.1464466 L17.1464466,3.14644661 C17.3417088,2.95118446 17.6582912,2.95118446 17.8535534,3.14644661 L20.8535534,6.14644661 C21.0488155,6.34170876 21.0488155,6.65829124 20.8535534,6.85355339 L6.85355339,20.8535534 C6.7597852,20.9473216 6.63260824,21 6.5,21 L3.5,21 C3.22385763,21 3,20.7761424 3,20.5 Z"/>
</svg>
