<svg xmlns="http://www.w3.org/2000/svg" width="24" height="24" viewBox="0 0 24 24">
  <path d="M15,13.2882043 C14.019085,13.6597122 12.9225683,13.5854627 12,13.0834826 C11.0774317,13.5854627 9.98091505,13.6597122 9,13.2882043 L9,20.4878829 C9.93833678,20.8195373 10.9480937,21 12,21 C13.0519063,21 14.0616632,20.8195373 15,20.4878829 L15,13.2882043 L15,13.2882043 Z M14.7984295,12.2896251 L12,7.49231743 L9.2015705,12.2896251 C10.0188195,12.6598417 10.9722325,12.5842531 11.7226499,12.0839749 C11.8905996,11.9720084 12.1094004,11.9720084 12.2773501,12.0839749 C13.0277675,12.5842531 13.9811805,12.6598417 14.7984295,12.2896251 L14.7984295,12.2896251 Z M16,12.5100587 L16,20.0644804 C18.963437,18.5917778 21,15.5337213 21,12 C21,7.02943725 16.9705627,3 12,3 C7.02943725,3 3,7.02943725 3,12 C3,15.5337213 5.03656304,18.5917778 8,20.0644804 L8,12.5100587 C7.99835392,12.4315526 8.01523002,12.351506 8.0527864,12.2763932 C8.05834022,12.2652856 8.0642517,12.254475 8.0704999,12.2439685 L11.5681105,6.24806449 C11.7610496,5.91731184 12.2389504,5.91731184 12.4318895,6.24806449 L15.9295001,12.2439685 C15.9357483,12.254475 15.9416598,12.2652856 15.9472136,12.2763932 C15.98477,12.351506 16.0016461,12.4315526 16,12.5100587 L16,12.5100587 Z M12,22 C6.4771525,22 2,17.5228475 2,12 C2,6.4771525 6.4771525,2 12,2 C17.5228475,2 22,6.4771525 22,12 C22,17.5228475 17.5228475,22 12,22 Z"/>
</svg>
