<svg xmlns="http://www.w3.org/2000/svg" width="24" height="24" viewBox="0 0 24 24">
  <path d="M18.0000316,11.0354489 L18.0000057,17.0000019 C18.0000015,18.1045716 17.1045697,19 16,19 C15.1070639,19 14.3181616,18.7603614 13.6483895,18.2805904 C13.3936762,18.0981342 13.0882218,18.0000201 12.7744978,18.00002 C12.5173225,18 12.3107499,18.1488891 12.2371708,18.3696264 C12.1262259,18.7024611 12.1927988,19.0267989 12.3989304,19.258697 L15.8737047,23.1678181 C16.0571637,23.3742095 16.0385733,23.6902457 15.8321819,23.8737047 C15.6257905,24.0571637 15.3097543,24.0385733 15.1262953,23.8321819 L12.0000027,20.3151027 L8.87371004,23.8321819 C8.69025103,24.0385733 8.37421484,24.0571637 8.16782346,23.8737047 C7.96143207,23.6902457 7.94284171,23.3742095 8.12630072,23.1678181 L11.3747933,19.5132639 C11.1581148,19.077036 11.1174997,18.5663622 11.2756584,18.0918861 C11.2856938,18.0617797 11.2964741,18.032168 11.3079724,18.0030677 C11.2889495,18.0010318 11.2697393,17.9999999 11.2504099,17.9999998 L11.225103,18.0000201 C10.9117835,18.0000201 10.6063292,18.0981342 10.3516159,18.2805904 C9.68184376,18.7603614 8.89294147,19 8.00000538,19 L6.50000538,19 C6.223863,19 6.00000538,18.7761424 6.00000538,18.5 L6.00000538,11.0354437 C4.30385568,11.2780562 3,12.7367622 3,14.5 L3,23.5 C3,23.7761424 2.77614237,24 2.5,24 C2.22385763,24 2,23.7761424 2,23.5 L2,14.5 C2,12.1837232 3.75002477,10.2761865 6,10.0274644 L6,2.49984144 C6,1.11912956 7.11928813,-0.000158563186 8.49999946,-0.000158563186 L15.5000782,-0.000166188695 C16.88079,-0.000160924357 18.0000739,1.11913147 18.0000686,2.49984361 L18.000036,10.0274684 C20.2499939,10.2762069 22,12.1837355 22,14.5 L22,23.5 C22,23.7761424 21.7761424,24 21.5,24 C21.2238576,24 21,23.7761424 21,23.5 L21,14.5 C21,12.736775 19.6961633,11.2780774 18.0000316,11.0354489 L18.0000316,11.0354489 Z M17.0000339,10.4941128 L17.0000686,2.49983953 C17.0000718,1.67141241 16.3285015,0.99983697 15.5000768,0.999833811 L8.5,0.999841437 C7.67157288,0.999841437 7,1.67141431 7,2.49984144 L7,10.4976562 L7.00000538,10.5 L7,18 L8.00000538,18 C8.68932711,18 9.27405432,17.822382 9.76928336,17.4676397 C10.1938078,17.1635445 10.7029011,17.0000201 11.2246985,17.0000203 L11.2500054,17 C11.5158245,17 11.7740296,17.0684359 12.0019011,17.1959213 C12.2263687,17.06929 12.4822792,17.0000001 12.7504045,17.0000002 C13.2971043,17.0000201 13.8061976,17.1635445 14.230722,17.4676397 C14.7259511,17.822382 15.3106783,18 16,18 C16.5522864,18 17.0000036,17.5522845 17.0000057,16.9999978 L17.0000339,10.5058827 L17,10.5 L17.0000339,10.4941128 L17.0000339,10.4941128 Z M10.5,3 C10.2238576,3 10,2.77614237 10,2.5 C10,2.22385763 10.2238576,2 10.5,2 L13.5,2 C13.7761424,2 14,2.22385763 14,2.5 C14,2.77614237 13.7761424,3 13.5,3 L10.5,3 Z"/>
</svg>
