<svg xmlns="http://www.w3.org/2000/svg" width="24" height="24" viewBox="0 0 24 24">
  <path d="M2,7.5 C2,6.67157288 2.67157288,6 3.5,6 L20.5000036,6 C21.3284307,6 22.0000036,6.67157288 22.0000036,7.5 L22.0000036,16.5113578 C22.0000036,17.3397849 21.3284307,18.0113578 20.5000036,18.0113578 L3.5,18.0113578 C2.67157288,18.0113578 2,17.3397849 2,16.5113578 L2,7.5 Z M3,7.5 L3,16.5113578 C3,16.7875001 3.22385763,17.0113578 3.5,17.0113578 L20.5000036,17.0113578 C20.776146,17.0113578 21.0000036,16.7875001 21.0000036,16.5113578 L21.0000036,7.5 C21.0000036,7.22385763 20.776146,7 20.5000036,7 L3.5,7 C3.22385763,7 3,7.22385763 3,7.5 Z M20,10.5 L20,13.5 C20,13.7761424 19.7761424,14 19.5,14 C19.2238576,14 19,13.7761424 19,13.5 L19,10.5 C19,10.2238576 19.2238576,10 19.5,10 C19.7761424,10 20,10.2238576 20,10.5 Z"/>
</svg>
