<svg xmlns="http://www.w3.org/2000/svg" width="24" height="24" viewBox="0 0 24 24">
  <path d="M16.0000028,10.0274647 C18.2499767,10.2761881 20,12.1837241 20,14.5 L20,23.5 C20,23.7761424 19.7761424,24 19.5,24 C19.2238576,24 19,23.7761424 19,23.5 L19,14.5 C19,12.7367649 17.6961483,11.2780607 16.0000025,11.0354448 L16.0000004,17.0000001 C16.0000001,18.1045697 15.1045695,19 14,19 C13.1070639,19 12.3181616,18.7603614 11.6483895,18.2805904 C11.3936762,18.0981342 11.0882218,18.0000201 10.7744978,18.00002 C10.5173225,18 10.3107499,18.1488891 10.2371708,18.3696264 C10.1262259,18.7024611 10.1927988,19.0267989 10.3989304,19.258697 L13.8737047,23.1678181 C14.0571637,23.3742095 14.0385733,23.6902457 13.8321819,23.8737047 C13.6257905,24.0571637 13.3097543,24.0385733 13.1262953,23.8321819 L10.5999236,20.9900137 C10.5676363,20.9965624 10.5342196,21 10.5,21 L6.5,21 C5.11928813,21 4,19.8807119 4,18.5 L4,2.49996197 C4,1.11925009 5.11928813,-3.80312054e-05 6.49999996,-3.80312054e-05 L13.5000061,-3.8628686e-05 C14.880718,-3.82162116e-05 16.0000058,1.11925024 16.0000054,2.49996214 L16.0000028,10.0274647 L16.0000028,10.0274647 Z M9.65152107,19.9230609 C9.20775136,19.4238199 9.06443026,18.7255704 9.27565835,18.0918861 C9.49818066,17.4243192 10.0868921,17 10.7504045,17.0000002 C11.2971043,17.0000201 11.8061976,17.1635445 12.230722,17.4676397 C12.7259511,17.822382 13.3106783,18 14,18 C14.5522849,18 15.0000003,17.5522847 15.0000004,16.9999998 L15.0000054,2.49996182 C15.0000056,1.67153469 14.328433,0.999961619 13.500006,0.999961371 L6.5,0.999961969 C5.67157288,0.999961969 5,1.67153484 5,2.49996197 L5,18.5 C5,19.3284271 5.67157288,20 6.5,20 L9.71991141,20 L9.65152107,19.9230609 Z M8.5,3 C8.22385763,3 8,2.77614237 8,2.5 C8,2.22385763 8.22385763,2 8.5,2 L11.5,2 C11.7761424,2 12,2.22385763 12,2.5 C12,2.77614237 11.7761424,3 11.5,3 L8.5,3 Z"/>
</svg>
