<svg xmlns="http://www.w3.org/2000/svg" width="24" height="24" viewBox="0 0 24 24">
  <path d="M7.5,2 L16.5113578,2 C17.3397849,2 18.0113578,2.67157288 18.0113578,3.5 L18.0113578,20.5000036 C18.0113578,21.3284307 17.3397849,22.0000036 16.5113578,22.0000036 L7.5,22.0000036 C6.67157288,22.0000036 6,21.3284307 6,20.5000036 L6,3.5 C6,2.67157288 6.67157288,2 7.5,2 Z M7.5,3 C7.22385763,3 7,3.22385763 7,3.5 L7,20.5000036 C7,20.776146 7.22385763,21.0000036 7.5,21.0000036 L16.5113578,21.0000036 C16.7875001,21.0000036 17.0113578,20.776146 17.0113578,20.5000036 L17.0113578,3.5 C17.0113578,3.22385763 16.7875001,3 16.5113578,3 L7.5,3 Z M10.5,20 C10.2238576,20 10,19.7761424 10,19.5 C10,19.2238576 10.2238576,19 10.5,19 L13.5,19 C13.7761424,19 14,19.2238576 14,19.5 C14,19.7761424 13.7761424,20 13.5,20 L10.5,20 Z"/>
</svg>
