<svg xmlns="http://www.w3.org/2000/svg" width="24" height="24" viewBox="0 0 24 24">
  <path d="M3.08600868,13.9658813 C1.90231209,13.7686189 1,12.7396826 1,11.5 L1,10.5 C1,10.2238576 1.22385763,10 1.5,10 C1.77614237,10 2,10.2238576 2,10.5 L2,11.5 C2,12.1555135 2.42048233,12.712818 3.00644016,12.9169068 C3.00214648,12.7799061 3,12.6409345 3,12.5 C3,8.98310528 6.61112745,6 12.5,6 C13.8841001,6 15.1092766,6.13286706 16.1760594,6.40065509 C16.6402456,4.99397914 17.9653135,4 19.5,4 C19.7761424,4 20,4.22385763 20,4.5 L20,8.63508295 C20.3375772,9.04428157 20.6164404,9.49966803 20.8362579,10 L22.5,10 C22.7761424,10 23,10.2238576 23,10.5 L23,14.5 C23,14.7761424 22.7761424,15 22.5,15 L20.954897,15 C20.7828847,15.9489632 20.120703,16.8623964 19,17.7462284 L19,21.5 C19,21.7761424 18.7761424,22 18.5,22 L15.5,22 C15.2238576,22 15,21.7761424 15,21.5 L15,20 L10,20 L10,21.5 C10,21.7761424 9.77614237,22 9.5,22 L6.5,22 C6.22385763,22 6,21.7761424 6,21.5 L6,18.7999366 C4.33696817,17.856727 3.3670278,16.23049 3.08600868,13.9658813 L3.08600868,13.9658813 Z M17.031813,7.09962337 C16.9836356,7.39939938 16.6815799,7.58739596 16.3913399,7.49824769 C15.3134154,7.16715939 14.0160242,7 12.5,7 C7.12571466,7 4,9.58211211 4,12.5 C4,15.3250259 4.91063808,17.146302 6.7236068,18.0527864 C6.89299881,18.1374824 7,18.310614 7,18.5 L7,21 L9,21 L9,19.5 C9,19.2238576 9.22385763,19 9.5,19 L15.5,19 C15.7761424,19 16,19.2238576 16,19.5 L16,21 L18,21 L18,17.5 C18,17.3426213 18.0740971,17.1944272 18.2,17.1 C19.419755,16.1851838 20,15.3148162 20,14.5 C20,14.2238576 20.2238576,14 20.5,14 L22,14 L22,11 L20.5,11 C20.2915777,11 20.1050174,10.8707136 20.0318354,10.6755617 C19.8144808,10.0959495 19.512593,9.58860545 19.1253859,9.15058459 C19.044594,9.05919019 19,8.94141333 19,8.8194286 L19,5.05021249 C17.9951704,5.25475923 17.1982812,6.06380033 17.031813,7.09962337 Z M10,4.5 C10,4.77614237 9.77614237,5 9.5,5 C9.22385763,5 9,4.77614237 9,4.5 C9,3.11928813 10.1192881,2 11.5,2 L11.5247823,2 C12.9055801,2 14.0249378,3.11935773 14.0249378,4.50015547 C14.0249378,4.77629784 13.8010802,5.00015547 13.5249378,5.00015547 C13.2487954,5.00015547 13.0249378,4.77629784 13.0249378,4.50015547 C13.0249378,3.67164248 12.3532953,3 11.5247823,3 L11.5,3 C10.6715729,3 10,3.67157288 10,4.5 Z M17,12 C16.4477153,12 16,11.5522847 16,11 C16,10.4477153 16.4477153,10 17,10 C17.5522847,10 18,10.4477153 18,11 C18,11.5522847 17.5522847,12 17,12 Z"/>
</svg>
