<svg xmlns="http://www.w3.org/2000/svg" width="24" height="24" viewBox="0 0 24 24">
  <path d="M5,17.7071068 L5,21.5 C5,21.7761424 4.77614237,22 4.5,22 C4.22385763,22 4,21.7761424 4,21.5 L4,17.7071068 L2.85355339,18.8535534 C2.65829124,19.0488155 2.34170876,19.0488155 2.14644661,18.8535534 C1.95118446,18.6582912 1.95118446,18.3417088 2.14644661,18.1464466 L4.14644661,16.1464466 C4.34170876,15.9511845 4.65829124,15.9511845 4.85355339,16.1464466 L6.85355339,18.1464466 C7.04881554,18.3417088 7.04881554,18.6582912 6.85355339,18.8535534 C6.65829124,19.0488155 6.34170876,19.0488155 6.14644661,18.8535534 L5,17.7071068 Z M5,12.2928932 L6.14644661,11.1464466 C6.34170876,10.9511845 6.65829124,10.9511845 6.85355339,11.1464466 C7.04881554,11.3417088 7.04881554,11.6582912 6.85355339,11.8535534 L4.85355339,13.8535534 C4.65829124,14.0488155 4.34170876,14.0488155 4.14644661,13.8535534 L2.14644661,11.8535534 C1.95118446,11.6582912 1.95118446,11.3417088 2.14644661,11.1464466 C2.34170876,10.9511845 2.65829124,10.9511845 2.85355339,11.1464466 L4,12.2928932 L4,8.5 C4,8.22385763 4.22385763,8 4.5,8 C4.77614237,8 5,8.22385763 5,8.5 L5,12.2928932 Z M10.1715729,8.08578644 L11.9728833,9.88709683 C12.2068723,10.1210859 12.3514215,10.4297043 12.3813807,10.7592559 C12.4521094,11.5372716 11.87874,12.2253149 11.1136785,12.2946956 L10.17209,12.4049185 C9.80595984,12.4382031 9.46308625,12.5987965 9.20312553,12.8587572 C9.01477721,13.0471055 8.95100003,13.3267124 9.03904525,13.578105 L9.0662572,13.6558023 C9.16927404,13.9499428 9.43427674,14.1570594 9.75563276,14.1871167 L16.6819496,14.9878682 C17.7952804,15.0915722 18.8969648,14.6940899 19.6876164,13.9034383 C21.4449757,12.146079 21.4449757,9.29683657 19.6979083,7.54947792 L17.1463229,5.14003158 C16.9510608,4.94476944 16.6344783,4.94476944 16.4392161,5.14003158 C16.243954,5.33529373 16.243954,5.65187622 16.4392161,5.84713836 C16.4687913,5.87671351 16.4938869,5.9090719 16.5145029,5.94337042 L16.5360692,5.96500225 C16.7310353,6.16056005 16.7305556,6.47714218 16.5349978,6.67210822 C16.3394399,6.86707425 16.0228578,6.86659453 15.8278918,6.67103672 L14.3175771,5.15613701 C14.1223149,4.96087487 13.8057324,4.96087487 13.6104703,5.15613701 C13.4152081,5.35139916 13.4152081,5.66798165 13.6104703,5.86324379 C13.6161301,5.86890366 13.621626,5.87466546 13.6269577,5.88052329 L15.1217682,7.37912809 C15.3167827,7.57463758 15.3163814,7.89121981 15.1208719,8.0862343 C14.9253624,8.28124878 14.6087802,8.2808475 14.4137657,8.08533801 L12.4868898,6.15357052 C12.2916277,5.95830838 11.9750452,5.95830838 11.779783,6.15357052 C11.5845209,6.34883267 11.5845209,6.66541516 11.779783,6.8606773 L12.4868898,7.56778409 C12.5044294,7.58532369 12.5203935,7.60384219 12.5347821,7.62316373 L13.7067147,8.7925016 C13.9021932,8.98754722 13.902544,9.30412952 13.7074984,9.49960795 C13.5124528,9.69508638 13.1958705,9.69543724 13.0003921,9.50039162 L7.85015213,4.3615544 C7.65488998,4.16629225 7.33830749,4.16629225 7.14304535,4.3615544 C6.9477832,4.55681654 6.9477832,4.87339903 7.14237791,5.067995 L10.1709054,8.08512026 Z M9.46479946,8.79322659 L6.43593857,5.77576796 C5.85015213,5.18998152 5.85015213,4.24023405 6.43593857,3.65444762 C7.021725,3.06866118 7.97147247,3.06866118 8.55686686,3.654056 L10.7758153,5.86809151 C10.8476249,5.71552433 10.9465785,5.57256145 11.0726762,5.44646374 C11.4680114,5.05112856 12.0291171,4.92259694 12.5323807,5.06100671 C12.602341,4.83711881 12.7260019,4.62639185 12.9033635,4.44903023 C13.4891499,3.86324379 14.4388974,3.86324379 15.0252192,4.44956638 L15.4332437,4.85882939 C15.5052122,4.70465702 15.6048341,4.56020009 15.7321093,4.4329248 C16.3178958,3.84713836 17.2676433,3.84713836 17.8431378,4.42292414 L20.3947231,6.83237048 C22.5426067,8.98025408 22.5426067,12.4626615 20.3947231,14.6105451 C19.3936674,15.6116009 17.9988083,16.1148592 16.5781629,15.9824058 L9.65184597,15.1816543 C8.95220648,15.1164846 8.35472919,14.6495178 8.12246657,13.9863462 L8.09525462,13.9086488 C7.88020519,13.2946255 8.03598021,12.611689 8.49601875,12.1516504 C8.92139756,11.7262716 9.48244832,11.4634895 10.0685999,11.4103733 L11.0101885,11.3001504 C11.2381876,11.2794232 11.4062147,11.0777907 11.3854875,10.8497916 C11.3767079,10.7532159 11.3343475,10.6627746 11.2657765,10.5942036 L9.46479946,8.79322659 Z"/>
</svg>
