<svg xmlns="http://www.w3.org/2000/svg" width="24" height="24" viewBox="0 0 24 24">
  <path d="M9,15.5 L9,12 L6.5,12 C6.22385763,12 6,11.7761424 6,11.5 C6,11.2238576 6.22385763,11 6.5,11 L9,11 L9,9 C9,6.790861 10.790861,5 13,5 L13.5,5 C15.4329966,5 17,6.56700338 17,8.5 C17,8.77614237 16.7761424,9 16.5,9 C16.2238576,9 16,8.77614237 16,8.5 C16,7.11928813 14.8807119,6 13.5,6 L13,6 C11.3431458,6 10,7.34314575 10,9 L10,11 L12.5,11 C12.7761424,11 13,11.2238576 13,11.5 C13,11.7761424 12.7761424,12 12.5,12 L10,12 L10,15 C10,16.6568542 11.3431458,18 13,18 L13.5,18 C14.8807119,18 16,16.8807119 16,15.5 C16,15.2238576 16.2238576,15 16.5,15 C16.7761424,15 17,15.2238576 17,15.5 C17,17.4329966 15.4329966,19 13.5,19 L13,19 C11.5680381,19 10.3118208,18.2475481 9.6051691,17.1164656 C9.02127271,18.2358174 7.84987856,19 6.5,19 C6.22385763,19 6,18.7761424 6,18.5 C6,18.2238576 6.22385763,18 6.5,18 C7.88071187,18 9,16.8807119 9,15.5 Z"/>
</svg>
