<svg xmlns="http://www.w3.org/2000/svg" width="24" height="24" viewBox="0 0 24 24">
  <path d="M10,13.5032816 C9.99998329,13.5009153 9.99998328,13.4985486 10,13.4961817 L10,10.5038184 C9.99998328,10.5014514 9.99998329,10.4990847 10,10.4967184 L10,9 C10,8.44771525 9.55228475,8 9,8 C8.44771525,8 8,8.44771525 8,9 L8,15 C8,15.5522847 8.44771525,16 9,16 C9.55228475,16 10,15.5522847 10,15 L10,13.5032829 L10,13.5032816 Z M11,9.43247919 L13.2275759,7.57616596 C14.2034127,6.76296857 15.6537116,6.89481392 16.4669089,7.87065078 C16.8113627,8.28399529 17,8.80502094 17,9.3430749 L17,14.6569251 C17,15.92718 15.9702549,16.9569251 14.7,16.9569251 C14.161946,16.9569251 13.6409204,16.7682878 13.2275759,16.423834 L11,14.5675208 L11,15 C11,16.1045695 10.1045695,17 9,17 C7.8954305,17 7,16.1045695 7,15 L7,9 C7,7.8954305 7.8954305,7 9,7 C10.1045695,7 11,7.8954305 11,9 L11,9.43247919 Z M11,10.7341875 L11,13.2658125 L13.8677603,15.6556128 C14.1013898,15.850304 14.3958825,15.9569251 14.7,15.9569251 C15.4179702,15.9569251 16,15.3748953 16,14.6569251 L16,9.3430749 C16,9.03895745 15.8933789,8.74446468 15.6986877,8.51083518 C15.2390544,7.95927522 14.4193202,7.88475393 13.8677603,8.34438724 L11,10.7341875 Z M12,22 C6.4771525,22 2,17.5228475 2,12 C2,6.4771525 6.4771525,2 12,2 C17.5228475,2 22,6.4771525 22,12 C22,17.5228475 17.5228475,22 12,22 Z M12,21 C16.9705627,21 21,16.9705627 21,12 C21,7.02943725 16.9705627,3 12,3 C7.02943725,3 3,7.02943725 3,12 C3,16.9705627 7.02943725,21 12,21 Z"/>
</svg>
