<svg xmlns="http://www.w3.org/2000/svg" width="24" height="24" viewBox="0 0 24 24">
  <path d="M10,8.34218127 L17.4235227,3.3047909 C18.1775764,2.79311159 19.2036557,2.98959487 19.715335,3.74364859 C19.9008324,4.01701312 20,4.33976636 20,4.67012593 L20,19.3298741 C20,20.2411439 19.2612698,20.9798741 18.35,20.9798741 C18.0196404,20.9798741 17.6968872,20.8807065 17.4235227,20.6952091 L10,15.6578187 L10,18.5 C10,19.8807119 8.88071187,21 7.5,21 L6.5,21 C5.11928813,21 4,19.8807119 4,18.5 L4,5.5 C4,4.11928813 5.11928813,3 6.5,3 L7.5,3 C8.88071187,3 10,4.11928813 10,5.5 L10,8.34218127 Z M10,14.4493241 L17.9850241,19.8677333 C18.0927131,19.940808 18.2198584,19.9798741 18.35,19.9798741 C18.7089851,19.9798741 19,19.6888592 19,19.3298741 L19,4.67012593 C19,4.53998428 18.960934,4.41283906 18.8878593,4.30515 C18.6862886,4.00809854 18.2820755,3.93069604 17.9850241,4.13226667 L10,9.55067587 L10,14.4493241 Z M7.5,4 L6.5,4 C5.67157288,4 5,4.67157288 5,5.5 L5,18.5 C5,19.3284271 5.67157288,20 6.5,20 L7.5,20 C8.32842712,20 9,19.3284271 9,18.5 L9,5.5 C9,4.67157288 8.32842712,4 7.5,4 Z"/>
</svg>
