<svg xmlns="http://www.w3.org/2000/svg" width="24" height="24" viewBox="0 0 24 24">
  <path d="M19.0000239,18.0156098 L19.0000239,20.5249378 C19.0000239,20.8010802 18.7761663,21.0249378 18.5000239,21.0249378 L5.5,21.0249378 C5.22385763,21.0249378 5,20.8010802 5,20.5249378 L5,18 L3.5,18 C2.67157288,18 2,17.3284271 2,16.5 L2,11.5 C2,10.1192881 3.11928813,9 4.5,9 L5,9 L5,3.5 C5,3.224045 5.22356527,3.00026507 5.49952014,3.00000023 L18.4995261,2.9875239 C18.7758558,2.9872587 19.000006,3.21119388 19.000006,3.48752367 L19.000006,9 L19.5,9 C20.8807119,9 22,10.1192881 22,11.5 L22,16.5156098 C22,17.3440369 21.3284271,18.0156098 20.5,18.0156098 L19.0000239,18.0156098 L19.0000239,18.0156098 Z M19.0000239,17.0156098 L20.5,17.0156098 C20.7761424,17.0156098 21,16.7917521 21,16.5156098 L21,11.5 C21,10.6715729 20.3284271,10 19.5,10 L19.000006,10 L19.000006,13.5124922 C19.000006,13.7886346 18.7761484,14.0124922 18.500006,14.0124922 L5.5,14.0124922 C5.22385763,14.0124922 5,13.7886346 5,13.5124922 L5,10 L4.5,10 C3.67157288,10 3,10.6715729 3,11.5 L3,16.5 C3,16.7761424 3.22385763,17 3.5,17 L5,17 L5,15.5 C5,15.2238576 5.22385763,15 5.5,15 L18.5000239,15 C18.7761663,15 19.0000239,15.2238576 19.0000239,15.5 L19.0000239,17.0156098 L19.0000239,17.0156098 Z M18.000006,9.49752384 L18.000006,3.98800376 L6,3.99952037 L6,13.0124922 L18.000006,13.0124922 L18.000006,9.50247616 L18,9.5 L18.000006,9.49752383 L18.000006,9.49752384 Z M8.5,7 C8.22385763,7 8,6.77614237 8,6.5 C8,6.22385763 8.22385763,6 8.5,6 L15.5,6 C15.7761424,6 16,6.22385763 16,6.5 C16,6.77614237 15.7761424,7 15.5,7 L8.5,7 Z M8.5,9 C8.22385763,9 8,8.77614237 8,8.5 C8,8.22385763 8.22385763,8 8.5,8 L15.5,8 C15.7761424,8 16,8.22385763 16,8.5 C16,8.77614237 15.7761424,9 15.5,9 L8.5,9 Z M8.5,11 C8.22385763,11 8,10.7761424 8,10.5 C8,10.2238576 8.22385763,10 8.5,10 L13.5,10 C13.7761424,10 14,10.2238576 14,10.5 C14,10.7761424 13.7761424,11 13.5,11 L8.5,11 Z M6,16 L6,20.0249378 L18.0000239,20.0249378 L18.0000239,16 L6,16 Z"/>
</svg>
