<svg xmlns="http://www.w3.org/2000/svg" width="24" height="24" viewBox="0 0 24 24">
  <path d="M6,4.5 C6,3.11928813 7.11928813,2 8.5,2 L15.5113578,2 C16.8920696,2 18.0113578,3.11928813 18.0113578,4.5 L18.0113578,19.5 C18.0113578,20.8807119 16.8920696,22 15.5113578,22 L8.5,22 C7.11928813,22 6,20.8807119 6,19.5 L6,4.5 Z M7,4.5 L7,19.5 C7,20.3284271 7.67157288,21 8.5,21 L15.5113578,21 C16.3397849,21 17.0113578,20.3284271 17.0113578,19.5 L17.0113578,4.5 C17.0113578,3.67157288 16.3397849,3 15.5113578,3 L8.5,3 C7.67157288,3 7,3.67157288 7,4.5 Z M11,19 C11,18.448 11.448,18 12,18 C12.552,18 13,18.448 13,19 C13,19.552 12.552,20 12,20 C11.448,20 11,19.552 11,19 Z M8,6.5 C8,6.22385763 8.22385763,6 8.5,6 L15.5,6 C15.7761424,6 16,6.22385763 16,6.5 L16,11.5 C16,11.7761424 15.7761424,12 15.5,12 L8.5,12 C8.22385763,12 8,11.7761424 8,11.5 L8,6.5 Z M9,7 L9,11 L15,11 L15,7 L9,7 Z M8.5,14 C8.22385763,14 8,13.7761424 8,13.5 C8,13.2238576 8.22385763,13 8.5,13 L15.5,13 C15.7761424,13 16,13.2238576 16,13.5 C16,13.7761424 15.7761424,14 15.5,14 L8.5,14 Z M8.5,16 C8.22385763,16 8,15.7761424 8,15.5 C8,15.2238576 8.22385763,15 8.5,15 L13.5,15 C13.7761424,15 14,15.2238576 14,15.5 C14,15.7761424 13.7761424,16 13.5,16 L8.5,16 Z"/>
</svg>
