<svg xmlns="http://www.w3.org/2000/svg" width="24" height="24" viewBox="0 0 24 24">
  <path d="M14.7439414,9 L15.5,9 C17.9852814,9 20,11.0147186 20,13.5 C20,15.9852814 17.9852814,18 15.5,18 C15.2238576,18 15,17.7761424 15,17.5 C15,17.2238576 15.2238576,17 15.5,17 C17.4329966,17 19,15.4329966 19,13.5 C19,11.5670034 17.4329966,10 15.5,10 L14.9725356,10 C14.9906833,10.1641669 15,10.3309955 15,10.5 C15,10.7761424 14.7761424,11 14.5,11 C14.2238576,11 14,10.7761424 14,10.5 C14,8.56700338 12.4329966,7 10.5,7 L10,7 C7.790861,7 6,8.790861 6,11 L6,11.5 C6,11.7761424 5.77614237,12 5.5,12 C4.11928813,12 3,13.1192881 3,14.5 C3,15.8807119 4.11928813,17 5.5,17 C5.77614237,17 6,17.2238576 6,17.5 C6,17.7761424 5.77614237,18 5.5,18 C3.56700338,18 2,16.4329966 2,14.5 C2,12.736764 3.30385293,11.2780593 5,11.0354444 C5,8.23857625 7.23857625,6 10,6 L10.5,6 C12.4593282,6 14.1261868,7.25221144 14.7439414,9 L14.7439414,9 Z M14.1096548,5.62689038 C14.0410039,5.89436312 13.7685219,6.05554005 13.5010491,5.98688914 C13.2335764,5.91823823 13.0723994,5.64575618 13.1410504,5.37828345 C13.6476997,3.40431271 15.4336437,2 17.5,2 C17.6807736,2 17.8603436,2.01068471 18.0380487,2.03188349 C18.4175582,2.0771559 18.60801,2.51420726 18.3827897,2.82299985 C18.1352439,3.16240235 18,3.57034112 18,4 C18,5.1045695 18.8954305,6 20,6 C20.4296589,6 20.8375976,5.86475615 21.1770002,5.6172103 C21.4857927,5.39199003 21.9228441,5.5824418 21.9681165,5.96195127 C21.9893153,6.13965636 22,6.31922636 22,6.5 C22,7.62000205 21.5886376,8.67734952 20.8577341,9.4959942 C20.673823,9.70198286 20.3577469,9.71988028 20.1517582,9.5359692 C19.9457695,9.35205812 19.9278721,9.03598194 20.1117832,8.82999328 C20.6072082,8.27509506 20.9134172,7.58074856 20.9841951,6.83471677 C20.6717556,6.94314818 20.3399804,7 20,7 C18.3431458,7 17,5.65685425 17,4 C17,3.66005642 17.0568395,3.32831625 17.165248,3.01590637 C15.7028531,3.15546559 14.475844,4.20017024 14.1096548,5.62689038 Z M8,17.5 C8,17.2238576 8.22385763,17 8.5,17 C8.77614237,17 9,17.2238576 9,17.5 L9,18.5 C9,18.7761424 8.77614237,19 8.5,19 C8.22385763,19 8,18.7761424 8,18.5 L8,17.5 Z M8,20.5 C8,20.2238576 8.22385763,20 8.5,20 C8.77614237,20 9,20.2238576 9,20.5 L9,21.5 C9,21.7761424 8.77614237,22 8.5,22 C8.22385763,22 8,21.7761424 8,21.5 L8,20.5 Z M10,16.5 C10,16.2238576 10.2238576,16 10.5,16 C10.7761424,16 11,16.2238576 11,16.5 L11,17.5 C11,17.7761424 10.7761424,18 10.5,18 C10.2238576,18 10,17.7761424 10,17.5 L10,16.5 Z M10,19.5 C10,19.2238576 10.2238576,19 10.5,19 C10.7761424,19 11,19.2238576 11,19.5 L11,20.5 C11,20.7761424 10.7761424,21 10.5,21 C10.2238576,21 10,20.7761424 10,20.5 L10,19.5 Z M12,17.5 C12,17.2238576 12.2238576,17 12.5,17 C12.7761424,17 13,17.2238576 13,17.5 L13,18.5 C13,18.7761424 12.7761424,19 12.5,19 C12.2238576,19 12,18.7761424 12,18.5 L12,17.5 Z M12,20.5 C12,20.2238576 12.2238576,20 12.5,20 C12.7761424,20 13,20.2238576 13,20.5 L13,21.5 C13,21.7761424 12.7761424,22 12.5,22 C12.2238576,22 12,21.7761424 12,21.5 L12,20.5 Z"/>
</svg>
