<svg xmlns="http://www.w3.org/2000/svg" width="24" height="24" viewBox="0 0 24 24">
  <path d="M21.5,18 C21.776,18 22,18.224 22,18.5 L22,19.5 C22,20.881 20.881,22 19.5,22 L7.5,22 C7.411,22 7.323,21.995 7.236,21.986 C7.159,21.995 7.08,22 7,22 C6.859,22 6.732,21.942 6.642,21.849 C5.684,21.499 5,20.579 5,19.5 L5,6 L2.5,6 C2.224,6 2,5.776 2,5.5 L2,4 C2,2.896 2.896,2 4,2 L16.534,2 C17.915,2 19.034,3.119 19.034,4.5 L19.034,18 L21.5,18 Z M21,19.5 L21,19 L9,19 L9,20 C9,20.364 8.902,20.706 8.732,21 L19.5,21 C20.329,21 21,20.328 21,19.5 Z M8,18.5 C8,18.224 8.224,18 8.5,18 L18.034,18 L18.034,4.5 C18.034,3.671 17.363,3 16.534,3 L5.723,3 C5.895,3.295 6,3.634 6,4 L6,19.5 C6,20.234 6.527,20.846 7.225,20.975 C7.668,20.873 8,20.475 8,20 L8,18.5 Z M5,5 L5,4 C5,3.448 4.552,3 4,3 C3.448,3 3,3.448 3,4 L3,5 L5,5 Z M9.5,8 C9.224,8 9,8.224 9,8.5 L9,9.5 C9,9.776 9.224,10 9.5,10 L14.5,10 C15.329,10 16,10.671 16,11.5 L16,12.5 C16,13.329 15.329,14 14.5,14 L14,14 L14,14.5 C14,14.776 13.776,15 13.5,15 C13.224,15 13,14.776 13,14.5 L13,14 L11,14 L11,14.5 C11,14.776 10.776,15 10.5,15 C10.224,15 10,14.776 10,14.5 L10,14 L9.5,14 C8.671,14 8,13.329 8,12.5 C8,12.224 8.224,12 8.5,12 C8.776,12 9,12.224 9,12.5 C9,12.776 9.224,13 9.5,13 L14.5,13 C14.776,13 15,12.776 15,12.5 L15,11.5 C15,11.224 14.776,11 14.5,11 L9.5,11 C8.671,11 8,10.329 8,9.5 L8,8.5 C8,7.671 8.671,7 9.5,7 L10,7 L10,6.5 C10,6.224 10.224,6 10.5,6 C10.776,6 11,6.224 11,6.5 L11,7 L13,7 L13,6.5 C13,6.224 13.224,6 13.5,6 C13.776,6 14,6.224 14,6.5 L14,7 L14.5,7 C15.329,7 16,7.671 16,8.5 C16,8.776 15.776,9 15.5,9 C15.224,9 15,8.776 15,8.5 C15,8.224 14.776,8 14.5,8 L9.5,8 Z"/>
</svg>
