<svg xmlns="http://www.w3.org/2000/svg" width="24" height="24" viewBox="0 0 24 24">
  <path d="M19,6.5 C19,6.22385763 19.2238576,6 19.5,6 C19.7761424,6 20,6.22385763 20,6.5 L20,11.5 C20,11.7761424 19.7761424,12 19.5,12 L14.5,12 C14.2238576,12 14,11.7761424 14,11.5 C14,11.2238576 14.2238576,11 14.5,11 L19,11 L19,6.5 Z M3.99999856,17.5011998 C3.99933591,17.7773414 3.77494175,18.0006612 3.49880017,17.9999986 C3.22265859,17.9993359 2.99933879,17.7749418 3.00000144,17.4988002 C3.00296665,16.2631224 3.00720729,15.617659 3.01371774,15.4990868 C3.27487662,10.7427037 7.21606293,7 12,7 L12.2830094,7 C15.3897811,7 18.2774135,8.60046343 19.9239992,11.2350005 C20.0703543,11.4691688 19.9991677,11.777644 19.7649995,11.9239992 C19.5308312,12.0703543 19.222356,11.9991677 19.0760008,11.7649995 C17.6121535,9.42284374 15.0449911,8 12.2830094,8 L12,8 C7.74775042,8 4.24430021,11.3270125 4.01221375,15.5539113 C4.00724935,15.6443258 4.00284617,16.3145297 3.99999856,17.5011998 Z"/>
</svg>
