<svg xmlns="http://www.w3.org/2000/svg" width="24" height="24" viewBox="0 0 24 24">
  <path d="M19,6.3422181 L19,3.5 C19,3.22385763 19.2238576,3 19.5,3 C19.7761424,3 20,3.22385763 20,3.5 L20,7.5 C20,7.77614237 19.7761424,8 19.5,8 L15.5,8 C15.2238576,8 15,7.77614237 15,7.5 C15,7.22385763 15.2238576,7 15.5,7 L18.2457493,7 C16.7460485,5.12713252 14.4694199,4 12,4 C7.581722,4 4,7.581722 4,12 C4,16.418278 7.581722,20 12,20 C16.2349934,20 19.7298815,16.6990708 19.9851052,12.4924824 C20.0018287,12.2168469 20.2388325,12.0069572 20.514468,12.0236806 C20.7901035,12.0404041 20.9999932,12.2774079 20.9832697,12.5530434 C20.6960701,17.2866561 16.7645343,21 12,21 C7.02943725,21 3,16.9705627 3,12 C3,7.02943725 7.02943725,3 12,3 C14.7632657,3 17.3130274,4.25541041 19,6.3422181 L19,6.3422181 Z"/>
</svg>
