<svg xmlns="http://www.w3.org/2000/svg" width="24" height="24" viewBox="0 0 24 24">
  <path d="M5,6.3422181 C6.68697264,4.25541041 9.23673432,3 12,3 C16.9705627,3 21,7.02943725 21,12 C21,16.9705627 16.9705627,21 12,21 C7.23546573,21 3.30392987,17.2866561 3.01673028,12.5530434 C3.00000681,12.2774079 3.2098965,12.0404041 3.48553201,12.0236806 C3.76116753,12.0069572 3.99817131,12.2168469 4.01489477,12.4924824 C4.27011855,16.6990708 7.76500658,20 12,20 C16.418278,20 20,16.418278 20,12 C20,7.581722 16.418278,4 12,4 C9.53058015,4 7.25395153,5.12713252 5.75425065,7 L8.5,7 C8.77614237,7 9,7.22385763 9,7.5 C9,7.77614237 8.77614237,8 8.5,8 L4.5,8 C4.22385763,8 4,7.77614237 4,7.5 L4,3.5 C4,3.22385763 4.22385763,3 4.5,3 C4.77614237,3 5,3.22385763 5,3.5 L5,6.3422181 Z"/>
</svg>
