<svg xmlns="http://www.w3.org/2000/svg" width="24" height="24" viewBox="0 0 24 24">
  <path d="M19.5,21 C20.3284271,21 21,20.3284271 21,19.5 L21,11.5 C21,10.6715729 20.3284271,10 19.5,10 L11.5,10 C10.6715729,10 10,10.6715729 10,11.5 L10,19.5 C10,20.3284271 10.6715729,21 11.5,21 L19.5,21 Z M5,20.2928932 L6.14644661,19.1464466 C6.34170876,18.9511845 6.65829124,18.9511845 6.85355339,19.1464466 C7.04881554,19.3417088 7.04881554,19.6582912 6.85355339,19.8535534 L4.85355339,21.8535534 C4.65829124,22.0488155 4.34170876,22.0488155 4.14644661,21.8535534 L2.14644661,19.8535534 C1.95118446,19.6582912 1.95118446,19.3417088 2.14644661,19.1464466 C2.34170876,18.9511845 2.65829124,18.9511845 2.85355339,19.1464466 L4,20.2928932 L4,7.5 C4,7.22385763 4.22385763,7 4.5,7 C4.77614237,7 5,7.22385763 5,7.5 L5,20.2928932 L5,20.2928932 Z M20.2928932,4 L19.1464466,2.85355339 C18.9511845,2.65829124 18.9511845,2.34170876 19.1464466,2.14644661 C19.3417088,1.95118446 19.6582912,1.95118446 19.8535534,2.14644661 L21.8535534,4.14644661 C22.0488155,4.34170876 22.0488155,4.65829124 21.8535534,4.85355339 L19.8535534,6.85355339 C19.6582912,7.04881554 19.3417088,7.04881554 19.1464466,6.85355339 C18.9511845,6.65829124 18.9511845,6.34170876 19.1464466,6.14644661 L20.2928932,5 L7.5,5 C7.22385763,5 7,4.77614237 7,4.5 C7,4.22385763 7.22385763,4 7.5,4 L20.2928932,4 Z M19.5,22 L11.5,22 C10.1192881,22 9,20.8807119 9,19.5 L9,11.5 C9,10.1192881 10.1192881,9 11.5,9 L19.5,9 C20.8807119,9 22,10.1192881 22,11.5 L22,19.5 C22,20.8807119 20.8807119,22 19.5,22 Z"/>
</svg>
