<svg xmlns="http://www.w3.org/2000/svg" width="24" height="24" viewBox="0 0 24 24">
  <path d="M9.29289322,8 L5.5,8 C4.67157288,8 4,8.67157288 4,9.5 L4,15.5 C4,16.3284271 4.67157288,17 5.5,17 L18.5,17 C19.3284271,17 20,16.3284271 20,15.5 L20,9.5 C20,8.67157288 19.3284271,8 18.5,8 L14.5,8 C14.2238576,8 14,7.77614237 14,7.5 C14,7.22385763 14.2238576,7 14.5,7 L18.5,7 C19.8807119,7 21,8.11928813 21,9.5 L21,15.5 C21,16.8807119 19.8807119,18 18.5,18 L5.5,18 C4.11928813,18 3,16.8807119 3,15.5 L3,9.5 C3,8.11928813 4.11928813,7 5.5,7 L9.29289322,7 L7.14644661,4.85355339 C6.95118446,4.65829124 6.95118446,4.34170876 7.14644661,4.14644661 C7.34170876,3.95118446 7.65829124,3.95118446 7.85355339,4.14644661 L10.8535534,7.14644661 C11.0488155,7.34170876 11.0488155,7.65829124 10.8535534,7.85355339 L7.85355339,10.8535534 C7.65829124,11.0488155 7.34170876,11.0488155 7.14644661,10.8535534 C6.95118446,10.6582912 6.95118446,10.3417088 7.14644661,10.1464466 L9.29289322,8 Z"/>
</svg>
