<svg xmlns="http://www.w3.org/2000/svg" width="24" height="24" viewBox="0 0 24 24">
  <path d="M14.7071068,4 L17.5,4 C18.8807119,4 20,5.11928813 20,6.5 L20,9.29289322 L21.1464466,8.14644661 C21.3417088,7.95118446 21.6582912,7.95118446 21.8535534,8.14644661 C22.0488155,8.34170876 22.0488155,8.65829124 21.8535534,8.85355339 L19.8535534,10.8535534 C19.6582912,11.0488155 19.3417088,11.0488155 19.1464466,10.8535534 L17.1464466,8.85355339 C16.9511845,8.65829124 16.9511845,8.34170876 17.1464466,8.14644661 C17.3417088,7.95118446 17.6582912,7.95118446 17.8535534,8.14644661 L19,9.29289322 L19,6.5 C19,5.67157288 18.3284271,5 17.5,5 L14.7071068,5 L15.8535534,6.14644661 C16.0488155,6.34170876 16.0488155,6.65829124 15.8535534,6.85355339 C15.6582912,7.04881554 15.3417088,7.04881554 15.1464466,6.85355339 L13.1464466,4.85355339 C12.9511845,4.65829124 12.9511845,4.34170876 13.1464466,4.14644661 L15.1464466,2.14644661 C15.3417088,1.95118446 15.6582912,1.95118446 15.8535534,2.14644661 C16.0488155,2.34170876 16.0488155,2.65829124 15.8535534,2.85355339 L14.7071068,4 Z M4.5,2 L9.5,2 C10.8807119,2 12,3.11928813 12,4.5 L12,15.5 C12,16.8807119 10.8807119,18 9.5,18 L4.5,18 C3.11928813,18 2,16.8807119 2,15.5 L2,4.5 C2,3.11928813 3.11928813,2 4.5,2 Z M4.5,3 C3.67157288,3 3,3.67157288 3,4.5 L3,15.5 C3,16.3284271 3.67157288,17 4.5,17 L9.5,17 C10.3284271,17 11,16.3284271 11,15.5 L11,4.5 C11,3.67157288 10.3284271,3 9.5,3 L4.5,3 Z M16.5,13 C16.2238576,13 16,12.7761424 16,12.5 C16,12.2238576 16.2238576,12 16.5,12 L17.5,12 C17.7761424,12 18,12.2238576 18,12.5 C18,12.7761424 17.7761424,13 17.5,13 L16.5,13 Z M13.5,13 C13.2238576,13 13,12.7761424 13,12.5 C13,12.2238576 13.2238576,12 13.5,12 L14.5,12 C14.7761424,12 15,12.2238576 15,12.5 C15,12.7761424 14.7761424,13 14.5,13 L13.5,13 Z M16.5,22 C16.2238576,22 16,21.7761424 16,21.5 C16,21.2238576 16.2238576,21 16.5,21 L17.5,21 C17.7761424,21 18,21.2238576 18,21.5 C18,21.7761424 17.7761424,22 17.5,22 L16.5,22 Z M13.5,22 C13.2238576,22 13,21.7761424 13,21.5 C13,21.2238576 13.2238576,21 13.5,21 L14.5,21 C14.7761424,21 15,21.2238576 15,21.5 C15,21.7761424 14.7761424,22 14.5,22 L13.5,22 Z M10.5,22 C10.2238576,22 10,21.7761424 10,21.5 C10,21.2238576 10.2238576,21 10.5,21 L11.5,21 C11.7761424,21 12,21.2238576 12,21.5 C12,21.7761424 11.7761424,22 11.5,22 L10.5,22 Z M19.5,13 C19.2238576,13 19,12.7761424 19,12.5 C19,12.2238576 19.2238576,12 19.5,12 C20.8807119,12 22,13.1192881 22,14.5 C22,14.7761424 21.7761424,15 21.5,15 C21.2238576,15 21,14.7761424 21,14.5 C21,13.6715729 20.3284271,13 19.5,13 Z M21,16.5 C21,16.2238576 21.2238576,16 21.5,16 C21.7761424,16 22,16.2238576 22,16.5 L22,17.5 C22,17.7761424 21.7761424,18 21.5,18 C21.2238576,18 21,17.7761424 21,17.5 L21,16.5 Z M21,19.5 C21,19.2238576 21.2238576,19 21.5,19 C21.7761424,19 22,19.2238576 22,19.5 C22,20.8807119 20.8807119,22 19.5,22 C19.2238576,22 19,21.7761424 19,21.5 C19,21.2238576 19.2238576,21 19.5,21 C20.3284271,21 21,20.3284271 21,19.5 Z M8.5,21 C8.77614237,21 9,21.2238576 9,21.5 C9,21.7761424 8.77614237,22 8.5,22 C7.11928813,22 6,20.8807119 6,19.5 C6,19.2238576 6.22385763,19 6.5,19 C6.77614237,19 7,19.2238576 7,19.5 C7,20.3284271 7.67157288,21 8.5,21 Z"/>
</svg>
