<svg xmlns="http://www.w3.org/2000/svg" width="24" height="24" viewBox="0 0 24 24">
  <path d="M17,5.754353 L17,8.5 C17,8.77614237 16.7761424,9 16.5,9 C16.2238576,9 16,8.77614237 16,8.5 L16,4.5 C16,4.22385763 16.2238576,4 16.5,4 L20.5,4 C20.7761424,4 21,4.22385763 21,4.5 C21,4.77614237 20.7761424,5 20.5,5 L17.6576517,5 C19.7464638,6.68868786 21,9.23851765 21,12 C21,16.9705627 16.9705627,21 12,21 C7.02943725,21 3,16.9705627 3,12 C3,7.22490011 6.72932071,3.28809828 11.4753442,3.01505252 C11.7510307,2.99919187 11.9873764,3.20982234 12.003237,3.48550885 C12.0190977,3.76119536 11.8084672,3.99754103 11.5327807,4.01340168 C7.31512304,4.25604977 4,7.75561002 4,12 C4,16.418278 7.581722,20 12,20 C16.418278,20 20,16.418278 20,12 C20,9.53220768 18.8746546,7.25566058 17,5.754353 Z"/>
</svg>
