<svg xmlns="http://www.w3.org/2000/svg" width="24" height="24" viewBox="0 0 24 24">
  <path d="M9,14 L16.5,14 C16.7761424,14 17,14.2238576 17,14.5 C17,14.7761424 16.7761424,15 16.5,15 L9,15 L9,18.5 C9,18.7761424 8.77614237,19 8.5,19 C8.22385763,19 8,18.7761424 8,18.5 L8,15 L6.5,15 C6.22385763,15 6,14.7761424 6,14.5 C6,14.2238576 6.22385763,14 6.5,14 L8,14 L8,12 L6.5,12 C6.22385763,12 6,11.7761424 6,11.5 C6,11.2238576 6.22385763,11 6.5,11 L8,11 L8,5.5 C8,5.22385763 8.22385763,5 8.5,5 L14.5,5 C16.4329966,5 18,6.56700338 18,8.5 C18,10.4329966 16.4329966,12 14.5,12 L9,12 L9,14 Z M9,11 L14.5,11 C15.8807119,11 17,9.88071187 17,8.5 C17,7.11928813 15.8807119,6 14.5,6 L9,6 L9,11 Z"/>
</svg>
