<svg xmlns="http://www.w3.org/2000/svg" width="24" height="24" viewBox="0 0 24 24">
  <path d="M14.9146471,20 L11.5,20 C11.2238576,20 11,19.7761424 11,19.5 C11,19.2238576 11.2238576,19 11.5,19 L15,19 L15,17 L12.5,17 C12.2238576,17 12,16.7761424 12,16.5 C12,16.2238576 12.2238576,16 12.5,16 L15,16 L15,14 L11.5,14 C11.2238576,14 11,13.7761424 11,13.5 C11,13.2238576 11.2238576,13 11.5,13 L15,13 L15,11 L12.5,11 C12.2238576,11 12,10.7761424 12,10.5 C12,10.2238576 12.2238576,10 12.5,10 L15,10 L15,8 L11.5,8 C11.2238576,8 11,7.77614237 11,7.5 C11,7.22385763 11.2238576,7 11.5,7 L15,7 L15,5 L12.5,5 C12.2238576,5 12,4.77614237 12,4.5 C12,4.22385763 12.2238576,4 12.5,4 L14.9146471,4 C14.7087289,3.41740381 14.1531094,3 13.5,3 L10.5,3 C9.67157288,3 9,3.67157288 9,4.5 L9,19.5 C9,20.3284271 9.67157288,21 10.5,21 L13.5,21 C14.1531094,21 14.7087289,20.5825962 14.9146471,20 L14.9146471,20 Z M13.5,2 C14.8807119,2 16,3.11928813 16,4.5 L16,19.5 C16,20.8807119 14.8807119,22 13.5,22 L10.5,22 C9.11928813,22 8,20.8807119 8,19.5 L8,4.5 C8,3.11928813 9.11928813,2 10.5,2 L13.5,2 Z"/>
</svg>
