<svg xmlns="http://www.w3.org/2000/svg" width="24" height="24" viewBox="0 0 24 24">
  <path d="M10,14 L19.5,14 C20.8807119,14 22,15.1192881 22,16.5 L22,19.5 C22,20.8807119 20.8807119,22 19.5,22 L4.5,22 C3.11928813,22 2,20.8807119 2,19.5 L2,4.5 C2,3.11928813 3.11928813,2 4.5,2 L7.5,2 C8.88071187,2 10,3.11928813 10,4.5 L10,14 Z M8.91464715,20 L5.5,20 C5.22385763,20 5,19.7761424 5,19.5 C5,19.2238576 5.22385763,19 5.5,19 L9,19 L9,17 L6.5,17 C6.22385763,17 6,16.7761424 6,16.5 C6,16.2238576 6.22385763,16 6.5,16 L9,16 L9,14 L5.5,14 C5.22385763,14 5,13.7761424 5,13.5 C5,13.2238576 5.22385763,13 5.5,13 L9,13 L9,11 L6.5,11 C6.22385763,11 6,10.7761424 6,10.5 C6,10.2238576 6.22385763,10 6.5,10 L9,10 L9,8 L5.5,8 C5.22385763,8 5,7.77614237 5,7.5 C5,7.22385763 5.22385763,7 5.5,7 L9,7 L9,5 L6.5,5 C6.22385763,5 6,4.77614237 6,4.5 C6,4.22385763 6.22385763,4 6.5,4 L8.91464715,4 C8.70872894,3.41740381 8.15310941,3 7.5,3 L4.5,3 C3.67157288,3 3,3.67157288 3,4.5 L3,19.5 C3,20.3284271 3.67157288,21 4.5,21 L7.5,21 C8.15310941,21 8.70872894,20.5825962 8.91464715,20 Z M10,15 L10,19.5 C10,20.062803 9.81402759,20.5821697 9.50018309,21 L19.5,21 C20.3284271,21 21,20.3284271 21,19.5 L21,16.5 C21,15.6715729 20.3284271,15 19.5,15 L10,15 Z M17,16 L19,16 C19.5522847,16 20,16.4477153 20,17 L20,19 C20,19.5522847 19.5522847,20 19,20 L17,20 C16.4477153,20 16,19.5522847 16,19 L16,17 C16,16.4477153 16.4477153,16 17,16 Z M17,17 L17,19 L19,19 L19,17 L17,17 Z"/>
</svg>
