<svg xmlns="http://www.w3.org/2000/svg" width="24" height="24" viewBox="0 0 24 24">
  <path d="M12,22 C6.4771525,22 2,17.5228475 2,12 C2,6.4771525 6.4771525,2 12,2 C17.5228475,2 22,6.4771525 22,12 C22,17.5228475 17.5228475,22 12,22 Z M12,21 C16.9705627,21 21,16.9705627 21,12 C21,7.02943725 16.9705627,3 12,3 C7.02943725,3 3,7.02943725 3,12 C3,16.9705627 7.02943725,21 12,21 Z M9,16.5 C9,16.7761424 8.77614237,17 8.5,17 C8.22385763,17 8,16.7761424 8,16.5 C8,14.5670034 9.56700338,13 11.5,13 L12.5177814,13 C14.4508073,13 16.0178344,14.5670271 16.0178344,16.500053 C16.0178344,16.7761954 15.7939768,17.000053 15.5178344,17.000053 C15.241692,17.000053 15.0178344,16.7761954 15.0178344,16.500053 C15.0178344,15.1193119 13.8985226,14 12.5177814,14 L11.5,14 C10.1192881,14 9,15.1192881 9,16.5 Z M9,11 C8.44771525,11 8,10.5522847 8,10 C8,9.44771525 8.44771525,9 9,9 C9.55228475,9 10,9.44771525 10,10 C10,10.5522847 9.55228475,11 9,11 Z M15,11 C14.4477153,11 14,10.5522847 14,10 C14,9.44771525 14.4477153,9 15,9 C15.5522847,9 16,9.44771525 16,10 C16,10.5522847 15.5522847,11 15,11 Z"/>
</svg>
