<svg xmlns="http://www.w3.org/2000/svg" width="24" height="24" viewBox="0 0 24 24">
  <path d="M13.7071068,11 L16.5,11 C16.7761424,11 17,11.2238576 17,11.5 C17,11.7761424 16.7761424,12 16.5,12 L12.5,12 C12.2238576,12 12,11.7761424 12,11.5 L12,7.5 C12,7.22385763 12.2238576,7 12.5,7 C12.7761424,7 13,7.22385763 13,7.5 L13,10.2928932 L17.1464466,6.14644661 C17.3417088,5.95118446 17.6582912,5.95118446 17.8535534,6.14644661 C18.0488155,6.34170876 18.0488155,6.65829124 17.8535534,6.85355339 L13.7071068,11 L13.7071068,11 Z M4.5,13 C4.77614237,13 5,13.2238576 5,13.5 C5,13.7761424 4.77614237,14 4.5,14 C4.22385763,14 4,14.2238576 4,14.5 C4,14.7761424 3.77614237,15 3.5,15 C3.22385763,15 3,14.7761424 3,14.5 C3,13.6715729 3.67157288,13 4.5,13 Z M9.5,14 C9.22385763,14 9,13.7761424 9,13.5 C9,13.2238576 9.22385763,13 9.5,13 C10.3284271,13 11,13.6715729 11,14.5 C11,14.7761424 10.7761424,15 10.5,15 C10.2238576,15 10,14.7761424 10,14.5 C10,14.2238576 9.77614237,14 9.5,14 Z M10,19.5 C10,19.2238576 10.2238576,19 10.5,19 C10.7761424,19 11,19.2238576 11,19.5 C11,20.3284271 10.3284271,21 9.5,21 C9.22385763,21 9,20.7761424 9,20.5 C9,20.2238576 9.22385763,20 9.5,20 C9.77614237,20 10,19.7761424 10,19.5 Z M3,19.5 C3,19.2238576 3.22385763,19 3.5,19 C3.77614237,19 4,19.2238576 4,19.5 C4,19.7761424 4.22385763,20 4.5,20 C4.77614237,20 5,20.2238576 5,20.5 C5,20.7761424 4.77614237,21 4.5,21 C3.67157288,21 3,20.3284271 3,19.5 Z M3,16.5 C3,16.2238576 3.22385763,16 3.5,16 C3.77614237,16 4,16.2238576 4,16.5 L4,17.5 C4,17.7761424 3.77614237,18 3.5,18 C3.22385763,18 3,17.7761424 3,17.5 L3,16.5 Z M11,17 L11,17.5 C11,17.7761424 10.7761424,18 10.5,18 C10.2238576,18 10,17.7761424 10,17.5 L10,16.5 C10,16.2238576 10.2238576,16 10.5,16 L18.5,16 C19.3284271,16 20,15.3284271 20,14.5 L20,5.5 C20,4.67157288 19.3284271,4 18.5,4 L9.5,4 C8.67157288,4 8,4.67157288 8,5.5 L8,13.5 C8,13.7761424 7.77614237,14 7.5,14 L6.5,14 C6.22385763,14 6,13.7761424 6,13.5 C6,13.2238576 6.22385763,13 6.5,13 L7,13 L7,5.5 C7,4.11928813 8.11928813,3 9.5,3 L18.5,3 C19.8807119,3 21,4.11928813 21,5.5 L21,14.5 C21,15.8807119 19.8807119,17 18.5,17 L11,17 Z M6.5,21 C6.22385763,21 6,20.7761424 6,20.5 C6,20.2238576 6.22385763,20 6.5,20 L7.5,20 C7.77614237,20 8,20.2238576 8,20.5 C8,20.7761424 7.77614237,21 7.5,21 L6.5,21 Z"/>
</svg>
