<svg xmlns="http://www.w3.org/2000/svg" width="24" height="24" viewBox="0 0 24 24">
  <path d="M17.2928932,11 L16.1464466,9.85355339 C15.9511845,9.65829124 15.9511845,9.34170876 16.1464466,9.14644661 C16.3417088,8.95118446 16.6582912,8.95118446 16.8535534,9.14644661 L18.8535534,11.1464466 C19.0488155,11.3417088 19.0488155,11.6582912 18.8535534,11.8535534 L16.8535534,13.8535534 C16.6582912,14.0488155 16.3417088,14.0488155 16.1464466,13.8535534 C15.9511845,13.6582912 15.9511845,13.3417088 16.1464466,13.1464466 L17.2928932,12 L6.5,12 C6.22385763,12 6,11.7761424 6,11.5 C6,11.2238576 6.22385763,11 6.5,11 L17.2928932,11 Z M10.0113578,17.5 C10.0113578,17.2238576 10.2352154,17 10.5113578,17 C10.7875001,17 11.0113578,17.2238576 11.0113578,17.5 C11.0113578,18.8807119 9.89206965,20 8.51135777,20 L4.5,20 C3.11928813,20 2,18.8807119 2,17.5 L2,7.5 C2,6.11928813 3.11928813,5 4.5,5 L8.51135777,5 C9.89206965,5 11.0113578,6.11928813 11.0113578,7.5 C11.0113578,7.77614237 10.7875001,8 10.5113578,8 C10.2352154,8 10.0113578,7.77614237 10.0113578,7.5 C10.0113578,6.67157288 9.3397849,6 8.51135777,6 L4.5,6 C3.67157288,6 3,6.67157288 3,7.5 L3,17.5 C3,18.3284271 3.67157288,19 4.5,19 L8.51135777,19 C9.3397849,19 10.0113578,18.3284271 10.0113578,17.5 Z M5.5,18 C5.22385763,18 5,17.7761424 5,17.5 C5,17.2238576 5.22385763,17 5.5,17 L7.5,17 C7.77614237,17 8,17.2238576 8,17.5 C8,17.7761424 7.77614237,18 7.5,18 L5.5,18 Z M14,7.5 C14,7.77614237 13.7761424,8 13.5,8 C13.2238576,8 13,7.77614237 13,7.5 C13,6.11928813 14.1192881,5 15.5,5 L19.5113578,5 C20.8920696,5 22.0113578,6.11928813 22.0113578,7.5 L22.0113578,17.5 C22.0113578,18.8807119 20.8920696,20 19.5113578,20 L15.5,20 C14.1192881,20 13,18.8807119 13,17.5 C13,17.2238576 13.2238576,17 13.5,17 C13.7761424,17 14,17.2238576 14,17.5 C14,18.3284271 14.6715729,19 15.5,19 L19.5113578,19 C20.3397849,19 21.0113578,18.3284271 21.0113578,17.5 L21.0113578,7.5 C21.0113578,6.67157288 20.3397849,6 19.5113578,6 L15.5,6 C14.6715729,6 14,6.67157288 14,7.5 Z M16.5,18 C16.2238576,18 16,17.7761424 16,17.5 C16,17.2238576 16.2238576,17 16.5,17 L18.5,17 C18.7761424,17 19,17.2238576 19,17.5 C19,17.7761424 18.7761424,18 18.5,18 L16.5,18 Z"/>
</svg>
