<svg xmlns="http://www.w3.org/2000/svg" width="24" height="24" viewBox="0 0 24 24">
  <path d="M18,18 L18,4.5 C18,3.67157288 17.3284271,3 16.5,3 L5.73243561,3 C5.90260571,3.29417337 6,3.63571286 6,4 L6,20 C6,20.5522847 6.44771525,21 7,21 C7.55228475,21 8,20.5522847 8,20 L8,18.5 C8,18.2238576 8.22385763,18 8.5,18 L18,18 Z M19,18 L21.5,18 C21.7761424,18 22,18.2238576 22,18.5 L22,19.5 C22,20.8807119 20.8807119,22 19.5,22 L7,22 C5.8954305,22 5,21.1045695 5,20 L5,6 L4,6 C2.8954305,6 2,5.1045695 2,4 C2,2.8954305 2.8954305,2 4,2 L16.5,2 C17.8807119,2 19,3.11928813 19,4.5 L19,18 Z M9,19 L9,20 C9,20.3642871 8.90260571,20.7058266 8.73243561,21 L19.5,21 C20.3284271,21 21,20.3284271 21,19.5 L21,19 L9,19 Z M5,5 L5,4 C5,3.44771525 4.55228475,3 4,3 C3.44771525,3 3,3.44771525 3,4 C3,4.55228475 3.44771525,5 4,5 L5,5 Z M8.5,7 C8.22385763,7 8,6.77614237 8,6.5 C8,6.22385763 8.22385763,6 8.5,6 L15.5,6 C15.7761424,6 16,6.22385763 16,6.5 C16,6.77614237 15.7761424,7 15.5,7 L8.5,7 Z M8.5,10 C8.22385763,10 8,9.77614237 8,9.5 C8,9.22385763 8.22385763,9 8.5,9 L15.5,9 C15.7761424,9 16,9.22385763 16,9.5 C16,9.77614237 15.7761424,10 15.5,10 L8.5,10 Z M8.5,13 C8.22385763,13 8,12.7761424 8,12.5 C8,12.2238576 8.22385763,12 8.5,12 L15.5,12 C15.7761424,12 16,12.2238576 16,12.5 C16,12.7761424 15.7761424,13 15.5,13 L8.5,13 Z M8.5,16 C8.22385763,16 8,15.7761424 8,15.5 C8,15.2238576 8.22385763,15 8.5,15 L13.5,15 C13.7761424,15 14,15.2238576 14,15.5 C14,15.7761424 13.7761424,16 13.5,16 L8.5,16 Z"/>
</svg>
