<svg xmlns="http://www.w3.org/2000/svg" width="24" height="24" viewBox="0 0 24 24">
  <path d="M9.29289322,7 L3.70710678,7 L4.85355339,8.14644661 C5.04881554,8.34170876 5.04881554,8.65829124 4.85355339,8.85355339 C4.65829124,9.04881554 4.34170876,9.04881554 4.14644661,8.85355339 L2.14644661,6.85355339 C1.95118446,6.65829124 1.95118446,6.34170876 2.14644661,6.14644661 L4.14644661,4.14644661 C4.34170876,3.95118446 4.65829124,3.95118446 4.85355339,4.14644661 C5.04881554,4.34170876 5.04881554,4.65829124 4.85355339,4.85355339 L3.70710678,6 L9.29289322,6 L8.14644661,4.85355339 C7.95118446,4.65829124 7.95118446,4.34170876 8.14644661,4.14644661 C8.34170876,3.95118446 8.65829124,3.95118446 8.85355339,4.14644661 L10.8535534,6.14644661 C11.0488155,6.34170876 11.0488155,6.65829124 10.8535534,6.85355339 L8.85355339,8.85355339 C8.65829124,9.04881554 8.34170876,9.04881554 8.14644661,8.85355339 C7.95118446,8.65829124 7.95118446,8.34170876 8.14644661,8.14644661 L9.29289322,7 Z M14,9.5 L14,12.0474376 C14,12.3783481 13.8839855,12.698786 13.6721417,12.9529985 C13.1720143,13.5531514 12.2800608,13.6342381 11.6799078,13.1341106 L10.7560738,12.3642489 C10.4736449,12.1288916 10.11764,12 9.75,12 C9.48363526,12 9.24082605,12.1526146 9.12532205,12.3926334 L9.08962348,12.4668155 C8.95447865,12.7476481 8.99541029,13.0814869 9.19439734,13.321352 L13.607865,18.6414804 C14.3217788,19.502054 15.3818498,20 16.5,20 C18.9852814,20 21,17.9852814 21,15.5 L21,11.5 C21,11.2238576 20.7761424,11 20.5,11 C20.2238576,11 20,11.2238576 20,11.5 L20,12.5 C20,12.7761424 19.7761424,13 19.5,13 C19.2238576,13 19,12.7761424 19,12.5 L19,10.5 C19,10.2238576 18.7761424,10 18.5,10 C18.2238576,10 18,10.2238576 18,10.5 L18,12.5 C18,12.7761424 17.7761424,13 17.5,13 C17.2238576,13 17,12.7761424 17,12.5 L17,4.5 C17,4.22385763 16.7761424,4 16.5,4 C16.2238576,4 16,4.22385763 16,4.5 L16,5.5 L16,12.5 C16,12.7761424 15.7761424,13 15.5,13 C15.2238576,13 15,12.7761424 15,12.5 L15,5.5 C15,5.22385763 14.7761424,5 14.5,5 C14.2238576,5 14,5.22385763 14,5.5 L14,9.5 Z M13,9.49999945 L13,5.5 C13,4.67157288 13.6715729,4 14.5,4 C14.6951239,4 14.8815459,4.03725677 15.0525405,4.10504462 C15.2258938,3.46823386 15.808266,3 16.5,3 C17.3284271,3 18,3.67157288 18,4.5 L18,9.08535285 C18.1563895,9.03007711 18.3246823,9 18.5,9 C19.191734,9 19.7741062,9.46823386 19.9474595,10.1050446 C20.1184541,10.0372568 20.3048761,10 20.5,10 C21.3284271,10 22,10.6715729 22,11.5 L22,15.5 C22,18.5375661 19.5375661,21 16.5,21 C15.0842933,21 13.7421216,20.3695431 12.8382246,19.279958 L8.42475695,13.9598296 C7.97611908,13.4190278 7.88383427,12.6663521 8.18853292,12.0331845 L8.2242315,11.9590024 C8.50634865,11.3727595 9.09940726,11 9.75,11 C10.3515765,11 10.9341143,11.2109078 11.3962582,11.5960277 L12.3200922,12.3658894 C12.4959683,12.5124527 12.7573571,12.4886901 12.9039205,12.3128141 C12.9660017,12.2383166 13,12.1444116 13,12.0474376 L13,9.5 Z"/>
</svg>
