<svg xmlns="http://www.w3.org/2000/svg" width="24" height="24" viewBox="0 0 24 24">
  <path d="M16,10 L16,11.5 C16,11.7761424 15.7761424,12 15.5,12 C15.2238576,12 15,11.7761424 15,11.5 L15,9.5 C15,9.22385763 14.7761424,9 14.5,9 C14.2238576,9 14,9.22385763 14,9.5 L14,11.5 C14,11.7761424 13.7761424,12 13.5,12 C13.2238576,12 13,11.7761424 13,11.5 L13,9.5 C13,9.22385763 12.7761424,9 12.5,9 C12.2238576,9 12,9.22385763 12,9.5 L12,11.5 C12,11.7761424 11.7761424,12 11.5,12 C11.2238576,12 11,11.7761424 11,11.5 L11,9.5 C11,9.22385763 10.7761424,9 10.5,9 C10.2238576,9 10,9.22385763 10,9.5 L10,11.0474376 C10,11.3783481 9.88398549,11.698786 9.67214174,11.9529985 C9.17201428,12.5531514 8.28006076,12.6342381 7.6799078,12.1341106 L6.75607376,11.3642489 C6.4736449,11.1288916 6.11763998,11 5.75,11 C5.48363526,11 5.24082605,11.1526146 5.12532205,11.3926334 L5.08962348,11.4668155 C4.95447865,11.7476481 4.99541029,12.0814869 5.19439734,12.321352 L9.60786496,17.6414804 C10.3217788,18.502054 11.3818498,19 12.5,19 C14.9852814,19 17,16.9852814 17,14.5 L17,5.5 C17,5.22385763 16.7761424,5 16.5,5 C16.2238576,5 16,5.22385763 16,5.5 L16,10 Z M15,8.08535285 L15,5.5 C15,4.67157288 15.6715729,4 16.5,4 C17.3284271,4 18,4.67157288 18,5.5 L18,14.5 C18,17.5375661 15.5375661,20 12.5,20 C11.0842933,20 9.7421216,19.3695431 8.83822457,18.279958 L4.42475695,12.9598296 C3.97611908,12.4190278 3.88383427,11.6663521 4.18853292,11.0331845 L4.2242315,10.9590024 C4.50634865,10.3727595 5.09940726,10 5.75,10 C6.35157648,10 6.9341143,10.2109078 7.39625816,10.5960277 L8.3200922,11.3658894 C8.49596826,11.5124527 8.75735708,11.4886901 8.90392046,11.3128141 C8.96600171,11.2383166 9,11.1444116 9,11.0474376 L9,9.5 C9,8.67157288 9.67157288,8 10.5,8 C10.8841772,8 11.2346218,8.14442678 11.5,8.38194675 C11.7653782,8.14442678 12.1158228,8 12.5,8 C12.8841772,8 13.2346218,8.14442678 13.5,8.38194675 C13.7653782,8.14442678 14.1158228,8 14.5,8 C14.6753177,8 14.8436105,8.03007711 15,8.08535285 Z"/>
</svg>
