<svg xmlns="http://www.w3.org/2000/svg" width="24" height="24" viewBox="0 0 24 24">
  <path d="M3.29233466,17.1817798 C3.30008506,17.1645523 3.30889001,17.1475846 3.31877006,17.1309573 L11.570159,3.24458519 C11.7635903,2.91905717 12.2346143,2.91832976 12.4290501,3.2432588 L20.8065732,17.2432588 C20.8472492,17.3112339 20.8699081,17.3849761 20.8759459,17.4589301 C20.9575488,17.632105 21,17.812657 21,18 C21,19.8207136 16.9904264,21 12,21 C7.00957361,21 3,19.8207136 3,18 C3,17.7102984 3.1015118,17.4368361 3.29233466,17.1817798 L3.29233466,17.1817798 Z M5.16711097,15.9779597 C6.8144535,15.3556837 9.25930962,15 12,15 C14.7777327,15 17.2515803,15.3653633 18.8992457,16.003337 L12.0015076,4.47626268 L5.16711097,15.9779597 L5.16711097,15.9779597 Z M4.06895414,17.770451 C4.02347674,17.847327 4,17.92405 4,18 C4,18.9407101 7.60158565,20 12,20 C16.3984144,20 20,18.9407101 20,18 C20,17.0592899 16.3984144,16 12,16 C8.21169875,16 5.01449852,16.7857992 4.20040891,17.6048354 L4.17845203,17.6417869 C4.14862277,17.691987 4.11138232,17.7350636 4.06895414,17.770451 L4.06895414,17.770451 Z"/>
</svg>
