<svg xmlns="http://www.w3.org/2000/svg" width="24" height="24" viewBox="0 0 24 24">
  <path d="M17.7453945,16 C18.5566157,14.8374816 19,13.4529946 19,12 C19,10.5470451 18.5566474,9.16257242 17.745393,8 L17,8 C16.4477153,8 16,7.55228475 16,7 L16,6.25462001 C14.8368959,5.44304376 13.4525661,5 12,5 C10.5505638,5 9.16848536,5.44094457 8.00483409,6.25126678 L8,6.25459196 L8,7 C8,7.55228475 7.55228475,8 7,8 L6.25462926,8 C5.44257997,9.1639174 5,10.5480241 5,12 C5,13.4524464 5.4429492,14.8367315 6.25462327,16 L7,16 C7.55228475,16 8,16.4477153 8,17 L8,17.7453877 C9.1627716,18.5567636 10.547191,19 12,19 C13.4529309,19 14.8373949,18.5566665 16,17.7453921 L16,17 C16,16.4477153 16.4477153,16 17,16 L17.7453945,16 L17.7453945,16 Z M18.7339692,16.3208104 C18.8990824,16.499155 19,16.7377922 19,17 L19,18 C19,18.5522847 18.5522847,19 18,19 L17,19 C16.7377912,19 16.4991532,18.8990816 16.3208083,18.7339673 C15.0456397,19.5540256 13.5561581,20 12,20 C10.4439719,20 8.9545212,19.5541178 7.67919558,18.7339637 C7.50085029,18.8990802 7.26221069,19 7,19 L6,19 C5.44771525,19 5,18.5522847 5,18 L5,17 C5,16.737784 5.1009239,16.4991401 5.26604628,16.3207937 C4.44560973,15.0449994 4,13.555642 4,12 C4,10.4448578 4.44525943,8.95562479 5.26605741,7.67921836 C5.10092844,7.5008706 5,7.26222185 5,7 L5,6 C5,5.44771525 5.44771525,5 6,5 L7,5 C7.26222711,5 7.50088017,5.10093248 7.67922908,5.26606733 C8.95633316,4.44486767 10.4454215,4 12,4 C13.5557694,4 15.0451578,4.44569946 16.3207971,5.26604312 C16.4991432,5.10092261 16.7377857,5 17,5 L18,5 C18.5522847,5 19,5.44771525 19,6 L19,7 C19,7.2622084 18.8990819,7.50084613 18.733968,7.67919092 C19.5540074,8.95432864 20,10.4438163 20,12 C20,13.556226 19.5539774,15.0457237 18.7339692,16.3208104 L18.7339692,16.3208104 Z M6,6 L6,7 L7,7 L7,6 L6,6 Z M17,6 L17,7 L18,7 L18,6 L17,6 Z M6,17 L6,18 L7,18 L7,17 L6,17 Z M17,17 L17,18 L18,18 L18,17 L17,17 Z"/>
</svg>
