<svg xmlns="http://www.w3.org/2000/svg" width="24" height="24" viewBox="0 0 24 24">
  <path d="M18,20 L6,20 C6,20.5522847 5.55228475,21 5,21 L4,21 C3.44771525,21 3,20.5522847 3,20 L3,19 C3,18.4477153 3.44771525,18 4,18 L4,6 C3.44771525,6 3,5.55228475 3,5 L3,4 C3,3.44771525 3.44771525,3 4,3 L5,3 C5.55228475,3 6,3.44771525 6,4 L18,4 C18,3.44771525 18.4477153,3 19,3 L20,3 C20.5522847,3 21,3.44771525 21,4 L21,5 C21,5.55228475 20.5522847,6 20,6 L20,18 C20.5522847,18 21,18.4477153 21,19 L21,20 C21,20.5522847 20.5522847,21 20,21 L19,21 C18.4477153,21 18,20.5522847 18,20 L18,20 Z M18,19 C18,18.4477153 18.4477153,18 19,18 L19,6 C18.4477153,6 18,5.55228475 18,5 L6,5 C6,5.55228475 5.55228475,6 5,6 L5,18 C5.55228475,18 6,18.4477153 6,19 L18,19 L18,19 Z M4,4 L4,5 L5,5 L5,4 L4,4 Z M4,19 L4,20 L5,20 L5,19 L4,19 Z M19,4 L19,5 L20,5 L20,4 L19,4 Z M19,19 L19,20 L20,20 L20,19 L19,19 Z"/>
</svg>
