<svg xmlns="http://www.w3.org/2000/svg" width="24" height="24" viewBox="0 0 24 24">
  <path d="M6.58900253,18.0753965 C6.5573092,17.8852365 6.54138127,17.692783 6.54138127,17.5 C6.54138127,15.5670034 8.10838464,14 10.0413813,14 L12.5,14 C12.7761424,14 13,14.2238576 13,14.5 L13,17.7267988 C13,17.8027316 13.0270017,17.8761901 13.0761794,17.9340463 C13.190639,18.0687047 13.3925891,18.085079 13.5272475,17.9706194 L20.5626572,11.9905211 C20.6161112,11.9450852 20.6657995,11.8953969 20.7112354,11.8419429 C21.1762277,11.2948932 21.1097069,10.4744711 20.5626572,10.0094789 L13.5272475,4.02938061 C13.4693913,3.98020285 13.3959328,3.95320119 13.32,3.95320119 C13.1432689,3.95320119 13,4.09647007 13,4.27320119 L13,7.5 C13,7.77614237 12.7761424,8 12.5,8 L9.5,8 C5.91014913,8 3,10.9101491 3,14.5 C3,17.3494045 4.26637093,19.0973664 6.88288761,19.8387069 L6.58900253,18.0753965 Z M10.0413813,15 C8.66066939,15 7.54138127,16.1192881 7.54138127,17.5 C7.54138127,17.6377022 7.55275836,17.7751689 7.57539646,17.9109975 L7.99319696,20.4178005 C8.0506764,20.7626772 7.74549866,21.0585465 7.40256734,20.990415 C3.83673227,20.2819767 2,18.0778979 2,14.5 C2,10.3578644 5.35786438,7 9.5,7 L12,7 L12,4.27320119 C12,3.54418532 12.5909841,2.95320119 13.32,2.95320119 C13.6332228,2.95320119 13.9362392,3.06458305 14.1748959,3.26744129 L21.2103057,9.24753957 C22.1781628,10.0702182 22.2958533,11.5217342 21.4731747,12.4895914 C21.3927882,12.5841638 21.3048781,12.6720739 21.2103057,12.7524604 L14.1748959,18.7325587 C13.6194301,19.2047047 12.7863861,19.1371606 12.3142401,18.5816947 C12.1113819,18.343038 12,18.0400216 12,17.7267988 L12,15 L10.0413813,15 Z"/>
</svg>
