<svg xmlns="http://www.w3.org/2000/svg" width="24" height="24" viewBox="0 0 24 24">
  <path d="M18.5078,20 C19.3358,20 20.0078,19.328 20.0078,18.5 L20.0078,6.719 C19.7108,6.893 19.3688,7 18.9998,7 L4.9998,7 C4.6338,7 4.2948,6.895 3.9998,6.723 L3.9998,18.5 C3.9998,19.328 4.6718,20 5.4998,20 L18.5078,20 Z M4.9998,4 C4.4468,4 3.9998,4.448 3.9998,5 C3.9998,5.552 4.4468,6 4.9998,6 L18.9998,6 C19.5528,6 19.9998,5.552 19.9998,5 C19.9998,4.448 19.5528,4 18.9998,4 L4.9998,4 Z M20.9908,4.912 C20.9958,4.939 21.0078,4.964 21.0078,4.992 L21.0078,18.5 C21.0078,19.881 19.8878,21 18.5078,21 L5.4998,21 C4.1188,21 2.9998,19.881 2.9998,18.5 L2.9998,5 C2.9998,3.896 3.8958,3 4.9998,3 L18.9998,3 C20.0738,3 20.9448,3.849 20.9908,4.912 Z M16.5,8 C16.776,8 17,8.224 17,8.5 C17,8.776 16.776,9 16.5,9 L16,9 C16,11.209 14.209,13 12,13 C9.791,13 8,11.209 8,9 L7.5,9 C7.224,9 7,8.776 7,8.5 C7,8.224 7.224,8 7.5,8 L9.5,8 C9.776,8 10,8.224 10,8.5 C10,8.776 9.776,9 9.5,9 L9,9 C9,10.657 10.343,12 12,12 C13.657,12 15,10.657 15,9 L14.5,9 C14.224,9 14,8.776 14,8.5 C14,8.224 14.224,8 14.5,8 L16.5,8 Z"/>
</svg>
