<svg xmlns="http://www.w3.org/2000/svg" width="24" height="24" viewBox="0 0 24 24">
  <path d="M9,7 L7.5,7 C6.67157288,7 6,7.67157288 6,8.5 L6,19.5 C6,20.3284271 6.67157288,21 7.5,21 L16.5,21 C17.3284271,21 18,20.3284271 18,19.5 L18,8.5 C18,7.67157288 17.3284271,7 16.5,7 L15,7 L15,9.5 C15,9.77614237 14.7761424,10 14.5,10 C14.2238576,10 14,9.77614237 14,9.5 L14,7 L10,7 L10,9.5 C10,9.77614237 9.77614237,10 9.5,10 C9.22385763,10 9,9.77614237 9,9.5 L9,7 Z M9,6 L9,5 C9,3.34314575 10.3431458,2 12,2 C13.6568542,2 15,3.34314575 15,5 L15,6 L16.5,6 C17.8807119,6 19,7.11928813 19,8.5 L19,19.5 C19,20.8807119 17.8807119,22 16.5,22 L7.5,22 C6.11928813,22 5,20.8807119 5,19.5 L5,8.5 C5,7.11928813 6.11928813,6 7.5,6 L9,6 Z M14,6 L14,5 C14,3.8954305 13.1045695,3 12,3 C10.8954305,3 10,3.8954305 10,5 L10,6 L14,6 Z"/>
</svg>
