<svg xmlns="http://www.w3.org/2000/svg" width="24" height="24" viewBox="0 0 24 24">
  <path d="M19.8518638,17.144757 C19.9433431,17.2353695 20.0000081,17.3610673 20.0000081,17.5 C20.0000081,17.6389327 19.9433431,17.7646305 19.8518638,17.855243 L16.8535534,20.8535534 C16.6582912,21.0488155 16.3417088,21.0488155 16.1464466,20.8535534 C15.9511845,20.6582912 15.9511845,20.3417088 16.1464466,20.1464466 L18.2928932,18 L13.5,18 C13.2238576,18 13,17.7761424 13,17.5 C13,17.2238576 13.2238576,17 13.5,17 L18.2928932,17 L16.1464466,14.8535534 C15.9511845,14.6582912 15.9511845,14.3417088 16.1464466,14.1464466 C16.3417088,13.9511845 16.6582912,13.9511845 16.8535534,14.1464466 L19.8518638,17.144757 L19.8518638,17.144757 Z M18.2815354,5.98864223 L16.1464466,3.85355339 C15.9511845,3.65829124 15.9511845,3.34170876 16.1464466,3.14644661 C16.3417088,2.95118446 16.6582912,2.95118446 16.8535534,3.14644661 L19.7845644,6.0774576 C19.9147516,6.16772265 20.0000081,6.31822608 20.0000081,6.48864223 L19.9999721,6.49470157 C20.0013382,6.62442304 19.952532,6.75457477 19.8535534,6.85355339 L16.8535534,9.85355339 C16.6582912,10.0488155 16.3417088,10.0488155 16.1464466,9.85355339 C15.9511845,9.65829124 15.9511845,9.34170876 16.1464466,9.14644661 L18.304251,6.98864223 L13.5,6.98864223 C12.6715729,6.98864223 12,7.6602151 12,8.48864223 L12,15.5 C12,16.8807119 10.8807119,18 9.5,18 L4.5,18 C4.22385763,18 4,17.7761424 4,17.5 C4,17.2238576 4.22385763,17 4.5,17 L9.5,17 C10.3284271,17 11,16.3284271 11,15.5 L11,8.48864223 C11,7.10793035 12.1192881,5.98864223 13.5,5.98864223 L18.2815354,5.98864223 Z M9.5,5.98864223 C9.77614237,5.98864223 10,6.21249985 10,6.48864223 C10,6.7647846 9.77614237,6.98864223 9.5,6.98864223 L4.5,6.98864223 C4.22385763,6.98864223 4,6.7647846 4,6.48864223 C4,6.21249985 4.22385763,5.98864223 4.5,5.98864223 L9.5,5.98864223 Z"/>
</svg>
