<svg xmlns="http://www.w3.org/2000/svg" width="24" height="24" viewBox="0 0 24 24">
  <path d="M14.2928932,12 L3.5,12 C3.22385763,12 3,11.7761424 3,11.5 C3,11.2238576 3.22385763,11 3.5,11 L14.2928932,11 L11.1464466,7.85355339 C10.9511845,7.65829124 10.9511845,7.34170876 11.1464466,7.14644661 C11.3417088,6.95118446 11.6582912,6.95118446 11.8535534,7.14644661 L15.8535534,11.1464466 C16.0488155,11.3417088 16.0488155,11.6582912 15.8535534,11.8535534 L11.8535534,15.8535534 C11.6582912,16.0488155 11.3417088,16.0488155 11.1464466,15.8535534 C10.9511845,15.6582912 10.9511845,15.3417088 11.1464466,15.1464466 L14.2928932,12 L14.2928932,12 Z M10.5,4 C10.2238576,4 10,3.77614237 10,3.5 C10,3.22385763 10.2238576,3 10.5,3 L18.5,3 C19.8807119,3 21,4.11928813 21,5.5 L21,18.5 C21,19.8807119 19.8807119,21 18.5,21 L10.5,21 C10.2238576,21 10,20.7761424 10,20.5 C10,20.2238576 10.2238576,20 10.5,20 L18.5,20 C19.3284271,20 20,19.3284271 20,18.5 L20,5.5 C20,4.67157288 19.3284271,4 18.5,4 L10.5,4 Z"/>
</svg>
