<svg xmlns="http://www.w3.org/2000/svg" width="24" height="24" viewBox="0 0 24 24">
  <path d="M18,16.0001598 L18,20.5 C18,20.7761424 17.7761424,21 17.5,21 C17.2238576,21 17,20.7761424 17,20.5 L17,16.0000799 L15.99997,16 C15.4477087,15.9999668 15.00003,15.5522613 15.00003,15 L15,13 C15,12.4477153 15.4477153,12 16,12 L17,12 L17,3.5 C17,3.22385763 17.2238576,3 17.5,3 C17.7761424,3 18,3.22385763 18,3.5 L18,12 L19.0311589,12 C19.5834437,12 20.0311589,12.4477153 20.0311589,12.9999925 L20.031189,15.0002422 C20.031189,15.552527 19.5834737,16.0002422 19.031149,16.0002422 L18,16.0001598 Z M13,10.0001598 L13,20.5 C13,20.7761424 12.7761424,21 12.5,21 C12.2238576,21 12,20.7761424 12,20.5 L12,10.0000799 L10.99997,10 C10.4477087,9.99996681 10.00003,9.55226128 10.00003,9 L10,7 C10,6.44771525 10.4477153,6 11,6 L12,6 L12,3.5 C12,3.22385763 12.2238576,3 12.5,3 C12.7761424,3 13,3.22385763 13,3.5 L13,6 L14.0311589,6 C14.5834437,6 15.0311589,6.44771525 15.0311589,6.99999249 L15.031189,9.00024224 C15.031189,9.55252699 14.5834737,10.0002422 14.031149,10.0002422 L13,10.0001598 Z M8,19.0001598 L8,20.5 C8,20.7761424 7.77614237,21 7.5,21 C7.22385763,21 7,20.7761424 7,20.5 L7,19.0000799 L5.99996996,19 C5.44770867,18.9999668 5.00003005,18.5522613 5.00003005,18 L5,16 C5,15.4477153 5.44771525,15 6,15 L7,15 L7,3.5 C7,3.22385763 7.22385763,3 7.5,3 C7.77614237,3 8,3.22385763 8,3.5 L8,15 L9.03115892,15 C9.58344367,15 10.0311589,15.4477153 10.0311589,15.9999925 L10.031189,18.0002422 C10.031189,18.552527 9.58347371,19.0002422 9.03114901,19.0002422 L8,19.0001598 L8,19.0001598 Z M6,18 L9.03118896,18.0002497 L9.03118896,16 L6,16 L6,18 Z M11,9 L14.031189,9.00024975 L14.031189,7 L11,7 L11,9 Z M16,15 L19.031189,15.0002497 L19.031189,13 L16,13 L16,15 Z"/>
</svg>
