<svg xmlns="http://www.w3.org/2000/svg" width="24" height="24" viewBox="0 0 24 24">
  <path d="M18,11.0500091 C19.1411202,11.2816442 20,12.290521 20,13.5 C20,14.709479 19.1411202,15.7183558 18,15.9499909 L18,20.5 C18,20.7761424 17.7761424,21 17.5,21 C17.2238576,21 17,20.7761424 17,20.5 L17,15.9499909 C15.8588798,15.7183558 15,14.709479 15,13.5 C15,12.290521 15.8588798,11.2816442 17,11.0500091 L17,3.5 C17,3.22385763 17.2238576,3 17.5,3 C17.7761424,3 18,3.22385763 18,3.5 L18,11.0500091 Z M13,5.05000906 C14.1411202,5.28164422 15,6.29052104 15,7.5 C15,8.70947896 14.1411202,9.71835578 13,9.94999094 L13,20.5 C13,20.7761424 12.7761424,21 12.5,21 C12.2238576,21 12,20.7761424 12,20.5 L12,9.94999094 C10.8588798,9.71835578 10,8.70947896 10,7.5 C10,6.29052104 10.8588798,5.28164422 12,5.05000906 L12,3.5 C12,3.22385763 12.2238576,3 12.5,3 C12.7761424,3 13,3.22385763 13,3.5 L13,5.05000906 L13,5.05000906 Z M8,14.0500091 C9.14112016,14.2816442 10,15.290521 10,16.5 C10,17.709479 9.14112016,18.7183558 8,18.9499909 L8,20.5 C8,20.7761424 7.77614237,21 7.5,21 C7.22385763,21 7,20.7761424 7,20.5 L7,18.9499909 C5.85887984,18.7183558 5,17.709479 5,16.5 C5,15.290521 5.85887984,14.2816442 7,14.0500091 L7,3.5 C7,3.22385763 7.22385763,3 7.5,3 C7.77614237,3 8,3.22385763 8,3.5 L8,14.0500091 L8,14.0500091 Z M9,16.5 C9,15.6715729 8.32842712,15 7.5,15 C6.67157288,15 6,15.6715729 6,16.5 C6,17.3284271 6.67157288,18 7.5,18 C8.32842712,18 9,17.3284271 9,16.5 Z M14,7.5 C14,6.67157288 13.3284271,6 12.5,6 C11.6715729,6 11,6.67157288 11,7.5 C11,8.32842712 11.6715729,9 12.5,9 C13.3284271,9 14,8.32842712 14,7.5 Z M19,13.5 C19,12.6715729 18.3284271,12 17.5,12 C16.6715729,12 16,12.6715729 16,13.5 C16,14.3284271 16.6715729,15 17.5,15 C18.3284271,15 19,14.3284271 19,13.5 Z"/>
</svg>
