<svg xmlns="http://www.w3.org/2000/svg" width="24" height="24" viewBox="0 0 24 24">
  <path d="M19.9910489,11.4876746 L19.0331451,5.74025188 L18.1464466,4.85355339 C17.9511845,4.65829124 17.9511845,4.34170876 18.1464466,4.14644661 C18.3417088,3.95118446 18.6582912,3.95118446 18.8535534,4.14644661 L19.8535534,5.14644661 C19.927242,5.22013526 19.9760647,5.31500693 19.993197,5.41780051 L21,11.5 L21,13.3068413 C21.0048711,13.3705886 21.0073514,13.4350046 21.0073514,13.5 L21.0073514,17.5151546 C21.0073514,18.8958664 19.8880632,20.0151546 18.5073514,20.0151546 L14.9438031,20.0151546 C13.8663342,20.0151546 12.9100791,19.3248248 12.570901,18.3021335 L12.1390451,17 L11.860953,17 L11.4290862,18.3021451 C11.0899045,19.3248304 10.1336524,20.0151546 9.05618801,20.0151546 L5.5,20.0151546 C4.11928813,20.0151546 3,18.8958664 3,17.5151546 L3,15.9146471 C2.41740381,15.7087289 2,15.1531094 2,14.5 C2,13.8463839 2.41805175,13.290409 3.00135631,13.0848742 L3.00680304,11.4178005 L4.00680304,5.41780051 C4.0239353,5.31500693 4.07275796,5.22013526 4.14644661,5.14644661 L5.14644661,4.14644661 C5.34170876,3.95118446 5.65829124,3.95118446 5.85355339,4.14644661 C6.04881554,4.34170876 6.04881554,4.65829124 5.85355339,4.85355339 L4.96663355,5.74047324 L4.00003516,11.4997905 C4.4178594,11.185962 4.93721283,11 5.5,11 L18.5073514,11 C19.0628576,11 19.5760467,11.1811814 19.9910489,11.4876746 L19.9910489,11.4876746 Z M20.0073514,13.5859037 C20.0025187,13.5579939 20,13.5292911 20,13.5 L20.0005115,13.3558195 C19.927957,12.5950338 19.287143,12 18.5073514,12 L5.5,12 C4.84689059,12 4.29127106,12.4174038 4.08535285,13 L7.5,13 C7.77614237,13 8,13.2238576 8,13.5 L8,15.5 C8,15.7761424 7.77614237,16 7.5,16 L4,16 L4,17.5151546 C4,18.3435817 4.67157288,19.0151546 5.5,19.0151546 L9.05618801,19.0151546 C9.70266663,19.0151546 10.2764179,18.6009601 10.4799269,17.9873489 L11.0254204,16.3426019 C11.0932567,16.1380648 11.2845071,16 11.5,16 L12.5,16 C12.7154938,16 12.9067448,16.138066 12.9745804,16.3426042 L13.5200618,17.9873419 C13.7235687,18.6009567 14.2973217,19.0151546 14.9438031,19.0151546 L18.5073514,19.0151546 C19.3357785,19.0151546 20.0073514,18.3435817 20.0073514,17.5151546 L20.0073514,13.5859037 L20.0073514,13.5859037 Z M7,14 L3.5,14 C3.22385763,14 3,14.2238576 3,14.5 C3,14.7761424 3.22385763,15 3.5,15 L7,15 L7,14 Z"/>
</svg>
