<svg xmlns="http://www.w3.org/2000/svg" width="24" height="24" viewBox="0 0 24 24">
  <path d="M3,5 L3,17.0096118 L21,17.0096118 L21,5 L3,5 Z M4.68617709,18.0096118 L2.5,18.0096118 C2.22385763,18.0096118 2,17.7857542 2,17.5096118 L2,4.5 C2,4.22385763 2.22385763,4 2.5,4 L21.5,4 C21.7761424,4 22,4.22385763 22,4.5 L22,17.5096118 C22,17.7857542 21.7761424,18.0096118 21.5,18.0096118 L19.3138229,18.0096118 L19.809017,19 L21.5,19 C21.7761424,19 22,19.2238576 22,19.5 C22,19.7761424 21.7761424,20 21.5,20 L19.5108323,20 C19.5038593,20.0001463 19.4968943,20.0001458 19.4899413,20 L17.5,20 C17.2238576,20 17,19.7761424 17,19.5 C17,19.2238576 17.2238576,19 17.5,19 L18.690983,19 L18.1957889,18.0096118 L5.80421108,18.0096118 L5.30901699,19 L6.5,19 C6.77614237,19 7,19.2238576 7,19.5 C7,19.7761424 6.77614237,20 6.5,20 L4.51005871,20 C4.50310573,20.0001458 4.49614069,20.0001463 4.48916806,20 L2.5,20 C2.22385763,20 2,19.7761424 2,19.5 C2,19.2238576 2.22385763,19 2.5,19 L4.19098301,19 L4.68617709,18.0096118 Z"/>
</svg>
