<svg xmlns="http://www.w3.org/2000/svg" width="24" height="24" viewBox="0 0 24 24">
  <path d="M8.00063398,16.4727804 C6.77276727,15.3741216 6,13.7773055 6,12 C6,10.2226945 6.77276727,8.6258784 8.00063398,7.52721964 C7.99871231,7.49134526 8.00065171,7.45470849 8.00680304,7.41780051 L9.00680304,1.41780051 C9.04698537,1.17670652 9.25558042,1 9.5,1 L14.5,1 C14.7444196,1 14.9530146,1.17670652 14.993197,1.41780051 L15.993197,7.41780051 C15.9993483,7.45470849 16.0012877,7.49134526 15.999366,7.52721964 C17.2272327,8.6258784 18,10.2226945 18,12 C18,13.7773055 17.2272327,15.3741216 15.999366,16.4727804 C16.0012877,16.5086547 15.9993483,16.5452915 15.993197,16.5821995 L14.993197,22.5821995 C14.9530146,22.8232935 14.7444196,23 14.5,23 L9.5,23 C9.25558042,23 9.04698537,22.8232935 9.00680304,22.5821995 L8.00680304,16.5821995 C8.00065171,16.5452915 7.99871231,16.5086547 8.00063398,16.4727804 Z M9.13581945,17.2735354 L9.92356354,22 L14.0764365,22 L14.8641805,17.2735354 C14.0130245,17.7367969 13.0372494,18 12,18 C10.9627506,18 9.98697549,17.7367969 9.13581945,17.2735354 L9.13581945,17.2735354 Z M9.13581945,6.72646456 C9.98697549,6.26320307 10.9627506,6 12,6 C13.0372494,6 14.0130245,6.26320307 14.8641805,6.72646456 L14.0764365,2 L9.92356354,2 L9.13581945,6.72646456 L9.13581945,6.72646456 Z M12,17 C14.7614237,17 17,14.7614237 17,12 C17,9.23857625 14.7614237,7 12,7 C9.23857625,7 7,9.23857625 7,12 C7,14.7614237 9.23857625,17 12,17 Z"/>
</svg>
