<svg xmlns="http://www.w3.org/2000/svg" width="24" height="24" viewBox="0 0 24 24">
  <path d="M10,19 L10.5,19 C10.7761424,19 11,19.2238576 11,19.5 C11,19.7761424 10.7761424,20 10.5,20 L10,20 L10,20.5 C10,20.7761424 9.77614237,21 9.5,21 C9.22385763,21 9,20.7761424 9,20.5 L9,20 L8.5,20 C8.22385763,20 8,19.7761424 8,19.5 C8,19.2238576 8.22385763,19 8.5,19 L9,19 L9,18.5 C9,18.2238576 9.22385763,18 9.5,18 C9.77614237,18 10,18.2238576 10,18.5 L10,19 Z M13,17 L13.5,17 C13.7761424,17 14,17.2238576 14,17.5 C14,17.7761424 13.7761424,18 13.5,18 L13,18 L13,18.5 C13,18.7761424 12.7761424,19 12.5,19 C12.2238576,19 12,18.7761424 12,18.5 L12,18 L11.5,18 C11.2238576,18 11,17.7761424 11,17.5 C11,17.2238576 11.2238576,17 11.5,17 L12,17 L12,16.5 C12,16.2238576 12.2238576,16 12.5,16 C12.7761424,16 13,16.2238576 13,16.5 L13,17 Z M9,15 L9.5,15 C9.77614237,15 10,15.2238576 10,15.5 C10,15.7761424 9.77614237,16 9.5,16 L9,16 L9,16.5 C9,16.7761424 8.77614237,17 8.5,17 C8.22385763,17 8,16.7761424 8,16.5 L8,16 L7.5,16 C7.22385763,16 7,15.7761424 7,15.5 C7,15.2238576 7.22385763,15 7.5,15 L8,15 L8,14.5 C8,14.2238576 8.22385763,14 8.5,14 C8.77614237,14 9,14.2238576 9,14.5 L9,15 Z M14.7439414,9 L15.5,9 C17.9852814,9 20,11.0147186 20,13.5 C20,15.9852814 17.9852814,18 15.5,18 C15.2238576,18 15,17.7761424 15,17.5 C15,17.2238576 15.2238576,17 15.5,17 C17.4329966,17 19,15.4329966 19,13.5 C19,11.5670034 17.4329966,10 15.5,10 L14.9725356,10 C14.9906833,10.1641669 15,10.3309955 15,10.5 C15,10.7761424 14.7761424,11 14.5,11 C14.2238576,11 14,10.7761424 14,10.5 C14,8.56700338 12.4329966,7 10.5,7 L10,7 C7.790861,7 6,8.790861 6,11 L6,11.5 C6,11.7761424 5.77614237,12 5.5,12 C4.11928813,12 3,13.1192881 3,14.5 C3,15.8807119 4.11928813,17 5.5,17 C5.77614237,17 6,17.2238576 6,17.5 C6,17.7761424 5.77614237,18 5.5,18 C3.56700338,18 2,16.4329966 2,14.5 C2,12.736764 3.30385293,11.2780593 5,11.0354444 C5,8.23857625 7.23857625,6 10,6 L10.5,6 C12.4593282,6 14.1261868,7.25221144 14.7439414,9 L14.7439414,9 Z M20.8577341,9.4959942 C20.673823,9.70198286 20.3577469,9.71988028 20.1517582,9.5359692 C19.9457695,9.35205812 19.9278721,9.03598194 20.1117832,8.82999328 C20.6806109,8.19288077 21,7.37193728 21,6.5 C21,4.56700338 19.4329966,3 17.5,3 C15.892902,3 14.503472,4.09252816 14.1096548,5.62689038 C14.0410039,5.89436312 13.7685219,6.05554005 13.5010491,5.98688914 C13.2335764,5.91823823 13.0723994,5.64575618 13.1410504,5.37828345 C13.6476997,3.40431271 15.4336437,2 17.5,2 C19.9852814,2 22,4.01471863 22,6.5 C22,7.62000205 21.5886376,8.67734952 20.8577341,9.4959942 Z"/>
</svg>
