<svg xmlns="http://www.w3.org/2000/svg" width="24" height="24" viewBox="0 0 24 24">
  <path d="M6.90365714,19.8034496 C6.81268627,19.9276666 6.66576323,20.008331 6.5,20.008331 C6.33423677,20.008331 6.18731373,19.9276666 6.09634286,19.8034496 L3.14644661,16.8535534 C2.95118446,16.6582912 2.95118446,16.3417088 3.14644661,16.1464466 C3.34170876,15.9511845 3.65829124,15.9511845 3.85355339,16.1464466 L6,18.2928932 L6,4.5 C6,4.22385763 6.22385763,4 6.5,4 C6.77614237,4 7,4.22385763 7,4.5 L7,18.2928932 L9.14644661,16.1464466 C9.34170876,15.9511845 9.65829124,15.9511845 9.85355339,16.1464466 C10.0488155,16.3417088 10.0488155,16.6582912 9.85355339,16.8535534 L6.90365714,19.8034496 L6.90365714,19.8034496 Z M12.5,6 C12.2238576,6 12,5.77614237 12,5.5 C12,5.22385763 12.2238576,5 12.5,5 L20.5,5 C20.7761424,5 21,5.22385763 21,5.5 C21,5.77614237 20.7761424,6 20.5,6 L12.5,6 Z M12.5,10 C12.2238576,10 12,9.77614237 12,9.5 C12,9.22385763 12.2238576,9 12.5,9 L18.5,9 C18.7761424,9 19,9.22385763 19,9.5 C19,9.77614237 18.7761424,10 18.5,10 L12.5,10 Z M12.5,14 C12.2238576,14 12,13.7761424 12,13.5 C12,13.2238576 12.2238576,13 12.5,13 L16.5,13 C16.7761424,13 17,13.2238576 17,13.5 C17,13.7761424 16.7761424,14 16.5,14 L12.5,14 Z M12.5,18 C12.2238576,18 12,17.7761424 12,17.5 C12,17.2238576 12.2238576,17 12.5,17 L14.5,17 C14.7761424,17 15,17.2238576 15,17.5 C15,17.7761424 14.7761424,18 14.5,18 L12.5,18 Z"/>
</svg>
