<svg xmlns="http://www.w3.org/2000/svg" width="24" height="24" viewBox="0 0 24 24">
  <path d="M19.5134329,15.9821968 C19.5091986,15.9890656 19.5047785,15.9958679 19.5001715,16.0025976 L16.9125836,19.7824443 C16.7565939,20.0103079 16.4454193,20.0685733 16.2175557,19.9125836 C15.9896921,19.7565939 15.9314267,19.4454193 16.0874164,19.2175557 L17.6070397,16.9977498 C17.5715461,16.9992449 17.5358612,17 17.5,17 C16.1192881,17 15,15.8807119 15,14.5 C15,13.1192881 16.1192881,12 17.5,12 C18.8807119,12 20,13.1192881 20,14.5 C20,15.0548368 19.819255,15.5674584 19.5134329,15.9821968 L19.5134329,15.9821968 Z M18,10 L18.5,10 C18.7761424,10 19,10.2238576 19,10.5 C19,10.7761424 18.7761424,11 18.5,11 L16.5,11 C16.2238576,11 16,10.7761424 16,10.5 C16,10.2238576 16.2238576,10 16.5,10 L17,10 L17,5.70710678 L16.8535534,5.85355339 C16.6582912,6.04881554 16.3417088,6.04881554 16.1464466,5.85355339 C15.9511845,5.65829124 15.9511845,5.34170876 16.1464466,5.14644661 L17.1464466,4.14644661 C17.461429,3.83146418 18,4.05454757 18,4.5 L18,10 L18,10 Z M7.90365714,19.8034496 C7.81268627,19.9276666 7.66576323,20.008331 7.5,20.008331 C7.33423677,20.008331 7.18731373,19.9276666 7.09634286,19.8034496 L4.14644661,16.8535534 C3.95118446,16.6582912 3.95118446,16.3417088 4.14644661,16.1464466 C4.34170876,15.9511845 4.65829124,15.9511845 4.85355339,16.1464466 L7,18.2928932 L7,4.5 C7,4.22385763 7.22385763,4 7.5,4 C7.77614237,4 8,4.22385763 8,4.5 L8,18.2928932 L10.1464466,16.1464466 C10.3417088,15.9511845 10.6582912,15.9511845 10.8535534,16.1464466 C11.0488155,16.3417088 11.0488155,16.6582912 10.8535534,16.8535534 L7.90365714,19.8034496 L7.90365714,19.8034496 Z M17.5,16 C18.3284271,16 19,15.3284271 19,14.5 C19,13.6715729 18.3284271,13 17.5,13 C16.6715729,13 16,13.6715729 16,14.5 C16,15.3284271 16.6715729,16 17.5,16 Z"/>
</svg>
