<svg xmlns="http://www.w3.org/2000/svg" width="24" height="24" viewBox="0 0 24 24">
  <path d="M19.2928932,12 L14,12 L14,19.5 C14,19.7761424 13.7761424,20 13.5,20 C13.2238576,20 13,19.7761424 13,19.5 L13,3.5 C13,3.22385763 13.2238576,3 13.5,3 C13.7761424,3 14,3.22385763 14,3.5 L14,11 L19.2928932,11 L16.1464466,7.85355339 C15.9511845,7.65829124 15.9511845,7.34170876 16.1464466,7.14644661 C16.3417088,6.95118446 16.6582912,6.95118446 16.8535534,7.14644661 L20.8535534,11.1464466 C21.0488155,11.3417088 21.0488155,11.6582912 20.8535534,11.8535534 L16.8535534,15.8535534 C16.6582912,16.0488155 16.3417088,16.0488155 16.1464466,15.8535534 C15.9511845,15.6582912 15.9511845,15.3417088 16.1464466,15.1464466 L19.2928932,12 Z M4.70710678,11 L10,11 L10,3.5 C10,3.22385763 10.2238576,3 10.5,3 C10.7761424,3 11,3.22385763 11,3.5 L11,19.5 C11,19.7761424 10.7761424,20 10.5,20 C10.2238576,20 10,19.7761424 10,19.5 L10,12 L4.70710678,12 L7.85355339,15.1464466 C8.04881554,15.3417088 8.04881554,15.6582912 7.85355339,15.8535534 C7.65829124,16.0488155 7.34170876,16.0488155 7.14644661,15.8535534 L3.14644661,11.8535534 C2.95118446,11.6582912 2.95118446,11.3417088 3.14644661,11.1464466 L7.14644661,7.14644661 C7.34170876,6.95118446 7.65829124,6.95118446 7.85355339,7.14644661 C8.04881554,7.34170876 8.04881554,7.65829124 7.85355339,7.85355339 L4.70710678,11 Z"/>
</svg>
