<svg xmlns="http://www.w3.org/2000/svg" width="24" height="24" viewBox="0 0 24 24">
  <path d="M11,19.2928932 L11,14 L3.5,14 C3.22385763,14 3,13.7761424 3,13.5 C3,13.2238576 3.22385763,13 3.5,13 L19.5,13 C19.7761424,13 20,13.2238576 20,13.5 C20,13.7761424 19.7761424,14 19.5,14 L12,14 L12,19.2928932 L15.1464466,16.1464466 C15.3417088,15.9511845 15.6582912,15.9511845 15.8535534,16.1464466 C16.0488155,16.3417088 16.0488155,16.6582912 15.8535534,16.8535534 L11.8535534,20.8535534 C11.6582912,21.0488155 11.3417088,21.0488155 11.1464466,20.8535534 L7.14644661,16.8535534 C6.95118446,16.6582912 6.95118446,16.3417088 7.14644661,16.1464466 C7.34170876,15.9511845 7.65829124,15.9511845 7.85355339,16.1464466 L11,19.2928932 L11,19.2928932 Z M12,4.70710678 L12,10 L19.5,10 C19.7761424,10 20,10.2238576 20,10.5 C20,10.7761424 19.7761424,11 19.5,11 L3.5,11 C3.22385763,11 3,10.7761424 3,10.5 C3,10.2238576 3.22385763,10 3.5,10 L11,10 L11,4.70710678 L7.85355339,7.85355339 C7.65829124,8.04881554 7.34170876,8.04881554 7.14644661,7.85355339 C6.95118446,7.65829124 6.95118446,7.34170876 7.14644661,7.14644661 L11.1464466,3.14644661 C11.3417088,2.95118446 11.6582912,2.95118446 11.8535534,3.14644661 L15.8535534,7.14644661 C16.0488155,7.34170876 16.0488155,7.65829124 15.8535534,7.85355339 C15.6582912,8.04881554 15.3417088,8.04881554 15.1464466,7.85355339 L12,4.70710678 Z"/>
</svg>
