<svg xmlns="http://www.w3.org/2000/svg" width="24" height="24" viewBox="0 0 24 24">
  <path d="M10.1403882,14 L13.8596118,14 L13.07321,10.8543926 C12.7316796,10.9492838 12.3717625,11 12,11 C11.6282375,11 11.2683204,10.9492838 10.92679,10.8543926 L10.1403882,14 Z M9.1096118,14 L9.99423004,10.461527 C8.80180997,9.7690907 8,8.47818173 8,7 C8,4.790861 9.790861,3 12,3 C14.209139,3 16,4.790861 16,7 C16,8.47818173 15.19819,9.7690907 14.00577,10.461527 L14.8903882,14 L18.5,14 C19.8807119,14 21,15.1192881 21,16.5 L21,18.5 C21,18.7761424 20.7761424,19 20.5,19 L3.5,19 C3.22385763,19 3,18.7761424 3,18.5 L3,16.5 C3,15.1192881 4.11928813,14 5.5,14 L9.1096118,14 Z M12,10 C13.6568542,10 15,8.65685425 15,7 C15,5.34314575 13.6568542,4 12,4 C10.3431458,4 9,5.34314575 9,7 C9,8.65685425 10.3431458,10 12,10 Z M20,18 L20,16.5 C20,15.6715729 19.3284271,15 18.5,15 L5.5,15 C4.67157288,15 4,15.6715729 4,16.5 L4,18 L20,18 Z M3.5,21 C3.22385763,21 3,20.7761424 3,20.5 C3,20.2238576 3.22385763,20 3.5,20 L20.5,20 C20.7761424,20 21,20.2238576 21,20.5 C21,20.7761424 20.7761424,21 20.5,21 L3.5,21 Z"/>
</svg>
