<svg xmlns="http://www.w3.org/2000/svg" width="24" height="24" viewBox="0 0 24 24">
  <path d="M3.85148511,16.9150638 L3.15835921,18.3013156 C3.05421764,18.5095987 3,18.7392683 3,18.972136 L3,20 C3,20.5522847 3.44771525,21 4,21 L5,21 C5.55228475,21 6,20.5522847 6,20 L6,18.972136 C6,18.7392683 5.94578236,18.5095987 5.84164079,18.3013156 L5.14851489,16.9150638 C4.94169403,16.970462 4.7242965,17 4.5,17 C4.2757035,17 4.05830597,16.970462 3.85148511,16.9150638 L3.85148511,16.9150638 Z M2.95729221,16.4673816 C2.37442336,16.0096909 2,15.2985711 2,14.5 C2,13.1192881 3.11928813,12 4.5,12 C5.88071187,12 7,13.1192881 7,14.5 C7,15.2985711 6.62557664,16.0096909 6.04270779,16.4673816 L6.73606798,17.854102 C6.90963727,18.2012406 7,18.5840232 7,18.972136 L7,20 C7,21.1045695 6.1045695,22 5,22 L4,22 C2.8954305,22 2,21.1045695 2,20 L2,18.972136 C2,18.5840232 2.09036273,18.2012406 2.26393202,17.854102 L2.95729221,16.4673816 Z M18.8514851,16.9150638 L18.1583592,18.3013156 C18.0542176,18.5095987 18,18.7392683 18,18.972136 L18,20 C18,20.5522847 18.4477153,21 19,21 L20,21 C20.5522847,21 21,20.5522847 21,20 L21,18.972136 C21,18.7392683 20.9457824,18.5095987 20.8416408,18.3013156 L20.1485149,16.9150638 C19.941694,16.970462 19.7242965,17 19.5,17 C19.2757035,17 19.058306,16.970462 18.8514851,16.9150638 L18.8514851,16.9150638 Z M17.9572922,16.4673816 C17.3744234,16.0096909 17,15.2985711 17,14.5 C17,13.1192881 18.1192881,12 19.5,12 C20.8807119,12 22,13.1192881 22,14.5 C22,15.2985711 21.6255766,16.0096909 21.0427078,16.4673816 L21.736068,17.854102 C21.9096373,18.2012406 22,18.5840232 22,18.972136 L22,20 C22,21.1045695 21.1045695,22 20,22 L19,22 C17.8954305,22 17,21.1045695 17,20 L17,18.972136 C17,18.5840232 17.0903627,18.2012406 17.263932,17.854102 L17.9572922,16.4673816 L17.9572922,16.4673816 Z M10.9046914,16.793765 C10.8894689,16.8146814 10.8724229,16.8346839 10.8535534,16.8535534 L9.43933983,18.267767 C9.15803526,18.5490715 9,18.9306024 9,19.3284271 L9,20 C9,20.5522847 9.44771525,21 10,21 L14,21 C14.5522847,21 15,20.5522847 15,20 L15,19.3284271 C15,18.9306024 14.8419647,18.5490715 14.5606602,18.267767 L13.1464466,16.8535534 C13.1275771,16.8346839 13.1105311,16.8146814 13.0953086,16.793765 C12.7559936,16.926898 12.3865338,17 12,17 C11.6134662,17 11.2440064,16.926898 10.9046914,16.793765 Z M10.0301562,16.2627371 C9.39892952,15.7127546 9,14.9029648 9,14 C9,12.3431458 10.3431458,11 12,11 C13.6568542,11 15,12.3431458 15,14 C15,14.9029648 14.6010705,15.7127546 13.9698438,16.2627371 L15.267767,17.5606602 C15.7366079,18.0295011 16,18.6653859 16,19.3284271 L16,20 C16,21.1045695 15.1045695,22 14,22 L10,22 C8.8954305,22 8,21.1045695 8,20 L8,19.3284271 C8,18.6653859 8.2633921,18.0295011 8.73223305,17.5606602 L10.0301562,16.2627371 L10.0301562,16.2627371 Z M12,16 C13.1045695,16 14,15.1045695 14,14 C14,12.8954305 13.1045695,12 12,12 C10.8954305,12 10,12.8954305 10,14 C10,15.1045695 10.8954305,16 12,16 Z M19.5,16 C20.3284271,16 21,15.3284271 21,14.5 C21,13.6715729 20.3284271,13 19.5,13 C18.6715729,13 18,13.6715729 18,14.5 C18,15.3284271 18.6715729,16 19.5,16 Z M4.5,16 C5.32842712,16 6,15.3284271 6,14.5 C6,13.6715729 5.32842712,13 4.5,13 C3.67157288,13 3,13.6715729 3,14.5 C3,15.3284271 3.67157288,16 4.5,16 Z M12.3535534,9.85355339 C12.1582912,10.0488155 11.8417088,10.0488155 11.6464466,9.85355339 L10.7928932,9 L9.5,9 C8.11928813,9 7,7.88071187 7,6.5 L7,4.5 C7,3.11928813 8.11928813,2 9.5,2 L14.5,2 C15.8807119,2 17,3.11928813 17,4.5 L17,6.5 C17,7.88071187 15.8807119,9 14.5,9 L13.2071068,9 L12.3535534,9.85355339 Z M12,8.79289322 L12.6464466,8.14644661 C12.7402148,8.05267842 12.8673918,8 13,8 L14.5,8 C15.3284271,8 16,7.32842712 16,6.5 L16,4.5 C16,3.67157288 15.3284271,3 14.5,3 L9.5,3 C8.67157288,3 8,3.67157288 8,4.5 L8,6.5 C8,7.32842712 8.67157288,8 9.5,8 L11,8 C11.1326082,8 11.2597852,8.05267842 11.3535534,8.14644661 L12,8.79289322 Z"/>
</svg>
