<svg xmlns="http://www.w3.org/2000/svg" width="24" height="24" viewBox="0 0 24 24">
  <path d="M7,10 L7,7.5 C7,7.22385763 7.22385763,7 7.5,7 L10,7 L10,3.5 C10,2.67157288 9.32842712,2 8.5,2 L3.5,2 C2.67157288,2 2,2.67157288 2,3.5 L2,8.5 C2,9.32842712 2.67157288,10 3.5,10 L7,10 Z M11,7.47202252 C11.0084195,7.60476875 10.9641605,7.74294627 10.8535534,7.85355339 L7.85355339,10.8535534 C7.74294627,10.9641605 7.60476875,11.0084195 7.47202252,11 L3.5,11 C2.11928813,11 1,9.88071187 1,8.5 L1,3.5 C1,2.11928813 2.11928813,1 3.5,1 L8.5,1 C9.88071187,1 11,2.11928813 11,3.5 L11,7.47202252 Z M8,8 L8,9.29289322 L9.29289322,8 L8,8 Z M15.4969183,1 L20.5,1 C21.8807119,1 23,2.11928813 23,3.5 L23,8.5 C23,9.88071187 21.8807119,11 20.5,11 L15.4892082,11 C14.1084964,11 12.9892082,9.88071187 12.9892084,8.4996145 L12.9969213,3.49614495 C12.9990481,2.11693997 14.1177117,1 15.4969183,1 Z M15.4969183,2 C14.6693944,2 13.9981962,2.67016398 13.9969201,3.49768697 L13.9892105,8.49730147 C13.9892082,9.32842712 14.6607811,10 15.4892082,10 L20.5,10 C21.3284271,10 22,9.32842712 22,8.5 L22,3.5 C22,2.67157288 21.3284271,2 20.5,2 L15.4969183,2 Z M15.4969183,13 L20.5,13 C21.8807119,13 23,14.1192881 23,15.5 L23,20.5 C23,21.8807119 21.8807119,23 20.5,23 L15.4892082,23 C14.1084964,23 12.9892082,21.8807119 12.9892084,20.4996145 L12.9969213,15.496145 C12.9990481,14.11694 14.1177117,13 15.4969183,13 Z M15.4969183,14 C14.6693944,14 13.9981962,14.670164 13.9969201,15.497687 L13.9892105,20.4973015 C13.9892082,21.3284271 14.6607811,22 15.4892082,22 L20.5,22 C21.3284271,22 22,21.3284271 22,20.5 L22,15.5 C22,14.6715729 21.3284271,14 20.5,14 L15.4969183,14 Z M3.49691834,13 L8.5,13 C9.88071187,13 11,14.1192881 11,15.5 L11,20.5 C11,21.8807119 9.88071187,23 8.5,23 L3.48920823,23 C2.10849636,23 0.989208231,21.8807119 0.98920838,20.4996145 L0.996921308,15.496145 C0.999048071,14.11694 2.11771171,13 3.49691834,13 Z M3.49691834,14 C2.66939436,14 1.99819618,14.670164 1.99692012,15.497687 L1.98921046,20.4973015 C1.98920823,21.3284271 2.66078111,22 3.48920823,22 L8.5,22 C9.32842712,22 10,21.3284271 10,20.5 L10,15.5 C10,14.6715729 9.32842712,14 8.5,14 L3.49691834,14 Z M3.5,5 C3.22385763,5 3,4.77614237 3,4.5 C3,4.22385763 3.22385763,4 3.5,4 L8.5,4 C8.77614237,4 9,4.22385763 9,4.5 C9,4.77614237 8.77614237,5 8.5,5 L3.5,5 Z M3.5,7 C3.22385763,7 3,6.77614237 3,6.5 C3,6.22385763 3.22385763,6 3.5,6 L5.5,6 C5.77614237,6 6,6.22385763 6,6.5 C6,6.77614237 5.77614237,7 5.5,7 L3.5,7 Z M15.5,5 C15.2238576,5 15,4.77614237 15,4.5 C15,4.22385763 15.2238576,4 15.5,4 L20.5,4 C20.7761424,4 21,4.22385763 21,4.5 C21,4.77614237 20.7761424,5 20.5,5 L15.5,5 Z M15.5,7 C15.2238576,7 15,6.77614237 15,6.5 C15,6.22385763 15.2238576,6 15.5,6 L18.5,6 C18.7761424,6 19,6.22385763 19,6.5 C19,6.77614237 18.7761424,7 18.5,7 L15.5,7 Z M15.5,17 C15.2238576,17 15,16.7761424 15,16.5 C15,16.2238576 15.2238576,16 15.5,16 L20.5,16 C20.7761424,16 21,16.2238576 21,16.5 C21,16.7761424 20.7761424,17 20.5,17 L15.5,17 Z M3.5,17 C3.22385763,17 3,16.7761424 3,16.5 C3,16.2238576 3.22385763,16 3.5,16 L8.5,16 C8.77614237,16 9,16.2238576 9,16.5 C9,16.7761424 8.77614237,17 8.5,17 L3.5,17 Z M3.5,19 C3.22385763,19 3,18.7761424 3,18.5 C3,18.2238576 3.22385763,18 3.5,18 L6.5,18 C6.77614237,18 7,18.2238576 7,18.5 C7,18.7761424 6.77614237,19 6.5,19 L3.5,19 Z"/>
</svg>
