<svg xmlns="http://www.w3.org/2000/svg" width="24" height="24" viewBox="0 0 24 24">
  <path d="M6,20 L6,14.5 C6,13.6715729 6.67157288,13 7.5,13 L10.5,13 C11.3284271,13 12,13.6715729 12,14.5 L12,20 L18.5,20 C19.3284271,20 20,19.3284271 20,18.5 L20,10.5 L21,10.5 L21,18.5 C21,19.8807119 19.8807119,21 18.5,21 L5.5,21 C4.11928813,21 3,19.8807119 3,18.5 L3,10.5 L4,10.5 L4,18.5 C4,19.3284271 4.67157288,20 5.5,20 L6,20 Z M7,20 L11,20 L11,14.5 C11,14.2238576 10.7761424,14 10.5,14 L7.5,14 C7.22385763,14 7,14.2238576 7,14.5 L7,20 Z M15,14.5 L15,16.5 C15,16.7761424 15.2238576,17 15.5,17 L16.5,17 C16.7761424,17 17,16.7761424 17,16.5 L17,14.5 C17,14.2238576 16.7761424,14 16.5,14 L15.5,14 C15.2238576,14 15,14.2238576 15,14.5 Z M14,14.5 C14,13.6715729 14.6715729,13 15.5,13 L16.5,13 C17.3284271,13 18,13.6715729 18,14.5 L18,16.5 C18,17.3284271 17.3284271,18 16.5,18 L15.5,18 C14.6715729,18 14,17.3284271 14,16.5 L14,14.5 Z M6,11 L3.5,11 C2.67157288,11 2,10.3284271 2,9.5 L2,8.6925824 C2,8.50175326 2.0364128,8.3126768 2.10728496,8.13549639 L4.03576165,3.31430466 C4.11169333,3.12447547 4.29554771,3 4.5,3 L19.5,3 C19.7044523,3 19.8883067,3.12447547 19.9642383,3.31430466 L21.892715,8.13549639 C21.9635872,8.3126768 22,8.50175326 22,8.6925824 L22,9.5 C22,10.3284271 21.3284271,11 20.5,11 L18,11 C17.6158228,11 17.2653782,10.8555732 17,10.6180533 C16.7346218,10.8555732 16.3841772,11 16,11 L13,11 C12.6158228,11 12.2653782,10.8555732 12,10.6180533 C11.7346218,10.8555732 11.3841772,11 11,11 L8,11 C7.61582278,11 7.26537825,10.8555732 7,10.6180533 C6.73462175,10.8555732 6.38417722,11 6,11 Z M4.83851648,4 L3.03576165,8.50688707 C3.0121376,8.5659472 3,8.62897269 3,8.6925824 L3,9.5 C3,9.77614237 3.22385763,10 3.5,10 L6,10 C6.27614237,10 6.5,9.77614237 6.5,9.5 L6.5,8.5 C6.5,8.22385763 6.72385763,8 7,8 C7.27614237,8 7.5,8.22385763 7.5,8.5 L7.5,9.5 C7.5,9.77614237 7.72385763,10 8,10 L11,10 C11.2761424,10 11.5,9.77614237 11.5,9.5 L11.5,8.5 C11.5,8.22385763 11.7238576,8 12,8 C12.2761424,8 12.5,8.22385763 12.5,8.5 L12.5,9.5 C12.5,9.77614237 12.7238576,10 13,10 L16,10 C16.2761424,10 16.5,9.77614237 16.5,9.5 L16.5,8.5 C16.5,8.22385763 16.7238576,8 17,8 C17.2761424,8 17.5,8.22385763 17.5,8.5 L17.5,9.5 C17.5,9.77614237 17.7238576,10 18,10 L20.5,10 C20.7761424,10 21,9.77614237 21,9.5 L21,8.6925824 C21,8.62897269 20.9878624,8.5659472 20.9642383,8.50688707 L19.1614835,4 L4.83851648,4 Z"/>
</svg>
