<svg xmlns="http://www.w3.org/2000/svg" width="24" height="24" viewBox="0 0 24 24">
  <path d="M4.5,20 C3.11928813,20 2,18.8807119 2,17.5 L2,6.48864223 C2,5.10793035 3.11928813,3.98864223 4.5,3.98864223 L19.5,3.98864223 C20.8807119,3.98864223 22,5.10793035 22,6.48864223 L22,17.5 C22,18.8807119 20.8807119,20 19.5,20 L4.5,20 Z M4.5,19 L19.5,19 C20.3284271,19 21,18.3284271 21,17.5 L21,6.48864223 C21,5.6602151 20.3284271,4.98864223 19.5,4.98864223 L4.5,4.98864223 C3.67157288,4.98864223 3,5.6602151 3,6.48864223 L3,17.5 C3,18.3284271 3.67157288,19 4.5,19 Z M20,13.5 C20,13.7761424 19.7761424,14 19.5,14 C19.2238576,14 19,13.7761424 19,13.5 L19,10.5 C19,10.2238576 19.2238576,10 19.5,10 C19.7761424,10 20,10.2238576 20,10.5 L20,13.5 Z"/>
</svg>
