<svg xmlns="http://www.w3.org/2000/svg" width="24" height="24" viewBox="0 0 24 24">
  <path d="M4,4.5 C4,3.11928813 5.11928813,2 6.5,2 L17.5113578,2 C18.8920696,2 20.0113578,3.11928813 20.0113578,4.5 L20.0113578,19.5 C20.0113578,20.8807119 18.8920696,22 17.5113578,22 L6.5,22 C5.11928813,22 4,20.8807119 4,19.5 L4,4.5 Z M5,4.5 L5,19.5 C5,20.3284271 5.67157288,21 6.5,21 L17.5113578,21 C18.3397849,21 19.0113578,20.3284271 19.0113578,19.5 L19.0113578,4.5 C19.0113578,3.67157288 18.3397849,3 17.5113578,3 L6.5,3 C5.67157288,3 5,3.67157288 5,4.5 Z M10.5,20 C10.2238576,20 10,19.7761424 10,19.5 C10,19.2238576 10.2238576,19 10.5,19 L13.5,19 C13.7761424,19 14,19.2238576 14,19.5 C14,19.7761424 13.7761424,20 13.5,20 L10.5,20 Z"/>
</svg>
