<svg xmlns="http://www.w3.org/2000/svg" width="24" height="24" viewBox="0 0 24 24">
  <path d="M15,14 L15,10 L9,10 L9,14 L15,14 Z M15,15 L9,15 L9,19 L15,19 L15,15 Z M4,14 L8,14 L8,10 L4,10 L4,14 Z M4,15 L4,17.5 C4,18.3284271 4.67157288,19 5.5,19 L8,19 L8,15 L4,15 Z M20,14 L20,10 L16,10 L16,14 L20,14 Z M20,15 L16,15 L16,19 L18.5,19 C19.3284271,19 20,18.3284271 20,17.5 L20,15 Z M15,9 L15,5 L9,5 L9,9 L15,9 Z M4,9 L8,9 L8,5 L5.5,5 C4.67157288,5 4,5.67157288 4,6.5 L4,9 Z M20,9 L20,6.5 C20,5.67157288 19.3284271,5 18.5,5 L16,5 L16,9 L20,9 Z M5.5,4 L18.5,4 C19.8807119,4 21,5.11928813 21,6.5 L21,17.5 C21,18.8807119 19.8807119,20 18.5,20 L5.5,20 C4.11928813,20 3,18.8807119 3,17.5 L3,6.5 C3,5.11928813 4.11928813,4 5.5,4 Z"/>
</svg>
