<svg xmlns="http://www.w3.org/2000/svg" width="24" height="24" viewBox="0 0 24 24">
  <path d="M17,12.5 L17,13.5 C17,13.7761424 16.7761424,14 16.5,14 C16.2238576,14 16,13.7761424 16,13.5 L16,11.5 C16,11.2238576 15.7761424,11 15.5,11 C15.2238576,11 15,11.2238576 15,11.5 L15,13.5 C15,13.7761424 14.7761424,14 14.5,14 C14.2238576,14 14,13.7761424 14,13.5 L14,5.5 C14,5.22385763 13.7761424,5 13.5,5 C13.2238576,5 13,5.22385763 13,5.5 L13,6.5 L13,13.5 C13,13.7761424 12.7761424,14 12.5,14 C12.2238576,14 12,13.7761424 12,13.5 L12,6.5 C12,6.22385763 11.7761424,6 11.5,6 C11.2238576,6 11,6.22385763 11,6.5 L11,10.5 L11,13.0474376 C11,13.3783481 10.8839855,13.698786 10.6721417,13.9529985 C10.1720143,14.5531514 9.28006076,14.6342381 8.6799078,14.1341106 L7.75607376,13.3642489 C7.4736449,13.1288916 7.11763998,13 6.75,13 C6.48363526,13 6.24082605,13.1526146 6.12532205,13.3926334 L6.08962348,13.4668155 C5.95447865,13.7476481 5.99541029,14.0814869 6.19439734,14.321352 L10.607865,19.6414804 C11.3217788,20.502054 12.3818498,21 13.5,21 C15.9852814,21 18,18.9852814 18,16.5 L18,12.5 C18,12.2238576 17.7761424,12 17.5,12 C17.2238576,12 17,12.2238576 17,12.5 Z M16.9474595,11.1050446 C17.1184541,11.0372568 17.3048761,11 17.5,11 C18.3284271,11 19,11.6715729 19,12.5 L19,16.5 C19,19.5375661 16.5375661,22 13.5,22 C12.0842933,22 10.7421216,21.3695431 9.83822457,20.279958 L5.42475695,14.9598296 C4.97611908,14.4190278 4.88383427,13.6663521 5.18853292,13.0331845 L5.2242315,12.9590024 C5.50634865,12.3727595 6.09940726,12 6.75,12 C7.35157648,12 7.9341143,12.2109078 8.39625816,12.5960277 L9.3200922,13.3658894 C9.49596826,13.5124527 9.75735708,13.4886901 9.90392046,13.3128141 C9.96600171,13.2383166 10,13.1444116 10,13.0474376 L10,10.5 L10,6.5 C10,5.67157288 10.6715729,5 11.5,5 C11.6951239,5 11.8815459,5.03725677 12.0525405,5.10504462 C12.2258938,4.46823386 12.808266,4 13.5,4 C14.3284271,4 15,4.67157288 15,5.5 L15,10.0853529 C15.1563895,10.0300771 15.3246823,10 15.5,10 C16.191734,10 16.7741062,10.4682339 16.9474595,11.1050446 Z M11.7597202,3.70511335 C11.6875286,3.87157952 11.5269706,3.99275121 11.3334568,4.00544076 C10.0247113,4.09126094 9,5.18119726 9,6.5 C9,6.77614237 8.77614237,7 8.5,7 C8.22385763,7 8,6.77614237 8,6.5 C8,4.73856058 9.30521808,3.26910114 11.0171989,3.03305015 C11.6679248,2.37788117 12.5540683,2 13.5,2 C15.4329966,2 17,3.56700338 17,5.5 C17,5.77614237 16.7761424,6 16.5,6 C16.2238576,6 16,5.77614237 16,5.5 C16,4.11928813 14.8807119,3 13.5,3 C12.839628,3 12.2216003,3.25685441 11.7597202,3.70511335 Z"/>
</svg>
