<svg xmlns="http://www.w3.org/2000/svg" width="24" height="24" viewBox="0 0 24 24">
  <path d="M13,8 L13,3 L12,3 L12,8 L13,8 L13,8 Z M14,8 L15,8 L15,4.5 C15,3.84689059 14.5825962,3.29127106 14,3.08535285 L14,8 L14,8 Z M11,8 L11,3 L10.5,3 C9.67157288,3 9,3.67157288 9,4.5 L9,8 L11,8 L11,8 Z M16,6 L16.5,6 C17.8807119,6 19,7.11928813 19,8.5 L19,19.508331 C19,20.8890429 17.8807119,22.008331 16.5,22.008331 L7.5,22.008331 C6.11928813,22.008331 5,20.8890429 5,19.508331 L5,8.5 C5,7.11928813 6.11928813,6 7.5,6 L8,6 L8,4.5 C8,3.11928813 9.11928813,2 10.5,2 L13.5,2 C14.8807119,2 16,3.11928813 16,4.5 L16,6 Z M8,7 L7.5,7 C6.67157288,7 6,7.67157288 6,8.5 L6,19.508331 C6,20.3367581 6.67157288,21.008331 7.5,21.008331 L16.5,21.008331 C17.3284271,21.008331 18,20.3367581 18,19.508331 L18,8.5 C18,7.67157288 17.3284271,7 16.5,7 L16,7 L16,8 L16.5,8 C16.7761424,8 17,8.22385763 17,8.5 C17,8.77614237 16.7761424,9 16.5,9 L7.5,9 C7.22385763,9 7,8.77614237 7,8.5 C7,8.22385763 7.22385763,8 7.5,8 L8,8 L8,7 Z M7.5,10 L16.5,10 C16.7761424,10 17,10.2238576 17,10.5 L17,13.5 C17,13.7761424 16.7761424,14 16.5,14 L7.5,14 C7.22385763,14 7,13.7761424 7,13.5 L7,10.5 C7,10.2238576 7.22385763,10 7.5,10 Z M8,11 L8,13 L16,13 L16,11 L8,11 Z M8.5,16 C8.22385763,16 8,15.7761424 8,15.5 C8,15.2238576 8.22385763,15 8.5,15 L9.5,15 C9.77614237,15 10,15.2238576 10,15.5 C10,15.7761424 9.77614237,16 9.5,16 L8.5,16 Z M11.5,16 C11.2238576,16 11,15.7761424 11,15.5 C11,15.2238576 11.2238576,15 11.5,15 L12.5,15 C12.7761424,15 13,15.2238576 13,15.5 C13,15.7761424 12.7761424,16 12.5,16 L11.5,16 Z M14.5,16 C14.2238576,16 14,15.7761424 14,15.5 C14,15.2238576 14.2238576,15 14.5,15 L15.5,15 C15.7761424,15 16,15.2238576 16,15.5 C16,15.7761424 15.7761424,16 15.5,16 L14.5,16 Z M8.5,18 C8.22385763,18 8,17.7761424 8,17.5 C8,17.2238576 8.22385763,17 8.5,17 L9.5,17 C9.77614237,17 10,17.2238576 10,17.5 C10,17.7761424 9.77614237,18 9.5,18 L8.5,18 Z M11.5,18 C11.2238576,18 11,17.7761424 11,17.5 C11,17.2238576 11.2238576,17 11.5,17 L12.5,17 C12.7761424,17 13,17.2238576 13,17.5 C13,17.7761424 12.7761424,18 12.5,18 L11.5,18 Z M14.5,18 C14.2238576,18 14,17.7761424 14,17.5 C14,17.2238576 14.2238576,17 14.5,17 L15.5,17 C15.7761424,17 16,17.2238576 16,17.5 C16,17.7761424 15.7761424,18 15.5,18 L14.5,18 Z M8.5,20 C8.22385763,20 8,19.7761424 8,19.5 C8,19.2238576 8.22385763,19 8.5,19 L9.5,19 C9.77614237,19 10,19.2238576 10,19.5 C10,19.7761424 9.77614237,20 9.5,20 L8.5,20 Z M11.5,20 C11.2238576,20 11,19.7761424 11,19.5 C11,19.2238576 11.2238576,19 11.5,19 L12.5,19 C12.7761424,19 13,19.2238576 13,19.5 C13,19.7761424 12.7761424,20 12.5,20 L11.5,20 Z M14.5,20 C14.2238576,20 14,19.7761424 14,19.5 C14,19.2238576 14.2238576,19 14.5,19 L15.5,19 C15.7761424,19 16,19.2238576 16,19.5 C16,19.7761424 15.7761424,20 15.5,20 L14.5,20 Z"/>
</svg>
