<svg xmlns="http://www.w3.org/2000/svg" width="24" height="24" viewBox="0 0 24 24">
  <path d="M18,4 C18,3.44771525 18.4477153,3 19,3 L20,3 C20.5522847,3 21,3.44771525 21,4 L21,5 C21,5.55228475 20.5522847,6 20,6 L20,18 C20.5522847,18 21,18.4477153 21,19 L21,20 C21,20.5522847 20.5522847,21 20,21 L19,21 C18.4477153,21 18,20.5522847 18,20 L6,20 C6,20.5522847 5.55228475,21 5,21 L4,21 C3.44771525,21 3,20.5522847 3,20 L3,19 C3,18.4477153 3.44771525,18 4,18 L4,6 C3.44771525,6 3,5.55228475 3,5 L3,4 C3,3.44771525 3.44771525,3 4,3 L5,3 C5.55228475,3 6,3.44771525 6,4 L18,4 Z M18,5 L6,5 C6,5.55228475 5.55228475,6 5,6 L5,18 C5.55228475,18 6,18.4477153 6,19 L18,19 C18,18.4477153 18.4477153,18 19,18 L19,6 C18.4477153,6 18,5.55228475 18,5 L18,5 Z M10,8 L10,11.5 C10,11.7761424 9.77614237,12 9.5,12 C9.22385763,12 9,11.7761424 9,11.5 L9,8 L7.5,8 C7.22385763,8 7,7.77614237 7,7.5 C7,7.22385763 7.22385763,7 7.5,7 L11.5,7 C11.7761424,7 12,7.22385763 12,7.5 C12,7.77614237 11.7761424,8 11.5,8 L10,8 Z M4,4 L4,5 L5,5 L5,4 L4,4 Z M19,4 L19,5 L20,5 L20,4 L19,4 Z M19,19 L19,20 L20,20 L20,19 L19,19 Z M4,19 L4,20 L5,20 L5,19 L4,19 Z M13.5,8 C13.2238576,8 13,7.77614237 13,7.5 C13,7.22385763 13.2238576,7 13.5,7 L16.5,7 C16.7761424,7 17,7.22385763 17,7.5 C17,7.77614237 16.7761424,8 16.5,8 L13.5,8 Z M13.5,11 C13.2238576,11 13,10.7761424 13,10.5 C13,10.2238576 13.2238576,10 13.5,10 L16.5,10 C16.7761424,10 17,10.2238576 17,10.5 C17,10.7761424 16.7761424,11 16.5,11 L13.5,11 Z M7.5,14 C7.22385763,14 7,13.7761424 7,13.5 C7,13.2238576 7.22385763,13 7.5,13 L16.5,13 C16.7761424,13 17,13.2238576 17,13.5 C17,13.7761424 16.7761424,14 16.5,14 L7.5,14 Z M7.5,17 C7.22385763,17 7,16.7761424 7,16.5 C7,16.2238576 7.22385763,16 7.5,16 L16.5,16 C16.7761424,16 17,16.2238576 17,16.5 C17,16.7761424 16.7761424,17 16.5,17 L7.5,17 Z"/>
</svg>
