<svg xmlns="http://www.w3.org/2000/svg" width="24" height="24" viewBox="0 0 24 24">
  <path d="M4.5,7 C4.22385763,7 4,6.77614237 4,6.5 C4,6.22385763 4.22385763,6 4.5,6 L19.5,6 C19.7761424,6 20,6.22385763 20,6.5 C20,6.77614237 19.7761424,7 19.5,7 L4.5,7 Z M4.5,15 C4.22385763,15 4,14.7761424 4,14.5 C4,14.2238576 4.22385763,14 4.5,14 L19.5,14 C19.7761424,14 20,14.2238576 20,14.5 C20,14.7761424 19.7761424,15 19.5,15 L4.5,15 Z M7.5,11 C7.22385763,11 7,10.7761424 7,10.5 C7,10.2238576 7.22385763,10 7.5,10 L16.5,10 C16.7761424,10 17,10.2238576 17,10.5 C17,10.7761424 16.7761424,11 16.5,11 L7.5,11 Z M7.5,19 C7.22385763,19 7,18.7761424 7,18.5 C7,18.2238576 7.22385763,18 7.5,18 L16.5,18 C16.7761424,18 17,18.2238576 17,18.5 C17,18.7761424 16.7761424,19 16.5,19 L7.5,19 Z"/>
</svg>
