<svg xmlns="http://www.w3.org/2000/svg" width="24" height="24" viewBox="0 0 24 24">
  <path d="M4.5,7 C4.22385763,7 4,6.77614237 4,6.5 C4,6.22385763 4.22385763,6 4.5,6 L19.5,6 C19.7761424,6 20,6.22385763 20,6.5 C20,6.77614237 19.7761424,7 19.5,7 L4.5,7 Z M4.5,15 C4.22385763,15 4,14.7761424 4,14.5 C4,14.2238576 4.22385763,14 4.5,14 L19.5,14 C19.7761424,14 20,14.2238576 20,14.5 C20,14.7761424 19.7761424,15 19.5,15 L4.5,15 Z M10.5,11 C10.2238576,11 10,10.7761424 10,10.5 C10,10.2238576 10.2238576,10 10.5,10 L19.5,10 C19.7761424,10 20,10.2238576 20,10.5 C20,10.7761424 19.7761424,11 19.5,11 L10.5,11 Z M10.5,19 C10.2238576,19 10,18.7761424 10,18.5 C10,18.2238576 10.2238576,18 10.5,18 L19.5,18 C19.7761424,18 20,18.2238576 20,18.5 C20,18.7761424 19.7761424,19 19.5,19 L10.5,19 Z"/>
</svg>
