<svg xmlns="http://www.w3.org/2000/svg" width="24" height="24" viewBox="0 0 24 24">
  <path d="M19,12.5 L19,5.5 C19,5.22385763 18.7761424,5 18.5,5 L16.5,5 C16.2238576,5 16,5.22385763 16,5.5 L16,12.5 C16,12.7761424 16.2238576,13 16.5,13 L18.5,13 C18.7761424,13 19,12.7761424 19,12.5 Z M15.4999933,13.6180473 L14.618034,15.381966 C14.2115971,16.1948399 14,17.0911794 14,18 L14,18.25 C14,19.2164983 13.2164983,20 12.25,20 C11.2835131,20 10.4742708,19.2676458 10.3781018,18.3059554 L10.0475062,15 L6.70997512,15 C5.32926325,15 4.20997512,13.8807119 4.20997512,12.5 C4.20997512,12.4169256 4.21411594,12.3339028 4.22238215,12.2512407 L4.82238215,6.2512407 C4.9501826,4.97323621 6.0255965,4 7.30997512,4 L13.5,4 C14.1725594,4 14.7830891,4.26558108 15.232437,4.69759124 C15.4984178,4.27830024 15.9667087,4 16.5,4 L18.5,4 C19.3284271,4 20,4.67157288 20,5.5 L20,12.5 C20,13.3284271 19.3284271,14 18.5,14 L16.5,14 C16.1158196,14 15.7653724,13.8555708 15.4999933,13.6180473 L15.4999933,13.6180473 Z M15,12.381966 L15,6.49999975 C15,5.67157288 14.3284271,5 13.5,5 L7.30997512,5 C6.53934795,5 5.89409961,5.58394173 5.81741934,6.35074442 L5.21741934,12.3507444 C5.21245961,12.4003417 5.20997512,12.4501554 5.20997512,12.5 C5.20997512,13.3284271 5.881548,14 6.70997512,14 L10.5,14 C10.7568757,14 10.9719585,14.1946472 10.9975186,14.4502481 L11.3731389,18.2064517 C11.4181878,18.6569403 11.7972645,19 12.25,19 C12.6642136,19 13,18.6642136 13,18.25 L13,18 C13,16.9359343 13.2477421,15.8864817 13.7236068,14.9347524 L15,12.381966 L15,12.381966 Z"/>
</svg>
