<svg xmlns="http://www.w3.org/2000/svg" width="24" height="24" viewBox="0 0 24 24">
  <path d="M20,17 L20,5.5 C20,4.67157288 19.3284271,4 18.5,4 L5.5,4 C4.67157288,4 4,4.67157288 4,5.5 L4,17 L20,17 Z M20,18 L4,18 L4,18.5 C4,19.3284271 4.67157288,20 5.5,20 L18.5,20 C19.3284271,20 20,19.3284271 20,18.5 L20,18 Z M3,5.5 C3,4.11928813 4.11928813,3 5.5,3 L18.5,3 C19.8807119,3 21,4.11928813 21,5.5 L21,18.5 C21,19.8807119 19.8807119,21 18.5,21 L5.5,21 C4.11928813,21 3,19.8807119 3,18.5 L3,5.5 Z M12,13.8596876 L14.1876525,12.1095656 C14.4032834,11.9370608 14.7179296,11.9720215 14.8904344,12.1876525 C15.0629392,12.4032834 15.0279785,12.7179296 14.8123475,12.8904344 L12.3123475,14.8904344 C12.1297382,15.0365219 11.8702618,15.0365219 11.6876525,14.8904344 L9.18765248,12.8904344 C8.97202151,12.7179296 8.93706082,12.4032834 9.1095656,12.1876525 C9.28207037,11.9720215 9.59671656,11.9370608 9.81234752,12.1095656 L12,13.8596876 Z"/>
</svg>
