<svg xmlns="http://www.w3.org/2000/svg" width="24" height="24" viewBox="0 0 24 24">
  <path d="M17,20 L17,4 L5.5,4 C4.67157288,4 4,4.67157288 4,5.5 L4,18.5 C4,19.3284271 4.67157288,20 5.5,20 L17,20 Z M18,20 L18.5,20 C19.3284271,20 20,19.3284271 20,18.5 L20,5.5 C20,4.67157288 19.3284271,4 18.5,4 L18,4 L18,20 Z M5.5,3 L18.5,3 C19.8807119,3 21,4.11928813 21,5.5 L21,18.5 C21,19.8807119 19.8807119,21 18.5,21 L5.5,21 C4.11928813,21 3,19.8807119 3,18.5 L3,5.5 C3,4.11928813 4.11928813,3 5.5,3 Z M12.1095656,14.1876525 L13.8596876,12 L12.1095656,9.81234752 C11.9370608,9.59671656 11.9720215,9.28207037 12.1876525,9.1095656 C12.4032834,8.93706082 12.7179296,8.97202151 12.8904344,9.18765248 L14.8904344,11.6876525 C15.0365219,11.8702618 15.0365219,12.1297382 14.8904344,12.3123475 L12.8904344,14.8123475 C12.7179296,15.0279785 12.4032834,15.0629392 12.1876525,14.8904344 C11.9720215,14.7179296 11.9370608,14.4032834 12.1095656,14.1876525 Z"/>
</svg>
