<svg xmlns="http://www.w3.org/2000/svg" width="24" height="24" viewBox="0 0 24 24">
  <path d="M4,7 L4,18.5 C4,19.3284271 4.67157288,20 5.5,20 L18.5,20 C19.3284271,20 20,19.3284271 20,18.5 L20,7 L4,7 Z M4,6 L20,6 L20,5.5 C20,4.67157288 19.3284271,4 18.5,4 L5.5,4 C4.67157288,4 4,4.67157288 4,5.5 L4,6 Z M21,18.5 C21,19.8807119 19.8807119,21 18.5,21 L5.5,21 C4.11928813,21 3,19.8807119 3,18.5 L3,5.5 C3,4.11928813 4.11928813,3 5.5,3 L18.5,3 C19.8807119,3 21,4.11928813 21,5.5 L21,18.5 Z M9.81234752,11.8904344 C9.59671656,12.0629392 9.28207037,12.0279785 9.1095656,11.8123475 C8.93706082,11.5967166 8.97202151,11.2820704 9.18765248,11.1095656 L11.6876525,9.1095656 C11.8702618,8.96347813 12.1297382,8.96347813 12.3123475,9.1095656 L14.8123475,11.1095656 C15.0279785,11.2820704 15.0629392,11.5967166 14.8904344,11.8123475 C14.7179296,12.0279785 14.4032834,12.0629392 14.1876525,11.8904344 L12,10.1403124 L9.81234752,11.8904344 Z"/>
</svg>
