<svg xmlns="http://www.w3.org/2000/svg" width="24" height="24" viewBox="0 0 24 24">
  <path d="M3.09414937,17.7921 C3.06896807,17.7571739 3.04818407,17.7188667 3.03260849,17.6779895 C3.00789474,17.6136633 2.99619016,17.54399 3,17.47319 L3,15.5 C3,15.2238576 3.22385763,15 3.5,15 C3.77614237,15 4,15.2238576 4,15.5 L4,15.5391697 L9.06105221,6.26057393 C9.1486688,6.09994353 9.31702789,6 9.5,6 L20.5,6 C20.8795296,6 21.1206863,6.40623874 20.9389478,6.73942607 L14.9438116,17.7305091 C14.9422474,17.7335145 14.9406536,17.7365021 14.9389478,17.7394261 C14.8513312,17.9000565 14.6829721,18 14.5,18 L3.5,18 C3.32696688,18 3.18269568,17.9155599 3.09414937,17.7921 L3.09414937,17.7921 Z M15,15.5391697 L19.6577289,7 L15,7 L15,7.5 C15,7.77614237 14.7761424,8 14.5,8 C14.2238576,8 14,7.77614237 14,7.5 L14,7 L9.79681655,7 L4.34227109,17 L14,17 L14,15.5 C14,15.2238576 14.2238576,15 14.5,15 C14.7761424,15 15,15.2238576 15,15.5 L15,15.5391697 Z M4.5,7 C4.22385763,7 4,7.22385763 4,7.5 C4,7.77614237 3.77614237,8 3.5,8 C3.22385763,8 3,7.77614237 3,7.5 C3,6.67157288 3.67157288,6 4.5,6 C4.77614237,6 5,6.22385763 5,6.5 C5,6.77614237 4.77614237,7 4.5,7 Z M4,9.5 L4,10.5 C4,10.7761424 3.77614237,11 3.5,11 C3.22385763,11 3,10.7761424 3,10.5 L3,9.5 C3,9.22385763 3.22385763,9 3.5,9 C3.77614237,9 4,9.22385763 4,9.5 Z M4,12.5 L4,13.5 C4,13.7761424 3.77614237,14 3.5,14 C3.22385763,14 3,13.7761424 3,13.5 L3,12.5 C3,12.2238576 3.22385763,12 3.5,12 C3.77614237,12 4,12.2238576 4,12.5 Z M6.5,6 L7.5,6 C7.77614237,6 8,6.22385763 8,6.5 C8,6.77614237 7.77614237,7 7.5,7 L6.5,7 C6.22385763,7 6,6.77614237 6,6.5 C6,6.22385763 6.22385763,6 6.5,6 Z M15,9.5 L15,10.5 C15,10.7761424 14.7761424,11 14.5,11 C14.2238576,11 14,10.7761424 14,10.5 L14,9.5 C14,9.22385763 14.2238576,9 14.5,9 C14.7761424,9 15,9.22385763 15,9.5 Z M15,12.5 L15,13.5 C15,13.7761424 14.7761424,14 14.5,14 C14.2238576,14 14,13.7761424 14,13.5 L14,12.5 C14,12.2238576 14.2238576,12 14.5,12 C14.7761424,12 15,12.2238576 15,12.5 Z"/>
</svg>
