<svg xmlns="http://www.w3.org/2000/svg" width="24" height="24" viewBox="0 0 24 24">
  <path d="M20.9058506,17.7921 C20.8173043,17.9155599 20.6730331,18 20.5,18 L9.5,18 C9.31702789,18 9.1486688,17.9000565 9.06105221,17.7394261 C9.05934636,17.7365021 9.05775256,17.7335145 9.05618839,17.7305091 L3.06105221,6.73942607 C2.87931367,6.40623874 3.12047043,6 3.5,6 L14.5,6 C14.6829721,6 14.8513312,6.09994353 14.9389478,6.26057393 L20,15.5391697 L20,15.5 C20,15.2238576 20.2238576,15 20.5,15 C20.7761424,15 21,15.2238576 21,15.5 L21,17.47319 C21.0038098,17.54399 20.9921053,17.6136633 20.9673915,17.6779895 C20.9518159,17.7188667 20.9310319,17.7571739 20.9058506,17.7921 L20.9058506,17.7921 Z M9,15.5391697 L9,15.5 C9,15.2238576 9.22385763,15 9.5,15 C9.77614237,15 10,15.2238576 10,15.5 L10,17 L19.6577289,17 L14.2031835,7 L10,7 L10,7.5 C10,7.77614237 9.77614237,8 9.5,8 C9.22385763,8 9,7.77614237 9,7.5 L9,7 L4.34227109,7 L9,15.5391697 L9,15.5391697 Z M19.5,7 C19.2238576,7 19,6.77614237 19,6.5 C19,6.22385763 19.2238576,6 19.5,6 C20.3284271,6 21,6.67157288 21,7.5 C21,7.77614237 20.7761424,8 20.5,8 C20.2238576,8 20,7.77614237 20,7.5 C20,7.22385763 19.7761424,7 19.5,7 Z M20,9.5 C20,9.22385763 20.2238576,9 20.5,9 C20.7761424,9 21,9.22385763 21,9.5 L21,10.5 C21,10.7761424 20.7761424,11 20.5,11 C20.2238576,11 20,10.7761424 20,10.5 L20,9.5 Z M20,12.5 C20,12.2238576 20.2238576,12 20.5,12 C20.7761424,12 21,12.2238576 21,12.5 L21,13.5 C21,13.7761424 20.7761424,14 20.5,14 C20.2238576,14 20,13.7761424 20,13.5 L20,12.5 Z M17.5,6 C17.7761424,6 18,6.22385763 18,6.5 C18,6.77614237 17.7761424,7 17.5,7 L16.5,7 C16.2238576,7 16,6.77614237 16,6.5 C16,6.22385763 16.2238576,6 16.5,6 L17.5,6 Z M9,9.5 C9,9.22385763 9.22385763,9 9.5,9 C9.77614237,9 10,9.22385763 10,9.5 L10,10.5 C10,10.7761424 9.77614237,11 9.5,11 C9.22385763,11 9,10.7761424 9,10.5 L9,9.5 Z M9,12.5 C9,12.2238576 9.22385763,12 9.5,12 C9.77614237,12 10,12.2238576 10,12.5 L10,13.5 C10,13.7761424 9.77614237,14 9.5,14 C9.22385763,14 9,13.7761424 9,13.5 L9,12.5 Z"/>
</svg>
