<svg xmlns="http://www.w3.org/2000/svg" width="24" height="24" viewBox="0 0 24 24">
  <path d="M4,15 L9.5,15 C9.77614237,15 10,15.2238576 10,15.5 C10,16.3284271 10.6715729,17 11.5,17 L12.5,17 C13.3284271,17 14,16.3284271 14,15.5 C14,15.2238576 14.2238576,15 14.5,15 L20,15 L20,10.5 C20,10.2238576 20.2238576,10 20.5,10 C20.7761424,10 21,10.2238576 21,10.5 L21,18.5 C21,19.8807119 19.8807119,21 18.5,21 L5.5,21 C4.11928813,21 3,19.8807119 3,18.5 L3,5.5 C3,4.11928813 4.11928813,3 5.5,3 L13.5,3 C13.7761424,3 14,3.22385763 14,3.5 C14,3.77614237 13.7761424,4 13.5,4 L5.5,4 C4.67157288,4 4,4.67157288 4,5.5 L4,15 Z M4,16 L4,18.5 C4,19.3284271 4.67157288,20 5.5,20 L18.5,20 C19.3284271,20 20,19.3284271 20,18.5 L20,16 L14.9499909,16 C14.7183558,17.1411202 13.709479,18 12.5,18 L11.5,18 C10.290521,18 9.28164422,17.1411202 9.05000906,16 L4,16 Z M19.2071068,5.5 L20.8535534,7.14644661 C21.0488155,7.34170876 21.0488155,7.65829124 20.8535534,7.85355339 C20.6582912,8.04881554 20.3417088,8.04881554 20.1464466,7.85355339 L18.5,6.20710678 L16.8535534,7.85355339 C16.6582912,8.04881554 16.3417088,8.04881554 16.1464466,7.85355339 C15.9511845,7.65829124 15.9511845,7.34170876 16.1464466,7.14644661 L17.7928932,5.5 L16.1464466,3.85355339 C15.9511845,3.65829124 15.9511845,3.34170876 16.1464466,3.14644661 C16.3417088,2.95118446 16.6582912,2.95118446 16.8535534,3.14644661 L18.5,4.79289322 L20.1464466,3.14644661 C20.3417088,2.95118446 20.6582912,2.95118446 20.8535534,3.14644661 C21.0488155,3.34170876 21.0488155,3.65829124 20.8535534,3.85355339 L19.2071068,5.5 Z"/>
</svg>
