<svg xmlns="http://www.w3.org/2000/svg" width="24" height="24" viewBox="0 0 24 24">
  <path d="M4,15 L9.5,15 C9.77614237,15 10,15.2238576 10,15.5 C10,16.3284271 10.6715729,17 11.5,17 L12.5,17 C13.3284271,17 14,16.3284271 14,15.5 C14,15.2238576 14.2238576,15 14.5,15 L20,15 L20,8.5 C20,8.22385763 20.2238576,8 20.5,8 C20.7761424,8 21,8.22385763 21,8.5 L21,18.5 C21,19.8807119 19.8807119,21 18.5,21 L5.5,21 C4.11928813,21 3,19.8807119 3,18.5 L3,5.5 C3,4.11928813 4.11928813,3 5.5,3 L10.5,3 C10.7761424,3 11,3.22385763 11,3.5 C11,3.77614237 10.7761424,4 10.5,4 L5.5,4 C4.67157288,4 4,4.67157288 4,5.5 L4,15 Z M4,16 L4,18.5 C4,19.3284271 4.67157288,20 5.5,20 L18.5,20 C19.3284271,20 20,19.3284271 20,18.5 L20,16 L14.9499909,16 C14.7183558,17.1411202 13.709479,18 12.5,18 L11.5,18 C10.290521,18 9.28164422,17.1411202 9.05000906,16 L4,16 Z M16,4.70710678 L16,10.5 C16,10.7761424 15.7761424,11 15.5,11 C15.2238576,11 15,10.7761424 15,10.5 L15,4.70710678 L13.8535534,5.85355339 C13.6582912,6.04881554 13.3417088,6.04881554 13.1464466,5.85355339 C12.9511845,5.65829124 12.9511845,5.34170876 13.1464466,5.14644661 L15.1464466,3.14644661 C15.3417088,2.95118446 15.6582912,2.95118446 15.8535534,3.14644661 L17.8535534,5.14644661 C18.0488155,5.34170876 18.0488155,5.65829124 17.8535534,5.85355339 C17.6582912,6.04881554 17.3417088,6.04881554 17.1464466,5.85355339 L16,4.70710678 Z"/>
</svg>
