<svg xmlns="http://www.w3.org/2000/svg" width="24" height="24" viewBox="0 0 24 24">
  <path d="M8,6 L8,12 C8,14.209139 9.790861,16 12,16 C14.209139,16 16,14.209139 16,12 L16,6 L15.5,6 C15.2238576,6 15,5.77614237 15,5.5 C15,5.22385763 15.2238576,5 15.5,5 L17.5,5 C17.7761424,5 18,5.22385763 18,5.5 C18,5.77614237 17.7761424,6 17.5,6 L17,6 L17,12 C17,14.7614237 14.7614237,17 12,17 C9.23857625,17 7,14.7614237 7,12 L7,6 L6.5,6 C6.22385763,6 6,5.77614237 6,5.5 C6,5.22385763 6.22385763,5 6.5,5 L8.5,5 C8.77614237,5 9,5.22385763 9,5.5 C9,5.77614237 8.77614237,6 8.5,6 L8,6 Z M7.5,19 C7.22385763,19 7,18.7761424 7,18.5 C7,18.2238576 7.22385763,18 7.5,18 L16.5,18 C16.7761424,18 17,18.2238576 17,18.5 C17,18.7761424 16.7761424,19 16.5,19 L7.5,19 Z"/>
</svg>
