<svg xmlns="http://www.w3.org/2000/svg" width="24" height="24" viewBox="0 0 24 24">
  <path d="M9,8.5 C9,8.77645523 8.77565389,9.00044223 8.49919902,8.99999936 L4.50280345,8.99359708 C3.67157288,8.99359468 3,9.66516755 3,10.4935947 L3,19.5 C3,20.3284271 3.67157288,21 4.5,21 L13.5,21 C14.3284271,21 15,20.3284271 15,19.5 L15,15.5000042 C15,15.2238618 15.2238576,15.0000042 15.5,15.0000042 L19.5104277,15.0000042 C20.3388549,15.0000042 21.0104277,14.3284313 21.0104277,13.5000042 L21.0104277,4.47920271 C21.0104277,3.65077559 20.3388549,2.97920271 19.5104277,2.97920271 L10.5,2.97920271 C9.67157288,2.97920271 9,3.65077559 9,4.47920271 L9,8.5 Z M8,7.99919837 L8,4.47920271 C8,3.09849084 9.11928813,1.97920271 10.5,1.97920271 L19.5104277,1.97920271 C20.8911396,1.97920271 22.0104277,3.09849084 22.0104277,4.47920271 L22.0104277,13.5000042 C22.0104277,14.8807161 20.8911396,16.0000042 19.5104277,16.0000042 L16,16.0000042 L16,19.5 C16,20.8807119 14.8807119,22 13.5,22 L4.5,22 C3.11928813,22 2,20.8807119 2,19.5 L2,10.4935947 C2,9.1128828 3.11928813,7.99359468 4.50040049,7.99359484 L8,7.99919837 Z"/>
</svg>
