<svg xmlns="http://www.w3.org/2000/svg" width="24" height="24" viewBox="0 0 24 24">
  <path d="M11.85254,8.84209997 C11.6567198,9.03680246 11.3401387,9.03589638 11.1454362,8.84007618 C10.9507337,8.64425598 10.9516398,8.32767479 11.14746,8.13297229 L13.3219645,5.97087944 C14.6235375,4.67673568 16.7263339,4.67803112 18.0263114,5.97377758 C19.3205246,7.26377861 19.3239392,9.35869818 18.0339382,10.6529114 C18.0304452,10.6564105 17.2917393,11.3909291 15.8178203,12.8564672 C15.6220019,13.0511714 15.3054206,13.0502682 15.1107164,12.8544498 C14.9160121,12.6586314 14.9169153,12.3420502 15.1127337,12.1473459 L17.3183571,9.95427185 C18.2257936,9.04390522 18.223411,7.58214978 17.3203581,6.68203599 C16.4102991,5.77493891 14.9382206,5.77403202 14.0270446,6.68000712 L11.85254,8.84209997 Z M12.1466544,15.146239 C12.3420312,14.9510916 12.6586136,14.9512776 12.853761,15.1466544 C13.0489084,15.3420312 13.0487224,15.6586136 12.8533456,15.853761 L10.6793465,18.0252073 C9.37864254,19.3243839 7.27121347,19.3237649 5.97127292,18.0238243 C4.67147189,16.722496 4.67270935,14.6161047 5.97265529,13.3176852 L8.14665437,11.146239 C8.3420312,10.9510916 8.65861363,10.9512776 8.85376103,11.1466544 C9.04890843,11.3420312 9.04872245,11.6586136 8.85334563,11.853761 L6.67934654,14.0252073 C5.77015425,14.9333319 5.76928876,16.4065584 6.67741343,17.3157507 C7.58795817,18.226296 9.06254262,18.2267292 9.97265529,17.3176852 L12.1466544,15.146239 Z M10,6.5 C10,6.77614237 9.77614237,7 9.5,7 C9.22385763,7 9,6.77614237 9,6.5 L9,4.5 C9,4.22385763 9.22385763,4 9.5,4 C9.77614237,4 10,4.22385763 10,4.5 L10,6.5 Z M15,19.5 C15,19.7761424 14.7761424,20 14.5,20 C14.2238576,20 14,19.7761424 14,19.5 L14,17.5 C14,17.2238576 14.2238576,17 14.5,17 C14.7761424,17 15,17.2238576 15,17.5 L15,19.5 Z M7.85355339,7.14644661 C8.04881554,7.34170876 8.04881554,7.65829124 7.85355339,7.85355339 C7.65829124,8.04881554 7.34170876,8.04881554 7.14644661,7.85355339 L5.14644661,5.85355339 C4.95118446,5.65829124 4.95118446,5.34170876 5.14644661,5.14644661 C5.34170876,4.95118446 5.65829124,4.95118446 5.85355339,5.14644661 L7.85355339,7.14644661 Z M18.8535534,18.1464466 C19.0488155,18.3417088 19.0488155,18.6582912 18.8535534,18.8535534 C18.6582912,19.0488155 18.3417088,19.0488155 18.1464466,18.8535534 L16.1464466,16.8535534 C15.9511845,16.6582912 15.9511845,16.3417088 16.1464466,16.1464466 C16.3417088,15.9511845 16.6582912,15.9511845 16.8535534,16.1464466 L18.8535534,18.1464466 Z M6.5,9 C6.77614237,9 7,9.22385763 7,9.5 C7,9.77614237 6.77614237,10 6.5,10 L4.5,10 C4.22385763,10 4,9.77614237 4,9.5 C4,9.22385763 4.22385763,9 4.5,9 L6.5,9 Z M19.5,14 C19.7761424,14 20,14.2238576 20,14.5 C20,14.7761424 19.7761424,15 19.5,15 L17.5,15 C17.2238576,15 17,14.7761424 17,14.5 C17,14.2238576 17.2238576,14 17.5,14 L19.5,14 Z"/>
</svg>
