<svg xmlns="http://www.w3.org/2000/svg" width="24" height="24" viewBox="0 0 24 24">
  <path d="M13.0336707,17.9112938 C13.2298183,19.0963168 14.2593759,20 15.5,20 L16.5,20 C18.4329966,20 20,18.4329966 20,16.5 L20,5 C19.4477153,5 19,4.55228475 19,4 L19,3 C19,2.44771525 19.4477153,2 20,2 L21,2 C21.5522847,2 22,2.44771525 22,3 L22,4 C22,4.55228475 21.5522847,5 21,5 L21,16.5 C21,18.9852814 18.9852814,21 16.5,21 L15.5,21 C13.7367286,21 12.2780005,19.6960946 12.0354298,17.9998976 C12.0236279,17.9999658 12.0118179,18 12,18 C8.6862915,18 6,15.3137085 6,12 C6,9.03542737 8.15005082,6.57302601 10.9758953,6.08705312 C10.77157,4.34867142 9.29328455,3 7.5,3 C5.56700338,3 4,4.56700338 4,6.5 L4,18 C4.55228475,18 5,18.4477153 5,19 L5,20 C5,20.5522847 4.55228475,21 4,21 L3,21 C2.44771525,21 2,20.5522847 2,20 L2,19 C2,18.4477153 2.44771525,18 3,18 L3,6.5 C3,4.01471863 5.01471863,2 7.5,2 C9.81629793,2 11.7238482,3.75005666 11.9725424,6.0000615 C11.9816901,6.00002051 11.9908427,6 12,6 C15.3137085,6 18,8.6862915 18,12 C18,14.9612266 15.8547999,17.4214148 13.0336707,17.9112938 L13.0336707,17.9112938 Z M15.9090429,15.1178937 C15.7919869,14.797352 15.5682185,14.5240263 15.2717436,14.3461414 L13.7529396,13.434859 C13.2598461,13.790478 12.6543913,14 12,14 C11.3456087,14 10.7401539,13.790478 10.2470604,13.434859 L8.72825637,14.3461414 C8.43194774,14.5239265 8.2080982,14.7971355 8.0909592,15.1178963 C9.00714034,16.2650449 10.4177412,17 12,17 C13.58226,17 14.9928618,16.2650437 15.9090429,15.1178937 L15.9090429,15.1178937 Z M16.5145238,14.1519087 C16.8257549,13.5001423 17,12.7704197 17,12 C17,9.23857625 14.7614237,7 12,7 C9.23857625,7 7,9.23857625 7,12 C7,12.770419 7.17424478,13.500141 7.4854754,14.151907 C7.67982977,13.8874343 7.92634925,13.6610953 8.21376061,13.4886484 L9.52792418,12.7001503 C9.19494952,12.216916 9,11.6312245 9,11 C9,9.34314575 10.3431458,8 12,8 C13.6568542,8 15,9.34314575 15,11 C15,11.6312245 14.8050505,12.216916 14.4720758,12.7001503 L15.7862394,13.4886484 C16.0737439,13.6611512 16.3202307,13.8875211 16.5145238,14.1519087 L16.5145238,14.1519087 Z M12,13 C13.1045695,13 14,12.1045695 14,11 C14,9.8954305 13.1045695,9 12,9 C10.8954305,9 10,9.8954305 10,11 C10,12.1045695 10.8954305,13 12,13 Z M3,19 L3,20 L4,20 L4,19 L3,19 Z M20,3 L20,4 L21,4 L21,3 L20,3 Z"/>
</svg>
