<svg xmlns="http://www.w3.org/2000/svg" width="24" height="24" viewBox="0 0 24 24">
  <path d="M14.4905587,8.6302306 L17,10.5 C17.5596228,10.9197171 17.9145408,11.5518881 17.9864521,12.2399089 C18.6319487,12.0831073 19.306269,12 20,12 L20.2928932,12 L18.1464466,9.85355339 C17.9511845,9.65829124 17.9511845,9.34170876 18.1464466,9.14644661 C18.3417088,8.95118446 18.6582912,8.95118446 18.8535534,9.14644661 L21.8535534,12.1464466 C22.0488155,12.3417088 22.0488155,12.6582912 21.8535534,12.8535534 L18.8535534,15.8535534 C18.6582912,16.0488155 18.3417088,16.0488155 18.1464466,15.8535534 C17.9511845,15.6582912 17.9511845,15.3417088 18.1464466,15.1464466 L20.2928932,13 L20,13 C15.8578644,13 12.5,16.3578644 12.5,20.5 C12.5,20.7761424 12.2761424,21 12,21 C11.7238576,21 11.5,20.7761424 11.5,20.5 C11.5,16.3578644 8.14213562,13 4,13 L3.70710678,13 L5.85355339,15.1464466 C6.04881554,15.3417088 6.04881554,15.6582912 5.85355339,15.8535534 C5.65829124,16.0488155 5.34170876,16.0488155 5.14644661,15.8535534 L2.14644661,12.8535534 C1.95118446,12.6582912 1.95118446,12.3417088 2.14644661,12.1464466 L5.14644661,9.14644661 C5.34170876,8.95118446 5.65829124,8.95118446 5.85355339,9.14644661 C6.04881554,9.34170876 6.04881554,9.65829124 5.85355339,9.85355339 L3.70710678,12 L4,12 C4.69373122,12 5.36805168,12.0831073 6.01354844,12.2399091 C6.0854646,11.5518842 6.44042777,10.9196792 7.00045677,10.4996578 L9.50437075,8.6261842 C8.58740368,7.89321181 8,6.76520365 8,5.5 C8,3.290861 9.790861,1.5 12,1.5 C14.209139,1.5 16,3.290861 16,5.5 C16,6.76753416 15.4104303,7.89736694 14.4905587,8.6302306 Z M13.5603783,9.18422115 C13.080918,9.38754062 12.5535922,9.5 12,9.5 C11.4434949,9.5 10.9135333,9.38635403 10.4320571,9.18100412 L7.6,11.3 C7.22229124,11.5832816 7,12.027864 7,12.5 C7,12.5147713 6.99935947,12.529393 6.99810466,12.5438388 C9.32029344,13.4193412 11.1582579,15.2823524 12,17.6208745 C12.8417421,15.2823524 14.6797066,13.4193412 17.0018953,12.5438388 C17.0006405,12.529393 17,12.5147713 17,12.5 C17,12.027864 16.7777088,11.5832816 16.4012607,11.3009424 L13.5603783,9.18422115 L13.5603783,9.18422115 Z M12,8.5 C13.6568542,8.5 15,7.15685425 15,5.5 C15,3.84314575 13.6568542,2.5 12,2.5 C10.3431458,2.5 9,3.84314575 9,5.5 C9,7.15685425 10.3431458,8.5 12,8.5 Z"/>
</svg>
