<svg xmlns="http://www.w3.org/2000/svg" width="24" height="24" viewBox="0 0 24 24">
  <path d="M14,13.5032816 C13.9999833,13.5009153 13.9999833,13.4985486 14,13.4961817 L14,10.5038184 C13.9999833,10.5014514 13.9999833,10.4990847 14,10.4967184 L14,9.5 C14,8.67157288 13.3284271,8 12.5,8 L5.5,8 C4.67157288,8 4,8.67157288 4,9.5 L4,14.5 C4,15.3284271 4.67157288,16 5.5,16 L12.5,16 C13.3284271,16 14,15.3284271 14,14.5 L14,13.5032829 L14,13.5032816 Z M14.9991251,9.4332083 L17.2275759,7.57616596 C18.2034127,6.76296857 19.6537116,6.89481392 20.4669089,7.87065078 C20.8113627,8.28399529 21,8.80502094 21,9.3430749 L21,14.6569251 C21,15.92718 19.9702549,16.9569251 18.7,16.9569251 C18.161946,16.9569251 17.6409204,16.7682878 17.2275759,16.423834 L14.9991251,14.5667917 C14.9637218,15.9166288 13.8583784,17 12.5,17 L5.5,17 C4.11928813,17 3,15.8807119 3,14.5 L3,9.5 C3,8.11928813 4.11928813,7 5.5,7 L12.5,7 C13.8583784,7 14.9637218,8.08337121 14.9991251,9.4332083 Z M15,10.7341875 L15,13.2658125 L17.8677603,15.6556128 C18.1013898,15.850304 18.3958825,15.9569251 18.7,15.9569251 C19.4179702,15.9569251 20,15.3748953 20,14.6569251 L20,9.3430749 C20,9.03895745 19.8933789,8.74446468 19.6986877,8.51083518 C19.2390544,7.95927522 18.4193202,7.88475393 17.8677603,8.34438724 L15,10.7341875 L15,10.7341875 Z"/>
</svg>
