<svg xmlns="http://www.w3.org/2000/svg" width="24" height="24" viewBox="0 0 24 24">
  <path d="M7.6483713,16 L5.5,16 C4.11928813,16 3,14.8807119 3,13.5 L3,8.5 C3,7.11928813 4.11928813,6 5.5,6 L12.5,6 C13.8583784,6 14.9637218,7.08337121 14.9991251,8.4332083 L17.2275759,6.57616596 C18.2034127,5.76296857 19.6537116,5.89481392 20.4669089,6.87065078 C20.8113627,7.28399529 21,7.80502094 21,8.3430749 L21,13.6569251 C21,14.92718 19.9702549,15.9569251 18.7,15.9569251 C18.161946,15.9569251 17.6409204,15.7682878 17.2275759,15.423834 L14.9991251,13.5667917 C14.9637218,14.9166288 13.8583784,16 12.5,16 L10.3516287,16 L12.8253957,18.1203717 C13.0350586,18.3000828 13.0593394,18.6157328 12.8796283,18.8253957 C12.6999172,19.0350586 12.3842672,19.0593394 12.1746043,18.8796283 L9,16.1585389 L5.82539569,18.8796283 C5.61573277,19.0593394 5.30008277,19.0350586 5.1203717,18.8253957 C4.94066062,18.6157328 4.96494139,18.3000828 5.17460431,18.1203717 L7.6483713,16 L7.6483713,16 Z M14,12.5032816 C13.9999833,12.5009153 13.9999833,12.4985486 14,12.4961817 L14,9.50381843 C13.9999833,9.50145142 13.9999833,9.4990847 14,9.49671835 L14,8.5 C14,7.67157288 13.3284271,7 12.5,7 L5.5,7 C4.67157288,7 4,7.67157288 4,8.5 L4,13.5 C4,14.3284271 4.67157288,15 5.5,15 L12.5,15 C13.3284271,15 14,14.3284271 14,13.5 L14,12.5032829 L14,12.5032816 Z M15,9.73418747 L15,12.2658125 L17.8677603,14.6556128 C18.1013898,14.850304 18.3958825,14.9569251 18.7,14.9569251 C19.4179702,14.9569251 20,14.3748953 20,13.6569251 L20,8.3430749 C20,8.03895745 19.8933789,7.74446468 19.6986877,7.51083518 C19.2390544,6.95927522 18.4193202,6.88475393 17.8677603,7.34438724 L15,9.73418747 Z"/>
</svg>
