<svg xmlns="http://www.w3.org/2000/svg" width="24" height="24" viewBox="0 0 24 24">
  <path d="M14.9991251,14.5667917 C14.9637218,15.9166288 13.8583784,17 12.5,17 L5.5,17 C4.11928813,17 3,15.8807119 3,14.5 L3,9.5 C3,8.11928813 4.11928813,7 5.5,7 L10.690983,7 L10.190983,6 L6.5,6 C6.22385763,6 6,5.77614237 6,5.5 C6,5.22385763 6.22385763,5 6.5,5 L10.5,5 C10.689386,5 10.8625176,5.10700119 10.9472136,5.2763932 L11.809017,7 L12.5,7 C13.8583784,7 14.9637218,8.08337121 14.9991251,9.4332083 L17.2275759,7.57616596 C18.2034127,6.76296857 19.6537116,6.89481392 20.4669089,7.87065078 C20.8113627,8.28399529 21,8.80502094 21,9.3430749 L21,14.6569251 C21,15.92718 19.9702549,16.9569251 18.7,16.9569251 C18.161946,16.9569251 17.6409204,16.7682878 17.2275759,16.423834 L14.9991251,14.5667917 Z M15,13.2658125 L17.8677603,15.6556128 C18.1013898,15.850304 18.3958825,15.9569251 18.7,15.9569251 C19.4179702,15.9569251 20,15.3748953 20,14.6569251 L20,9.3430749 C20,9.03895745 19.8933789,8.74446468 19.6986877,8.51083518 C19.2390544,7.95927522 18.4193202,7.88475393 17.8677603,8.34438724 L15,10.7341875 L15,13.2658125 L15,13.2658125 Z M14,14.5 L14,9.5 C14,8.67157288 13.3284271,8 12.5,8 L11.510832,8 C11.5038593,8.00014629 11.4968943,8.00014579 11.4899413,8 L5.5,8 C4.67157288,8 4,8.67157288 4,9.5 L4,14.5 C4,15.3284271 4.67157288,16 5.5,16 L12.5,16 C13.3284271,16 14,15.3284271 14,14.5 Z M5.5,10 C5.22385763,10 5,9.77614237 5,9.5 C5,9.22385763 5.22385763,9 5.5,9 L8.5,9 C8.77614237,9 9,9.22385763 9,9.5 C9,9.77614237 8.77614237,10 8.5,10 L5.5,10 Z M8.5,15 C8.22385763,15 8,14.7761424 8,14.5 C8,14.2238576 8.22385763,14 8.5,14 L9.5,14 C9.77614237,14 10,14.2238576 10,14.5 C10,14.7761424 9.77614237,15 9.5,15 L8.5,15 Z M11.5,15 C11.2238576,15 11,14.7761424 11,14.5 C11,14.2238576 11.2238576,14 11.5,14 L12.5,14 C12.7761424,14 13,14.2238576 13,14.5 C13,14.7761424 12.7761424,15 12.5,15 L11.5,15 Z"/>
</svg>
