<svg xmlns="http://www.w3.org/2000/svg" width="24" height="24" viewBox="0 0 24 24">
  <path d="M3,10.5111644 L3,15.5 C3,17.3147345 7.00250555,19 12,19 C16.9974944,19 21,17.3147345 21,15.5 L21,10.5111644 C19.3748799,12.0240217 15.9426543,13 12,13 C8.05734565,13 4.62512015,12.0240217 3,10.5111644 L3,10.5111644 Z M2,8.5 C2,5.89645651 6.5040842,4 12,4 C17.4959158,4 22,5.89645651 22,8.5 L22,15.5 C22,18.1035435 17.4959158,20 12,20 C6.5040842,20 2,18.1035435 2,15.5 L2,8.5 Z M12,12 C16.9974944,12 21,10.3147345 21,8.5 C21,6.6852655 16.9974944,5 12,5 C7.00250555,5 3,6.6852655 3,8.5 C3,10.3147345 7.00250555,12 12,12 Z M5.3186998,16.8831351 C5.06186022,16.7817051 4.93587587,16.4912702 5.03730587,16.2344306 C5.13873587,15.9775911 5.42917074,15.8516067 5.68601032,15.9530367 C6.52258508,16.2834133 7.50573742,16.5469161 8.58306538,16.7267323 C8.85543981,16.7721942 9.03938878,17.0298514 8.99392692,17.3022258 C8.94846505,17.5746002 8.69080783,17.7585492 8.4184334,17.7130874 C7.27442466,17.5221415 6.2236538,17.2405157 5.3186998,16.8831351 Z M8,10 C6.92805578,10 6,9.38129614 6,8.5 C6,7.61870386 6.92805578,7 8,7 C9.07194422,7 10,7.61870386 10,8.5 C10,9.38129614 9.07194422,10 8,10 Z M8,9 C8.58491003,9 9,8.72327336 9,8.5 C9,8.27672664 8.58491003,8 8,8 C7.41508997,8 7,8.27672664 7,8.5 C7,8.72327336 7.41508997,9 8,9 Z M16,10 C14.9280558,10 14,9.38129614 14,8.5 C14,7.61870386 14.9280558,7 16,7 C17.0719442,7 18,7.61870386 18,8.5 C18,9.38129614 17.0719442,10 16,10 Z M16,9 C16.58491,9 17,8.72327336 17,8.5 C17,8.27672664 16.58491,8 16,8 C15.41509,8 15,8.27672664 15,8.5 C15,8.72327336 15.41509,9 16,9 Z"/>
</svg>
