<svg xmlns="http://www.w3.org/2000/svg" width="24" height="24" viewBox="0 0 24 24">
  <path d="M12,6 L10.809017,6 L10.2888544,7.04032522 C9.38191227,8.85420946 7.52798422,10 5.5,10 L5,10 C3.8954305,10 3,10.8954305 3,12 C3,13.1045695 3.8954305,14 5,14 L5.5,14 C7.52798422,14 9.38191227,15.1457905 10.2888544,16.9596748 L10.809017,18 L12,18 L12,6 Z M13,5.5 L13,18.5 C13,18.7761424 12.7761424,19 12.5,19 L10.5,19 C10.310614,19 10.1374824,18.8929988 10.0527864,18.7236068 L9.39442719,17.4068884 C8.65687709,15.9317882 7.14921216,15 5.5,15 L5,15 C3.34314575,15 2,13.6568542 2,12 C2,10.3431458 3.34314575,9 5,9 L5.5,9 C7.14921216,9 8.65687709,8.06821183 9.39442719,6.59311163 L10.0527864,5.2763932 C10.1374824,5.10700119 10.310614,5 10.5,5 L12.5,5 C12.7761424,5 13,5.22385763 13,5.5 Z M14.1429857,9.8500583 C13.9496539,9.65288477 13.9527682,9.3363176 14.1499417,9.14298574 C14.3471152,8.94965387 14.6636824,8.95276816 14.8570143,9.1499417 C16.409204,10.7329748 16.409204,13.2670252 14.8570143,14.8500583 C14.6636824,15.0472318 14.3471152,15.0503461 14.1499417,14.8570143 C13.9527682,14.6636824 13.9496539,14.3471152 14.1429857,14.1499417 C15.3138802,12.9557806 15.3138802,11.0442194 14.1429857,9.8500583 Z M16.1652488,7.87140492 C15.9601275,7.68652692 15.9437171,7.37037004 16.1285951,7.16524877 C16.3134731,6.9601275 16.62963,6.94371708 16.8347512,7.12859508 C19.5251539,9.55348383 19.7403954,13.7002468 17.3155067,16.3906495 C17.1636751,16.5591059 17.0032077,16.7195733 16.8347512,16.8714049 C16.62963,17.0562829 16.3134731,17.0398725 16.1285951,16.8347512 C15.9437171,16.62963 15.9601275,16.3134731 16.1652488,16.1285951 C16.3080183,15.9999153 16.4440171,15.8639166 16.5726968,15.721147 C18.6278296,13.4409869 18.4454089,9.92653766 16.1652488,7.87140492 Z M18.1757046,5.88056863 C17.9655223,5.70146521 17.940328,5.38588683 18.1194314,5.17570458 C18.2985348,4.96552233 18.6141132,4.94032796 18.8242954,5.11943137 C22.6243285,8.35756831 23.0798354,14.0631325 19.8416985,17.8631656 C19.5301348,18.2287932 19.1899231,18.5690049 18.8242954,18.8805686 C18.6141132,19.059672 18.2985348,19.0344777 18.1194314,18.8242954 C17.940328,18.6141132 17.9655223,18.2985348 18.1757046,18.1194314 C18.500886,17.8423332 18.8034631,17.5397562 19.0805612,17.2145747 C21.9604913,13.8349061 21.5553732,8.76049874 18.1757046,5.88056863 Z"/>
</svg>
