<svg xmlns="http://www.w3.org/2000/svg" width="24" height="24" viewBox="0 0 24 24">
  <path d="M18,11.2928932 L20.1464466,9.14644661 C20.3417088,8.95118446 20.6582912,8.95118446 20.8535534,9.14644661 C21.0488155,9.34170876 21.0488155,9.65829124 20.8535534,9.85355339 L18.7071068,12 L20.8535534,14.1464466 C21.0488155,14.3417088 21.0488155,14.6582912 20.8535534,14.8535534 C20.6582912,15.0488155 20.3417088,15.0488155 20.1464466,14.8535534 L18,12.7071068 L15.8535534,14.8535534 C15.6582912,15.0488155 15.3417088,15.0488155 15.1464466,14.8535534 C14.9511845,14.6582912 14.9511845,14.3417088 15.1464466,14.1464466 L17.2928932,12 L15.1464466,9.85355339 C14.9511845,9.65829124 14.9511845,9.34170876 15.1464466,9.14644661 C15.3417088,8.95118446 15.6582912,8.95118446 15.8535534,9.14644661 L18,11.2928932 L18,11.2928932 Z M13,5.5 L13,18.5 C13,18.7761424 12.7761424,19 12.5,19 L10.5,19 C10.310614,19 10.1374824,18.8929988 10.0527864,18.7236068 L9.39442719,17.4068884 C8.65687709,15.9317882 7.14921216,15 5.5,15 L5,15 C3.34314575,15 2,13.6568542 2,12 C2,10.3431458 3.34314575,9 5,9 L5.5,9 C7.14921216,9 8.65687709,8.06821183 9.39442719,6.59311163 L10.0527864,5.2763932 C10.1374824,5.10700119 10.310614,5 10.5,5 L12.5,5 C12.7761424,5 13,5.22385763 13,5.5 Z M12,6 L10.809017,6 L10.2888544,7.04032522 C9.38191227,8.85420946 7.52798422,10 5.5,10 L5,10 C3.8954305,10 3,10.8954305 3,12 C3,13.1045695 3.8954305,14 5,14 L5.5,14 C7.52798422,14 9.38191227,15.1457905 10.2888544,16.9596748 L10.809017,18 L12,18 L12,6 Z"/>
</svg>
