<svg xmlns="http://www.w3.org/2000/svg" width="24" height="24" viewBox="0 0 24 24">
  <path d="M21,8.5 C20.582,8.186 20.063,8 19.5,8 L18.95,8 C18.718,6.859 17.709,6 16.5,6 L7.5,6 C6.291,6 5.282,6.859 5.05,8 L4.5,8 C3.671,8 3,7.329 3,6.5 L3,5.5 C3,4.671 3.671,4 4.5,4 L19.5,4 C20.329,4 21,4.671 21,5.5 L21,8.5 Z M6.085,8 C6.291,7.417 6.847,7 7.5,7 L16.5,7 C17.153,7 17.709,7.417 17.915,8 L6.085,8 Z M21,12 L17.5,12 C16.119,12 15,13.119 15,14.5 C15,15.881 16.119,17 17.5,17 L21,17 L21,18.5 C21,19.328 20.329,20 19.5,20 L4.5,20 C3.671,20 3,19.328 3,18.5 L3,8.5 C3.418,8.814 3.937,9 4.5,9 L19.5,9 C20.329,9 21,9.672 21,10.5 L21,12 Z M21,16 L17.5,16 C16.671,16 16,15.328 16,14.5 C16,13.672 16.671,13 17.5,13 L21,13 L21,16 Z M19.5,3 L4.5,3 C3.119,3 2,4.119 2,5.5 L2,18.5 C2,19.881 3.119,21 4.5,21 L19.5,21 C20.881,21 22,19.881 22,18.5 L22,5.5 C22,4.119 20.881,3 19.5,3 L19.5,3 Z"/>
</svg>
