<svg xmlns="http://www.w3.org/2000/svg" width="24" height="24" viewBox="0 0 24 24">
  <path d="M3,6.82861849 L3,17.171715 C8.75089061,19.6150491 15.2491094,19.6150491 21,17.171715 L21,6.82861849 C15.2479329,4.39105461 8.75206709,4.39105461 3,6.82861849 Z M2.29844959,6.04242221 C8.4796205,3.3197867 15.5203795,3.3197867 21.7015504,6.04242221 C21.8829313,6.12231549 22,6.30180324 22,6.5 L22,17.5 C22,17.6980263 21.8831301,17.8773934 21.7019802,17.9573882 C15.5218729,20.6864913 8.47812706,20.6864913 2.29801975,17.9573882 C2.11686993,17.8773934 2,17.6980263 2,17.5 L2,6.5 C2,6.30180324 2.11706872,6.12231549 2.29844959,6.04242221 Z"/>
</svg>
