<svg xmlns="http://www.w3.org/2000/svg" width="24" height="24" viewBox="0 0 24 24">
  <path d="M4.70710678,18 L6.85355339,20.1464466 C7.04881554,20.3417088 7.04881554,20.6582912 6.85355339,20.8535534 C6.65829124,21.0488155 6.34170876,21.0488155 6.14644661,20.8535534 L3.14644661,17.8535534 C2.95118446,17.6582912 2.95118446,17.3417088 3.14644661,17.1464466 L6.14644661,14.1464466 C6.34170876,13.9511845 6.65829124,13.9511845 6.85355339,14.1464466 C7.04881554,14.3417088 7.04881554,14.6582912 6.85355339,14.8535534 L4.70710678,17 L19.2928932,17 L17.1464466,14.8535534 C16.9511845,14.6582912 16.9511845,14.3417088 17.1464466,14.1464466 C17.3417088,13.9511845 17.6582912,13.9511845 17.8535534,14.1464466 L20.8535534,17.1464466 C21.0488155,17.3417088 21.0488155,17.6582912 20.8535534,17.8535534 L17.8535534,20.8535534 C17.6582912,21.0488155 17.3417088,21.0488155 17.1464466,20.8535534 C16.9511845,20.6582912 16.9511845,20.3417088 17.1464466,20.1464466 L19.2928932,18 L4.70710678,18 Z M3,5.5 C3,4.11928813 4.11928813,3 5.5,3 L18.5,3 C19.8807119,3 21,4.11928813 21,5.5 L21,8.5 C21,9.88071187 19.8807119,11 18.5,11 L5.5,11 C4.11928813,11 3,9.88071187 3,8.5 L3,5.5 Z M4,5.5 L4,8.5 C4,9.32842712 4.67157288,10 5.5,10 L18.5,10 C19.3284271,10 20,9.32842712 20,8.5 L20,5.5 C20,4.67157288 19.3284271,4 18.5,4 L5.5,4 C4.67157288,4 4,4.67157288 4,5.5 Z"/>
</svg>
