<svg xmlns="http://www.w3.org/2000/svg" width="24" height="24" viewBox="0 0 24 24">
  <path d="M16.7439414,7 L17.5,7 C19.9852814,7 22,9.01471863 22,11.5 C22,13.9852814 19.9852814,16 17.5,16 L11.5,16 C11.2238576,16 11,15.7761424 11,15.5 C11,15.2238576 11.2238576,15 11.5,15 L17.5,15 C19.4329966,15 21,13.4329966 21,11.5 C21,9.56700338 19.4329966,8 17.5,8 L16.9725356,8 C16.9906833,8.16416693 17,8.33099545 17,8.5 C17,8.77614237 16.7761424,9 16.5,9 C16.2238576,9 16,8.77614237 16,8.5 C16,6.56700338 14.4329966,5 12.5,5 L12,5 C9.790861,5 8,6.790861 8,9 L8,9.5 C8,9.77614237 7.77614237,10 7.5,10 C6.43258736,10 5.4933817,10.6751517 5.14273446,11.6649026 C5.0505193,11.9251928 4.76475726,12.0614445 4.50446709,11.9692293 C4.24417691,11.8770142 4.10792519,11.5912521 4.20014035,11.330962 C4.63552757,10.1020207 5.71845994,9.21978032 7,9.03565397 L7,9 C7,6.23857625 9.23857625,4 12,4 L12.5,4 C14.4593282,4 16.1261868,5.25221144 16.7439414,7 L16.7439414,7 Z M11.5,11 C11.2238576,11 11,10.7761424 11,10.5 C11,10.2238576 11.2238576,10 11.5,10 L12,10 C13.1045695,10 14,10.8954305 14,12 C14,13.1045695 13.1045695,14 12,14 L2.5,14 C2.22385763,14 2,13.7761424 2,13.5 C2,13.2238576 2.22385763,13 2.5,13 L12,13 C12.5522847,13 13,12.5522847 13,12 C13,11.4477153 12.5522847,11 12,11 L11.5,11 Z M4.5,17 C4.22385763,17 4,16.7761424 4,16.5 C4,16.2238576 4.22385763,16 4.5,16 L9,16 C10.1045695,16 11,16.8954305 11,18 C11,19.1045695 10.1045695,20 9,20 L7.5,20 C7.22385763,20 7,19.7761424 7,19.5 C7,19.2238576 7.22385763,19 7.5,19 L9,19 C9.55228475,19 10,18.5522847 10,18 C10,17.4477153 9.55228475,17 9,17 L4.5,17 Z"/>
</svg>
