<svg xmlns="http://www.w3.org/2000/svg" width="24" height="24" viewBox="0 0 24 24">
  <path d="M13,18.1289085 L19,18.9289085 L19,13 L13,13 L13,18.1289085 Z M12.5,12 L19.5,12 C19.7761424,12 20,12.2238576 20,12.5 L20,19.5 C20,19.8023946 19.7336601,20.0355795 19.4339181,19.995614 L12.4339181,19.0622806 C12.1855151,19.0291602 12,18.817268 12,18.5666667 L12,12.5 C12,12.2238576 12.2238576,12 12.5,12 Z M11,12.5 L11,18.3 C11,18.6023946 10.7336601,18.8355795 10.4339181,18.795614 L4.43391814,17.995614 C4.18551513,17.9624935 4,17.7506013 4,17.5 L4,12.5 C4,12.2238576 4.22385763,12 4.5,12 L10.5,12 C10.7761424,12 11,12.2238576 11,12.5 Z M10,13 L5,13 L5,17.0622418 L10,17.7289085 L10,13 Z M12.4339181,3.93771938 L19.4339181,3.00438605 C19.7336601,2.96442045 20,3.19760538 20,3.5 L20,10.5 C20,10.7761424 19.7761424,11 19.5,11 L12.5,11 C12.2238576,11 12,10.7761424 12,10.5 L12,4.43333333 C12,4.18273202 12.1855151,3.97083978 12.4339181,3.93771938 Z M13,4.87109153 L13,10 L19,10 L19,4.07109153 L13,4.87109153 Z M11,4.7 L11,10.5 C11,10.7761424 10.7761424,11 10.5,11 L4.5,11 C4.22385763,11 4,10.7761424 4,10.5 L4,5.5 C4,5.24939869 4.18551513,5.03750645 4.43391814,5.00438605 L10.4339181,4.20438605 C10.7336601,4.16442045 11,4.39760538 11,4.7 Z M10,5.27109153 L5,5.9377582 L5,10 L10,10 L10,5.27109153 Z"/>
</svg>
