<svg xmlns="http://www.w3.org/2000/svg" width="24" height="24" viewBox="0 0 24 24">
  <path d="M10.5,7 C10.2238576,7 10,6.77614237 10,6.5 C10,6.22385763 10.2238576,6 10.5,6 L12,6 C13.1045695,6 14,6.8954305 14,8 C14,9.1045695 13.1045695,10 12,10 L5.5,10 C5.22385763,10 5,9.77614237 5,9.5 C5,9.22385763 5.22385763,9 5.5,9 L12,9 C12.5522847,9 13,8.55228475 13,8 C13,7.44771525 12.5522847,7 12,7 L10.5,7 Z M16.5,7 C16.2238576,7 16,6.77614237 16,6.5 C16,6.22385763 16.2238576,6 16.5,6 L17.5,6 C19.4329966,6 21,7.56700338 21,9.5 C21,11.4329966 19.4329966,13 17.5,13 L3.5,13 C3.22385763,13 3,12.7761424 3,12.5 C3,12.2238576 3.22385763,12 3.5,12 L17.5,12 C18.8807119,12 20,10.8807119 20,9.5 C20,8.11928813 18.8807119,7 17.5,7 L16.5,7 Z M7.5,16 C7.22385763,16 7,15.7761424 7,15.5 C7,15.2238576 7.22385763,15 7.5,15 L15,15 C16.1045695,15 17,15.8954305 17,17 C17,18.1045695 16.1045695,19 15,19 L13.5,19 C13.2238576,19 13,18.7761424 13,18.5 C13,18.2238576 13.2238576,18 13.5,18 L15,18 C15.5522847,18 16,17.5522847 16,17 C16,16.4477153 15.5522847,16 15,16 L7.5,16 Z"/>
</svg>
