<svg xmlns="http://www.w3.org/2000/svg" width="24" height="24" viewBox="0 0 24 24">
  <path d="M15.7439414,9 L16.5,9 C18.9852814,9 21,11.0147186 21,13.5 C21,15.9852814 18.9852814,18 16.5,18 L10.5,18 C10.2238576,18 10,17.7761424 10,17.5 C10,17.2238576 10.2238576,17 10.5,17 L16.5,17 C18.4329966,17 20,15.4329966 20,13.5 C20,11.5670034 18.4329966,10 16.5,10 L15.9725356,10 C15.9906833,10.1641669 16,10.3309955 16,10.5 C16,10.7761424 15.7761424,11 15.5,11 C15.2238576,11 15,10.7761424 15,10.5 C15,8.56700338 13.4329966,7 11.5,7 L11,7 C8.790861,7 7,8.790861 7,11 L7,11.5 C7,11.7761424 6.77614237,12 6.5,12 C5.43258736,12 4.4933817,12.6751517 4.14273446,13.6649026 C4.0505193,13.9251928 3.76475726,14.0614445 3.50446709,13.9692293 C3.24417691,13.8770142 3.10792519,13.5912521 3.20014035,13.330962 C3.63552757,12.1020207 4.71845994,11.2197803 6,11.035654 L6,11 C6,8.23857625 8.23857625,6 11,6 L11.5,6 C13.4593282,6 15.1261868,7.25221144 15.7439414,9 L15.7439414,9 Z M15.1096548,5.62689038 C15.0410039,5.89436312 14.7685219,6.05554005 14.5010491,5.98688914 C14.2335764,5.91823823 14.0723994,5.64575618 14.1410504,5.37828345 C14.6476997,3.40431271 16.4336437,2 18.5,2 C18.6807736,2 18.8603436,2.01068471 19.0380487,2.03188349 C19.4175582,2.0771559 19.60801,2.51420726 19.3827897,2.82299985 C19.1352439,3.16240235 19,3.57034112 19,4 C19,5.1045695 19.8954305,6 21,6 C21.4296589,6 21.8375976,5.86475615 22.1770002,5.6172103 C22.4857927,5.39199003 22.9228441,5.5824418 22.9681165,5.96195127 C22.9893153,6.13965636 23,6.31922636 23,6.5 C23,7.62000205 22.5886376,8.67734952 21.8577341,9.4959942 C21.673823,9.70198286 21.3577469,9.71988028 21.1517582,9.5359692 C20.9457695,9.35205812 20.9278721,9.03598194 21.1117832,8.82999328 C21.6072082,8.27509506 21.9134172,7.58074856 21.9841951,6.83471677 C21.6717556,6.94314818 21.3399804,7 21,7 C19.3431458,7 18,5.65685425 18,4 C18,3.66005642 18.0568395,3.32831625 18.165248,3.01590637 C16.7028531,3.15546559 15.475844,4.20017024 15.1096548,5.62689038 Z M10.5,13 C10.2238576,13 10,12.7761424 10,12.5 C10,12.2238576 10.2238576,12 10.5,12 L11,12 C12.1045695,12 13,12.8954305 13,14 C13,15.1045695 12.1045695,16 11,16 L1.5,16 C1.22385763,16 1,15.7761424 1,15.5 C1,15.2238576 1.22385763,15 1.5,15 L11,15 C11.5522847,15 12,14.5522847 12,14 C12,13.4477153 11.5522847,13 11,13 L10.5,13 Z M3.5,19 C3.22385763,19 3,18.7761424 3,18.5 C3,18.2238576 3.22385763,18 3.5,18 L8,18 C9.1045695,18 10,18.8954305 10,20 C10,21.1045695 9.1045695,22 8,22 L6.5,22 C6.22385763,22 6,21.7761424 6,21.5 C6,21.2238576 6.22385763,21 6.5,21 L8,21 C8.55228475,21 9,20.5522847 9,20 C9,19.4477153 8.55228475,19 8,19 L3.5,19 Z"/>
</svg>
