<svg xmlns="http://www.w3.org/2000/svg" width="24" height="24" viewBox="0 0 24 24">
  <path d="M13.5,21.008331 L5.5,21.008331 C4.11928813,21.008331 3,19.8890429 3,18.508331 L3,5.5 C3,4.11928813 4.11928813,3 5.5,3 L18.5071085,3 C19.8878203,3 21.0071085,4.11928813 21.0071085,5.5 L21.0071085,13.5 C21.0071085,13.7761424 20.7832508,14 20.5071085,14 C20.2309661,14 20.0071085,13.7761424 20.0071085,13.5 L20.0071085,8 L4,8 L4,18.508331 C4,19.3367581 4.67157288,20.008331 5.5,20.008331 L13.5,20.008331 C13.7761424,20.008331 14,20.2321886 14,20.508331 C14,20.7844734 13.7761424,21.008331 13.5,21.008331 Z M20.0071085,7 L20.0071085,5.5 C20.0071085,4.67157288 19.3355356,4 18.5071085,4 L5.5,4 C4.67157288,4 4,4.67157288 4,5.5 L4,7 L20.0071085,7 Z M5,5 L6,5 L6,6 L5,6 L5,5 Z M7,5 L8,5 L8,6 L7,6 L7,5 Z M9,5 L10,5 L10,6 L9,6 L9,5 Z M20.5,18 C20.7761424,18 21,18.2238576 21,18.5 C21,18.7761424 20.7761424,19 20.5,19 L16.5,19 C16.2238576,19 16,18.7761424 16,18.5 C16,18.2238576 16.2238576,18 16.5,18 L20.5,18 Z"/>
</svg>
