<svg xmlns="http://www.w3.org/2000/svg" width="24" height="24" viewBox="0 0 24 24">
  <path d="M21.0071085,18.508331 C21.0071085,19.8890429 19.8878203,21.008331 18.5071085,21.008331 L5.5,21.008331 C4.11928813,21.008331 3,19.8890429 3,18.508331 L3,5.5 C3,4.11928813 4.11928813,3 5.5,3 L18.5071085,3 C19.8878203,3 21.0071085,4.11928813 21.0071085,5.5 L21.0071085,18.508331 Z M20.0071085,7 L20.0071085,5.5 C20.0071085,4.67157288 19.3355356,4 18.5071085,4 L5.5,4 C4.67157288,4 4,4.67157288 4,5.5 L4,7 L20.0071085,7 Z M20.0071085,8 L4,8 L4,18.508331 C4,19.3367581 4.67157288,20.008331 5.5,20.008331 L18.5071085,20.008331 C19.3355356,20.008331 20.0071085,19.3367581 20.0071085,18.508331 L20.0071085,8 Z M5,5 L6,5 L6,6 L5,6 L5,5 Z M7,5 L8,5 L8,6 L7,6 L7,5 Z M9,5 L10,5 L10,6 L9,6 L9,5 Z"/>
</svg>
