<svg xmlns="http://www.w3.org/2000/svg" width="24" height="24" viewBox="0 0 24 24">
  <path d="M11.3062658,10 L12.6937342,10 L12.4245034,9 L11.5754966,9 L11.3062658,10 Z M11.0370351,11 L8.98280788,18.6299867 C8.84747569,19.1326492 8.12985761,19.1196603 8.0128044,18.6124298 L6.25608984,11 L3.5,11 C3.22385763,11 3,10.7761424 3,10.5 C3,10.2238576 3.22385763,10 3.5,10 L6.02532061,10 L5.79455138,9 L3.5,9 C3.22385763,9 3,8.77614237 3,8.5 C3,8.22385763 3.22385763,8 3.5,8 L5.56378215,8 L5.0128044,5.61242975 C4.95071116,5.34335905 5.11849955,5.07489764 5.38757025,5.0128044 C5.65664095,4.95071116 5.92510236,5.11849955 5.9871956,5.38757025 L6.590064,8 L10.8091188,8 L11.5171921,5.37001326 C11.6500174,4.87666225 12.3499826,4.87666225 12.4828079,5.37001326 L13.1908812,8 L17.409936,8 L18.0128044,5.38757025 C18.0748976,5.11849955 18.3433591,4.95071116 18.6124298,5.0128044 C18.8815005,5.07489764 19.0492888,5.34335905 18.9871956,5.61242975 L18.4362178,8 L20.5,8 C20.7761424,8 21,8.22385763 21,8.5 C21,8.77614237 20.7761424,9 20.5,9 L18.2054486,9 L17.9746794,10 L20.5,10 C20.7761424,10 21,10.2238576 21,10.5 C21,10.7761424 20.7761424,11 20.5,11 L17.7439102,11 L15.9871956,18.6124298 C15.8701424,19.1196603 15.1525243,19.1326492 15.0171921,18.6299867 L12.9629649,11 L11.0370351,11 Z M7.05160246,10 L10.2706572,10 L10.539888,9 L6.82083323,9 L7.05160246,10 Z M7.28237169,11 L8.53732005,16.4381095 L10.0014265,11 L7.28237169,11 L7.28237169,11 Z M13.7293428,10 L16.9483975,10 L17.1791668,9 L13.460112,9 L13.7293428,10 L13.7293428,10 Z M13.9985735,11 L15.46268,16.4381095 L16.7176283,11 L13.9985735,11 Z M11.8447274,8 L12.1552726,8 L12,7.42327315 L11.8447274,8 Z"/>
</svg>
