<svg xmlns="http://www.w3.org/2000/svg" width="24" height="24" viewBox="0 0 24 24">
  <path d="M12,13.2928932 L12,9.5 C12,8.67157288 11.3284271,8 10.5,8 L5.5,8 C4.67157288,8 4,8.67157288 4,9.5 L4,12.2928932 L5.14644661,11.1464466 C5.34170876,10.9511845 5.65829124,10.9511845 5.85355339,11.1464466 L8.5,13.7928932 L10.1464466,12.1464466 C10.3417088,11.9511845 10.6582912,11.9511845 10.8535534,12.1464466 L12,13.2928932 L12,13.2928932 Z M11.9874925,14.6945992 L10.5,13.2071068 L8.85355339,14.8535534 C8.65829124,15.0488155 8.34170876,15.0488155 8.14644661,14.8535534 L5.5,12.2071068 L4,13.7071068 L4,14.5 C4,15.3284271 4.67157288,16 5.5,16 L10.5,16 C11.2624802,16 11.8920849,15.4310925 11.9874925,14.6945992 L11.9874925,14.6945992 Z M5.5,7 L10.5,7 C11.8807119,7 13,8.11928813 13,9.5 L13,14.5 C13,15.8807119 11.8807119,17 10.5,17 L5.5,17 C4.11928813,17 3,15.8807119 3,14.5 L3,9.5 C3,8.11928813 4.11928813,7 5.5,7 Z M9.5,9 L10.5,9 C10.7761424,9 11,9.22385763 11,9.5 L11,10.5 C11,10.7761424 10.7761424,11 10.5,11 L9.5,11 C9.22385763,11 9,10.7761424 9,10.5 L9,9.5 C9,9.22385763 9.22385763,9 9.5,9 Z M15.5,15 C15.2238576,15 15,14.7761424 15,14.5 C15,14.2238576 15.2238576,14 15.5,14 L20.5,14 C20.7761424,14 21,14.2238576 21,14.5 C21,14.7761424 20.7761424,15 20.5,15 L15.5,15 Z M15.5,10 C15.2238576,10 15,9.77614237 15,9.5 C15,9.22385763 15.2238576,9 15.5,9 L20.5,9 C20.7761424,9 21,9.22385763 21,9.5 C21,9.77614237 20.7761424,10 20.5,10 L15.5,10 Z M3.5,5 C3.22385763,5 3,4.77614237 3,4.5 C3,4.22385763 3.22385763,4 3.5,4 L20.5,4 C20.7761424,4 21,4.22385763 21,4.5 C21,4.77614237 20.7761424,5 20.5,5 L3.5,5 Z M3.5,20 C3.22385763,20 3,19.7761424 3,19.5 C3,19.2238576 3.22385763,19 3.5,19 L20.5,19 C20.7761424,19 21,19.2238576 21,19.5 C21,19.7761424 20.7761424,20 20.5,20 L3.5,20 Z"/>
</svg>
