<svg xmlns="http://www.w3.org/2000/svg" width="24" height="24" viewBox="0 0 24 24">
  <path d="M3.5,7 C3.22385763,7 3,6.77614237 3,6.5 C3,6.22385763 3.22385763,6 3.5,6 L20.5,6 C20.7761424,6 21,6.22385763 21,6.5 C21,6.77614237 20.7761424,7 20.5,7 L3.5,7 Z M3.5,19 C3.22385763,19 3,18.7761424 3,18.5 C3,18.2238576 3.22385763,18 3.5,18 L20.5,18 C20.7761424,18 21,18.2238576 21,18.5 C21,18.7761424 20.7761424,19 20.5,19 L3.5,19 Z M12.5,15 C12.2238576,15 12,14.7761424 12,14.5 C12,14.2238576 12.2238576,14 12.5,14 L20.5,14 C20.7761424,14 21,14.2238576 21,14.5 C21,14.7761424 20.7761424,15 20.5,15 L12.5,15 Z M12.5,11 C12.2238576,11 12,10.7761424 12,10.5 C12,10.2238576 12.2238576,10 12.5,10 L20.5,10 C20.7761424,10 21,10.2238576 21,10.5 C21,10.7761424 20.7761424,11 20.5,11 L12.5,11 Z M3,11.5 C3,10.1192881 4.11928813,9 5.5,9 L7.5,9 C8.88071187,9 10,10.1192881 10,11.5 L10,13.5 C10,14.8807119 8.88071187,16 7.5,16 L5.5,16 C4.11928813,16 3,14.8807119 3,13.5 L3,11.5 Z M4,11.5 L4,13.5 C4,14.3284271 4.67157288,15 5.5,15 L7.5,15 C8.32842712,15 9,14.3284271 9,13.5 L9,11.5 C9,10.6715729 8.32842712,10 7.5,10 L5.5,10 C4.67157288,10 4,10.6715729 4,11.5 Z"/>
</svg>
