<svg xmlns="http://www.w3.org/2000/svg" width="24" height="24" viewBox="0 0 24 24">
  <path d="M12,12.6327822 L11.6384102,12 L9.5,12 C9.22385763,12 9,11.7761424 9,11.5 C9,11.2238576 9.22385763,11 9.5,11 L11.0669816,11 L8.06587843,5.74806947 C7.92887344,5.50831075 8.01217181,5.20288341 8.25193053,5.06587843 C8.49168925,4.92887344 8.79711659,5.01217181 8.93412157,5.25193053 L12.2187327,11 L12.7812673,11 L16.0658784,5.25193053 C16.2028834,5.01217181 16.5083107,4.92887344 16.7480695,5.06587843 C16.9878282,5.20288341 17.0711266,5.50831075 16.9341216,5.74806947 L13.9330184,11 L15.5,11 C15.7761424,11 16,11.2238576 16,11.5 C16,11.7761424 15.7761424,12 15.5,12 L13.3615898,12 L13,12.6327822 L13,13 L15.5,13 C15.7761424,13 16,13.2238576 16,13.5 C16,13.7761424 15.7761424,14 15.5,14 L13,14 L13,18.5 C13,18.7761424 12.7761424,19 12.5,19 C12.2238576,19 12,18.7761424 12,18.5 L12,14 L9.5,14 C9.22385763,14 9,13.7761424 9,13.5 C9,13.2238576 9.22385763,13 9.5,13 L12,13 L12,12.6327822 Z"/>
</svg>
